<svg xmlns="http://www.w3.org/2000/svg" viewBox="0 0 48 48" fill="#ea5455"><path d="M46.4 7.8H35.1V1c0-.6-.4-1-1-1H13.9c-.6 0-1 .4-1 1v21.9H1.6c-.6 0-1 .4-1 1V47c0 .6.4 1 1 1h44.8c.6 0 1-.4 1-1V8.8c0-.6-.4-1-1-1zM2.6 24.9H13V46H2.6V24.9zm12.3-1V2H33v44h-5v-8.1c0-.6-.4-1-1-1h-6.1c-.6 0-1 .4-1 1V46h-5V23.9zm7 22.1v-7.1H26V46h-4.1zm23.5 0H35.1V9.8h10.4V46z M39.5 16.6H41c.6 0 1-.4 1-1s-.4-1-1-1h-1.5c-.6 0-1 .4-1 1s.4 1 1 1zM39.5 24.8H41c.6 0 1-.4 1-1s-.4-1-1-1h-1.5c-.6 0-1 .4-1 1s.4 1 1 1zM39.5 33H41c.6 0 1-.4 1-1s-.4-1-1-1h-1.5c-.6 0-1 .4-1 1s.4 1 1 1zM39.5 41.2H41c.6 0 1-.4 1-1s-.4-1-1-1h-1.5c-.6 0-1 .4-1 1s.4 1 1 1zM8.5 30.4H7c-.6 0-1 .4-1 1s.4 1 1 1h1.5c.6 0 1-.4 1-1s-.5-1-1-1zM8.5 38.6H7c-.6 0-1 .4-1 1s.4 1 1 1h1.5c.6 0 1-.4 1-1s-.5-1-1-1zM19 9h2.9c.6 0 1-.4 1-1s-.4-1-1-1H19c-.6 0-1 .4-1 1s.4 1 1 1zM26.2 9H29c.6 0 1-.4 1-1s-.4-1-1-1h-2.9c-.6 0-1 .4-1 1s.5 1 1.1 1zM19 16.8h2.9c.6 0 1-.4 1-1s-.4-1-1-1H19c-.6 0-1 .4-1 1s.4 1 1 1zM26.2 16.8H29c.6 0 1-.4 1-1s-.4-1-1-1h-2.9c-.6 0-1 .4-1 1s.5 1 1.1 1zM19 24.6h2.9c.6 0 1-.4 1-1s-.4-1-1-1H19c-.6 0-1 .4-1 1s.4 1 1 1zM26.2 24.6H29c.6 0 1-.4 1-1s-.4-1-1-1h-2.9c-.6 0-1 .4-1 1s.5 1 1.1 1zM21.8 32.4c.6 0 1-.4 1-1s-.4-1-1-1H19c-.6 0-1 .4-1 1s.4 1 1 1h2.8zM26.2 32.4H29c.6 0 1-.4 1-1s-.4-1-1-1h-2.9c-.6 0-1 .4-1 1s.5 1 1.1 1z"/></svg>