<svg xmlns="http://www.w3.org/2000/svg" width="24" height="24" viewBox="0 0 24 24"><g fill="#00cfe8" fill-rule="nonzero"><g transform="translate(5)"><path d="M7 13A6 6 0 1 0 7 1a6 6 0 0 0 0 12zm0 1A7 7 0 1 1 7 0a7 7 0 0 1 0 14z"/><g transform="translate(1 2)"><path d="M6 11a5.987 5.987 0 004.62-2.172A1.997 1.997 0 009.004 8H2.997c-.655 0-1.25.319-1.618.827A5.987 5.987 0 006 11zM2.997 7h6.006A3 3 0 0111.8 8.92 6.993 6.993 0 016 12 6.993 6.993 0 01.2 8.92 2.998 2.998 0 012.997 7zM6 5a2 2 0 100-4 2 2 0 000 4zm0 1a3 3 0 110-6 3 3 0 010 6z"/></g></g><path d="M5 23a4 4 0 1 0 0-8 4 4 0 0 0 0 8zm0 1a5 5 0 1 1 0-10 5 5 0 0 1 0 10z"/><path d="M5 23c1.02 0 1.974-.383 2.702-1.05A2.005 2.005 0 005.998 21H4.002a2 2 0 00-1.705.949A3.985 3.985 0 005 23zm-.998-3h1.996c1.364 0 2.516.911 2.881 2.155A4.99 4.99 0 015 24a4.99 4.99 0 01-3.88-1.845A2.999 2.999 0 014.002 20zM5 18.5a1 1 0 100-2 1 1 0 000 2zm0 1a2 2 0 110-4 2 2 0 010 4zM19 23a4 4 0 100-8 4 4 0 000 8zm0 1a5 5 0 110-10 5 5 0 010 10z"/><path d="M19 23c1.02 0 1.974-.383 2.702-1.05a2.005 2.005 0 00-1.704-.95h-1.996a2 2 0 00-1.705.949A3.985 3.985 0 0019 23zm-.998-3h1.996c1.364 0 2.516.911 2.881 2.155A4.99 4.99 0 0119 24a4.99 4.99 0 01-3.88-1.845A2.999 2.999 0 0118.002 20zM19 18.5a1 1 0 100-2 1 1 0 000 2zm0 1a2 2 0 110-4 2 2 0 010 4zM17.854 14.146l-2-2-.708.708 2 2z"/><path d="M8.854 14.146l-2-2-.708.708 2 2z" transform="matrix(-1 0 0 1 15 0)"/></g></svg>