<?xml version="1.0" encoding="utf-8"?>
<!-- Generator: Adobe Illustrator 24.3.0, SVG Export Plug-In . SVG Version: 6.00 Build 0)  -->
<svg version="1.1" id="Layer_1" xmlns="http://www.w3.org/2000/svg" xmlns:xlink="http://www.w3.org/1999/xlink" x="0px" y="0px"
	 viewBox="0 0 512 512" style="enable-background:new 0 0 512 512;" xml:space="preserve">
<style type="text/css">
	.st0{fill:#FFC048;}
</style>
<g>
	<path class="st0" d="M256,0C114.7,0,0,114.5,0,255.8c0,0.1,0,0.1,0,0.2c0,141.3,114.5,256,255.8,256c0.1,0,0.1,0,0.2,0
		c141.3,0,256-114.5,256-255.8c0-0.1,0-0.1,0-0.2C512,114.7,397.5,0,256.2,0C256.1,0,256.1,0,256,0z M256,440.4
		c-21.4,0-38.7-17.2-38.8-38.6c0-21.4,17.2-38.7,38.6-38.8s38.7,17.2,38.8,38.6c0,0.1,0,0.1,0,0.2
		C294.5,423.1,277.3,440.3,256,440.4L256,440.4z M302.8,121.7l-14.6,196.9c-0.2,2.8-2.5,5-5.4,5h-53.7c-2.8,0-5.2-2.2-5.4-5
		l-14.6-196.9c-1.6-25.9,18.1-48.1,43.9-49.7c25.9-1.6,48.1,18.1,49.7,43.9C302.9,117.9,302.9,119.8,302.8,121.7z"/>
</g>
</svg>
