<?xml version="1.0" encoding="utf-8"?>
<!-- Generator: Adobe Illustrator 24.3.0, SVG Export Plug-In . SVG Version: 6.00 Build 0)  -->
<svg version="1.1" id="Layer_1" xmlns="http://www.w3.org/2000/svg" xmlns:xlink="http://www.w3.org/1999/xlink" x="0px" y="0px"
	 viewBox="0 0 512 512" style="enable-background:new 0 0 512 512;" xml:space="preserve">
<style type="text/css">
	.st0{fill:#E64C3C;}
	.st1{fill:#C03A2B;}
	.st2{fill:#547580;}
	.st3{fill:#F0C419;}
	.st4{fill:#CB8252;}
	.st5{fill:#F9EAB0;}
	.st6{fill:#B0D3F0;}
</style>
<g>
	<g>
		<g>
			<path class="st0" d="M350.1,446.7h2.5v-2.5V144.8c0-15.6-12.6-28.2-28.2-28.2h-17.1H33.6c-15.6,0-28.2,12.6-28.2,28.2v273.7
				c0,15.6,12.6,28.2,28.2,28.2H350.1z"/>
			<path d="M355.5,449.6H33.6c-17.2,0-31.1-14-31.1-31.1V144.8c0-17.2,14-31.1,31.1-31.1h290.8c17.2,0,31.1,14,31.1,31.1V449.6z
				 M33.6,119.6c-13.9,0-25.2,11.3-25.2,25.2v273.7c0,13.9,11.3,25.2,25.2,25.2h316V144.8c0-13.9-11.3-25.2-25.2-25.2H33.6z"/>
		</g>
		<g>
			<path d="M355.1,449.1H33.6C16.7,449.1,3,435.4,3,418.5V144.8c0-16.9,13.7-30.6,30.6-30.6h290.8c16.9,0,30.6,13.7,30.6,30.6
				L355.1,449.1L355.1,449.1z M33.6,119.2c-14.1,0-25.7,11.5-25.7,25.7v273.7c0,14.1,11.5,25.7,25.7,25.7h316.5V144.8
				c0-14.1-11.5-25.7-25.7-25.7L33.6,119.2L33.6,119.2z"/>
			<path d="M355.1,452.1H33.6C15.1,452.1,0,437,0,418.5V144.8c0-18.5,15.1-33.6,33.6-33.6h290.8c18.5,0,33.6,15.1,33.6,33.6v304.3
				h-2.9V452.1z M33.6,122.2c-12.5,0-22.7,10.2-22.7,22.7v273.7c0,12.5,10.2,22.7,22.7,22.7h313.5V144.8c0-12.5-10.2-22.7-22.7-22.7
				H36.6v0.1H33.6z"/>
		</g>
	</g>
	<g>
		<g>
			<path class="st1" d="M347.5,444.2v2.5h2.5h128.4c15.6,0,28.2-12.6,28.2-28.2V333c0-15.6-12.6-28.2-28.2-28.2h-6.8l-33.7-87.7l0,0
				c-2.7-6.9-7.4-12.8-13.5-17.1c-6.1-4.2-13.3-6.4-20.8-6.4l0,0h-53.5h-2.5v2.5L347.5,444.2L347.5,444.2z"/>
			<path d="M478.4,449.6H344.6v-8.4h0.1V190.7h58.9c8,0,15.7,2.4,22.4,6.9c6.7,4.7,11.8,11,14.6,18.5l33,85.8h4.8
				c17.2,0,31.1,14,31.1,31.1v85.5C509.5,435.7,495.6,449.6,478.4,449.6z M350.6,443.7h127.8c13.9,0,25.2-11.3,25.2-25.2V333
				c0-13.9-11.3-25.2-25.2-25.2h-8.9l-34.4-89.6c-2.4-6.3-6.8-11.8-12.5-15.7c-5.7-3.9-12.3-5.9-19.1-5.9h-53V443.7z"/>
		</g>
		<g>
			<path d="M478.4,449.1H345.1v-258h58.5c8,0,15.6,2.4,22.2,6.9c6.5,4.4,11.6,10.8,14.4,18.2v0.1l33,86h5.1
				c16.9,0,30.6,13.7,30.6,30.6v85.5C509,435.4,495.3,449.1,478.4,449.1z M350.1,444.2h128.3c14.1,0,25.7-11.5,25.7-25.7V333
				c0-14.1-11.5-25.7-25.7-25.7h-8.6l-34.3-89.4c-2.5-6.4-6.8-12-12.6-15.8c-5.7-4-12.5-6-19.4-6h-53.5L350.1,444.2L350.1,444.2z"/>
			<path d="M478.4,452.1H342.1V188.2h61.5c8.6,0,16.8,2.6,23.9,7.4c7.1,4.8,12.4,11.6,15.5,19.6l0.2,0.6l32.1,83.6h3.1
				c18.5,0,33.6,15.1,33.6,33.6v85.5C512,437,496.9,452.1,478.4,452.1z M353.1,441.2h125.3c12.5,0,22.7-10.2,22.7-22.7V333
				c0-12.5-10.2-22.7-22.7-22.7h-10.6l-35-91.3c-2.3-5.9-6.2-10.9-11.4-14.4c-5.3-3.6-11.4-5.5-17.7-5.5h-50.5V441.2z"/>
		</g>
	</g>
	<g>
		<g>
			<path class="st2" d="M418.5,489.5c25,0,45.3-20.3,45.3-45.3c0-25-20.3-45.3-45.3-45.3c-25,0-45.3,20.3-45.3,45.3
				C373.2,469.2,393.5,489.5,418.5,489.5z"/>
			<path d="M418.5,492.4c-26.6,0-48.2-21.6-48.2-48.2c0-26.6,21.6-48.2,48.2-48.2c26.6,0,48.2,21.6,48.2,48.2
				C466.7,470.8,445.1,492.4,418.5,492.4z M418.5,401.9c-23.3,0-42.3,19-42.3,42.3c0,23.3,19,42.3,42.3,42.3
				c23.3,0,42.3-19,42.3-42.3C460.8,420.9,441.8,401.9,418.5,401.9z"/>
		</g>
		<g>
			<path d="M418.5,491.9c-26.4,0-47.7-21.4-47.7-47.7s21.4-47.7,47.7-47.7s47.7,21.4,47.7,47.7S444.9,491.9,418.5,491.9z
				 M418.5,401.4c-23.6,0-42.8,19.2-42.8,42.8c0,23.6,19.2,42.8,42.8,42.8c23.6,0,42.8-19.2,42.8-42.8
				C461.3,420.6,442.1,401.4,418.5,401.4z"/>
			<path d="M418.5,494.9c-28,0-50.7-22.7-50.7-50.7c0-28,22.7-50.7,50.7-50.7c28,0,50.7,22.7,50.7,50.7
				C469.2,472.2,446.5,494.9,418.5,494.9z M418.5,404.4c-22,0-39.8,17.9-39.8,39.8s17.9,39.8,39.8,39.8c22,0,39.8-17.9,39.8-39.8
				S440.5,404.4,418.5,404.4z"/>
		</g>
	</g>
	<g>
		<g>
			<path class="st2" d="M110.6,489.5c25,0,45.3-20.3,45.3-45.3c0-25-20.3-45.3-45.3-45.3s-45.3,20.3-45.3,45.3
				C65.3,469.2,85.6,489.5,110.6,489.5z"/>
			<path d="M110.6,492.4c-26.6,0-48.2-21.6-48.2-48.2c0-26.6,21.6-48.2,48.2-48.2c26.6,0,48.2,21.6,48.2,48.2
				C158.8,470.8,137.2,492.4,110.6,492.4z M110.6,401.9c-23.3,0-42.3,19-42.3,42.3c0,23.3,19,42.3,42.3,42.3s42.3-19,42.3-42.3
				C152.9,420.9,133.9,401.9,110.6,401.9z"/>
		</g>
		<g>
			<path d="M110.6,491.9c-26.4,0-47.7-21.4-47.7-47.7s21.4-47.8,47.7-47.8c26.4,0,47.7,21.4,47.7,47.7S137,491.9,110.6,491.9z
				 M110.6,401.4c-23.6,0-42.8,19.2-42.8,42.8c0,23.6,19.2,42.8,42.8,42.8s42.8-19.2,42.8-42.8C153.4,420.6,134.2,401.4,110.6,401.4
				z"/>
			<path d="M110.6,494.9c-28,0-50.7-22.7-50.7-50.7c0-28,22.7-50.8,50.7-50.8c28,0,50.7,22.7,50.7,50.7
				C161.3,472.1,138.6,494.9,110.6,494.9z M110.6,404.4c-22,0-39.8,17.9-39.8,39.8S88.6,484,110.6,484c22,0,39.8-17.9,39.8-39.8
				S132.6,404.4,110.6,404.4z"/>
		</g>
	</g>
	<g>
		<g>
			<path class="st3" d="M8,150.8H5.4v2.5v34.2v2.5h2.5h25.7c3,0,5.7-1.2,7.8-3.3s3.3-4.8,3.3-7.8v-17.1c0-3-1.2-5.7-3.3-7.8
				c-2.1-2.1-4.8-3.3-7.8-3.3L8,150.8L8,150.8z M8,356.1H5.4v2.5v42.8v2.5h2.5h25.7c3,0,5.7-1.2,7.8-3.3c2.1-2.1,3.3-4.8,3.3-7.8
				v-25.7c0-3-1.2-5.7-3.3-7.8c-2.1-2.1-4.8-3.3-7.8-3.3L8,356.1L8,356.1z"/>
			<path d="M33.6,406.8H2.5v-53.7H5v-0.1h28.6c3.7,0,7.2,1.5,9.9,4.1c2.7,2.7,4.1,6.2,4.1,9.9v25.7c0,3.7-1.5,7.2-4.1,9.9
				C40.8,405.4,37.3,406.8,33.6,406.8z M8.4,400.9h25.2c2.1,0,4.2-0.8,5.7-2.4c1.5-1.5,2.4-3.6,2.4-5.7v-25.7c0-2.1-0.8-4.2-2.4-5.7
				c-1.5-1.5-3.6-2.4-5.7-2.4H11l-2.6,0.1V400.9z M33.6,192.9H2.5v-45.1H5v-0.1h28.6c3.7,0,7.2,1.5,9.9,4.1c2.7,2.7,4.1,6.2,4.1,9.9
				v17.1c0,3.7-1.5,7.2-4.1,9.9C40.8,191.5,37.3,192.9,33.6,192.9z M8.4,187h25.2c2.1,0,4.2-0.8,5.7-2.4c1.5-1.5,2.4-3.6,2.4-5.7
				v-17.1c0-2.1-0.8-4.2-2.4-5.7c-1.5-1.5-3.6-2.4-5.7-2.4H11v0.1H8.4V187z"/>
		</g>
		<g>
			<path d="M33.6,406.4H3v-52.8h30.6c3.7,0,7,1.4,9.6,4c2.6,2.6,4,5.9,4,9.6v25.7c0,3.7-1.4,7-4,9.6C40.6,405,37.3,406.4,33.6,406.4
				z M8,401.4h25.7c2.3,0,4.4-0.9,6-2.5c1.6-1.6,2.5-3.8,2.5-6v-25.7c0-2.3-0.9-4.4-2.5-6c-1.6-1.6-3.8-2.5-6-2.5H8
				C8,358.7,8,401.4,8,401.4z M33.6,192.5H3v-44.3h30.6c3.7,0,7,1.4,9.6,4c2.6,2.6,4,5.9,4,9.6v17.1c0,3.7-1.4,7-4,9.6
				C40.6,191.2,37.3,192.5,33.6,192.5z M8,187.6h25.7c2.3,0,4.4-0.9,6-2.5c1.6-1.6,2.5-3.8,2.5-6V162c0-2.3-0.9-4.4-2.5-6
				c-1.6-1.6-3.8-2.5-6-2.5H8C8,153.5,8,187.6,8,187.6z"/>
			<path d="M33.6,409.4H0v-58.7h33.6c4.4,0,8.6,1.7,11.7,4.8c3.1,3.1,4.8,7.3,4.8,11.7v25.7c0,4.4-1.7,8.6-4.8,11.7
				C42,407.7,37.9,409.4,33.6,409.4z M11,398.4h22.7c1.5,0,2.9-0.6,3.9-1.6c1-1,1.6-2.5,1.6-3.9v-25.7c0-1.5-0.6-2.9-1.6-3.9
				s-2.5-1.6-3.9-1.6H11V398.4z M33.6,195.5H0v-50.2h33.6c4.4,0,8.6,1.7,11.7,4.8c3.1,3.1,4.8,7.3,4.8,11.7v17.1
				c0,4.4-1.7,8.6-4.8,11.7C42.2,193.7,38.1,195.5,33.6,195.5z M11,184.6h22.7c1.5,0,2.9-0.6,3.9-1.6c1-1,1.6-2.5,1.6-3.9V162
				c0-1.5-0.6-2.9-1.6-3.9c-1-1-2.5-1.6-3.9-1.6H11V184.6z"/>
		</g>
	</g>
	<g>
		<g>
			<path class="st4" d="M273.1,22.5H119.2c-20.4,0-36.8,16.5-36.8,36.8v153.9c0,20.3,16.4,36.7,36.7,36.7H273
				c20.3,0,36.7-16.4,36.7-36.7V59.3C309.9,39,293.4,22.5,273.1,22.5z"/>
			<path d="M273,252.8H119.1c-21.9,0-39.6-17.8-39.6-39.6V59.3c0-21.9,17.8-39.7,39.7-39.7h153.9c10.6,0,20.6,4.2,28.1,11.7
				c7.4,7.5,11.5,17.5,11.4,28v153.9C312.6,235.1,294.9,252.8,273,252.8z M119.2,25.5c-18.6,0-33.8,15.2-33.8,33.8v153.9
				c0,18.6,15.1,33.7,33.7,33.7H273c18.6,0,33.7-15.1,33.7-33.7V59.3c0.1-9-3.3-17.4-9.7-23.8c-6.4-6.4-14.9-10-23.9-10H119.2z"/>
		</g>
		<g>
			<path d="M273.1,252.4H119.2c-21.6,0-39.2-17.6-39.2-39.2V59.3c0-21.6,17.6-39.2,39.2-39.2h154c21.6,0,39.2,17.6,39.2,39.2v153.9
				C312.3,234.8,294.7,252.4,273.1,252.4z M119.2,25.1C100.3,25.1,85,40.4,85,59.3v153.9c0,18.9,15.3,34.2,34.2,34.2h154
				c18.9,0,34.2-15.3,34.2-34.2V59.3c0-18.9-15.3-34.2-34.2-34.2C273.2,25.1,119.2,25.1,119.2,25.1z"/>
			<path d="M273.1,255.4H119.2c-23.3,0-42.2-18.9-42.2-42.2V59.3c0-23.3,18.9-42.2,42.2-42.2h154c23.3,0,42.2,18.9,42.2,42.2v153.9
				C315.3,236.5,296.3,255.4,273.1,255.4z M119.2,28.1C102,28.1,88,42.1,88,59.3v153.9c0,17.2,14,31.2,31.2,31.2h154
				c17.2,0,31.2-14,31.2-31.2V59.3c0-17.2-14-31.2-31.2-31.2H119.2z"/>
		</g>
	</g>
	<g>
		<g>
			<path class="st3" d="M232.9,25.1v-2.5h-2.6h-68.4h-2.5v2.5v85.5v5l4.1-3l32.7-24.5l32.7,24.5l4.1,3v-5L232.9,25.1L232.9,25.1z"/>
			<path d="M235.9,121.5l-8.8-6.4l-31-23.2l-30.9,23.2l-8.8,6.4V19.7h79.4v2.5h0.1V121.5z M162.4,25.6v84.2l33.8-25.3l33.8,25.3
				V28.1h-0.1v-2.5H162.4z"/>
		</g>
		<g>
			<path d="M235.3,120.6l-39.2-29.5l-39.2,29.5V20.1h78.5V120.6z M196.1,84.9l34.2,25.7V25.1h-68.4v85.5L196.1,84.9z"/>
			<path d="M153.9,126.5V17.1h84.4v109.4l-42.2-31.7L153.9,126.5z M196.1,81.2l31.2,23.5V28.1h-62.5v76.6L196.1,81.2z"/>
		</g>
	</g>
	<g>
		<g>
			<path class="st5" d="M119.2,224.3h85.5c3,0,5.7-1.2,7.8-3.3s3.3-4.8,3.3-7.8c0-3-1.2-5.7-3.3-7.8c-2.1-2.1-4.8-3.3-7.8-3.3h-85.5
				c-3,0-5.7,1.2-7.8,3.3s-3.3,4.8-3.3,7.8c0,3,1.2,5.7,3.3,7.8C113.4,223.1,116.2,224.3,119.2,224.3z M119.2,190.1H162
				c3,0,5.7-1.2,7.8-3.3c2.1-2.1,3.3-4.8,3.3-7.8c0-3-1.2-5.7-3.3-7.8c-2.1-2.1-4.8-3.3-7.8-3.3h-42.8c-3,0-5.7,1.2-7.8,3.3
				s-3.3,4.8-3.3,7.8c0,3,1.2,5.7,3.3,7.8C113.4,188.9,116.2,190.1,119.2,190.1z"/>
			<path d="M204.7,227.2h-85.5c-3.8,0-7.4-1.5-10-4.2c-2.6-2.6-4.1-6.1-4.1-9.9s1.5-7.2,4.1-9.9c2.7-2.7,6.2-4.1,9.9-4.1h85.5
				c3.7,0,7.2,1.5,9.9,4.1c2.7,2.7,4.1,6.2,4.1,9.9c0,3.7-1.5,7.2-4.1,9.9C211.9,225.8,208.4,227.2,204.7,227.2z M119.2,205.1
				c-2.1,0-4.2,0.8-5.7,2.4c-1.5,1.5-2.4,3.6-2.4,5.7c0,2.1,0.8,4.2,2.4,5.7c1.5,1.5,3.5,2.4,5.7,2.4h85.5c2.1,0,4.2-0.8,5.7-2.4
				c1.5-1.5,2.4-3.6,2.4-5.7c0-2.1-0.8-4.2-2.4-5.7c-1.5-1.5-3.6-2.4-5.7-2.4H119.2z M162,193h-42.8c-3.8,0-7.4-1.5-10-4.2
				c-2.6-2.6-4.1-6.1-4.1-9.9c0-3.7,1.5-7.2,4.1-9.9c2.7-2.7,6.2-4.1,9.9-4.1H162c3.7,0,7.2,1.5,9.9,4.1c2.7,2.7,4.1,6.2,4.1,9.9
				c0,3.7-1.5,7.2-4.1,9.9C169.2,191.6,165.7,193,162,193z M119.2,170.9c-2.1,0-4.2,0.8-5.7,2.4c-1.5,1.5-2.4,3.6-2.4,5.7
				c0,2.1,0.8,4.2,2.4,5.7c1.5,1.5,3.5,2.4,5.7,2.4H162c2.1,0,4.2-0.8,5.7-2.4c1.5-1.5,2.4-3.6,2.4-5.7c0-2.1-0.8-4.2-2.4-5.7
				c-1.5-1.5-3.6-2.4-5.7-2.4H119.2z"/>
		</g>
		<g>
			<path d="M204.7,226.8h-85.5c-3.7,0-7-1.4-9.6-4c-2.6-2.6-4-5.9-4-9.6c0-3.7,1.4-7,4-9.6c2.6-2.6,5.9-4,9.6-4h85.5
				c3.7,0,7,1.4,9.6,4c2.6,2.6,4,5.9,4,9.6c0,3.7-1.4,7-4,9.6C211.7,225.4,208.3,226.8,204.7,226.8z M119.2,204.7
				c-2.3,0-4.4,0.9-6,2.5c-1.6,1.6-2.5,3.8-2.5,6s0.9,4.4,2.5,6c1.6,1.6,3.8,2.5,6,2.5h85.5c2.3,0,4.4-0.9,6-2.5
				c1.6-1.6,2.5-3.8,2.5-6s-0.9-4.4-2.5-6c-1.6-1.6-3.8-2.5-6-2.5H119.2z M161.9,192.5h-42.8c-3.7,0-7-1.4-9.6-4
				c-2.6-2.6-4-5.9-4-9.6c0-3.7,1.4-7,4-9.6c2.6-2.6,5.9-4,9.6-4h42.8c3.7,0,7,1.4,9.6,4c2.6,2.6,4,5.9,4,9.6c0,3.7-1.4,7-4,9.6
				C168.9,191.2,165.6,192.5,161.9,192.5z M119.2,170.5c-2.3,0-4.4,0.9-6,2.5c-1.6,1.6-2.5,3.8-2.5,6s0.9,4.4,2.5,6
				c1.6,1.6,3.8,2.5,6,2.5H162c2.3,0,4.4-0.9,6-2.5c1.6-1.6,2.5-3.8,2.5-6s-0.9-4.4-2.5-6c-1.6-1.6-3.8-2.5-6-2.5H119.2z"/>
			<path d="M204.7,229.8h-85.5c-4.4,0-8.6-1.7-11.7-4.8c-3.1-3.1-4.8-7.3-4.8-11.7c0-4.4,1.7-8.6,4.8-11.7c3.1-3.1,7.3-4.8,11.7-4.8
				h85.5c4.4,0,8.6,1.7,11.7,4.8c3.1,3.1,4.8,7.3,4.8,11.7c0,4.4-1.7,8.6-4.8,11.7C213.2,228.1,208.9,229.8,204.7,229.8z
				 M119.2,207.7c-1.5,0-2.9,0.6-3.9,1.6c-1,1-1.6,2.5-1.6,3.9s0.6,2.9,1.6,3.9c1,1,2.5,1.6,3.9,1.6h85.5c1.5,0,2.9-0.6,3.9-1.6
				c1-1,1.6-2.5,1.6-3.9s-0.6-2.9-1.6-3.9c-1-1-2.5-1.6-3.9-1.6H119.2z M161.9,195.5h-42.8c-4.4,0-8.6-1.7-11.7-4.8
				c-3.1-3.1-4.8-7.3-4.8-11.7c0-4.4,1.7-8.6,4.8-11.7c3.1-3.1,7.3-4.8,11.7-4.8h42.8c4.4,0,8.6,1.7,11.7,4.8
				c3.1,3.1,4.8,7.3,4.8,11.7c0,4.4-1.7,8.6-4.8,11.7C170.5,193.8,166.3,195.5,161.9,195.5z M119.2,173.5c-1.5,0-2.9,0.6-3.9,1.6
				c-1,1-1.6,2.5-1.6,3.9s0.6,2.9,1.6,3.9c1,1,2.5,1.6,3.9,1.6H162c1.5,0,2.9-0.6,3.9-1.6c1-1,1.6-2.5,1.6-3.9s-0.6-2.9-1.6-3.9
				c-1-1-2.5-1.6-3.9-1.6H119.2z"/>
		</g>
	</g>
	<g>
		<g>
			<path class="st6" d="M469.8,309.9h3.7l-1.3-3.4l-34.3-89.4l0,0c-5.5-14.1-19.1-23.5-34.3-23.5h-53.5h-2.5v2.5v111.2v2.5h2.5
				L469.8,309.9L469.8,309.9z"/>
			<path d="M477.8,312.8h-10.9v-0.1H344.7V190.7h58.9c16.5,0,31,10,37.1,25.4L477.8,312.8z M350.6,306.8h118.5l-34-88.6
				c-5.1-13.1-17.5-21.6-31.5-21.6h-53V306.8z"/>
		</g>
		<g>
			<path d="M477.1,312.3H345.1V191.2h58.5c16.3,0,30.7,9.9,36.7,25.1v0.1L477.1,312.3z M350.1,307.3h119.7L435.5,218
				c-5.1-13.3-17.7-21.9-32-21.9H350L350.1,307.3L350.1,307.3z"/>
			<path d="M481.4,315.3H342.1V188.2h61.5c17.6,0,33,10.6,39.4,27l0.2,0.6L481.4,315.3z M353,304.3h112.5l-32.8-85.2
				c-4.7-12.2-16.2-20-29.3-20H353V304.3z"/>
		</g>
	</g>
	<g>
		<g>
			<path class="st3" d="M504,344.1h2.5v-2.5V333c0-15.6-12.6-28.2-28.2-28.2h-25.7h-2.5v2.5v17.1c0,10.8,8.8,19.6,19.6,19.6
				L504,344.1L504,344.1z"/>
			<path d="M509.4,347H501v-0.1h-31.3c-12.4,0-22.5-10.1-22.5-22.5v-22.5h31.1c17.2,0,31.1,14,31.1,31.1V347z M453.1,307.8v16.6
				c0,9.2,7.4,16.6,16.6,16.6h33.8v-8c0-13.9-11.3-25.2-25.2-25.2H453.1z"/>
		</g>
		<g>
			<path d="M509,346.5h-39.2c-12.2,0-22.1-9.9-22.1-22.1v-22.1h30.6c16.9,0,30.6,13.7,30.6,30.6L509,346.5L509,346.5z M452.7,307.3
				v17.1c0,9.4,7.7,17.1,17.1,17.1H504v-8.6c0-14.1-11.5-25.7-25.7-25.7L452.7,307.3L452.7,307.3z"/>
			<path d="M509,349.5h-39.2c-13.8,0-25.1-11.3-25.1-25.1v-25.1h33.6c18.5,0,33.6,15.1,33.6,33.6v13.6H509V349.5z M455.7,310.2v14.2
				c0,7.8,6.3,14.1,14.1,14.1H501v-5.6c0-12.5-10.2-22.7-22.7-22.7H455.7z"/>
		</g>
	</g>
</g>
</svg>
