<?xml version="1.0" encoding="utf-8"?>
<!-- Generator: Adobe Illustrator 24.3.0, SVG Export Plug-In . SVG Version: 6.00 Build 0)  -->
<svg version="1.1" id="Layer_1" xmlns="http://www.w3.org/2000/svg" xmlns:xlink="http://www.w3.org/1999/xlink" x="0px" y="0px"
	 viewBox="0 0 512 512" style="enable-background:new 0 0 512 512;" xml:space="preserve">
<style type="text/css">
	.st0{fill:#38D4F2;}
	.st1{fill:#ECFCFF;}
	.st2{fill:#A1F0FF;}
	.st3{fill:#FFD4CF;}
	.st4{fill:#FF593F;}
	.st5{fill:#54524F;}
	.st6{fill:#FAFAFA;}
</style>
<g>
	<path class="st0" d="M126,128c33.6-43.8,86.5-72,146-72c101.6,0,184,82.4,184,184s-82.4,184-184,184c-37,0.1-73.2-11.1-103.7-32
		L126,128z"/>
	<path class="st0" d="M320,417.6c20.6-5.6,40-14.6,57.5-26.9l35.9,35.9l45.3-45.3l-35.9-35.9c15.4-22,25.8-47.1,30.4-73.5H504v-64
		h-50.9c-4.6-26.4-15-51.5-30.4-73.5l35.9-35.9l-45.3-45.3l-35.9,35.9c-22-15.4-47-25.8-73.5-30.4V8h-64v56"/>
	<circle class="st1" cx="272" cy="240" r="136"/>
	<circle class="st2" cx="272" cy="240" r="88"/>
	<path class="st3" d="M128,200l-32,48l56,40l56-40l-32-48H128z M96,168c0,17.7,14.3,32,32,32h48c17.7,0,32-14.3,32-32V72
		c0-17.7-14.3-32-32-32h-48c-17.7,0-32,14.3-32,32V168z"/>
	<path class="st4" d="M208,96V72c0-17.7-14.3-32-32-32h-48c-17.7,0-32,14.3-32,32v24H208z"/>
	<path class="st5" d="M296,512V318.9c0-18.8-11-35.9-28.1-43.7L208,248l-56,40l-56-40l-59.9,27.2C19,283,8,300.1,8,318.9V512H296z"
		/>
	<path class="st6" d="M96,248l-11.2,59.2L152,288L96,248z M208,248l9.2,55.2L152,288L208,248z"/>
	<path class="st4" d="M142.4,288L120,472l32,32l32-32l-22.4-184H142.4z"/>
	<path d="M414.8,258.2l11.5,11.5l11.3-11.3l-24-24c-3.1-3.1-8.2-3.1-11.3,0c-1.5,1.5-2.3,3.5-2.3,5.6c0,53-33.3,101.1-82.8,119.8
		l5.7,15C372.8,355.9,408.1,310.4,414.8,258.2L414.8,258.2z M396.4,209.9l15.5-3.8C396.5,141.4,338.6,95.8,272,96
		c-14.4,0-28.7,2.1-42.3,6.3l4.7,15.3c12.2-3.7,24.9-5.6,37.6-5.6C331.2,111.8,382.7,152.3,396.4,209.9L396.4,209.9z"/>
	<path d="M370.7,240c0-26.4-10.3-51.2-29-69.9l-11.3,11.3c15.6,15.5,24.4,36.6,24.3,58.5c0,28.7-14.5,54.9-38.9,70.2l8.5,13.6
		C353.2,305.8,370.8,274.1,370.7,240z M237.2,147.7l5.6,15c23.7-8.9,51.4-6.3,72.9,7.2l8.5-13.6C298.5,140.2,265.5,137,237.2,147.7z
		"/>
	<path d="M504,200h-44.3c-4.8-23-13.9-44.8-26.7-64.5l31.3-31.3c3.1-3.1,3.1-8.2,0-11.3c0,0,0,0,0,0l-45.3-45.3c-3.2-3-8.1-3-11.3,0
		L376.5,79C356.8,66.1,335,57.1,312,52.2V8c0-4.4-3.6-8-8-8h-64c-4.4,0-8,3.6-8,8v56h16V16h48v42.8c0,3.9,2.8,7.2,6.6,7.9
		c25.3,4.4,49.3,14.3,70.3,29.1c3.2,2.2,7.5,1.9,10.2-0.9l30.3-30.3l33.9,33.9l-30.3,30.3c-2.8,2.7-3.1,7.1-0.9,10.2
		c14.7,21,24.7,45,29.1,70.3c0.7,3.8,4,6.6,7.9,6.6H496v48h-42.9c-3.9,0-7.2,2.8-7.9,6.6c-4.4,25.3-14.3,49.3-29.1,70.3
		c-2.2,3.2-1.9,7.5,0.9,10.2l30.3,30.3l-33.9,33.9l-30.3-30.3c-2.7-2.7-7.1-3.1-10.2-0.9c-16.7,11.7-35.3,20.4-55,25.7l4.2,15.5
		c19.3-5.2,37.6-13.4,54.4-24.3l31.3,31.3c3.1,3.1,8.2,3.1,11.3,0c0,0,0,0,0,0l45.3-45.3c3.1-3.1,3.1-8.2,0-11.3c0,0,0,0,0,0
		l-31.3-31.3c12.8-19.7,21.9-41.5,26.7-64.5H504c4.4,0,8-3.6,8-8v-64C512,203.6,508.4,200,504,200z"/>
	<path d="M240,224h80v16h-80V224z"/>
	<path d="M271.2,267.9l-57.8-26.3l-24-36C205.3,200,216,184.9,216,168V72c0-22.1-17.9-40-40-40h-48c-22.1,0-40,17.9-40,40v24
		c0,4.4,3.6,8,8,8h56c17.6,0,32-14.4,32-32h-16c0,8.8-7.2,16-16,16h-48V72c0-13.2,10.8-24,24-24h48c13.2,0,24,10.8,24,24v96
		c0,13.2-10.8,24-24,24h-48c-13.2,0-24-10.8-24-24v-48H88v48c0,16.9,10.7,32,26.6,37.7l-24,36l-57.8,26.3C12.9,277,0,297,0,318.9
		V504c0,4.4,3.6,8,8,8h32v-16H16V318.9c0-15.7,9.2-29.9,23.4-36.4l45.8-20.8l-8.3,44.1c-0.8,4.3,2,8.5,6.4,9.4
		c1.2,0.2,2.5,0.2,3.7-0.2l45.7-13L112.1,471c-0.3,2.4,0.5,4.9,2.3,6.6l32,32c3.1,3.1,8.2,3.1,11.3,0c0,0,0,0,0,0l32-32
		c1.7-1.7,2.6-4.2,2.3-6.6l-20.7-170.3l44.2,10.3c4.3,1,8.6-1.7,9.6-6c0.2-1,0.3-2.1,0.1-3.2l-6.7-40.4l46.2,21
		c14.3,6.5,23.4,20.7,23.4,36.4V496h-24v16h32c4.4,0,8-3.6,8-8V318.9C304,297,291.1,277,271.2,267.9L271.2,267.9z M132.3,208h39.4
		l25.3,38l-45,32.2L107,246L132.3,208z M101.5,261.8l20.5,14.6l11.8,8.5l-38.8,11.1L101.5,261.8z M175.6,469.1L152,492.7l-23.6-23.6
		l20.9-172l2.9-0.8l2.4,0.6L175.6,469.1z M171,284.2l8-5.7l23.2-16.5l5.1,30.7L171,284.2z"/>
	<path d="M56,384h16v128H56V384z M232,384h16v128h-16V384z M192,352h32v16h-32V352z"/>
</g>
</svg>
