<svg width="31" height="31" viewBox="0 0 31 31" fill="none" xmlns="http://www.w3.org/2000/svg">
<g id="arrived-destination">
<path id="Vector" fill-rule="evenodd" clip-rule="evenodd" d="M15.5129 1.93652C18.4806 1.93652 21.1679 3.13935 23.1123 5.08441C25.0574 7.02947 26.2602 9.71614 26.2602 12.6838C26.2602 17.6318 21.3783 22.9126 17.7056 26.8852C16.9911 27.6583 16.3226 28.381 15.7347 29.0552C15.6276 29.1775 15.4411 29.1901 15.3189 29.0829C15.3081 29.0735 15.2981 29.0634 15.2886 29.0527C14.7014 28.3791 14.0341 27.6577 13.3202 26.8852C9.6475 22.9126 4.76562 17.6318 4.76562 12.6838C4.76562 9.71614 5.96845 7.02884 7.91351 5.08441C9.85794 3.13935 12.5452 1.93652 15.5129 1.93652Z" fill="#EF5350"/>
<path id="Vector_2" d="M20.8945 18.375C23.8637 15.4057 23.8636 10.5917 20.8943 7.62247C17.9251 4.6533 13.111 4.65338 10.1418 7.62266C7.17262 10.5919 7.1727 15.406 10.142 18.3752C13.1113 21.3444 17.9253 21.3443 20.8945 18.375Z" fill="white"/>
<path id="Vector_3" fill-rule="evenodd" clip-rule="evenodd" d="M13.0142 16.7247C13.0142 16.9314 12.8466 17.099 12.6399 17.099C12.4332 17.099 12.2656 16.9314 12.2656 16.7247V9.14673C12.2656 8.94006 12.4332 8.77246 12.6399 8.77246C12.8466 8.77246 13.0142 8.94006 13.0142 9.14673V16.7247Z" fill="#754C24"/>
<path id="Vector_4" fill-rule="evenodd" clip-rule="evenodd" d="M12.2656 9.8811C12.2656 9.67444 12.4332 9.50684 12.6399 9.50684H16.2162C16.4229 9.50684 16.5905 9.67444 16.5905 9.8811V12.7303C16.5905 12.937 16.4229 13.1046 16.2162 13.1046H12.6399C12.4332 13.1046 12.2656 12.937 12.2656 12.7303C12.2656 12.7133 12.2656 9.89812 12.2656 9.8811Z" fill="#EF5350"/>
<path id="Vector_5" fill-rule="evenodd" clip-rule="evenodd" d="M16.5909 10.0581V12.7303C16.5909 12.9369 16.4233 13.1045 16.2167 13.1045H15.4688V10.8066C15.4688 10.3939 15.804 10.0587 16.2167 10.0587H16.5909V10.0581Z" fill="#D74B48"/>
<path id="Vector_6" fill-rule="evenodd" clip-rule="evenodd" d="M16.2174 10.4326H19.7937V10.4345C19.8643 10.4345 19.9349 10.454 19.9985 10.4956C20.1705 10.6084 20.2184 10.8396 20.105 11.0117L19.3004 12.2315L20.0861 13.4217C20.1378 13.486 20.1686 13.5673 20.1686 13.6555C20.1686 13.8621 20.001 14.0298 19.7944 14.0298H16.218C16.0114 14.0298 15.8438 13.8621 15.8438 13.6555V10.8063C15.8437 10.6002 16.0114 10.4326 16.2174 10.4326Z" fill="#EF5350"/>
<path id="Vector_7" fill-rule="evenodd" clip-rule="evenodd" d="M11.2496 17.2249C11.0386 17.2249 10.8672 17.0535 10.8672 16.8424C10.8672 16.6313 11.0386 16.46 11.2496 16.46H14.039C14.2501 16.46 14.4215 16.6313 14.4215 16.8424C14.4215 17.0535 14.2501 17.2249 14.039 17.2249H11.2496Z" fill="#754C24"/>
</g>
</svg>
