<?xml version="1.0" encoding="utf-8"?>
<!-- Generator: Adobe Illustrator 24.3.0, SVG Export Plug-In . SVG Version: 6.00 Build 0)  -->
<svg version="1.1" id="Layer_1" xmlns="http://www.w3.org/2000/svg" xmlns:xlink="http://www.w3.org/1999/xlink" x="0px" y="0px"
	 viewBox="0 0 512 512" style="enable-background:new 0 0 512 512;" xml:space="preserve">
<style type="text/css">
	.st0{fill:#E64C3C;}
	.st1{fill:#C03A2B;}
	.st2{fill:#547580;}
	.st3{fill:#F0C419;}
	.st4{fill:#B0D3F0;}
</style>
<g>
	<g>
		<path class="st0" d="M268.2,70.5H325c14.4,0,25.9,11.5,25.9,25.9v301.9H31.8c-14.4,0-25.9-11.6-25.9-25.9v-276
			c0-14.4,11.5-25.9,25.9-25.9H268.2z"/>
		<path d="M356.7,404.2h-325C14.2,404.2,0,390,0,372.5v-276c0-17.5,14.2-31.8,31.8-31.8H325c17.5,0,31.8,14.2,31.8,31.8V404.2z
			 M31.8,76.4c-11,0-20,9-20,20v276c0,11,9,20,20,20H345V96.4c0-11-9-20-20-20H31.8z"/>
	</g>
	<g>
		<path class="st1" d="M350.9,398.4h129.4c14.4,0,25.9-11.5,25.9-25.9v-86.3c0-14.4-11.5-25.9-25.9-25.9h-8.6l-34.6-90.1
			c-5.2-13.3-18-22.1-32.2-22.1h-53.9V398.4z"/>
		<path d="M480.2,404.2H345v-262h59.8c16.5,0,31.7,10.4,37.7,25.8l33.2,86.4h4.6c17.5,0,31.8,14.2,31.8,31.8v86.3
			C512,390,497.8,404.2,480.2,404.2z M356.7,392.5h123.5c11,0,20-9,20-20v-86.3c0-11-9-20-20-20h-12.6l-36-93.8
			c-4.3-10.9-15-18.3-26.8-18.3h-48.1V392.5z"/>
	</g>
	<g>
		<circle class="st2" cx="419.9" cy="398.4" r="43.1"/>
		<path d="M419.9,447.3c-27,0-49-22-49-49c0-27,22-49,49-49c27,0,49,22,49,49C468.8,425.4,446.9,447.3,419.9,447.3z M419.9,361.1
			c-20.5,0-37.2,16.7-37.2,37.2c0,20.5,16.7,37.2,37.2,37.2c20.5,0,37.2-16.7,37.2-37.2C457.1,377.8,440.4,361.1,419.9,361.1z"/>
	</g>
	<g>
		<circle class="st2" cx="109.3" cy="398.4" r="43.1"/>
		<path d="M109.3,447.3c-27,0-49-22-49-49c0-27,22-49,49-49s49,22,49,49C158.3,425.4,136.3,447.3,109.3,447.3z M109.3,361.1
			c-20.5,0-37.2,16.7-37.2,37.2c0,20.5,16.7,37.2,37.2,37.2s37.2-16.7,37.2-37.2C146.6,377.8,129.9,361.1,109.3,361.1z"/>
	</g>
	<g>
		<path class="st3" d="M5.9,105h25.9c4.8,0,8.6,3.9,8.6,8.6v17.3c0,4.8-3.9,8.6-8.6,8.6H5.9V105z M5.9,312.1h25.9
			c4.8,0,8.6,3.9,8.6,8.6v25.9c0,4.8-3.9,8.6-8.6,8.6H5.9V312.1z"/>
		<path d="M31.8,361H0v-54.8h31.8c8,0,14.5,6.5,14.5,14.5v25.9C46.2,354.6,39.7,361,31.8,361z M11.7,349.3h20c1.5,0,2.7-1.2,2.7-2.7
			v-25.9c0-1.5-1.2-2.7-2.7-2.7h-20V349.3z M31.8,145.4H0V99.2h31.8c8,0,14.5,6.5,14.5,14.5v17.3C46.2,138.9,39.7,145.4,31.8,145.4z
			 M11.7,133.7h20c1.5,0,2.7-1.2,2.7-2.7v-17.3c0-1.5-1.2-2.7-2.7-2.7h-20V133.7z"/>
	</g>
	<g>
		<path class="st4" d="M471.6,260.3H350.9V148.2h53.9c14.4,0,27.1,8.8,32.2,22.1L471.6,260.3z"/>
		<path d="M480.2,266.2H345V142.4h59.8c16.8,0,31.6,10.1,37.7,25.8L480.2,266.2z M356.7,254.4h106.4l-31.5-82
			c-4.3-11.1-14.8-18.3-26.8-18.3h-48.1V254.4z"/>
	</g>
	<g>
		<path class="st3" d="M506.1,286.2v8.6h-34.5c-9.5,0-17.3-7.7-17.3-17.3v-17.3h25.9C494.6,260.3,506.1,271.8,506.1,286.2z"/>
		<path d="M512,300.7h-40.4c-12.8,0-23.2-10.4-23.2-23.2v-23.2h31.8c17.5,0.1,31.8,14.4,31.8,31.9V300.7z M460.2,266.1v11.4
			c0,6.3,5.1,11.4,11.4,11.4h28.6v-2.7c0-11.2-8.8-20.1-20.1-20.1H460.2z"/>
	</g>
</g>
</svg>
