<?xml version="1.0" encoding="utf-8"?>
<!-- Generator: Adobe Illustrator 24.3.0, SVG Export Plug-In . SVG Version: 6.00 Build 0)  -->
<svg version="1.1" id="Layer_1" xmlns="http://www.w3.org/2000/svg" xmlns:xlink="http://www.w3.org/1999/xlink" x="0px" y="0px"
	 viewBox="0 0 512 512" style="enable-background:new 0 0 512 512;" xml:space="preserve">
<style type="text/css">
	.st0{fill:#FFD4CF;}
	.st1{fill:#FF593F;}
	.st2{fill:#54524F;}
	.st3{fill:#FAFAFA;}
</style>
<g>
	<path class="st0" d="M230.4,179.2l-34.1,51.2l59.7,42.7l59.7-42.7l-34.1-51.2H230.4z M196.3,145.1c0,18.9,15.3,34.1,34.1,34.1h51.2
		c18.9,0,34.1-15.3,34.1-34.1V42.7c0-18.9-15.3-34.1-34.1-34.1h-51.2c-18.9,0-34.1,15.3-34.1,34.1V145.1z"/>
	<path class="st1" d="M315.7,68.3V42.7c0-18.9-15.3-34.1-34.1-34.1h-51.2c-18.9,0-34.1,15.3-34.1,34.1v25.6H315.7z"/>
	<path class="st2" d="M409.6,512V306c0-20.1-11.7-38.3-30-46.6l-63.9-29L256,273.1l-59.7-42.7l-63.9,29c-18.3,8.3-30,26.5-30,46.6
		v206H409.6z"/>
	<path class="st3" d="M196.3,230.4l-11.9,63.1l71.7-20.5L196.3,230.4z M315.7,230.4l9.8,58.9L256,273.1L315.7,230.4z"/>
	<path class="st1" d="M245.8,273.1l-23.9,196.3l34.1,34.1l34.1-34.1l-23.9-196.3H245.8z"/>
	<path d="M383.1,251.7l-61.6-28l-25.6-38.4c17-6.1,28.3-22.2,28.4-40.2V42.7c0-23.5-19.1-42.7-42.7-42.7h-51.2
		c-23.5,0-42.7,19.1-42.7,42.7v25.6c0,4.7,3.8,8.5,8.5,8.5H256c18.8,0,34.1-15.3,34.1-34.1h-17.1c0,9.4-7.7,17.1-17.1,17.1h-51.2
		V42.7c0-14.1,11.5-25.6,25.6-25.6h51.2c14.1,0,25.6,11.5,25.6,25.6v102.4c0,14.1-11.5,25.6-25.6,25.6h-51.2
		c-14.1,0-25.6-11.5-25.6-25.6V93.9h-17.1v51.2c0,18,11.4,34.1,28.4,40.2l-25.6,38.4l-61.6,28c-21.3,9.7-35,31-35,54.4v197.4
		c0,4.7,3.8,8.5,8.5,8.5h34.1v-17.1h-25.6V306c0-16.7,9.8-31.9,25-38.8l48.9-22.2l-8.9,47c-0.9,4.6,2.2,9.1,6.8,10
		c1.3,0.2,2.7,0.2,3.9-0.2l48.7-13.9l-22,180.5c-0.3,2.6,0.6,5.2,2.4,7.1l34.1,34.1c3.3,3.3,8.7,3.3,12,0c0,0,0,0,0,0l34.1-34.1
		c1.9-1.9,2.8-4.5,2.4-7.1l-22.1-181.7l47.1,11c4.6,1.1,9.2-1.8,10.2-6.4c0.3-1.1,0.3-2.2,0.1-3.4l-7.2-43.1l49.3,22.4
		c15.2,6.9,25,22.1,25,38.9v188.9h-25.6V512h34.1c4.7,0,8.5-3.8,8.5-8.5V306C418.1,282.6,404.4,261.4,383.1,251.7L383.1,251.7z
		 M235,187.7H277l27,40.5L256,262.6l-48.1-34.3L235,187.7z M202.2,245.1l21.8,15.6l12.6,9l-41.4,11.8L202.2,245.1z M281.2,466.2
		L256,491.4l-25.2-25.2l22.3-183.5l3.1-0.9l2.6,0.6L281.2,466.2z M276.3,269l8.5-6.1l24.7-17.6l5.5,32.8L276.3,269z"/>
	<path d="M153.6,375.5h17.1V512h-17.1V375.5z M341.3,375.5h17.1V512h-17.1V375.5z M298.7,341.3h34.1v17.1h-34.1V341.3z"/>
</g>
</svg>
