<svg width="31" height="31" viewBox="0 0 31 31" fill="none" xmlns="http://www.w3.org/2000/svg">
<g id="bus">
<path id="Vector" d="M26.4792 7.75V9.04167H28.4167V12.9167H31V7.75H26.4792ZM4.52083 7.75H0V12.9167H2.58333V9.04167H4.52083V7.75Z" fill="#009ADA"/>
<path id="Vector_2" d="M5.16406 24.4033V27.1249C5.16406 27.4674 5.30015 27.796 5.54238 28.0382C5.78462 28.2804 6.11316 28.4165 6.45573 28.4165H9.03906C9.38163 28.4165 9.71017 28.2804 9.95241 28.0382C10.1946 27.796 10.3307 27.4674 10.3307 27.1249V24.5609L5.16406 24.4033Z" fill="#333333"/>
<path id="Vector_3" opacity="0.2" d="M9.03906 28.0934H6.45573C6.11316 28.0934 5.78462 27.9573 5.54238 27.7151C5.30015 27.4729 5.16406 27.1443 5.16406 26.8018V27.1247C5.16406 27.4672 5.30015 27.7958 5.54238 28.038C5.78462 28.2803 6.11316 28.4163 6.45573 28.4163H9.03906C9.38163 28.4163 9.71017 28.2803 9.95241 28.038C10.1946 27.7958 10.3307 27.4672 10.3307 27.1247V26.8018C10.3307 27.1443 10.1946 27.4729 9.95241 27.7151C9.71017 27.9573 9.38163 28.0934 9.03906 28.0934Z" fill="black"/>
<path id="Vector_4" d="M20.6641 24.5609V27.1249C20.6641 27.4674 20.8001 27.796 21.0424 28.0382C21.2846 28.2804 21.6132 28.4165 21.9557 28.4165H24.5391C24.8816 28.4165 25.2102 28.2804 25.4524 28.0382C25.6946 27.796 25.8307 27.4674 25.8307 27.1249V24.4033L20.6641 24.5609Z" fill="#333333"/>
<path id="Vector_5" opacity="0.2" d="M24.5391 28.0934H21.9557C21.6132 28.0934 21.2846 27.9573 21.0424 27.7151C20.8001 27.4729 20.6641 27.1443 20.6641 26.8018V27.1247C20.6641 27.4672 20.8001 27.7958 21.0424 28.038C21.2846 28.2803 21.6132 28.4163 21.9557 28.4163H24.5391C24.8816 28.4163 25.2102 28.2803 25.4524 28.038C25.6946 27.7958 25.8307 27.4672 25.8307 27.1247V26.8018C25.8307 27.1443 25.6946 27.4729 25.4524 27.7151C25.2102 27.9573 24.8816 28.0934 24.5391 28.0934Z" fill="black"/>
<path id="Vector_6" d="M6.45573 25.8331C5.99073 25.8331 5.5606 25.7001 5.18344 25.4844L5.16406 25.4883L8.09356 28.4165H9.03906C9.38163 28.4165 9.71017 28.2804 9.95241 28.0381C10.1946 27.7959 10.3307 27.4674 10.3307 27.1248V25.8331H6.45573Z" fill="url(#paint0_linear_5910_11959)"/>
<path id="Vector_7" d="M24.5391 25.8334H20.6641L23.2474 28.4167H24.5391C24.8816 28.4167 25.2102 28.2806 25.4524 28.0384C25.6946 27.7962 25.8307 27.4676 25.8307 27.125V25.4756C25.4396 25.7076 24.9938 25.8311 24.5391 25.8334Z" fill="url(#paint1_linear_5910_11959)"/>
<path id="Vector_8" d="M25.2327 3.4205C22.2425 2.5835 18.9681 2.5835 15.5 2.5835C12.0319 2.5835 8.7575 2.5835 5.76729 3.4205C5.22386 3.57402 4.74522 3.90037 4.4038 4.35016C4.06237 4.79995 3.87675 5.34872 3.875 5.91341V23.2502C3.875 23.9353 4.14717 24.5924 4.63164 25.0769C5.11611 25.5613 5.77319 25.8335 6.45833 25.8335H24.5417C25.2268 25.8335 25.8839 25.5613 26.3684 25.0769C26.8528 24.5924 27.125 23.9353 27.125 23.2502V5.91858C27.125 4.75995 26.3461 3.73308 25.2327 3.4205Z" fill="#0097CF"/>
<path id="Vector_9" d="M5.16406 5.91454C5.16406 5.33458 5.55415 4.8205 6.11215 4.66421C8.93315 3.875 12.121 3.875 15.4974 3.875C18.8738 3.875 22.0616 3.875 24.8814 4.66292C25.4406 4.8205 25.8307 5.33587 25.8307 5.91842V15.6473C24.5339 15.9663 20.6796 16.7917 15.4974 16.7917C10.3139 16.7917 6.4596 15.965 5.16406 15.6473V5.91454Z" fill="#97C6D5"/>
<path id="Vector_10" opacity="0.1" d="M24.884 4.66292C22.0642 3.875 18.8764 3.875 15.5 3.875C12.1236 3.875 8.93575 3.875 6.11475 4.66421C5.55675 4.8205 5.16667 5.33588 5.16667 5.91454V6.23746C5.16667 5.6575 5.55675 5.14342 6.11475 4.98713C8.93575 4.19792 12.1236 4.19792 15.5 4.19792C18.8764 4.19792 22.0642 4.19792 24.884 4.98583C25.4432 5.14342 25.8333 5.65879 25.8333 6.24133V5.91842C25.8333 5.33717 25.4432 4.8205 24.884 4.66421V4.66292ZM24.5417 25.5104H6.45833C5.77319 25.5104 5.11611 25.2382 4.63164 24.7538C4.14717 24.2693 3.875 23.6122 3.875 22.9271V23.25C3.875 23.9351 4.14717 24.5922 4.63164 25.0767C5.11611 25.5612 5.77319 25.8333 6.45833 25.8333H24.5417C25.2268 25.8333 25.8839 25.5612 26.3684 25.0767C26.8528 24.5922 27.125 23.9351 27.125 23.25V22.9271C27.125 23.6122 26.8528 24.2693 26.3684 24.7538C25.8839 25.2382 25.2268 25.5104 24.5417 25.5104Z" fill="black"/>
<path id="Vector_11" d="M9.6901 20.667H6.46094V23.2503H10.9818L9.6901 20.667ZM21.3151 20.667L20.0234 23.2503H24.5443V20.667H21.3151Z" fill="#F2F2F2"/>
<path id="Vector_12" d="M9.6901 20.667H6.46094V23.2503H10.9818L9.6901 20.667Z" fill="url(#paint2_linear_5910_11959)"/>
<path id="Vector_13" d="M21.3151 20.667L20.0234 23.2503H24.5443V20.667H21.3151Z" fill="url(#paint3_linear_5910_11959)"/>
<path id="Vector_14" d="M9.6901 20.667H6.46094V23.2503H10.9818L9.6901 20.667Z" fill="url(#paint4_linear_5910_11959)"/>
<path id="Vector_15" d="M21.3151 20.667L20.0234 23.2503H24.5443V20.667H21.3151Z" fill="url(#paint5_linear_5910_11959)"/>
<path id="Vector_16" opacity="0.2" d="M25.2327 3.4205C22.2425 2.5835 18.9681 2.5835 15.5 2.5835C12.0319 2.5835 8.7575 2.5835 5.76729 3.4205C5.22386 3.57402 4.74522 3.90037 4.4038 4.35016C4.06237 4.79995 3.87675 5.34872 3.875 5.91341V6.23633C3.875 5.08158 4.65388 4.056 5.76729 3.74341C8.7575 2.90641 12.0319 2.90641 15.5 2.90641C18.9681 2.90641 22.2425 2.90641 25.2327 3.74341C25.7768 3.89756 26.2558 4.22478 26.5972 4.67553C26.9387 5.12629 27.124 5.67602 27.125 6.2415V5.91858C27.125 4.75995 26.3461 3.73308 25.2327 3.4205Z" fill="white"/>
<path id="Vector_17" d="M12.2734 21.3125H18.7318V22.6042H12.2734V21.3125Z" fill="#4D4D4D"/>
<path id="Vector_18" opacity="0.1" d="M12.2734 21.3125H18.7318V21.6354H12.2734V21.3125Z" fill="black"/>
<path id="Vector_19" d="M5.16406 5.91454C5.16406 5.33458 5.55415 4.8205 6.11215 4.66421C8.93315 3.875 12.121 3.875 15.4974 3.875C18.8738 3.875 22.0616 3.875 24.8814 4.66292C25.4406 4.8205 25.8307 5.33587 25.8307 5.91842V15.6473C24.5339 15.9663 20.6796 16.7917 15.4974 16.7917C10.3139 16.7917 6.4596 15.965 5.16406 15.6473V5.91454Z" fill="url(#paint6_linear_5910_11959)"/>
<path id="Vector_20" d="M27.125 7.75016V5.91858C27.125 4.75995 26.3461 3.73308 25.2327 3.4205C22.2425 2.5835 18.9681 2.5835 15.5 2.5835C12.0319 2.5835 8.7575 2.5835 5.76729 3.4205C5.22386 3.57402 4.74522 3.90037 4.4038 4.35016C4.06237 4.79995 3.87675 5.34872 3.875 5.91341V7.75016H0V12.9168H2.58333V9.04183H3.875V23.2502C3.875 24.2034 4.39812 25.0275 5.16667 25.4757V27.1252C5.16667 27.4677 5.30275 27.7963 5.54499 28.0385C5.78722 28.2807 6.11576 28.4168 6.45833 28.4168H9.04167C9.38424 28.4168 9.71278 28.2807 9.95501 28.0385C10.1972 27.7963 10.3333 27.4677 10.3333 27.1252V25.8335H20.6667V27.1252C20.6667 27.4677 20.8028 27.7963 21.045 28.0385C21.2872 28.2807 21.6158 28.4168 21.9583 28.4168H24.5417C24.8842 28.4168 25.2128 28.2807 25.455 28.0385C25.6972 27.7963 25.8333 27.4677 25.8333 27.1252V25.4757C26.6019 25.0275 27.125 24.2034 27.125 23.2502V9.04183H28.4167V12.9168H31V7.75016H27.125Z" fill="url(#paint7_linear_5910_11959)"/>
</g>
<defs>
<linearGradient id="paint0_linear_5910_11959" x1="6.56294" y1="24.4756" x2="9.4679" y2="27.3805" gradientUnits="userSpaceOnUse">
<stop stop-opacity="0.1"/>
<stop offset="1" stop-opacity="0"/>
</linearGradient>
<linearGradient id="paint1_linear_5910_11959" x1="22.2296" y1="24.6373" x2="24.9976" y2="27.4053" gradientUnits="userSpaceOnUse">
<stop stop-opacity="0.1"/>
<stop offset="1" stop-opacity="0"/>
</linearGradient>
<linearGradient id="paint2_linear_5910_11959" x1="6.80969" y1="20.6928" x2="9.62165" y2="23.5048" gradientUnits="userSpaceOnUse">
<stop stop-opacity="0"/>
<stop offset="1" stop-opacity="0.1"/>
</linearGradient>
<linearGradient id="paint3_linear_5910_11959" x1="21.3074" y1="20.9822" x2="23.6078" y2="23.2826" gradientUnits="userSpaceOnUse">
<stop stop-opacity="0"/>
<stop offset="1" stop-opacity="0.1"/>
</linearGradient>
<linearGradient id="paint4_linear_5910_11959" x1="6.25427" y1="21.11" x2="10.9572" y2="23.302" gradientUnits="userSpaceOnUse">
<stop stop-color="white" stop-opacity="0.4"/>
<stop offset="1" stop-color="white" stop-opacity="0"/>
</linearGradient>
<linearGradient id="paint5_linear_5910_11959" x1="20.9224" y1="21.3232" x2="24.6347" y2="23.0553" gradientUnits="userSpaceOnUse">
<stop stop-color="white" stop-opacity="0.4"/>
<stop offset="1" stop-color="white" stop-opacity="0"/>
</linearGradient>
<linearGradient id="paint6_linear_5910_11959" x1="5.19506" y1="5.56321" x2="26.0077" y2="15.2688" gradientUnits="userSpaceOnUse">
<stop stop-color="white" stop-opacity="0.4"/>
<stop offset="1" stop-color="white" stop-opacity="0"/>
</linearGradient>
<linearGradient id="paint7_linear_5910_11959" x1="-0.316458" y1="8.42958" x2="28.4335" y2="21.8371" gradientUnits="userSpaceOnUse">
<stop stop-color="white" stop-opacity="0.2"/>
<stop offset="1" stop-color="white" stop-opacity="0"/>
</linearGradient>
</defs>
</svg>
