<svg height="512" viewBox="0 0 128 128" width="512" xmlns="http://www.w3.org/2000/svg"><g><path d="m101.406 76.56a24.927 24.927 0 0 1 5.644.651v-52.586h-105.3v62.738l10 10h65.15a24.846 24.846 0 0 1 24.506-20.803z" fill="#396973"/><path d="m69.553 91.113h-54.49a1.749 1.749 0 0 1 -1.237-.512l-5.313-5.314a1.75 1.75 0 0 1 -.513-1.237v-7.49a1.75 1.75 0 0 1 3.5 0v6.765l4.289 4.288h53.764a1.75 1.75 0 0 1 0 3.5z" fill="#2d4a59"/><circle cx="101.406" cy="101.403" fill="#f36a3d" r="24.844" transform="matrix(.226 -.974 .974 .226 -20.254 177.328)"/><path d="m85.212 24.625h-8v-13.878a1 1 0 0 0 -1-1h-43.625a1 1 0 0 0 -1 1v13.878h-8v-13.878a9.01 9.01 0 0 1 9-9h43.625a9.01 9.01 0 0 1 9 9z" fill="#f36a3d"/><path d="m60.687 73.125h-12.574c-1.953-1.953-3.048-3.047-5-5v-25.75h22.574v25.75z" fill="#a6d12d"/><path d="m1.75 24.625v15.375l20 15.375h21.363v-13h22.574v13h21.363l20-15.375v-15.375z" fill="#ffefa0"/><path d="m54.4 65a1.75 1.75 0 0 1 -1.75-1.75v-12.187a1.75 1.75 0 0 1 3.5 0v12.187a1.75 1.75 0 0 1 -1.75 1.75z" fill="#ecfffc"/><path d="m103.881 101.4 8.682-8.682a1.75 1.75 0 1 0 -2.475-2.475l-8.682 8.683-8.682-8.683a1.75 1.75 0 0 0 -2.475 2.475l8.683 8.682-8.683 8.683a1.75 1.75 0 1 0 2.475 2.474l8.682-8.682 8.682 8.682a1.75 1.75 0 1 0 2.475-2.474z" fill="#fc6"/></g></svg>