<svg width="38" height="31" viewBox="0 0 38 31" fill="none" xmlns="http://www.w3.org/2000/svg">
<g id="car">
<path id="Vector" opacity="0.3" d="M25.5734 27.5125L36.4234 22.0875L11.6234 9.6875L0.773438 15.1125L25.5734 27.5125Z" fill="#262626"/>
<path id="Vector_2" d="M5.37381 15.221L9.26431 14.136L6.58281 12.5938L5.22656 13.9035L5.37381 15.221ZM20.2848 22.9555L24.1753 21.8705L21.4861 20.3282L20.1298 21.638L20.2848 22.9555Z" fill="#2D3134"/>
<path id="Vector_3" opacity="0.29" d="M5.37381 15.221L9.26431 14.136L6.58281 12.5938L5.22656 13.9035L5.37381 15.221ZM20.2848 22.9555L24.1753 21.8705L21.4861 20.3282L20.1298 21.638L20.2848 22.9555Z" fill="black"/>
<path id="Vector_4" d="M23.1267 21.4132C22.6075 21.1497 22.1347 21.1187 21.786 21.2815L21.0497 21.6767C20.6777 21.8472 20.4375 22.227 20.4375 22.785C20.4375 23.8622 21.3132 25.1797 22.3905 25.7145C22.9252 25.978 23.4057 26.009 23.7622 25.8385C23.7622 25.8385 24.4907 25.451 24.5682 25.4045C24.886 25.2185 25.0797 24.8542 25.0797 24.3505C25.0797 23.2655 24.204 21.9557 23.1267 21.4132Z" fill="#2D3134"/>
<path id="Vector_5" opacity="0.29" d="M23.7812 25.8307C23.9207 25.761 24.4943 25.451 24.564 25.4045C24.8818 25.2185 25.0755 24.8542 25.0755 24.3505C25.0755 23.9165 24.936 23.4437 24.6958 23.002L23.9595 23.3972C24.1998 23.839 24.3393 24.3117 24.3393 24.7457C24.347 25.2727 24.13 25.6525 23.7812 25.8307Z" fill="black"/>
<path id="Vector_6" d="M24.3513 24.7456C24.3513 25.8229 23.4756 26.2646 22.3983 25.7221C21.3211 25.1796 20.4453 23.8699 20.4453 22.7926C20.4453 21.7154 21.3211 21.2736 22.3983 21.8161C23.4756 22.3509 24.3513 23.6684 24.3513 24.7456Z" fill="#2D3134"/>
<path id="Vector_7" d="M23.9129 24.5289C23.9129 25.3736 23.2309 25.7146 22.3861 25.2961C21.5414 24.8776 20.8594 23.8469 20.8594 23.0021C20.8594 22.1574 21.5414 21.8164 22.3861 22.2349C23.2309 22.6611 23.9129 23.6841 23.9129 24.5289Z" fill="#E5E5E5"/>
<g id="Group">
<path id="Vector_8" d="M23.3949 25.2104C23.6274 25.0787 23.7669 24.8229 23.7669 24.4587V24.3734L22.9144 24.2417L23.3949 25.2104ZM22.7129 23.5287L23.6041 23.7224C23.4181 23.2807 23.0849 22.8467 22.6819 22.5677L22.7129 23.5287ZM22.0696 23.2109L22.1006 22.2809C21.6976 22.1647 21.3644 22.2577 21.1784 22.5134L22.0696 23.2109ZM21.0156 22.9939V23.0792C21.0156 23.4434 21.1551 23.8387 21.3876 24.2029L21.8759 23.7224L21.0156 22.9939ZM22.3874 24.3502L21.8604 24.7764C22.0231 24.9237 22.2014 25.0477 22.3874 25.1407C22.5734 25.2337 22.7516 25.2879 22.9144 25.2957L22.3874 24.3502Z" fill="#2D3134"/>
</g>
<path id="Vector_9" opacity="0.11" d="M24.3513 24.7456C24.3513 25.8229 23.4756 26.2646 22.3983 25.7221C21.3211 25.1796 20.4453 23.8699 20.4453 22.7926C20.4453 21.7154 21.3211 21.2736 22.3983 21.8161C23.4756 22.3509 24.3513 23.6684 24.3513 24.7456Z" fill="black"/>
<path id="Vector_10" d="M8.22831 13.9191C7.70906 13.6556 7.23631 13.6246 6.88756 13.7873L6.15131 14.1826C5.77931 14.3531 5.53906 14.7328 5.53906 15.2908C5.53906 16.3681 6.41481 17.6856 7.49206 18.2203C8.02681 18.4838 8.50731 18.5148 8.86381 18.3443C8.86381 18.3443 9.59231 17.9568 9.66981 17.9103C9.98756 17.7243 10.1813 17.3601 10.1813 16.8563C10.1891 15.7713 9.31331 14.4616 8.22831 13.9191Z" fill="#2D3134"/>
<path id="Vector_11" opacity="0.29" d="M8.89844 18.3366C9.03794 18.2668 9.61144 17.9568 9.68119 17.9103C9.99894 17.7243 10.1927 17.3601 10.1927 16.8563C10.1927 16.4223 10.0532 15.9496 9.81294 15.5078L9.07669 15.9031C9.31694 16.3448 9.45644 16.8176 9.45644 17.2516C9.45644 17.7786 9.23944 18.1506 8.89844 18.3366Z" fill="black"/>
<path id="Vector_12" d="M9.45288 17.2437C9.45288 18.3209 8.57713 18.7627 7.49988 18.2202C6.42263 17.6777 5.54688 16.3679 5.54688 15.2907C5.54688 14.2134 6.42263 13.7717 7.49988 14.3142C8.57713 14.8567 9.45288 16.1664 9.45288 17.2437Z" fill="#2D3134"/>
<path id="Vector_13" d="M9.03006 17.0342C9.03006 17.879 8.34806 18.22 7.50331 17.8015C6.65856 17.383 5.97656 16.3522 5.97656 15.5075C5.97656 14.6627 6.65856 14.3217 7.50331 14.7402C8.34806 15.1587 9.03006 16.1895 9.03006 17.0342Z" fill="#E5E5E5"/>
<g id="Group_2">
<path id="Vector_14" d="M8.51206 17.7085C8.74456 17.5767 8.88406 17.321 8.88406 16.9567V16.8715L8.03156 16.7397L8.51206 17.7085ZM7.82231 16.0267L8.71356 16.2205C8.52756 15.7787 8.19431 15.3447 7.79131 15.0657L7.82231 16.0267ZM7.18681 15.709L7.21781 14.779C6.81481 14.6627 6.48156 14.7557 6.29556 15.0115L7.18681 15.709ZM6.13281 15.492V15.5772C6.13281 15.9415 6.27231 16.3367 6.50481 16.701L6.99306 16.2205L6.13281 15.492ZM7.50456 16.856L6.97756 17.2822C7.14031 17.4295 7.31856 17.5535 7.50456 17.6465C7.69056 17.7395 7.86881 17.7937 8.03156 17.8015L7.50456 16.856Z" fill="#2D3134"/>
</g>
<path id="Vector_15" opacity="0.11" d="M9.45288 17.2437C9.45288 18.3209 8.57713 18.7627 7.49988 18.2202C6.42263 17.6777 5.54688 16.3679 5.54688 15.2907C5.54688 14.2134 6.42263 13.7717 7.49988 14.3142C8.57713 14.8567 9.45288 16.1664 9.45288 17.2437Z" fill="black"/>
<path id="Vector_16" d="M34.1757 17.1273C32.68 15.7943 26.232 10.7258 25.1547 9.9276C24.0775 9.12935 20.1792 6.68035 17.5597 6.0061C14.9402 5.33185 14.6147 5.7271 14.08 5.61085C13.5452 5.4946 11.9565 5.1226 9.616 5.84335C8.61625 6.15335 7.4305 6.49435 6.46175 7.36235C5.17525 8.50935 4.18325 10.2918 3.70275 11.2606L3.602 11.5861C3.42375 12.1673 3.50125 12.8028 3.81125 13.3221C4.07475 13.7638 4.408 14.2753 4.656 14.5543C4.873 14.7946 5.1365 15.0503 5.36125 15.2673V15.2131C5.36125 14.3916 5.84175 13.8646 6.58575 13.8646C6.88025 13.8646 7.198 13.9498 7.5235 14.1126C8.64725 14.6706 9.554 16.0423 9.554 17.1661C9.554 17.3133 9.5385 17.4528 9.5075 17.5846L20.2722 22.9631C20.2645 22.8778 20.2567 22.7926 20.2567 22.7151C20.2567 21.8936 20.7372 21.3666 21.4813 21.3666C21.7757 21.3666 22.0935 21.4518 22.419 21.6146C23.5427 22.1726 24.4495 23.5443 24.4495 24.6681C24.4495 24.7998 24.434 24.9161 24.4107 25.0323L25.271 25.4586C25.271 25.4586 26.883 25.8771 27.9137 25.7841C28.9445 25.6911 31.068 24.9936 32.773 24.1488C34.478 23.3041 35.9195 21.8161 35.9505 21.0411C35.966 20.7466 35.6715 18.4603 34.1757 17.1273Z" fill="#FFCC00"/>
<path id="Vector_17" d="M28.1976 12.5936C28.1976 12.5936 28.1046 11.9426 28.1976 11.7721C28.2906 11.6094 28.4533 11.3536 28.6626 11.5396C28.8718 11.7256 29.1043 12.2604 28.8951 12.7564C28.6858 13.2524 28.1976 12.5936 28.1976 12.5936Z" fill="#2D3134"/>
<path id="Vector_18" opacity="0.3" d="M4.55469 10.0518C4.55469 10.0518 9.54569 13.5005 15.2807 16.585C21.0157 19.6695 24.0304 21.421 24.0304 21.421L20.4887 18.383L7.78644 10.974L4.55469 10.0518Z" fill="white"/>
<path id="Vector_19" d="M7.9145 11.0514L20.485 18.3906C20.485 18.3906 19.2683 13.0431 14.9748 10.8886C10.6813 8.73413 7.9145 11.0514 7.9145 11.0514ZM13.1535 7.08338C14.8275 6.29288 16.1915 6.05263 16.1915 5.88988C16.1915 5.72713 11.8903 5.51788 9.232 6.85088C6.57375 8.18388 6.7055 9.33088 7.713 9.20688C8.7205 9.08288 10.069 8.97438 10.4953 8.76513C10.9215 8.55588 11.7275 7.75763 13.1535 7.08338Z" fill="#2D3134"/>
<path id="Vector_20" d="M7.66752 9.0287C7.56677 9.0287 7.32652 9.00545 7.28777 8.8272C7.22577 8.5637 7.58227 7.82745 9.38802 6.92845C11.3643 5.9442 14.1465 5.8667 14.9525 5.8667C15.3633 5.8667 15.6733 5.8822 15.8825 5.90545C15.774 5.9442 15.6578 5.98295 15.5338 6.0217C14.9758 6.19995 14.131 6.4712 13.1933 6.9207C12.24 7.3702 11.5425 7.88945 11.0853 8.2227C10.845 8.3932 10.659 8.5327 10.5273 8.60245C10.2018 8.7652 9.19427 8.8737 8.31077 8.97445C8.13252 8.9977 7.95427 9.0132 7.79152 9.0287H7.66752Z" fill="#656565"/>
<path id="Vector_21" d="M18.9444 13.1364C18.7894 13.5626 21.2772 17.7631 22.0522 17.9724C22.8194 18.1816 25.1367 18.1119 27.4229 16.8486C29.7092 15.5854 30.1354 14.6089 30.0192 14.2524C29.9029 13.9036 25.5087 10.2069 24.7879 10.1371C24.0672 10.0674 19.1304 12.6171 18.9444 13.1364Z" fill="#2D3134"/>
<path id="Vector_22" opacity="0.2" d="M25.0391 22.2424C25.0391 22.2424 25.3646 21.8084 26.2403 21.7076C27.1161 21.6146 28.1856 21.6999 28.9838 22.4129C29.5806 22.9476 29.7976 23.1724 29.7976 23.1724C29.7976 23.1724 28.1081 23.7226 27.2711 23.6064C26.4418 23.4901 25.0391 22.2424 25.0391 22.2424Z" fill="white"/>
<path id="Vector_23" d="M25.2031 22.0952C25.2031 22.0952 25.5054 21.6922 26.3114 21.6069C27.1174 21.5217 28.1094 21.5992 28.8456 22.2579C29.3959 22.7462 29.5974 22.9554 29.5974 22.9554C29.5974 22.9554 28.0396 23.4669 27.2646 23.3584C26.4896 23.2499 25.2031 22.0952 25.2031 22.0952Z" fill="#E5E5E5"/>
<path id="Vector_24" opacity="0.2" d="M34.4404 20.7234C34.4404 20.7234 35.6184 19.6229 35.5564 19.3129C35.4944 18.9951 34.5876 17.4296 34.4714 17.6621C34.3551 17.8946 34.1071 18.2666 34.2001 18.5844C34.2931 18.9021 34.4636 20.4444 34.4404 20.7234Z" fill="white"/>
<path id="Vector_25" d="M34.4321 20.5066C34.4321 20.5066 35.5403 19.4061 35.4861 19.0961C35.4241 18.7783 34.5173 17.2128 34.4011 17.4453C34.2848 17.6778 34.0368 18.0498 34.1298 18.3676C34.2228 18.6776 34.4553 20.2198 34.4321 20.5066Z" fill="#E5E5E5"/>
<path id="Vector_26" d="M27.4138 25.1488L27.375 25.4898C27.375 25.4898 30.8392 25.0481 33.017 23.7073C35.187 22.3666 35.714 21.3203 35.714 21.3203C35.714 21.3203 34.04 23.1338 31.994 23.9708C29.8472 24.8388 27.4138 25.1488 27.4138 25.1488Z" fill="#2D3134"/>
<path id="Vector_27" d="M29.5205 13.9656C29.1253 13.5859 28.3735 12.9194 27.4202 12.1521C25.8702 10.8966 24.9635 10.3154 24.7465 10.2999H24.7388C24.421 10.2999 23.1578 10.8269 21.7473 11.5554C20.1275 12.3846 19.2595 12.9736 19.1355 13.1519C19.151 13.3689 19.5772 14.2911 20.3677 15.5621C21.2435 16.9649 21.879 17.6624 22.0883 17.7244C22.2045 17.7554 22.3518 17.7786 22.5223 17.7941C23.5453 17.6391 25.3123 17.2439 27.0327 16.2286C28.4897 15.3684 29.1873 14.5391 29.5205 13.9656ZM8.97525 10.7571L8.8125 11.2454L13.6485 14.0664L14.4235 10.9509L14.4003 10.9199C13.3773 10.4704 12.3697 10.2456 11.3855 10.2456C10.3547 10.2534 9.53325 10.5091 8.97525 10.7571ZM19.1665 17.2904L19.3603 16.1046C19.275 15.9264 19.1898 15.7481 19.089 15.5621C18.3605 14.1826 17.074 12.3304 15.0358 11.2376L14.5553 14.5934L19.1665 17.2904Z" fill="#656565"/>
<path id="Vector_28" opacity="0.2" d="M9.78244 13.1442C9.78244 13.3689 9.59644 13.4619 9.37169 13.3534C9.14694 13.2372 8.96094 12.9659 8.96094 12.7334C8.96094 12.5009 9.14694 12.4157 9.37169 12.5242C9.59644 12.6404 9.78244 12.9117 9.78244 13.1442Z" fill="black"/>
<path id="Vector_29" d="M8.7095 12.4463L8.53125 12.6478C8.53125 12.6478 9.8255 13.4925 9.94175 13.322C10.0658 13.1593 8.7095 12.4463 8.7095 12.4463Z" fill="#FFCC00"/>
<path id="Vector_30" opacity="0.2" d="M15.2981 16.2825C15.2981 16.5072 15.1121 16.6002 14.8873 16.4917C14.6626 16.3755 14.4766 16.1042 14.4766 15.8717C14.4766 15.647 14.6626 15.554 14.8873 15.6625C15.1121 15.7787 15.2981 16.05 15.2981 16.2825Z" fill="black"/>
<path id="Vector_31" d="M14.2251 15.5771L14.0469 15.7786C14.0469 15.7786 15.3411 16.6234 15.4574 16.4529C15.5814 16.2901 14.2251 15.5771 14.2251 15.5771Z" fill="#FFCC00"/>
<path id="Vector_32" opacity="0.2" d="M20.4552 18.3827C20.4552 18.3905 20.3157 18.9252 20.1994 19.5762C20.0909 20.1652 20.0289 22.1182 20.0134 22.467L13.8444 19.3437C13.8367 19.2197 13.7514 18.065 13.7514 17.011C13.7514 15.9027 14.0304 14.6705 14.0304 14.6627L13.9607 14.6472C13.9607 14.6627 13.6817 15.9027 13.6817 17.011C13.6817 17.9875 13.7514 19.057 13.7747 19.305L10.7057 17.755C10.6359 17.662 9.89192 16.6467 9.16342 15.1045C8.41167 13.5157 8.58992 11.5007 8.59767 11.4775L8.52792 11.4697C8.52792 11.493 8.34192 13.5235 9.10142 15.1355C9.86867 16.7475 10.6514 17.7937 10.6592 17.8015L10.6669 17.8092L20.0754 22.5832V22.529C20.0754 22.5057 20.1452 20.235 20.2614 19.5917C20.3777 18.9485 20.5172 18.406 20.5172 18.406L20.4552 18.3827Z" fill="black"/>
<path id="Vector_33" opacity="0.3" d="M27.8278 22.1808C27.8278 22.4598 27.6031 22.793 27.3241 22.9325C27.0451 23.072 26.8203 22.9558 26.8203 22.6845C26.8203 22.4055 27.0451 22.0723 27.3241 21.9328C27.6031 21.7933 27.8278 21.9018 27.8278 22.1808ZM28.6028 22.3823C28.6028 22.576 28.4478 22.8085 28.2541 22.9093C28.0603 23.0023 27.9053 22.9248 27.9053 22.731C27.9053 22.5373 28.0603 22.3048 28.2541 22.204C28.4478 22.111 28.6028 22.1885 28.6028 22.3823Z" fill="black"/>
<path id="Vector_34" d="M26.7158 22.6379C26.7158 22.7386 26.6305 22.8704 26.5297 22.9169C26.429 22.9711 26.3438 22.9246 26.3438 22.8239C26.3438 22.7231 26.429 22.5914 26.5297 22.5449C26.6305 22.4906 26.7158 22.5294 26.7158 22.6379Z" fill="white"/>
<path id="Vector_35" opacity="0.4" d="M27.621 22.3897C27.621 22.5292 27.5048 22.6997 27.373 22.7695C27.2335 22.8392 27.125 22.785 27.125 22.6455C27.125 22.506 27.2413 22.3355 27.373 22.2657C27.5048 22.196 27.621 22.2502 27.621 22.3897ZM28.4735 22.5215C28.4735 22.6222 28.3882 22.754 28.2875 22.8005C28.1868 22.8547 28.1015 22.8082 28.1015 22.7075C28.1015 22.6067 28.1868 22.475 28.2875 22.4285C28.3882 22.3742 28.4735 22.4207 28.4735 22.5215Z" fill="white"/>
<path id="Vector_36" d="M26.4345 22.0103C26.4345 22.111 26.3493 22.2428 26.2485 22.2893C26.1478 22.3435 26.0625 22.297 26.0625 22.1963C26.0625 22.0955 26.1478 21.9638 26.2485 21.9173C26.3493 21.863 26.4345 21.9095 26.4345 22.0103ZM34.7193 17.9338C34.7193 18.0345 34.634 18.1663 34.5333 18.2128C34.4325 18.267 34.3473 18.2205 34.3473 18.1198C34.3473 18.019 34.4325 17.8873 34.5333 17.8408C34.634 17.7865 34.7193 17.8253 34.7193 17.9338ZM35.068 18.422C35.068 18.5228 34.9828 18.6545 34.882 18.701C34.7813 18.7553 34.696 18.7088 34.696 18.608C34.696 18.5073 34.7813 18.3755 34.882 18.329C34.9828 18.2748 35.068 18.3213 35.068 18.422Z" fill="white"/>
<path id="Vector_37" opacity="0.3" d="M35.1805 18.7469C35.1805 18.9872 34.9867 19.2739 34.7465 19.3902C34.5062 19.5064 34.3125 19.4134 34.3125 19.1732C34.3125 18.9329 34.5062 18.6462 34.7465 18.5299C34.9867 18.4137 35.1805 18.5144 35.1805 18.7469Z" fill="black"/>
<path id="Vector_38" opacity="0.4" d="M34.9184 19.003C34.9184 19.127 34.8176 19.2743 34.7014 19.3363C34.5774 19.3983 34.4844 19.344 34.4844 19.2278C34.4844 19.1115 34.5851 18.9565 34.7014 18.8945C34.8176 18.8325 34.9184 18.879 34.9184 19.003Z" fill="white"/>
<path id="Vector_39" opacity="0.3" d="M34.8286 19.3981C34.8286 19.2044 34.6736 19.1269 34.4799 19.2199C34.4179 19.2509 34.3636 19.2896 34.3171 19.3439C34.3481 19.5531 34.3791 19.7701 34.4024 19.9561C34.4256 19.9484 34.4566 19.9406 34.4876 19.9251C34.6736 19.8321 34.8286 19.5919 34.8286 19.3981ZM25.2031 22.0874C25.5829 22.0564 26.6524 22.0021 27.3266 22.1649C28.0009 22.3276 29.1711 22.7771 29.5896 22.9476C29.5431 22.9011 29.3261 22.6841 28.8456 22.2579C28.1094 21.5991 27.1174 21.5216 26.3114 21.6069C25.5751 21.6844 25.2574 22.0254 25.2031 22.0874Z" fill="black"/>
<path id="Vector_40" d="M18.7327 16.4994C18.7327 16.4994 19.3139 16.7784 19.5774 17.1272C19.8332 17.4759 19.8332 17.6619 19.8332 17.6619C19.8332 17.6619 18.2212 18.0107 17.4229 17.4992C16.5782 16.9489 18.7327 16.4994 18.7327 16.4994ZM22.9719 17.8479L23.2664 17.8247L25.9789 16.5072L26.1262 16.2359L27.7769 15.4687L27.7072 15.3369L24.5529 16.7397L24.6459 16.8559L25.8704 16.3134L25.8007 16.3909L23.1502 17.6619L22.9719 17.8479Z" fill="#2D3134"/>
<path id="Vector_41" d="M25.8359 17.1194H26.0917L28.2539 15.5152L28.5174 14.8952L29.3467 13.8412L29.2924 13.7637L27.7347 15.5384L27.7967 15.6314L28.2152 15.2594L28.0989 15.4687L25.9057 16.9877L25.8359 17.1194ZM29.1064 22.2344L30.0054 23.0404C30.0054 23.0404 31.3074 22.7924 32.4699 22.1957C33.6324 21.5989 34.3299 20.7929 34.3299 20.7929L34.2369 19.6149C34.2369 19.6149 33.7099 20.5682 32.1909 21.3199C30.8424 21.9942 29.1064 22.2344 29.1064 22.2344Z" fill="#2D3134"/>
<path id="Vector_42" opacity="0.29" d="M32.7181 23.9398C34.4153 23.0873 35.8646 21.6458 35.8956 20.8708C35.9033 20.7391 35.9111 20.5221 35.7251 19.9098C35.7096 19.8556 35.6398 19.8478 35.6088 19.8943C35.0121 20.7468 33.9968 21.8551 32.4158 22.6146C30.7728 23.4051 28.7578 24.0793 27.2078 24.0018C26.8436 23.9863 26.7816 24.3506 26.7506 24.9241C26.7351 25.2961 27.0451 25.6061 27.4171 25.5673C28.7501 25.4356 30.8891 24.8543 32.7181 23.9398Z" fill="black"/>
<path id="Vector_43" d="M3.82719 11.5088C3.82719 11.5088 4.31544 10.261 4.58669 9.87354C4.85794 9.48604 5.16019 9.13729 5.16019 9.13729L5.07494 8.90479C5.07494 8.90479 4.50144 9.10628 4.40069 9.27678C4.29219 9.45503 3.71094 11.2608 3.71094 11.2608L3.82719 11.5088Z" fill="#CC291F"/>
<path id="Vector_44" opacity="0.2" d="M29.3705 14.1903C29.4247 14.1128 29.4712 14.0353 29.51 13.9656C29.1147 13.5858 28.363 12.9193 27.4098 12.1521C25.8598 10.8966 24.953 10.3153 24.736 10.2998H24.7283C24.4105 10.2998 23.1472 10.8268 21.7367 11.5553C20.117 12.3846 19.249 12.9736 19.125 13.1518C19.1328 13.2216 19.1792 13.3766 19.2722 13.5858C22.5815 12.5163 26.2007 12.7256 29.3705 14.1903Z" fill="black"/>
<path id="Vector_45" d="M31.6484 23.4977V24.6292L33.6867 23.614V22.4902L31.6484 23.4977Z" fill="#E5E5E5"/>
<path id="Vector_46" opacity="0.2" d="M34.4321 20.5066C34.4321 20.5066 35.5403 19.4061 35.4861 19.0961C35.4241 18.7783 34.5173 17.2128 34.4011 17.4453C34.2848 17.6778 34.0368 18.0498 34.1298 18.3676C34.2228 18.6776 34.4553 20.2198 34.4321 20.5066Z" fill="black"/>
<path id="Vector_47" d="M19.0461 13.4772C18.7981 12.865 17.0776 10.912 15.1711 9.97425C12.7686 8.79625 10.6761 8.79625 10.2499 8.85825L10.2344 8.7575C10.6684 8.6955 12.7919 8.6955 15.2176 9.88125C16.0624 10.292 16.9769 10.9662 17.8061 11.7722C18.4649 12.4077 18.9996 13.082 19.1469 13.4385L19.0461 13.4772ZM25.1919 10.4625L25.1841 10.4547C24.4091 9.889 22.3399 8.3855 20.4334 7.4555C18.0386 6.28525 16.1709 5.921 15.7601 5.921V5.8125C16.1786 5.8125 18.0696 6.17675 20.4799 7.3625C22.3941 8.30025 24.4634 9.80375 25.2461 10.3695L25.2539 10.3772L25.1919 10.4625Z" fill="#2D3134"/>
<g id="Group_3">
<path id="Vector_48" d="M10.8516 15.4998V16.2748L11.6266 16.6623V15.8873L10.8516 15.4998ZM12.4016 15.4998L11.6266 15.1123V15.8873L12.4016 16.2748V15.4998ZM11.6266 17.4373L12.4016 17.8248V17.0498L11.6266 16.6623V17.4373ZM12.4016 16.2748V17.0498L13.1766 17.4373V16.6623L12.4016 16.2748ZM13.9516 16.2748L13.1766 15.8873V16.6623L13.9516 17.0498V16.2748ZM13.1766 18.2123L13.9516 18.5998V17.8248L13.1766 17.4373V18.2123ZM13.9516 17.0498V17.8248L14.7266 18.2123V17.4373L13.9516 17.0498ZM15.5016 17.0498L14.7266 16.6623V17.4373L15.5016 17.8248V17.0498ZM14.7266 18.9873L15.5016 19.3748V18.5998L14.7266 18.2123V18.9873ZM15.5016 17.8248V18.5998L16.2766 18.9873V18.2123L15.5016 17.8248ZM18.6016 19.3748V20.1498L19.3766 20.5373V19.7623L18.6016 19.3748ZM18.6016 18.5998L17.8266 18.2123V18.9873L18.6016 19.3748V18.5998ZM17.8266 20.5373L18.6016 20.9248V20.1498L17.8266 19.7623V20.5373ZM17.0516 18.5998V19.3748L17.8266 19.7623V18.9873L17.0516 18.5998ZM17.0516 17.8248L16.2766 17.4373V18.2123L17.0516 18.5998V17.8248ZM16.2766 19.7623L17.0516 20.1498V19.3748L16.2766 18.9873V19.7623Z" fill="#2D3134"/>
</g>
<g id="Group_4">
<path id="Vector_49" d="M16.8956 9.99744L20.6156 8.13744L19.2206 7.43994L15.5781 9.29994L16.8956 9.99744Z" fill="#2D3134"/>
<path id="Vector_50" d="M18.9202 6.69603L16.5177 7.89728C16.4092 7.95153 16.3239 8.03678 16.2697 8.15303L15.8047 9.14503L16.8897 9.68753L20.2997 7.98253L19.7649 6.98278C19.7107 6.87428 19.6177 6.78903 19.5014 6.74253L19.3619 6.68053C19.2302 6.62628 19.0674 6.62628 18.9202 6.69603Z" fill="#E5E5E5"/>
<path id="Vector_51" opacity="0.11" d="M16.7813 8.16073L16.3938 7.99023C16.3473 8.03673 16.3086 8.08323 16.2853 8.14523L15.8203 9.13723L16.9053 9.67973V8.33898C16.8976 8.26923 16.8511 8.19173 16.7813 8.16073Z" fill="black"/>
<path id="Vector_52" opacity="0.29" d="M19.7738 6.9827C19.7427 6.92845 19.704 6.8742 19.6575 6.83545L17.1155 8.10645C16.9837 8.16845 16.9062 8.30795 16.9062 8.44745V9.68745L20.3163 7.98245L19.7738 6.9827Z" fill="black"/>
<path id="Vector_53" d="M19.6844 7.9823L17.3594 9.1448V8.3698L19.3744 7.3623L19.6844 7.9823Z" fill="#2D3134"/>
</g>
<path id="Vector_54" opacity="0.11" d="M25.4339 22.9246C24.8914 22.3123 21.7914 19.0573 20.9854 17.7863C19.9314 16.1356 18.2109 12.0978 15.0411 10.5866C11.8636 9.07532 8.26762 9.71857 7.18262 9.79607C6.52387 9.83482 5.50087 9.59457 4.78787 9.39307C4.32287 10.0983 3.95862 10.7803 3.71837 11.2686L3.61762 11.5941C3.43937 12.1753 3.51687 12.8108 3.82687 13.3301C4.09037 13.7718 4.42362 14.2833 4.67162 14.5623C4.88862 14.8026 5.15212 15.0583 5.37687 15.2753V15.2211C5.37687 14.3996 5.85737 13.8726 6.60137 13.8726C6.89587 13.8726 7.21362 13.9578 7.53912 14.1206C8.66287 14.6786 9.56962 16.0503 9.56962 17.1741C9.56962 17.3213 9.55412 17.4608 9.52312 17.5926L20.2879 22.9711C20.2801 22.8858 20.2724 22.8006 20.2724 22.7231C20.2724 21.9016 20.7529 21.3746 21.4969 21.3746C21.7914 21.3746 22.1091 21.4598 22.4346 21.6226C23.5584 22.1806 24.4651 23.5523 24.4651 24.6761C24.4651 24.8078 24.4496 24.9241 24.4264 25.0403L25.2866 25.4666C25.2866 25.4666 25.7361 25.5828 26.3096 25.6836C26.1701 24.5443 25.8834 23.4361 25.4339 22.9246Z" fill="black"/>
</g>
</svg>
