<svg width="35" height="35" viewBox="0 0 35 35" fill="none" xmlns="http://www.w3.org/2000/svg">
<g id="car" clip-path="url(#clip0_5910_12592)">
<path id="Vector" d="M3.64583 11.6668V10.9376C3.64575 10.8221 3.61823 10.7083 3.56556 10.6056C3.51289 10.5028 3.43656 10.414 3.34286 10.3465C3.24917 10.279 3.14078 10.2347 3.02662 10.2173C2.91247 10.1999 2.79581 10.2099 2.68625 10.2463L0.49875 10.9755C0.353614 11.0239 0.227357 11.1166 0.137849 11.2407C0.048341 11.3647 0.000116152 11.5138 0 11.6668L0 12.3959C0 12.5893 0.0768227 12.7748 0.213568 12.9115C0.350313 13.0483 0.53578 13.1251 0.729167 13.1251H5.10417V11.6668H3.64583ZM34.5013 10.9755L32.3138 10.2463C32.2042 10.2099 32.0875 10.1999 31.9734 10.2173C31.8592 10.2347 31.7508 10.279 31.6571 10.3465C31.5634 10.414 31.4871 10.5028 31.4344 10.6056C31.3818 10.7083 31.3543 10.8221 31.3542 10.9376V11.6668H29.8958V13.1251H34.2708C34.4642 13.1251 34.6497 13.0483 34.7864 12.9115C34.9232 12.7748 35 12.5893 35 12.3959V11.6668C34.9999 11.5138 34.9517 11.3647 34.8622 11.2407C34.7726 11.1166 34.6464 11.0239 34.5013 10.9755Z" fill="#78952C"/>
<path id="Vector_2" d="M0 23.3188V29.1668C0 29.5535 0.153645 29.9245 0.427136 30.198C0.700626 30.4715 1.07156 30.6251 1.45833 30.6251H5.83333C6.22011 30.6251 6.59104 30.4715 6.86453 30.198C7.13802 29.9245 7.29167 29.5535 7.29167 29.1668V26.2545L0 23.3188Z" fill="#333333"/>
<path id="Vector_3" opacity="0.2" d="M5.83333 30.2606H1.45833C1.07156 30.2606 0.700626 30.1069 0.427136 29.8334C0.153645 29.56 0 29.189 0 28.8022V29.1668C0 29.5536 0.153645 29.9245 0.427136 30.198C0.700626 30.4715 1.07156 30.6252 1.45833 30.6252H5.83333C6.22011 30.6252 6.59104 30.4715 6.86453 30.198C7.13802 29.9245 7.29167 29.5536 7.29167 29.1668V28.8022C7.29167 29.189 7.13802 29.56 6.86453 29.8334C6.59104 30.1069 6.22011 30.2606 5.83333 30.2606Z" fill="black"/>
<path id="Vector_4" d="M27.7109 26.2545V29.1668C27.7109 29.5535 27.8646 29.9245 28.1381 30.198C28.4116 30.4715 28.7825 30.6251 29.1693 30.6251H33.5443C33.931 30.6251 34.302 30.4715 34.5755 30.198C34.849 29.9245 35.0026 29.5535 35.0026 29.1668V23.3188L27.7109 26.2545Z" fill="#333333"/>
<path id="Vector_5" d="M34.1935 14.9858L30.5346 11.9817C29.9192 9.71542 28.544 7.12104 27.9621 6.08271C27.8036 5.79468 27.5812 5.54684 27.312 5.35824C27.0427 5.16963 26.7338 5.0453 26.409 4.99479C24.9375 4.76437 21.8225 4.375 17.5 4.375C13.1775 4.375 10.0625 4.76437 8.5925 4.99479C8.26775 5.04498 7.9588 5.16886 7.68933 5.35693C7.41986 5.545 7.19703 5.79227 7.03792 6.07979C6.45896 7.11521 5.08375 9.70667 4.46833 11.9715L1.00188 14.7423L0.806458 14.9858C0.772917 15.0529 0 16.6337 0 19.6875V24.3979C0 25.4013 0.681042 26.2748 1.65813 26.5198C3.43729 26.9646 6.81917 27.7083 9.47917 27.7083H25.5208C28.1808 27.7083 31.5642 26.9646 33.3419 26.5198C33.8158 26.4021 34.2367 26.129 34.5372 25.7442C34.8378 25.3593 35.0007 24.8848 35 24.3965V19.6875C35 16.6337 34.2271 15.0529 34.1935 14.9858Z" fill="#78952C"/>
<path id="Vector_6" opacity="0.2" d="M34.1935 14.9858L30.5346 11.9817C29.9192 9.71542 28.544 7.12104 27.9621 6.08271C27.8036 5.79468 27.5812 5.54684 27.312 5.35824C27.0427 5.16963 26.7338 5.0453 26.409 4.99479C24.9375 4.76437 21.8225 4.375 17.5 4.375C13.1775 4.375 10.0625 4.76437 8.5925 4.99479C8.26775 5.04498 7.9588 5.16886 7.68933 5.35693C7.41986 5.545 7.19703 5.79227 7.03792 6.07979C6.45896 7.11521 5.08375 9.70667 4.46833 11.9715L1.00188 14.7423L0.806458 14.9858C0.772917 15.0529 0 16.6337 0 19.6875V20.0521C0 16.9983 0.772917 15.4175 0.806458 15.3504L1.00188 15.1069L4.46833 12.336C5.08521 10.0712 6.45896 7.47979 7.03792 6.44438C7.19703 6.15686 7.41986 5.90959 7.68933 5.72151C7.9588 5.53344 8.26775 5.40956 8.5925 5.35937C10.0625 5.12896 13.1775 4.73958 17.5 4.73958C21.8225 4.73958 24.9375 5.12896 26.4104 5.35937C27.0696 5.46437 27.6354 5.85958 27.9621 6.44729C28.544 7.48562 29.9192 10.08 30.5346 12.3462L34.195 15.3504C34.2271 15.4175 35 16.9983 35 20.0521V19.6875C35 16.6337 34.2271 15.0529 34.1935 14.9858Z" fill="white"/>
<path id="Vector_7" d="M8.3151 6.91266C7.81927 7.90433 6.47177 10.2245 5.83594 12.396H29.1693C28.5305 10.226 27.1859 7.90579 26.6901 6.91412V6.9112C26.6439 6.80923 26.574 6.71977 26.4862 6.65027C26.3985 6.58076 26.2954 6.53323 26.1855 6.51162C25.0334 6.30745 21.8834 5.8335 17.5026 5.8335C13.1218 5.8335 9.97177 6.30745 8.82115 6.51162C8.71077 6.5328 8.60708 6.58014 8.51878 6.64967C8.43048 6.71919 8.36013 6.80888 8.31365 6.9112L8.3151 6.91266Z" fill="#97C6D5"/>
<path id="Vector_8" opacity="0.1" d="M8.3151 7.27725C8.36127 7.17482 8.43131 7.08496 8.51935 7.01518C8.6074 6.94541 8.71089 6.89775 8.82115 6.8762C9.97177 6.67204 13.1232 6.19808 17.5026 6.19808C21.882 6.19808 25.0334 6.67204 26.1855 6.8762C26.2956 6.8976 26.399 6.94504 26.4871 7.01455C26.5751 7.08407 26.6452 7.17364 26.6916 7.27579V7.2787C27.1582 8.21495 28.3774 10.3354 29.0497 12.396H29.1693C28.5305 10.226 27.1859 7.90579 26.6901 6.91412V6.9112C26.6439 6.80923 26.574 6.71977 26.4862 6.65027C26.3985 6.58076 26.2954 6.53323 26.1855 6.51162C25.0334 6.30745 21.8834 5.8335 17.5026 5.8335C13.1218 5.8335 9.97177 6.30745 8.82115 6.51162C8.71077 6.5328 8.60708 6.58014 8.51878 6.64967C8.43048 6.71919 8.36013 6.80888 8.31365 6.9112C7.81927 7.90579 6.47323 10.226 5.83594 12.396H5.95552C6.62781 10.3354 7.84844 8.21495 8.3151 7.27725Z" fill="black"/>
<path id="Vector_9" d="M17.5 17.5C12.3433 17.5 8.75 19.8056 8.75 21.875C8.75 23.6731 10.2112 24.7917 12.5635 24.7917H22.4365C24.7888 24.7917 26.25 23.6731 26.25 21.875C26.25 19.8056 22.6567 17.5 17.5 17.5Z" fill="#4D4D4D"/>
<path id="Vector_10" opacity="0.1" d="M17.5 17.8646C22.5079 17.8646 26.0458 20.0375 26.2456 22.0588C26.25 21.996 26.25 21.9392 26.25 21.875C26.25 19.8056 22.6567 17.5 17.5 17.5C12.3433 17.5 8.75 19.8056 8.75 21.875C8.75 21.9392 8.75146 21.996 8.75583 22.0588C8.95417 20.0375 12.4921 17.8646 17.5 17.8646Z" fill="black"/>
<path id="Vector_11" d="M1.65635 26.52C1.24208 26.4105 0.869581 26.1806 0.585937 25.8594L0.476562 25.871L5.23073 30.6252H5.83156C6.21834 30.6252 6.58927 30.4716 6.86276 30.1981C7.13625 29.9246 7.2899 29.5536 7.2899 29.1669V27.5729C5.16073 27.3396 2.97031 26.8481 1.65635 26.52Z" fill="url(#paint0_linear_5910_12592)"/>
<path id="Vector_12" d="M28.6038 23.116C27.7579 23.3042 26.9996 23.7912 26.476 24.4883L24.0625 27.7083H25.5208C28.1808 27.7083 31.5642 26.9646 33.3419 26.5198C33.8158 26.4021 34.2367 26.129 34.5372 25.7442C34.8378 25.3593 35.0007 24.8848 35 24.3965V21.875L28.6038 23.116Z" fill="#5E7D23"/>
<path id="Vector_13" d="M27.6408 25.3634C27.9558 24.9449 28.4079 24.6532 28.9183 24.5395L33.5398 23.6426V24.3965C33.5397 24.5592 33.4853 24.7172 33.3852 24.8453C33.285 24.9735 33.1449 25.0645 32.9871 25.1038C31.6017 25.4495 29.2173 25.9847 27.0312 26.1772L27.6408 25.3634Z" fill="#B3B3B3"/>
<path id="Vector_14" d="M6.37729 23.116L0 21.875V24.3979C0 25.4012 0.681042 26.2748 1.65813 26.5198C3.43729 26.9646 6.81917 27.7083 9.47917 27.7083H10.9375L8.505 24.4883C7.9816 23.7926 7.22712 23.3065 6.37729 23.1175V23.116Z" fill="#5E7D23"/>
<path id="Vector_15" d="M7.9549 26.1772C5.77323 25.9818 3.39469 25.4495 2.01365 25.1053C1.85559 25.0659 1.71528 24.9747 1.61511 24.8462C1.51493 24.7177 1.46066 24.5594 1.46094 24.3965V23.644L6.10136 24.5482C6.57386 24.6532 7.02594 24.9449 7.34094 25.3649L7.9549 26.1757V26.1772Z" fill="#B3B3B3"/>
<path id="Vector_16" d="M33.2242 16.6091C33.0935 16.268 32.8401 15.988 32.5136 15.824C32.1872 15.66 31.8113 15.6238 31.4596 15.7225C29.7534 16.1906 26.8483 16.5508 26.2825 18.2994C26.1936 18.5808 26.2971 19.2298 26.4721 19.4675C27.5411 20.92 29.6556 20.2739 31.1738 20.2739C31.5544 20.2739 32.0721 20.2098 32.619 20.1194C32.8178 20.0854 33.0073 20.0106 33.1757 19.8996C33.3441 19.7887 33.4877 19.644 33.5973 19.4747C33.707 19.3055 33.7803 19.1153 33.8127 18.9163C33.8451 18.7172 33.8359 18.5136 33.7856 18.3183C33.6252 17.7058 33.4181 17.1137 33.2242 16.6091Z" fill="#F2F2F2"/>
<path id="Vector_17" d="M17.5 17.5C12.3433 17.5 8.75 19.8056 8.75 21.875C8.75 23.6731 10.2112 24.7917 12.5635 24.7917H22.4365C24.7888 24.7917 26.25 23.6731 26.25 21.875C26.25 19.8056 22.6567 17.5 17.5 17.5Z" fill="url(#paint1_linear_5910_12592)"/>
<path id="Vector_18" d="M1.77937 16.6091C1.91009 16.268 2.16349 15.988 2.48991 15.824C2.81633 15.66 3.19223 15.6238 3.54396 15.7225C5.25021 16.1906 8.15521 16.5508 8.72104 18.2994C8.81 18.5808 8.70646 19.2298 8.53146 19.4675C7.4625 20.92 5.34792 20.2739 3.82979 20.2739C3.44917 20.2739 2.93146 20.2098 2.38458 20.1194C2.1858 20.0854 1.99622 20.0106 1.82782 19.8996C1.65943 19.7887 1.51587 19.644 1.40623 19.4747C1.29659 19.3055 1.22325 19.1153 1.19084 18.9163C1.15842 18.7172 1.16764 18.5136 1.21791 18.3183C1.37833 17.7058 1.58541 17.1137 1.77937 16.6091Z" fill="#F2F2F2"/>
<path id="Vector_19" d="M8.3151 6.91266C7.81927 7.90433 6.47177 10.2245 5.83594 12.396H29.1693C28.5305 10.226 27.1859 7.90579 26.6901 6.91412V6.9112C26.6439 6.80923 26.574 6.71977 26.4862 6.65027C26.3985 6.58076 26.2954 6.53323 26.1855 6.51162C25.0334 6.30745 21.8834 5.8335 17.5026 5.8335C13.1218 5.8335 9.97177 6.30745 8.82115 6.51162C8.71077 6.5328 8.60708 6.58014 8.51878 6.64967C8.43048 6.71919 8.36013 6.80888 8.31365 6.9112L8.3151 6.91266Z" fill="url(#paint2_linear_5910_12592)"/>
<path id="Vector_20" d="M27.6408 25.3634C27.9558 24.9449 28.4079 24.6532 28.9183 24.5395L33.5398 23.6426V24.3965C33.5397 24.5592 33.4853 24.7172 33.3852 24.8453C33.285 24.9735 33.1449 25.0645 32.9871 25.1038C31.6017 25.4495 29.2173 25.9847 27.0312 26.1772L27.6408 25.3634Z" fill="url(#paint3_linear_5910_12592)"/>
<path id="Vector_21" d="M7.9549 26.1772C5.77323 25.9818 3.39469 25.4495 2.01365 25.1053C1.85559 25.0659 1.71528 24.9747 1.61511 24.8462C1.51493 24.7177 1.46066 24.5594 1.46094 24.3965V23.644L6.10136 24.5482C6.57386 24.6532 7.02594 24.9449 7.34094 25.3649L7.9549 26.1757V26.1772Z" fill="url(#paint4_linear_5910_12592)"/>
<path id="Vector_22" opacity="0.1" d="M33.3419 26.1551C31.5627 26.5984 28.1808 27.3436 25.5208 27.3436H9.47917C6.81917 27.3436 3.43583 26.5999 1.65813 26.1551C1.18456 26.0372 0.764038 25.7643 0.463549 25.3798C0.16306 24.9952 -0.00011943 24.5212 6.55824e-08 24.0332V24.3978C6.55824e-08 25.404 0.681042 26.2761 1.65813 26.5211C3.43729 26.9644 6.81917 27.7082 9.47917 27.7082H25.5208C28.1808 27.7082 31.5642 26.9644 33.3419 26.5197C33.8158 26.402 34.2367 26.1289 34.5372 25.744C34.8378 25.3591 35.0007 24.8847 35 24.3963V24.0317C35 25.038 34.319 25.9101 33.3419 26.1551Z" fill="black"/>
<path id="Vector_23" opacity="0.2" d="M33.5443 30.2606H29.1693C28.7825 30.2606 28.4116 30.1069 28.1381 29.8334C27.8646 29.56 27.7109 29.189 27.7109 28.8022V29.1668C27.7109 29.5536 27.8646 29.9245 28.1381 30.198C28.4116 30.4715 28.7825 30.6252 29.1693 30.6252H33.5443C33.931 30.6252 34.302 30.4715 34.5755 30.198C34.849 29.9245 35.0026 29.5536 35.0026 29.1668V28.8022C35.0026 29.189 34.849 29.56 34.5755 29.8334C34.302 30.1069 33.931 30.2606 33.5443 30.2606Z" fill="black"/>
<path id="Vector_24" d="M33.3445 26.5198C32.032 26.8479 29.8416 27.3379 27.7153 27.5727L27.7109 27.5742L30.7618 30.625H33.5443C33.931 30.625 34.302 30.4714 34.5755 30.1979C34.849 29.9244 35.0026 29.5535 35.0026 29.1667V24.3979C35.0026 25.4013 34.3216 26.2748 33.3445 26.5198Z" fill="url(#paint5_linear_5910_12592)"/>
<path id="Vector_25" d="M33.2242 16.6091C33.0935 16.268 32.8401 15.988 32.5136 15.824C32.1872 15.66 31.8113 15.6238 31.4596 15.7225C29.7534 16.1906 26.8483 16.5508 26.2825 18.2994C26.1936 18.5808 26.2971 19.2298 26.4721 19.4675C27.5411 20.92 29.6556 20.2739 31.1738 20.2739C31.5544 20.2739 32.0721 20.2098 32.619 20.1194C32.8178 20.0854 33.0073 20.0106 33.1757 19.8996C33.3441 19.7887 33.4877 19.644 33.5973 19.4747C33.707 19.3055 33.7803 19.1153 33.8127 18.9163C33.8451 18.7172 33.8359 18.5136 33.7856 18.3183C33.6252 17.7058 33.4181 17.1137 33.2242 16.6091Z" fill="url(#paint6_linear_5910_12592)"/>
<path id="Vector_26" d="M1.77937 16.6091C1.91009 16.268 2.16349 15.988 2.48991 15.824C2.81633 15.66 3.19223 15.6238 3.54396 15.7225C5.25021 16.1906 8.15521 16.5508 8.72104 18.2994C8.81 18.5808 8.70646 19.2298 8.53146 19.4675C7.4625 20.92 5.34792 20.2739 3.82979 20.2739C3.44917 20.2739 2.93146 20.2098 2.38458 20.1194C2.1858 20.0854 1.99622 20.0106 1.82782 19.8996C1.65943 19.7887 1.51587 19.644 1.40623 19.4747C1.29659 19.3055 1.22325 19.1153 1.19084 18.9163C1.15842 18.7172 1.16764 18.5136 1.21791 18.3183C1.37833 17.7058 1.58541 17.1137 1.77937 16.6091Z" fill="url(#paint7_linear_5910_12592)"/>
<path id="Vector_27" d="M33.2242 16.6091C33.0935 16.268 32.8401 15.988 32.5136 15.824C32.1872 15.66 31.8113 15.6238 31.4596 15.7225C29.7534 16.1906 26.8483 16.5508 26.2825 18.2994C26.1936 18.5808 26.2971 19.2298 26.4721 19.4675C27.5411 20.92 29.6556 20.2739 31.1738 20.2739C31.5544 20.2739 32.0721 20.2098 32.619 20.1194C32.8178 20.0854 33.0073 20.0106 33.1757 19.8996C33.3441 19.7887 33.4877 19.644 33.5973 19.4747C33.707 19.3055 33.7803 19.1153 33.8127 18.9163C33.8451 18.7172 33.8359 18.5136 33.7856 18.3183C33.6252 17.7058 33.4181 17.1137 33.2242 16.6091Z" fill="url(#paint8_linear_5910_12592)"/>
<path id="Vector_28" d="M1.77937 16.6091C1.91009 16.268 2.16349 15.988 2.48991 15.824C2.81633 15.66 3.19223 15.6238 3.54396 15.7225C5.25021 16.1906 8.15521 16.5508 8.72104 18.2994C8.81 18.5808 8.70646 19.2298 8.53146 19.4675C7.4625 20.92 5.34792 20.2739 3.82979 20.2739C3.44917 20.2739 2.93146 20.2098 2.38458 20.1194C2.1858 20.0854 1.99622 20.0106 1.82782 19.8996C1.65943 19.7887 1.51587 19.644 1.40623 19.4747C1.29659 19.3055 1.22325 19.1153 1.19084 18.9163C1.15842 18.7172 1.16764 18.5136 1.21791 18.3183C1.37833 17.7058 1.58541 17.1137 1.77937 16.6091Z" fill="url(#paint9_linear_5910_12592)"/>
<path id="Vector_29" d="M34.2708 13.125C34.4642 13.125 34.6497 13.0482 34.7864 12.9114C34.9232 12.7747 35 12.5892 35 12.3958V11.6667C34.9999 11.5137 34.9517 11.3646 34.8622 11.2406C34.7726 11.1165 34.6464 11.0238 34.5013 10.9754L32.3138 10.2463C32.2042 10.2098 32.0875 10.1998 31.9734 10.2172C31.8592 10.2346 31.7508 10.2789 31.6571 10.3464C31.5634 10.4139 31.4871 10.5027 31.4344 10.6055C31.3818 10.7082 31.3543 10.822 31.3542 10.9375V11.6667H30.4383C29.7879 9.47917 28.5177 7.07292 27.9621 6.08125C27.8035 5.7935 27.581 5.54594 27.3117 5.3576C27.0425 5.16925 26.7337 5.04514 26.409 4.99479C24.9375 4.76437 21.8225 4.375 17.5 4.375C13.1775 4.375 10.0625 4.76437 8.5925 4.99479C8.26775 5.04498 7.9588 5.16886 7.68933 5.35693C7.41986 5.545 7.19703 5.79227 7.03792 6.07979C6.48375 7.07292 5.21208 9.47917 4.56167 11.6667H3.64583V10.9375C3.64575 10.822 3.61823 10.7082 3.56556 10.6055C3.51289 10.5027 3.43656 10.4139 3.34286 10.3464C3.24917 10.2789 3.14078 10.2346 3.02662 10.2172C2.91247 10.1998 2.79581 10.2098 2.68625 10.2463L0.49875 10.9754C0.353614 11.0238 0.227357 11.1165 0.137849 11.2406C0.048341 11.3646 0.000116152 11.5137 0 11.6667L0 12.3958C0 12.5892 0.0768227 12.7747 0.213568 12.9114C0.350313 13.0482 0.53578 13.125 0.729167 13.125H3.02458L1.00188 14.7437L0.806458 14.9858C0.772917 15.0529 0 16.6337 0 19.6875V29.1667C0 29.5534 0.153645 29.9244 0.427136 30.1979C0.700627 30.4714 1.07156 30.625 1.45833 30.625H5.83333C6.22011 30.625 6.59104 30.4714 6.86453 30.1979C7.13802 29.9244 7.29167 29.5534 7.29167 29.1667V27.5727C8.04271 27.6558 8.785 27.7083 9.47917 27.7083H25.5208C26.215 27.7083 26.9573 27.6558 27.7083 27.5727V29.1667C27.7083 29.5534 27.862 29.9244 28.1355 30.1979C28.409 30.4714 28.7799 30.625 29.1667 30.625H33.5417C33.9284 30.625 34.2994 30.4714 34.5729 30.1979C34.8464 29.9244 35 29.5534 35 29.1667V19.6875C35 16.6337 34.2271 15.0529 34.1935 14.9858L31.9273 13.125H34.2708Z" fill="url(#paint10_linear_5910_12592)"/>
</g>
<defs>
<linearGradient id="paint0_linear_5910_12592" x1="2.03698" y1="24.8765" x2="6.27781" y2="29.1173" gradientUnits="userSpaceOnUse">
<stop stop-opacity="0.1"/>
<stop offset="1" stop-opacity="0"/>
</linearGradient>
<linearGradient id="paint1_linear_5910_12592" x1="13.1206" y1="17.5962" x2="20.8731" y2="25.3487" gradientUnits="userSpaceOnUse">
<stop stop-opacity="0.1"/>
<stop offset="1" stop-opacity="0"/>
</linearGradient>
<linearGradient id="paint2_linear_5910_12592" x1="8.62135" y1="5.99683" x2="27.9501" y2="15.0093" gradientUnits="userSpaceOnUse">
<stop stop-color="white" stop-opacity="0.4"/>
<stop offset="1" stop-color="white" stop-opacity="0"/>
</linearGradient>
<linearGradient id="paint3_linear_5910_12592" x1="29.3135" y1="23.9386" x2="31.3975" y2="26.0226" gradientUnits="userSpaceOnUse">
<stop stop-opacity="0.1"/>
<stop offset="1" stop-opacity="0"/>
</linearGradient>
<linearGradient id="paint4_linear_5910_12592" x1="2.48323" y1="23.0986" x2="6.05615" y2="26.6715" gradientUnits="userSpaceOnUse">
<stop stop-opacity="0.1"/>
<stop offset="1" stop-opacity="0"/>
</linearGradient>
<linearGradient id="paint5_linear_5910_12592" x1="30.5795" y1="25.2088" x2="34.3347" y2="28.964" gradientUnits="userSpaceOnUse">
<stop stop-opacity="0.1"/>
<stop offset="1" stop-opacity="0"/>
</linearGradient>
<linearGradient id="paint6_linear_5910_12592" x1="28.314" y1="16.4312" x2="31.8125" y2="19.9312" gradientUnits="userSpaceOnUse">
<stop stop-opacity="0"/>
<stop offset="1" stop-opacity="0.1"/>
</linearGradient>
<linearGradient id="paint7_linear_5910_12592" x1="2.51583" y1="16.211" x2="6.40521" y2="20.1004" gradientUnits="userSpaceOnUse">
<stop stop-opacity="0"/>
<stop offset="1" stop-opacity="0.1"/>
</linearGradient>
<linearGradient id="paint8_linear_5910_12592" x1="27.0379" y1="16.6471" x2="33.5231" y2="19.6702" gradientUnits="userSpaceOnUse">
<stop stop-color="white" stop-opacity="0.4"/>
<stop offset="1" stop-color="white" stop-opacity="0"/>
</linearGradient>
<linearGradient id="paint9_linear_5910_12592" x1="1.59416" y1="16.9971" x2="8.24854" y2="20.0989" gradientUnits="userSpaceOnUse">
<stop stop-color="white" stop-opacity="0.4"/>
<stop offset="1" stop-color="white" stop-opacity="0"/>
</linearGradient>
<linearGradient id="paint10_linear_5910_12592" x1="0.0627085" y1="11.3706" x2="35.7" y2="27.9883" gradientUnits="userSpaceOnUse">
<stop stop-color="white" stop-opacity="0.2"/>
<stop offset="1" stop-color="white" stop-opacity="0"/>
</linearGradient>
<clipPath id="clip0_5910_12592">
<rect width="35" height="35" fill="white"/>
</clipPath>
</defs>
</svg>
