<?xml version="1.0" encoding="utf-8"?>
<!-- Generator: Adobe Illustrator 24.3.0, SVG Export Plug-In . SVG Version: 6.00 Build 0)  -->
<svg version="1.1" id="Layer_1" xmlns="http://www.w3.org/2000/svg" xmlns:xlink="http://www.w3.org/1999/xlink" x="0px" y="0px"
	 viewBox="0 0 547 547" style="enable-background:new 0 0 547 547;" xml:space="preserve">
<style type="text/css">
	.st0{fill:#00B900;}
	.st1{fill:#FEFEFE;}
</style>
<circle class="st0" cx="273.5" cy="273.5" r="273.5"/>
<path class="st1" d="M374.1,181.3c9.4,4.3,16.4,10.8,19.6,20.8c4.2,13.2,1.3,24.8-8.2,34.8c-21.5,22.7-43.1,45.3-64.7,68
	c-15.5,16.2-31.4,32.1-46.3,48.9c-14.5,16.4-35.1,18.4-50.8,5.6c-20.2-20.9-40.4-41.8-60.6-62.6c-5.9-6-10.3-12.7-11.5-21.3
	c-1.9-14.2,5.1-28,17.7-34.6c12.7-6.7,28.6-4.7,38.8,5.5c11.9,11.8,23.4,23.8,35,35.9c2.2,2.3,3.4,2.8,6,0.1
	c28.4-30,57-59.7,85.2-89.8C345.6,180.7,358.4,176.3,374.1,181.3z"/>
</svg>
