<?xml version="1.0" encoding="utf-8"?>
<!-- Generator: Adobe Illustrator 24.3.0, SVG Export Plug-In . SVG Version: 6.00 Build 0)  -->
<svg version="1.1" id="flat" xmlns="http://www.w3.org/2000/svg" xmlns:xlink="http://www.w3.org/1999/xlink" x="0px" y="0px"
	 viewBox="0 0 512 512" style="enable-background:new 0 0 512 512;" xml:space="preserve">
<style type="text/css">
	.st0{fill:#F74F73;}
	.st1{fill:#CC3B5E;}
	.st2{fill:#7AAEED;}
	.st3{fill:#497FCE;}
	.st4{fill:#4A4A60;}
	.st5{fill:#FFB655;}
	.st6{fill:#FFEEDC;}
	.st7{fill:#E87B31;}
	.st8{fill:#FFFFFF;}
	.st9{fill-rule:evenodd;clip-rule:evenodd;fill:#00BA00;}
	.st10{fill-rule:evenodd;clip-rule:evenodd;fill:#FFFFFF;}
</style>
<path class="st0" d="M311.1,98l-136.7,3.1l-1.2-53.6c0-11.1,13.2-25.4,13.2-25.4c3.5-1.6,7.3-2.4,11.1-2.4h92.9
	c15.1,0,27.3,12.2,27.3,27.3v11.7L311.1,98z"/>
<path class="st1" d="M317.7,58.8c-14.4,4.4-37.9,8.9-73.7,8.9c-43.7,0-55.2-25.8-57.5-45.5c-9.8,4.4-16.2,14.1-16.2,24.9v61.2h147.4
	V58.8z"/>
<path class="st2" d="M148.3,106.6c2.1-10.6,12.5-17.4,23.1-15.3c0.3,0.1,0.5,0.1,0.8,0.2c31.1,7.3,62.9,10.9,94.9,10.9
	c31.8,0.1,63.5-4.7,93.9-14.1c7.9-2.6,16.4,1.7,19,9.6c0.3,1,0.6,2.1,0.7,3.1c1.1,12.1,2.5,28.4,3.1,43.8c0,0-7.9,53-54.8,49.3
	l-165.1,0.6l-13.1-17.9c-0.9-8-5.9-29.2-5.9-29.2C144.7,133.8,145.9,120.1,148.3,106.6z"/>
<path class="st3" d="M383.1,179.9c1.1-9,1.2-21.8,0.7-35.2c-33.8,20-77.3,20-77.3,20H181.2c-20.1,0-30.8-9.3-36.4-17.2
	c-0.1,10.7,0.5,21.4,1.6,32c2.4,20.6,16.2,19,16.2,19h167.7C377.3,202.3,383.1,179.9,383.1,179.9L383.1,179.9z"/>
<g>
	<path class="st4" d="M237,81.8c7.3,0,13.3,6,13.3,13.3v100.5l0,0h-26.6l0,0V95.2C223.7,87.8,229.7,81.8,237,81.8L237,81.8z"/>
	<path class="st4" d="M308.7,81.8c7.3,0,13.3,6,13.3,13.3v100.5l0,0h-26.6l0,0V95.2C295.4,87.8,301.4,81.8,308.7,81.8L308.7,81.8z"
		/>
	<path class="st4" d="M49,241.4l17.8,3.5c13.1,2.6,21.6,15.3,19,28.4l-18.1,90.9c-2.6,13.1-15.3,21.6-28.4,19l-17.8-3.5
		c-13.1-2.6-21.6-15.3-19-28.4l18.1-90.9C23.2,247.3,35.9,238.8,49,241.4z"/>
</g>
<path class="st5" d="M513.9,377.5v-34.2l-40.7-53.1l-44.8-1.2c-11.2-0.4-21.4-6.7-26.8-16.6c-9.5-17.9-20.4-35-32.6-51.3
	c-11.6-15.2-29.7-24.2-48.9-24.2H171.5c-17.1,0-33.5,6.8-45.6,19c-20.1,20.3-37,43.6-50.2,69l-22.1,67.6c-2,13.1-2.8,26.3-2.3,39.5
	L77,407.4h421.5L513.9,377.5z"/>
<path class="st6" d="M473.2,290.2v26c0,14.1,11.1,25.8,25.2,26.4l15.5,0.7C513.9,343.3,518.8,290.2,473.2,290.2L473.2,290.2z"/>
<path class="st0" d="M75.8,284.9c2.5,1,4.9,2.2,7.2,3.7c8.5,5.4,13.3,15.2,12.3,25.3L94,327c-1.6,16.6-16.4,28.8-33,27.1
	c-1.3-0.1-2.6-0.3-3.9-0.6c-1.1-0.3-2.3-0.6-3.4-0.9C51.9,352,60.7,310.8,75.8,284.9z"/>
<path class="st4" d="M162.1,228.2c-2.7,1.5-5.3,3.3-7.6,5.5c-12.3,11.6-22.2,25.4-29.3,40.8c-3.2,6.8-0.3,15,6.5,18.2
	c1.8,0.9,3.8,1.3,5.8,1.3h12.6c6.6,0,11.9-5.3,11.9-11.9L162.1,228.2z"/>
<path class="st4" d="M197.7,223.1h44.5c5.9,0,10.7,4.8,10.7,10.7v49.4c0,5.9-4.8,10.7-10.7,10.7h-44.5c-5.9,0-10.7-4.8-10.7-10.7
	v-49.4C187,227.9,191.8,223.1,197.7,223.1z"/>
<path class="st4" d="M363.2,275.4c-5.4-14.3-12.6-27.9-21.4-40.5c-5.3-7.4-13.9-11.8-23.1-11.8h-29.1c-6.5,0-11.8,5.3-11.8,11.8
	v47.3c0,6.5,5.3,11.8,11.8,11.8h60.8c7.5,0,13.7-6.1,13.7-13.6C364.1,278.7,363.8,277,363.2,275.4L363.2,275.4z"/>
<path class="st7" d="M203.8,327.5H187c-3.2,0-5.8-2.6-5.8-5.8c0-3.2,2.6-5.8,5.8-5.8h16.8c3.2,0,5.8,2.6,5.8,5.8
	S207,327.5,203.8,327.5z"/>
<path class="st7" d="M294.7,327.5h-16.8c-3.2,0-5.8-2.6-5.8-5.8c0-3.2,2.6-5.8,5.8-5.8l0,0h16.8c3.2,0,5.8,2.6,5.8,5.8
	S297.9,327.5,294.7,327.5z"/>
<path class="st7" d="M486.2,423.1c15.3,0,27.7-12.4,27.7-27.7v-17.9c-13.5,13.2-31.6,14.5-31.6,14.5h-431c0.1,1.6,0.1,3.2,0.2,4.8
	c0.8,14.7,13,26.2,27.7,26.2L486.2,423.1z"/>
<circle class="st4" cx="154.2" cy="423.8" r="68.4"/>
<circle class="st8" cx="154.2" cy="423.8" r="31.8"/>
<circle class="st4" cx="408" cy="423.8" r="68.4"/>
<circle class="st8" cx="408" cy="423.8" r="31.8"/>
<g id="图层_x0020_1">
	<circle class="st9" cx="74.4" cy="182.1" r="53.8"/>
	<path class="st10" d="M57.6,208.3l-19.7-21.1c-2.7-2.9-2.5-7.4,0.3-10.1c2.9-2.7,7.4-2.5,10.1,0.3l15.2,16.2l24-22.4
		c0.2-0.2,0.4-0.4,0.7-0.6l11.3-10.6c2.9-2.7,7.4-2.5,10.1,0.3c2.7,2.9,2.5,7.4-0.3,10.1l-34.5,32.2l0,0L62.9,214L57.6,208.3
		L57.6,208.3z"/>
</g>
</svg>
