<svg width="39" height="39" viewBox="0 0 39 39" fill="none" xmlns="http://www.w3.org/2000/svg">
<path d="M19.5 7.3125C19.2845 7.3125 19.0778 7.2269 18.9255 7.07452C18.7731 6.92215 18.6875 6.71549 18.6875 6.5V2.4375C18.6875 2.22201 18.7731 2.01535 18.9255 1.86298C19.0778 1.7106 19.2845 1.625 19.5 1.625C19.7155 1.625 19.9222 1.7106 20.0745 1.86298C20.2269 2.01535 20.3125 2.22201 20.3125 2.4375V6.5C20.3125 6.71549 20.2269 6.92215 20.0745 7.07452C19.9222 7.2269 19.7155 7.3125 19.5 7.3125Z" fill="#70A9ED"/>
<path d="M17.0625 9.75V6.5C17.0625 6.28451 17.1481 6.07785 17.3005 5.92548C17.4528 5.7731 17.6595 5.6875 17.875 5.6875H21.125C21.3405 5.6875 21.5472 5.7731 21.6995 5.92548C21.8519 6.07785 21.9375 6.28451 21.9375 6.5V9.75H17.0625Z" fill="#B3D9FF"/>
<path d="M23.5625 13V9.75C23.5625 9.53451 23.4769 9.32785 23.3245 9.17548C23.1722 9.0231 22.9655 8.9375 22.75 8.9375H16.25C16.0345 8.9375 15.8278 9.0231 15.6755 9.17548C15.5231 9.32785 15.4375 9.53451 15.4375 9.75V13H23.5625ZM10.5625 18.6875V14.625C10.5625 14.4095 10.4769 14.2028 10.3245 14.0505C10.1722 13.8981 9.96549 13.8125 9.75 13.8125H8.125C7.90951 13.8125 7.70285 13.8981 7.55048 14.0505C7.3981 14.2028 7.3125 14.4095 7.3125 14.625V18.6875H10.5625Z" fill="#70A9ED"/>
<path d="M4.0625 21.9375V17.875C4.0625 17.6595 4.1481 17.4528 4.30048 17.3005C4.45285 17.1481 4.65951 17.0625 4.875 17.0625H14.625V21.9375H4.0625Z" fill="#B3D9FF"/>
<path d="M4.0625 36.5625V20.3125H14.625V37.375H4.875C4.65951 37.375 4.45285 37.2894 4.30048 37.137C4.1481 36.9847 4.0625 36.778 4.0625 36.5625Z" fill="#70A9ED"/>
<path d="M10.5625 26C10.778 26 10.9847 25.9144 11.137 25.762C11.2894 25.6097 11.375 25.403 11.375 25.1875V23.5625C11.375 23.347 11.2894 23.1403 11.137 22.988C10.9847 22.8356 10.778 22.75 10.5625 22.75C10.347 22.75 10.1403 22.8356 9.98798 22.988C9.8356 23.1403 9.75 23.347 9.75 23.5625V25.1875C9.75 25.403 9.8356 25.6097 9.98798 25.762C10.1403 25.9144 10.347 26 10.5625 26ZM10.5625 30.875C10.778 30.875 10.9847 30.7894 11.137 30.637C11.2894 30.4847 11.375 30.278 11.375 30.0625V28.4375C11.375 28.222 11.2894 28.0153 11.137 27.863C10.9847 27.7106 10.778 27.625 10.5625 27.625C10.347 27.625 10.1403 27.7106 9.98798 27.863C9.8356 28.0153 9.75 28.222 9.75 28.4375V30.0625C9.75 30.278 9.8356 30.4847 9.98798 30.637C10.1403 30.7894 10.347 30.875 10.5625 30.875ZM7.3125 26C7.52799 26 7.73465 25.9144 7.88702 25.762C8.0394 25.6097 8.125 25.403 8.125 25.1875V23.5625C8.125 23.347 8.0394 23.1403 7.88702 22.988C7.73465 22.8356 7.52799 22.75 7.3125 22.75C7.09701 22.75 6.89035 22.8356 6.73798 22.988C6.5856 23.1403 6.5 23.347 6.5 23.5625V25.1875C6.5 25.403 6.5856 25.6097 6.73798 25.762C6.89035 25.9144 7.09701 26 7.3125 26ZM7.3125 30.875C7.52799 30.875 7.73465 30.7894 7.88702 30.637C8.0394 30.4847 8.125 30.278 8.125 30.0625V28.4375C8.125 28.222 8.0394 28.0153 7.88702 27.863C7.73465 27.7106 7.52799 27.625 7.3125 27.625C7.09701 27.625 6.89035 27.7106 6.73798 27.863C6.5856 28.0153 6.5 28.222 6.5 28.4375V30.0625C6.5 30.278 6.5856 30.4847 6.73798 30.637C6.89035 30.7894 7.09701 30.875 7.3125 30.875ZM10.5625 35.75C10.778 35.75 10.9847 35.6644 11.137 35.512C11.2894 35.3597 11.375 35.153 11.375 34.9375V33.3125C11.375 33.097 11.2894 32.8903 11.137 32.738C10.9847 32.5856 10.778 32.5 10.5625 32.5C10.347 32.5 10.1403 32.5856 9.98798 32.738C9.8356 32.8903 9.75 33.097 9.75 33.3125V34.9375C9.75 35.153 9.8356 35.3597 9.98798 35.512C10.1403 35.6644 10.347 35.75 10.5625 35.75ZM7.3125 35.75C7.52799 35.75 7.73465 35.6644 7.88702 35.512C8.0394 35.3597 8.125 35.153 8.125 34.9375V33.3125C8.125 33.097 8.0394 32.8903 7.88702 32.738C7.73465 32.5856 7.52799 32.5 7.3125 32.5C7.09701 32.5 6.89035 32.5856 6.73798 32.738C6.5856 32.8903 6.5 33.097 6.5 33.3125V34.9375C6.5 35.153 6.5856 35.3597 6.73798 35.512C6.89035 35.6644 7.09701 35.75 7.3125 35.75Z" fill="#E0E9F5"/>
<path d="M28.4375 18.6875V14.625C28.4375 14.4095 28.5231 14.2028 28.6755 14.0505C28.8278 13.8981 29.0345 13.8125 29.25 13.8125H30.875C31.0905 13.8125 31.2972 13.8981 31.4495 14.0505C31.6019 14.2028 31.6875 14.4095 31.6875 14.625V18.6875H28.4375Z" fill="#70A9ED"/>
<path d="M34.9375 21.9375V17.875C34.9375 17.6595 34.8519 17.4528 34.6995 17.3005C34.5472 17.1481 34.3405 17.0625 34.125 17.0625H24.375V21.9375H34.9375Z" fill="#B3D9FF"/>
<path d="M34.9375 36.5625V20.3125H24.375V37.375H34.125C34.3405 37.375 34.5472 37.2894 34.6995 37.137C34.8519 36.9847 34.9375 36.778 34.9375 36.5625Z" fill="#70A9ED"/>
<path d="M13.8125 37.375V13C13.8125 12.7845 13.8981 12.5778 14.0505 12.4255C14.2028 12.2731 14.4095 12.1875 14.625 12.1875H24.375C24.5905 12.1875 24.7972 12.2731 24.9495 12.4255C25.1019 12.5778 25.1875 12.7845 25.1875 13V37.375H13.8125Z" fill="#417ACE"/>
<path d="M21.9375 16.25H17.0625C16.847 16.25 16.6403 16.1644 16.488 16.012C16.3356 15.8597 16.25 15.653 16.25 15.4375C16.25 15.222 16.3356 15.0153 16.488 14.863C16.6403 14.7106 16.847 14.625 17.0625 14.625H21.9375C22.153 14.625 22.3597 14.7106 22.512 14.863C22.6644 15.0153 22.75 15.222 22.75 15.4375C22.75 15.653 22.6644 15.8597 22.512 16.012C22.3597 16.1644 22.153 16.25 21.9375 16.25ZM21.9375 19.5H17.0625C16.847 19.5 16.6403 19.4144 16.488 19.262C16.3356 19.1097 16.25 18.903 16.25 18.6875C16.25 18.472 16.3356 18.2653 16.488 18.113C16.6403 17.9606 16.847 17.875 17.0625 17.875H21.9375C22.153 17.875 22.3597 17.9606 22.512 18.113C22.6644 18.2653 22.75 18.472 22.75 18.6875C22.75 18.903 22.6644 19.1097 22.512 19.262C22.3597 19.4144 22.153 19.5 21.9375 19.5ZM21.9375 22.75H17.0625C16.847 22.75 16.6403 22.6644 16.488 22.512C16.3356 22.3597 16.25 22.153 16.25 21.9375C16.25 21.722 16.3356 21.5153 16.488 21.363C16.6403 21.2106 16.847 21.125 17.0625 21.125H21.9375C22.153 21.125 22.3597 21.2106 22.512 21.363C22.6644 21.5153 22.75 21.722 22.75 21.9375C22.75 22.153 22.6644 22.3597 22.512 22.512C22.3597 22.6644 22.153 22.75 21.9375 22.75ZM21.9375 26H17.0625C16.847 26 16.6403 25.9144 16.488 25.762C16.3356 25.6097 16.25 25.403 16.25 25.1875C16.25 24.972 16.3356 24.7653 16.488 24.613C16.6403 24.4606 16.847 24.375 17.0625 24.375H21.9375C22.153 24.375 22.3597 24.4606 22.512 24.613C22.6644 24.7653 22.75 24.972 22.75 25.1875C22.75 25.403 22.6644 25.6097 22.512 25.762C22.3597 25.9144 22.153 26 21.9375 26ZM21.9375 29.25H17.0625C16.847 29.25 16.6403 29.1644 16.488 29.012C16.3356 28.8597 16.25 28.653 16.25 28.4375C16.25 28.222 16.3356 28.0153 16.488 27.863C16.6403 27.7106 16.847 27.625 17.0625 27.625H21.9375C22.153 27.625 22.3597 27.7106 22.512 27.863C22.6644 28.0153 22.75 28.222 22.75 28.4375C22.75 28.653 22.6644 28.8597 22.512 29.012C22.3597 29.1644 22.153 29.25 21.9375 29.25ZM21.9375 32.5H17.0625C16.847 32.5 16.6403 32.4144 16.488 32.262C16.3356 32.1097 16.25 31.903 16.25 31.6875C16.25 31.472 16.3356 31.2653 16.488 31.113C16.6403 30.9606 16.847 30.875 17.0625 30.875H21.9375C22.153 30.875 22.3597 30.9606 22.512 31.113C22.6644 31.2653 22.75 31.472 22.75 31.6875C22.75 31.903 22.6644 32.1097 22.512 32.262C22.3597 32.4144 22.153 32.5 21.9375 32.5ZM21.9375 35.75H17.0625C16.847 35.75 16.6403 35.6644 16.488 35.512C16.3356 35.3597 16.25 35.153 16.25 34.9375C16.25 34.722 16.3356 34.5153 16.488 34.363C16.6403 34.2106 16.847 34.125 17.0625 34.125H21.9375C22.153 34.125 22.3597 34.2106 22.512 34.363C22.6644 34.5153 22.75 34.722 22.75 34.9375C22.75 35.153 22.6644 35.3597 22.512 35.512C22.3597 35.6644 22.153 35.75 21.9375 35.75ZM28.4375 26C28.222 26 28.0153 25.9144 27.863 25.762C27.7106 25.6097 27.625 25.403 27.625 25.1875V23.5625C27.625 23.347 27.7106 23.1403 27.863 22.988C28.0153 22.8356 28.222 22.75 28.4375 22.75C28.653 22.75 28.8597 22.8356 29.012 22.988C29.1644 23.1403 29.25 23.347 29.25 23.5625V25.1875C29.25 25.403 29.1644 25.6097 29.012 25.762C28.8597 25.9144 28.653 26 28.4375 26ZM28.4375 30.875C28.222 30.875 28.0153 30.7894 27.863 30.637C27.7106 30.4847 27.625 30.278 27.625 30.0625V28.4375C27.625 28.222 27.7106 28.0153 27.863 27.863C28.0153 27.7106 28.222 27.625 28.4375 27.625C28.653 27.625 28.8597 27.7106 29.012 27.863C29.1644 28.0153 29.25 28.222 29.25 28.4375V30.0625C29.25 30.278 29.1644 30.4847 29.012 30.637C28.8597 30.7894 28.653 30.875 28.4375 30.875ZM31.6875 26C31.472 26 31.2653 25.9144 31.113 25.762C30.9606 25.6097 30.875 25.403 30.875 25.1875V23.5625C30.875 23.347 30.9606 23.1403 31.113 22.988C31.2653 22.8356 31.472 22.75 31.6875 22.75C31.903 22.75 32.1097 22.8356 32.262 22.988C32.4144 23.1403 32.5 23.347 32.5 23.5625V25.1875C32.5 25.403 32.4144 25.6097 32.262 25.762C32.1097 25.9144 31.903 26 31.6875 26ZM31.6875 30.875C31.472 30.875 31.2653 30.7894 31.113 30.637C30.9606 30.4847 30.875 30.278 30.875 30.0625V28.4375C30.875 28.222 30.9606 28.0153 31.113 27.863C31.2653 27.7106 31.472 27.625 31.6875 27.625C31.903 27.625 32.1097 27.7106 32.262 27.863C32.4144 28.0153 32.5 28.222 32.5 28.4375V30.0625C32.5 30.278 32.4144 30.4847 32.262 30.637C32.1097 30.7894 31.903 30.875 31.6875 30.875ZM28.4375 35.75C28.222 35.75 28.0153 35.6644 27.863 35.512C27.7106 35.3597 27.625 35.153 27.625 34.9375V33.3125C27.625 33.097 27.7106 32.8903 27.863 32.738C28.0153 32.5856 28.222 32.5 28.4375 32.5C28.653 32.5 28.8597 32.5856 29.012 32.738C29.1644 32.8903 29.25 33.097 29.25 33.3125V34.9375C29.25 35.153 29.1644 35.3597 29.012 35.512C28.8597 35.6644 28.653 35.75 28.4375 35.75ZM31.6875 35.75C31.472 35.75 31.2653 35.6644 31.113 35.512C30.9606 35.3597 30.875 35.153 30.875 34.9375V33.3125C30.875 33.097 30.9606 32.8903 31.113 32.738C31.2653 32.5856 31.472 32.5 31.6875 32.5C31.903 32.5 32.1097 32.5856 32.262 32.738C32.4144 32.8903 32.5 33.097 32.5 33.3125V34.9375C32.5 35.153 32.4144 35.3597 32.262 35.512C32.1097 35.6644 31.903 35.75 31.6875 35.75Z" fill="#E0E9F5"/>
</svg>
