<svg width="512" height="498" viewBox="0 0 512 498" fill="none" xmlns="http://www.w3.org/2000/svg">
<path d="M453.319 78.0888C453.319 59.4278 438.19 44.3008 419.529 44.3008H33.789C15.13 44.3008 0 59.4288 0 78.0888V463.827C0 473.485 4.059 482.189 10.556 488.347H419.529V497.616H478.715C493.257 497.616 505.653 488.428 510.417 475.54C514.365 465.105 515.761 485.056 453.319 78.0888Z" fill="#BABABA"/>
<path d="M473.952 463.828V212.568L453.319 78.0888C453.319 59.4278 438.19 44.3008 419.529 44.3008H54.4238C35.7648 44.3008 20.6348 59.4278 20.6348 78.0888V463.827C20.6348 473.485 24.6938 482.189 31.1908 488.347H419.531V497.616H440.164C458.823 497.617 473.952 482.49 473.952 463.828Z" fill="#A8A8A8"/>
<path d="M419.529 44.3008H33.789C15.13 44.3008 0 59.4288 0 78.0888V463.827C0 482.489 15.13 497.616 33.789 497.616H419.528C438.189 497.616 453.318 482.489 453.318 463.827V78.0888C453.319 59.4288 438.189 44.3008 419.529 44.3008Z" fill="#E6E6E6"/>
<path d="M20.633 463.828V78.0888C20.633 59.4278 35.763 44.3008 54.422 44.3008H33.789C15.13 44.3008 0 59.4288 0 78.0888V463.827C0 482.489 15.13 497.616 33.789 497.616H54.422C35.764 497.617 20.633 482.49 20.633 463.828Z" fill="#CCCBCA"/>
<path d="M419.529 44.3008H33.789C15.13 44.3008 0 59.4288 0 78.0888V164.885H453.319V78.0888C453.319 59.4288 438.189 44.3008 419.529 44.3008Z" fill="#555768"/>
<path d="M20.633 78.0888C20.633 59.4278 35.763 44.3008 54.422 44.3008H33.789C15.13 44.3008 0 59.4288 0 78.0888V164.885H20.633V78.0888Z" fill="black" fill-opacity="0.25"/>
<path d="M361.837 74.5088V81.5428C361.837 88.3808 356.295 88.7648 349.457 88.7648H345.33C338.493 88.7648 332.95 88.3808 332.95 81.5428V74.5098C326.404 79.0778 322.117 86.6598 322.117 95.2478C322.117 109.208 333.434 120.524 347.393 120.524C372.15 120.523 381.984 88.5688 361.837 74.5088ZM233.91 74.5088V81.5428C233.91 88.3808 228.368 87.7328 221.53 87.7328H217.403C210.566 87.7328 205.023 88.3808 205.023 81.5428V74.5098C198.477 79.0778 194.19 86.6598 194.19 95.2478C194.19 109.208 205.507 120.524 219.466 120.524C233.426 120.524 244.742 109.208 244.742 95.2478C244.742 86.6598 240.455 79.0768 233.91 74.5088ZM105.983 74.5088V81.5428C105.983 89.5148 98.4798 88.7648 89.4758 88.7648C82.6388 88.7648 77.0958 88.3808 77.0958 81.5428V74.5098C56.9288 88.5838 66.8138 120.524 91.5388 120.524C105.499 120.524 116.815 109.208 116.815 95.2478C116.815 86.6598 112.528 79.0768 105.983 74.5088Z" fill="#414356"/>
<path d="M343.783 95.2478C343.783 94.7688 343.801 94.2948 343.827 93.8228C337.7 93.0798 332.95 87.8708 332.95 81.5428V74.5098C326.404 79.0778 322.117 86.6598 322.117 95.2478C322.117 109.208 333.434 120.524 347.393 120.524C351.27 120.524 354.942 119.649 358.226 118.088C349.687 114.031 343.783 105.33 343.783 95.2478ZM215.856 95.2478C215.856 94.7688 215.874 94.2948 215.9 93.8228C209.773 93.0798 205.023 87.8708 205.023 81.5428V74.5098C198.477 79.0778 194.19 86.6598 194.19 95.2478C194.19 109.208 205.507 120.524 219.466 120.524C223.343 120.524 227.015 119.649 230.299 118.088C221.76 114.031 215.856 105.33 215.856 95.2478ZM87.9727 93.8228C81.8457 93.0798 77.0957 87.8708 77.0957 81.5428V74.5098C70.5497 79.0778 66.2627 86.6598 66.2627 95.2478C66.2627 113.864 85.7067 126.007 102.371 118.088C93.3167 113.785 87.3867 104.38 87.9727 93.8228Z" fill="#2F3242"/>
<path d="M0 164.881H453.32V193.768H0V164.881Z" fill="#555768" fill-opacity="0.25"/>
<path d="M0 164.881H20.633V193.768H0V164.881Z" fill="black" fill-opacity="0.25"/>
<path d="M93.6027 0.384766C100.441 0.384766 105.983 5.92776 105.983 12.7648V81.5428C105.983 88.3808 100.441 93.9228 93.6027 93.9228H89.4757C82.6387 93.9228 77.0957 88.3808 77.0957 81.5428V12.7648C77.0957 5.92776 82.6387 0.384766 89.4757 0.384766H93.6027ZM221.53 0.384766C228.368 0.384766 233.91 5.92776 233.91 12.7648V81.5428C233.91 88.3808 228.368 93.9228 221.53 93.9228H217.403C210.566 93.9228 205.023 88.3808 205.023 81.5428V12.7648C205.023 5.92776 210.566 0.384766 217.403 0.384766H221.53ZM349.457 0.384766C356.295 0.384766 361.837 5.92776 361.837 12.7648V81.5428C361.837 88.3808 356.295 93.9228 349.457 93.9228H345.33C338.493 93.9228 332.95 88.3808 332.95 81.5428V12.7648C332.95 5.92776 338.493 0.384766 345.33 0.384766H349.457Z" fill="#585A60"/>
<path d="M93.6027 0.384766C100.441 0.384766 105.983 5.92776 105.983 12.7648V81.5428C105.983 88.3808 100.441 93.9228 93.6027 93.9228H89.4757C82.6387 93.9228 77.0957 88.3808 77.0957 81.5428V12.7648C77.0957 5.92776 82.6387 0.384766 89.4757 0.384766H93.6027ZM221.53 0.384766C228.368 0.384766 233.91 5.92776 233.91 12.7648V81.5428C233.91 88.3808 228.368 93.9228 221.53 93.9228H217.403C210.566 93.9228 205.023 88.3808 205.023 81.5428V12.7648C205.023 5.92776 210.566 0.384766 217.403 0.384766H221.53ZM349.457 0.384766C356.295 0.384766 361.837 5.92776 361.837 12.7648V81.5428C361.837 88.3808 356.295 93.9228 349.457 93.9228H345.33C338.493 93.9228 332.95 88.3808 332.95 81.5428V12.7648C332.95 5.92776 338.493 0.384766 345.33 0.384766H349.457Z" fill="#585A60"/>
<path d="M91.5387 81.5428V12.7648C91.5387 7.77076 94.5027 3.47877 98.7607 1.52077C97.1437 0.773676 95.3839 0.386105 93.6027 0.384766H89.4757C82.6387 0.384766 77.0957 5.92776 77.0957 12.7648V81.5428C77.0957 88.3808 82.6387 93.9228 89.4757 93.9228H93.6027C95.4467 93.9228 97.1897 93.5088 98.7607 92.7868C94.5027 90.8298 91.5387 86.5368 91.5387 81.5428ZM219.466 81.5428V12.7648C219.466 7.77076 222.43 3.47877 226.688 1.52077C225.071 0.773676 223.311 0.386105 221.53 0.384766H217.403C210.566 0.384766 205.023 5.92776 205.023 12.7648V81.5428C205.023 88.3808 210.566 93.9228 217.403 93.9228H221.53C223.374 93.9228 225.117 93.5088 226.688 92.7868C222.43 90.8298 219.466 86.5368 219.466 81.5428ZM347.393 81.5428V12.7648C347.393 7.77076 350.357 3.47877 354.615 1.52077C352.998 0.773676 351.238 0.386105 349.457 0.384766H345.33C338.493 0.384766 332.95 5.92776 332.95 12.7648V81.5428C332.95 88.3808 338.493 93.9228 345.33 93.9228H349.457C351.301 93.9228 353.044 93.5088 354.615 92.7868C350.357 90.8298 347.393 86.5368 347.393 81.5428Z" fill="#414356"/>
<path d="M168.606 241.179H143.132C141.08 241.179 139.112 241.994 137.661 243.445C136.209 244.896 135.394 246.864 135.394 248.917C135.394 250.969 136.209 252.937 137.661 254.388C139.112 255.839 141.08 256.655 143.132 256.655H168.606C170.658 256.655 172.627 255.839 174.078 254.388C175.529 252.937 176.344 250.969 176.344 248.917C176.344 246.864 175.529 244.896 174.078 243.445C172.627 241.994 170.658 241.179 168.606 241.179ZM239.427 241.179H213.95C211.898 241.179 209.93 241.994 208.479 243.445C207.027 244.896 206.212 246.864 206.212 248.917C206.212 250.969 207.027 252.937 208.479 254.388C209.93 255.839 211.898 256.655 213.95 256.655H239.427C241.458 256.622 243.394 255.792 244.819 254.345C246.243 252.897 247.042 250.948 247.042 248.917C247.042 246.886 246.243 244.936 244.819 243.489C243.394 242.041 241.458 241.211 239.427 241.179ZM310.247 241.179H284.769C282.717 241.179 280.749 241.994 279.298 243.445C277.846 244.896 277.031 246.864 277.031 248.917C277.031 250.969 277.846 252.937 279.298 254.388C280.749 255.839 282.717 256.655 284.769 256.655H310.247C312.299 256.655 314.268 255.839 315.719 254.388C317.17 252.937 317.985 250.969 317.985 248.917C317.985 246.864 317.17 244.896 315.719 243.445C314.268 241.994 312.299 241.179 310.247 241.179ZM381.065 241.179H355.588C353.536 241.179 351.568 241.994 350.117 243.445C348.665 244.896 347.85 246.864 347.85 248.917C347.85 250.969 348.665 252.937 350.117 254.388C351.568 255.839 353.536 256.655 355.588 256.655H381.065C383.096 256.622 385.032 255.792 386.457 254.345C387.881 252.897 388.68 250.948 388.68 248.917C388.68 246.886 387.881 244.936 386.457 243.489C385.032 242.041 383.096 241.211 381.065 241.179ZM97.7892 303.519H72.3122C70.26 303.519 68.2918 304.334 66.8406 305.785C65.3895 307.236 64.5742 309.204 64.5742 311.257C64.5742 313.309 65.3895 315.277 66.8406 316.728C68.2918 318.179 70.26 318.995 72.3122 318.995H97.7892C99.8415 318.995 101.81 318.179 103.261 316.728C104.712 315.277 105.527 313.309 105.527 311.257C105.527 309.204 104.712 307.236 103.261 305.785C101.81 304.334 99.8415 303.519 97.7892 303.519ZM168.606 303.519H143.132C141.08 303.519 139.112 304.334 137.661 305.785C136.209 307.236 135.394 309.204 135.394 311.257C135.394 313.309 136.209 315.277 137.661 316.728C139.112 318.179 141.08 318.995 143.132 318.995H168.606C169.622 318.995 170.629 318.795 171.568 318.406C172.506 318.017 173.36 317.447 174.078 316.729C174.797 316.01 175.367 315.157 175.755 314.218C176.144 313.279 176.344 312.273 176.344 311.257C176.344 310.24 176.144 309.234 175.755 308.295C175.367 307.356 174.797 306.503 174.078 305.785C173.36 305.066 172.506 304.496 171.568 304.107C170.629 303.719 169.622 303.519 168.606 303.519ZM239.427 303.519H213.95C211.898 303.519 209.93 304.334 208.479 305.785C207.027 307.236 206.212 309.204 206.212 311.257C206.212 313.309 207.027 315.277 208.479 316.728C209.93 318.179 211.898 318.995 213.95 318.995H239.427C241.479 318.995 243.448 318.179 244.899 316.728C246.35 315.277 247.165 313.309 247.165 311.257C247.165 309.204 246.35 307.236 244.899 305.785C243.448 304.334 241.479 303.519 239.427 303.519ZM310.247 303.519H284.769C282.717 303.519 280.749 304.334 279.298 305.785C277.846 307.236 277.031 309.204 277.031 311.257C277.031 313.309 277.846 315.277 279.298 316.728C280.749 318.179 282.717 318.995 284.769 318.995H310.247C312.299 318.995 314.268 318.179 315.719 316.728C317.17 315.277 317.985 313.309 317.985 311.257C317.985 309.204 317.17 307.236 315.719 305.785C314.268 304.334 312.299 303.519 310.247 303.519ZM381.065 303.519H355.588C353.536 303.519 351.568 304.334 350.117 305.785C348.665 307.236 347.85 309.204 347.85 311.257C347.85 313.309 348.665 315.277 350.117 316.728C351.568 318.179 353.536 318.995 355.588 318.995H381.065C383.117 318.995 385.086 318.179 386.537 316.728C387.988 315.277 388.803 313.309 388.803 311.257C388.803 309.204 387.988 307.236 386.537 305.785C385.086 304.334 383.117 303.519 381.065 303.519ZM97.7892 365.859H72.3122C70.26 365.859 68.2918 366.674 66.8406 368.125C65.3895 369.576 64.5742 371.544 64.5742 373.597C64.5742 375.649 65.3895 377.617 66.8406 379.068C68.2918 380.519 70.26 381.335 72.3122 381.335H97.7892C102.063 381.335 105.527 377.871 105.527 373.597C105.527 369.323 102.063 365.859 97.7892 365.859ZM168.606 365.859H143.132C141.08 365.859 139.112 366.674 137.661 368.125C136.209 369.576 135.394 371.544 135.394 373.597C135.394 375.649 136.209 377.617 137.661 379.068C139.112 380.519 141.08 381.335 143.132 381.335H168.606C172.88 381.335 176.344 377.871 176.344 373.597C176.344 369.323 172.88 365.859 168.606 365.859ZM239.427 365.859H213.95C211.898 365.859 209.93 366.674 208.479 368.125C207.027 369.576 206.212 371.544 206.212 373.597C206.212 375.649 207.027 377.617 208.479 379.068C209.93 380.519 211.898 381.335 213.95 381.335H239.427C243.701 381.335 247.165 377.871 247.165 373.597C247.165 369.323 243.701 365.859 239.427 365.859ZM310.247 365.859H284.769C282.717 365.859 280.749 366.674 279.298 368.125C277.846 369.576 277.031 371.544 277.031 373.597C277.031 375.649 277.846 377.617 279.298 379.068C280.749 380.519 282.717 381.335 284.769 381.335H310.247C312.299 381.335 314.268 380.519 315.719 379.068C317.17 377.617 317.985 375.649 317.985 373.597C317.985 371.544 317.17 369.576 315.719 368.125C314.268 366.674 312.299 365.859 310.247 365.859ZM381.065 365.859H355.588C353.536 365.859 351.568 366.674 350.117 368.125C348.665 369.576 347.85 371.544 347.85 373.597C347.85 375.649 348.665 377.617 350.117 379.068C351.568 380.519 353.536 381.335 355.588 381.335H381.065C385.339 381.335 388.803 377.871 388.803 373.597C388.803 369.323 385.339 365.859 381.065 365.859ZM97.7892 428.2H72.3122C70.26 428.2 68.2918 429.015 66.8406 430.466C65.3895 431.917 64.5742 433.885 64.5742 435.938C64.5742 437.99 65.3895 439.958 66.8406 441.409C68.2918 442.86 70.26 443.676 72.3122 443.676H97.7892C99.8415 443.676 101.81 442.86 103.261 441.409C104.712 439.958 105.527 437.99 105.527 435.938C105.527 433.885 104.712 431.917 103.261 430.466C101.81 429.015 99.8415 428.2 97.7892 428.2ZM168.606 428.2H143.132C141.08 428.2 139.112 429.015 137.661 430.466C136.209 431.917 135.394 433.885 135.394 435.938C135.394 437.99 136.209 439.958 137.661 441.409C139.112 442.86 141.08 443.676 143.132 443.676H168.606C169.622 443.676 170.629 443.476 171.568 443.087C172.506 442.698 173.36 442.128 174.078 441.41C174.797 440.691 175.367 439.838 175.755 438.899C176.144 437.96 176.344 436.954 176.344 435.938C176.344 434.921 176.144 433.915 175.755 432.976C175.367 432.037 174.797 431.184 174.078 430.466C173.36 429.747 172.506 429.177 171.568 428.788C170.629 428.4 169.622 428.2 168.606 428.2ZM239.427 428.2H213.95C211.898 428.2 209.93 429.015 208.479 430.466C207.027 431.917 206.212 433.885 206.212 435.938C206.212 437.99 207.027 439.958 208.479 441.409C209.93 442.86 211.898 443.676 213.95 443.676H239.427C241.479 443.676 243.448 442.86 244.899 441.409C246.35 439.958 247.165 437.99 247.165 435.938C247.165 433.885 246.35 431.917 244.899 430.466C243.448 429.015 241.479 428.2 239.427 428.2ZM310.247 428.2H284.769C282.717 428.2 280.749 429.015 279.298 430.466C277.846 431.917 277.031 433.885 277.031 435.938C277.031 437.99 277.846 439.958 279.298 441.409C280.749 442.86 282.717 443.676 284.769 443.676H310.247C312.299 443.676 314.268 442.86 315.719 441.409C317.17 439.958 317.985 437.99 317.985 435.938C317.985 433.885 317.17 431.917 315.719 430.466C314.268 429.015 312.299 428.2 310.247 428.2Z" fill="#585A60"/>
</svg>
