<svg width="31" height="31" viewBox="0 0 31 31" fill="none" xmlns="http://www.w3.org/2000/svg">
<g id="destination" clip-path="url(#clip0_5910_12056)">
<path id="Vector" d="M17.6751 15.6848C17.6751 20.1389 9.23234 30.2078 9.23234 30.2078C9.23234 30.2078 0.789062 20.1389 0.789062 15.6848C0.789062 11.2306 4.56918 7.61914 9.23234 7.61914C13.8955 7.61914 17.6751 11.2302 17.6751 15.6848Z" fill="#59B9FF"/>
<path id="Vector_2" d="M17.6787 15.6858C17.6787 20.1409 9.2359 30.2121 9.2359 30.2121C9.2359 30.2121 8.35568 29.1605 7.16406 27.587C8.53464 25.905 15.3579 17.3603 15.3579 13.3571C15.3579 11.7756 14.8826 10.304 14.0649 9.06543C16.2536 10.5215 17.6787 12.9442 17.6787 15.6858Z" fill="#489CD5"/>
<path id="Vector_3" d="M1.78606 16.6748C1.78606 20.2266 7.1608 27.3613 9.32563 30.095L9.23216 30.2119C9.23216 30.2119 0.796875 20.1407 0.796875 15.6856C0.796875 11.2305 4.57465 7.61621 9.23263 7.61621C11.9038 7.61621 14.2875 8.79985 15.8375 10.6542C14.3495 9.38462 12.3791 8.61338 10.2293 8.61338C5.56383 8.61338 1.78606 12.2197 1.78606 16.6748Z" fill="#B4DFF9"/>
<path id="Vector_4" d="M9.23285 21.6989C12.7097 21.6989 15.5282 19.0063 15.5282 15.6849C15.5282 12.3635 12.7097 9.6709 9.23285 9.6709C5.75602 9.6709 2.9375 12.3635 2.9375 15.6849C2.9375 19.0063 5.75602 21.6989 9.23285 21.6989Z" fill="#FBFBFB"/>
<path id="Vector_5" d="M12.6222 18.8766L9.23714 17.3741L5.85156 18.8766L9.23761 11.2046L12.6222 18.8766Z" fill="#FFCA0F"/>
<path id="Vector_6" d="M12.6213 18.8777L9.23667 17.3742L5.85156 18.8777L6.41755 17.5935L9.23667 16.3418L12.0553 17.5935L12.6213 18.8777Z" fill="#FFA301"/>
<path id="Vector_7" d="M8.21659 14.6583L9.48852 11.7757L9.23489 11.2041L7.50781 15.1204C7.65804 15.1204 7.80501 15.0767 7.93084 14.9946C8.05667 14.9126 8.15595 14.7957 8.21659 14.6583Z" fill="#FFED91"/>
<path id="Vector_8" d="M27.8591 5.49509C29.1577 5.49509 30.2104 4.44237 30.2104 3.14378C30.2104 1.84519 29.1577 0.79248 27.8591 0.79248C26.5605 0.79248 25.5078 1.84519 25.5078 3.14378C25.5078 4.44237 26.5605 5.49509 27.8591 5.49509Z" fill="#F0373C"/>
<path id="Vector_9" d="M30.2058 3.1454C30.2058 4.44176 29.1537 5.49388 27.8526 5.49388C26.9555 5.49388 26.1758 4.99131 25.7812 4.24918C26.11 4.42767 26.4858 4.52631 26.885 4.52631C27.2912 4.52674 27.6905 4.42192 28.0441 4.22208C28.3976 4.02223 28.6934 3.73418 28.9025 3.386C29.1116 3.03782 29.2269 2.6414 29.2372 2.23539C29.2474 1.82939 29.1523 1.42764 28.9611 1.06934C29.7032 1.46388 30.2058 2.24358 30.2058 3.1454Z" fill="#D5202A"/>
<path id="Vector_10" d="M29.8055 1.83051C29.4298 1.58157 28.9836 1.43597 28.4998 1.43597C27.2034 1.43597 26.1466 2.48809 26.1466 3.78445C26.1466 4.26824 26.2922 4.71915 26.5411 5.09021C26.2228 4.87552 25.9621 4.58591 25.7819 4.24685C25.6017 3.90778 25.5076 3.52963 25.5078 3.14566C25.5078 1.8446 26.5599 0.79248 27.8563 0.79248C28.6689 0.79248 29.3875 1.20581 29.8055 1.83051Z" fill="#FE5C6E"/>
<path id="Vector_11" d="M16.473 21.3454H15.9422C17.1446 19.2364 18.0277 17.1745 18.0277 15.6855C18.0277 11.0449 14.0822 7.26855 9.23493 7.26855C4.38296 7.26855 0.4375 11.0449 0.4375 15.6855C0.4375 20.2134 8.61492 30.0207 8.9625 30.434C9.01417 30.4951 9.08462 30.5373 9.15977 30.5514C9.18326 30.5561 9.21144 30.5608 9.23493 30.5608H10.644C10.8413 30.5608 10.9963 30.4058 10.9963 30.2086C10.9963 30.016 10.8413 29.8563 10.644 29.8563H9.97705C11.0292 28.5599 13.5796 25.3143 15.5336 22.0499H16.473C16.5664 22.0499 16.656 22.0128 16.722 21.9467C16.7881 21.8807 16.8252 21.7911 16.8252 21.6976C16.8252 21.6042 16.7881 21.5146 16.722 21.4486C16.656 21.3825 16.5664 21.3454 16.473 21.3454ZM9.23493 29.6543C7.79765 27.8929 1.14205 19.5183 1.14205 15.6855C1.14205 11.4301 4.7728 7.9731 9.23493 7.9731C13.697 7.9731 17.3231 11.4301 17.3231 15.6855C17.3231 19.2552 11.4942 26.8831 9.23493 29.6543ZM13.4622 29.8563H12.0531C11.9597 29.8563 11.8701 29.8934 11.804 29.9595C11.7379 30.0255 11.7008 30.1151 11.7008 30.2086C11.7008 30.302 11.7379 30.3916 11.804 30.4576C11.8701 30.5237 11.9597 30.5608 12.0531 30.5608H13.4622C13.6595 30.5608 13.8145 30.4058 13.8145 30.2086C13.8145 30.016 13.6595 29.8563 13.4622 29.8563ZM24.237 9.79083H25.6461C25.8434 9.79083 25.9984 9.63583 25.9984 9.43855C25.9984 9.24598 25.8434 9.08628 25.6461 9.08628H24.237C24.1436 9.08628 24.054 9.1234 23.9879 9.18946C23.9219 9.25552 23.8848 9.34513 23.8848 9.43855C23.8848 9.53198 23.9219 9.62158 23.9879 9.68765C24.054 9.75371 24.1436 9.79083 24.237 9.79083ZM25.7823 23.1396L25.834 23.1913C26.1252 23.4825 26.3648 23.8113 26.5527 24.1729C26.5734 24.2145 26.6023 24.2514 26.6375 24.2815C26.6728 24.3117 26.7138 24.3345 26.758 24.3485C26.8023 24.3625 26.8489 24.3675 26.8951 24.3631C26.9413 24.3588 26.9862 24.3452 27.027 24.3232C27.1961 24.234 27.2666 24.0226 27.1773 23.8489C26.9566 23.4261 26.6748 23.0363 26.3366 22.6934L26.2708 22.6323C26.2033 22.5682 26.1131 22.5332 26.02 22.5349C25.9268 22.5367 25.8381 22.5751 25.773 22.6417C25.6367 22.778 25.6414 23.0034 25.7823 23.1396Z" fill="black"/>
<path id="Vector_12" d="M15.7875 9.79048H17.1966C17.3939 9.79048 17.5489 9.63548 17.5489 9.43821C17.5489 9.24563 17.3939 9.08594 17.1966 9.08594H15.7875C15.6941 9.08594 15.6045 9.12305 15.5384 9.18912C15.4724 9.25518 15.4353 9.34478 15.4353 9.43821C15.4353 9.53164 15.4724 9.62124 15.5384 9.6873C15.6045 9.75337 15.6941 9.79048 15.7875 9.79048ZM19.1036 29.8559H17.6945C17.6011 29.8559 17.5115 29.8931 17.4454 29.9591C17.3793 30.0252 17.3422 30.1148 17.3422 30.2082C17.3422 30.3016 17.3793 30.3912 17.4454 30.4573C17.5115 30.5234 17.6011 30.5605 17.6945 30.5605H19.1036C19.3009 30.5605 19.4559 30.4055 19.4559 30.2082C19.4559 30.0156 19.3009 29.8559 19.1036 29.8559ZM16.2854 29.8559H14.8763C14.7829 29.8559 14.6933 29.8931 14.6272 29.9591C14.5612 30.0252 14.5241 30.1148 14.5241 30.2082C14.5241 30.3016 14.5612 30.3912 14.6272 30.4573C14.6933 30.5234 14.7829 30.5605 14.8763 30.5605H16.2854C16.4827 30.5605 16.6377 30.4055 16.6377 30.2082C16.6377 30.0156 16.4827 29.8559 16.2854 29.8559ZM19.2962 21.345H17.8871C17.7937 21.345 17.7041 21.3821 17.638 21.4482C17.5719 21.5143 17.5348 21.6039 17.5348 21.6973C17.5348 21.7907 17.5719 21.8803 17.638 21.9464C17.7041 22.0125 17.7937 22.0496 17.8871 22.0496H19.2962C19.3896 22.0496 19.4792 22.0125 19.5453 21.9464C19.6113 21.8803 19.6484 21.7907 19.6484 21.6973C19.6484 21.6039 19.6113 21.5143 19.5453 21.4482C19.4792 21.3821 19.3896 21.345 19.2962 21.345ZM24.5662 29.5647C24.1669 29.7291 23.7442 29.8278 23.3121 29.8512C23.2658 29.8536 23.2204 29.8652 23.1786 29.8851C23.1368 29.9051 23.0993 29.9331 23.0683 29.9676C23.0374 30.002 23.0135 30.0423 22.9981 30.086C22.9827 30.1297 22.9761 30.176 22.9786 30.2223C22.9927 30.4102 23.1477 30.5558 23.3309 30.5558H23.3497C23.8616 30.5229 24.3595 30.4102 24.8339 30.2176C25.0124 30.1425 25.0969 29.9358 25.0265 29.7573C24.9898 29.6717 24.9213 29.6037 24.8353 29.5677C24.7494 29.5318 24.6529 29.5307 24.5662 29.5647ZM26.9522 27.7611C26.9123 27.7378 26.868 27.7228 26.8222 27.7168C26.7763 27.7108 26.7297 27.7141 26.6851 27.7263C26.6405 27.7385 26.5988 27.7596 26.5624 27.7881C26.526 27.8167 26.4956 27.8522 26.4731 27.8926C26.2571 28.2637 25.9847 28.6018 25.6559 28.8884C25.5103 29.0152 25.4962 29.2359 25.6277 29.3815C25.658 29.4167 25.6951 29.4454 25.7366 29.4661C25.7782 29.4868 25.8234 29.4991 25.8698 29.5021C25.9161 29.5052 25.9625 29.499 26.0065 29.4839C26.0504 29.4689 26.0909 29.4453 26.1256 29.4144C26.506 29.0762 26.8301 28.6817 27.0837 28.2402C27.1071 28.2002 27.1222 28.156 27.1282 28.1101C27.1342 28.0642 27.131 28.0176 27.1187 27.973C27.1065 27.9284 27.0854 27.8866 27.0569 27.8502C27.0283 27.8139 26.9927 27.7835 26.9522 27.7611ZM27.2434 24.9993C27.0509 25.0275 26.9194 25.2059 26.9475 25.3985C26.971 25.5817 26.9851 25.7696 26.9851 25.9528C26.9851 26.197 26.9616 26.4459 26.9194 26.6855C26.8818 26.8734 27.0086 27.0612 27.1965 27.0941C27.22 27.0988 27.2434 27.1035 27.2622 27.1035C27.4313 27.1035 27.5769 26.9861 27.6098 26.817C27.6662 26.5305 27.6897 26.244 27.6897 25.9528C27.6897 25.732 27.6756 25.5112 27.6427 25.2999C27.6369 25.2536 27.6219 25.209 27.5985 25.1687C27.5752 25.1283 27.5439 25.0931 27.5067 25.0651C27.4695 25.037 27.427 25.0168 27.3817 25.0055C27.3365 24.9942 27.2895 24.9921 27.2434 24.9993ZM23.1853 9.43821C23.1853 9.24563 23.0303 9.08594 22.833 9.08594H21.4239C21.3305 9.08594 21.2409 9.12305 21.1748 9.18912C21.1087 9.25518 21.0716 9.34478 21.0716 9.43821C21.0716 9.53164 21.1087 9.62124 21.1748 9.6873C21.2409 9.75337 21.3305 9.79048 21.4239 9.79048H22.833C23.0303 9.79048 23.1853 9.63548 23.1853 9.43821ZM25.0218 21.7725C24.5615 21.5564 24.0683 21.4202 23.561 21.3685C23.4679 21.36 23.3751 21.3881 23.3023 21.4469C23.2295 21.5056 23.1825 21.5904 23.1712 21.6832C23.1524 21.8758 23.2933 22.0496 23.4859 22.0731C23.918 22.1153 24.336 22.2281 24.7259 22.4112C24.8107 22.4504 24.9075 22.4546 24.9954 22.423C25.0833 22.3913 25.1552 22.3264 25.1956 22.2421C25.2754 22.0637 25.2003 21.857 25.0218 21.7725ZM20.3671 9.43821C20.3671 9.24563 20.2121 9.08594 20.0148 9.08594H18.6057C18.5123 9.08594 18.4227 9.12305 18.3566 9.18912C18.2906 9.25518 18.2534 9.34478 18.2534 9.43821C18.2534 9.53164 18.2906 9.62124 18.3566 9.6873C18.4227 9.75337 18.5123 9.79048 18.6057 9.79048H20.0148C20.2121 9.79048 20.3671 9.63548 20.3671 9.43821ZM21.9218 29.8559H20.5127C20.4193 29.8559 20.3297 29.8931 20.2636 29.9591C20.1975 30.0252 20.1604 30.1148 20.1604 30.2082C20.1604 30.3016 20.1975 30.3912 20.2636 30.4573C20.3297 30.5234 20.4193 30.5605 20.5127 30.5605H21.9218C22.1191 30.5605 22.2741 30.4055 22.2741 30.2082C22.2741 30.0156 22.1191 29.8559 21.9218 29.8559ZM22.1144 21.345H20.7053C20.6118 21.345 20.5222 21.3821 20.4562 21.4482C20.3901 21.5143 20.353 21.6039 20.353 21.6973C20.353 21.7907 20.3901 21.8803 20.4562 21.9464C20.5222 22.0125 20.6118 22.0496 20.7053 22.0496H22.1144C22.2078 22.0496 22.2974 22.0125 22.3635 21.9464C22.4295 21.8803 22.4666 21.7907 22.4666 21.6973C22.4666 21.6039 22.4295 21.5143 22.3635 21.4482C22.2974 21.3821 22.2078 21.345 22.1144 21.345ZM9.23996 9.31609C5.57633 9.31609 2.59375 12.1718 2.59375 15.6852C2.59375 19.1938 5.57633 22.0496 9.23996 22.0496C12.9036 22.0496 15.8862 19.1938 15.8862 15.6852C15.8862 12.1718 12.9036 9.31609 9.23996 9.31609ZM9.23996 21.345C5.96148 21.345 3.2983 18.804 3.2983 15.6852C3.2983 12.5617 5.96148 10.0206 9.23996 10.0206C12.5184 10.0206 15.1816 12.5617 15.1816 15.6852C15.1816 18.804 12.5184 21.345 9.23996 21.345Z" fill="black"/>
<path id="Vector_13" d="M12.7864 18.8046L9.39987 11.1345C9.38668 11.1032 9.36441 11.0766 9.33593 11.0582C9.30745 11.0398 9.27408 11.0303 9.24017 11.0311C9.20626 11.0303 9.17289 11.0398 9.14441 11.0582C9.11593 11.0766 9.09366 11.1032 9.08047 11.1345L5.69396 18.8046C5.66578 18.8704 5.67987 18.9502 5.73153 19.0019C5.7832 19.0535 5.85835 19.0676 5.92411 19.0395L9.24017 17.5646L12.5515 19.0395C12.5844 19.0536 12.6208 19.0576 12.6559 19.0509C12.6911 19.0442 12.7235 19.0272 12.7488 19.0019C12.8005 18.9502 12.8146 18.8704 12.7864 18.8046ZM9.31062 17.2123C9.26542 17.1941 9.21492 17.1941 9.16971 17.2123L6.20123 18.5322L9.24017 11.6417L12.2791 18.5322L9.31062 17.2123ZM27.8637 0.439453C26.37 0.439453 25.1582 1.65127 25.1582 3.14491C25.1582 4.51642 26.1821 5.64839 27.5114 5.81748V9.08657H27.0605C26.967 9.08657 26.8774 9.12369 26.8114 9.18975C26.7453 9.25582 26.7082 9.34542 26.7082 9.43885C26.7082 9.53228 26.7453 9.62188 26.8114 9.68794C26.8774 9.75401 26.967 9.79112 27.0605 9.79112H27.8637C28.0562 9.79112 28.2159 9.63612 28.2159 9.43885V5.81748C28.8782 5.73294 29.4653 5.40885 29.888 4.92976C30.3238 4.43732 30.5644 3.80248 30.5644 3.14491C30.5644 1.65127 29.3526 0.439453 27.8637 0.439453ZM27.8637 5.14112C26.7599 5.14112 25.8627 4.244 25.8627 3.14491C25.8627 2.04112 26.7599 1.144 27.8637 1.144C28.9627 1.144 29.8599 2.04112 29.8599 3.14491C29.8586 3.67395 29.6479 4.18098 29.2738 4.55507C28.8997 4.92917 28.3927 5.13988 27.8637 5.14112Z" fill="black"/>
</g>
<defs>
<clipPath id="clip0_5910_12056">
<rect width="31" height="31" fill="white"/>
</clipPath>
</defs>
</svg>
