<?xml version="1.0" encoding="utf-8"?>
<!-- Generator: Adobe Illustrator 24.3.0, SVG Export Plug-In . SVG Version: 6.00 Build 0)  -->
<svg version="1.1" id="Layer_1" xmlns="http://www.w3.org/2000/svg" xmlns:xlink="http://www.w3.org/1999/xlink" x="0px" y="0px"
	 viewBox="0 0 512 512" style="enable-background:new 0 0 512 512;" xml:space="preserve">
<style type="text/css">
	.st0{fill-rule:evenodd;clip-rule:evenodd;fill:#555768;}
	.st1{fill-rule:evenodd;clip-rule:evenodd;fill:#E6E6E6;}
	.st2{fill-rule:evenodd;clip-rule:evenodd;fill:#FDC28C;}
	.st3{fill-rule:evenodd;clip-rule:evenodd;fill:#F2A568;}
	.st4{fill-rule:evenodd;clip-rule:evenodd;fill:#AB6A46;}
	.st5{fill-rule:evenodd;clip-rule:evenodd;fill:#E35454;}
	.st6{fill-rule:evenodd;clip-rule:evenodd;fill:#C8C8C8;}
	.st7{fill-rule:evenodd;clip-rule:evenodd;fill:#41434D;}
	.st8{fill:#FBC856;}
	.st9{fill:#F4B537;}
</style>
<g>
	<path class="st0" d="M177.8,291.2h159.8l43.6,5.5c47.9,6.1,76.8,50.6,76.8,98.9V468c0,15.4-12.6,27.9-27.9,27.9H82
		C66.6,495.9,54,483.4,54,468v-72.3c0-48.3,28.8-93.3,76.8-98.9L177.8,291.2z"/>
	<path class="st1" d="M256,464.2c-55.7-39.3-86.7-105-81.5-172.9h163C342.7,359.2,311.7,424.9,256,464.2z"/>
	<path class="st2" d="M201.7,268c4.9,14.9,35.8,45.7,54.3,54.1c18.5-8.4,49.4-39.1,54.3-54.1v-49.9H201.7V268z"/>
	<path class="st3" d="M310.3,241.2v-23.1H201.7v23.1C232,273.6,280,273.6,310.3,241.2z"/>
	<path class="st4" d="M347.8,133.3L160.1,136C116.1-0.2,282-23.1,301.1,19.2C349.6,22.6,381.4,77.5,347.8,133.3z"/>
	<path class="st2" d="M322.1,185.5c37.3,8.6,54.6-61.7,9.3-53.3c0-18.8-5.1-35.7-15.2-47c-6.4-7.1-16.9-8.5-25-3.3
		c-18.5,12-52.3,21.3-85.8,13.7c-9.6-2.2-19.2,3.1-22.5,12.3c-2.5,6.8-2.7,14.4-2.2,24.2c-45.3-8.4-28,61.9,9.3,53.3
		C206.7,273.8,305.3,273.8,322.1,185.5z"/>
	<path class="st5" d="M243.5,365.6l-20.3,69.5c4.7,17.1,15.4,27.1,32.7,29.1c18.6-4,32.3-11.8,32.7-29.1l-20.3-69.5l15.4-25.7
		c2.3-15-6.1-25-27.9-28.9c-18.5,7.3-27.1,17-27.9,28.9L243.5,365.6z"/>
	<path class="st6" d="M256,311c-18.5-8.4-43.8-28.1-54.3-43l-27.2,23.3l40.3,75C221.7,345.8,235.1,327.3,256,311z"/>
	<path class="st6" d="M256,311c18.5-8.4,43.8-28.1,54.3-43l27.2,23.3l-40.3,75C290.3,345.8,276.9,327.3,256,311z"/>
	<path class="st0" d="M194.6,411h10.3c13.3,20.5,30.5,38.7,51.1,53.2c20.6-14.5,37.9-32.7,51.1-53.2h10.3v60.5H194.6V411z"/>
	<path class="st7" d="M261.5,495.9h-11.1v-35.8l5.5,4l5.5-4V495.9z"/>
	<path class="st8" d="M303.3,458.9c2.6-2.5,1.2-7-2.4-7.5l-25.9-3.8c-1.4-0.2-2.7-1.1-3.3-2.4l-11.6-23.5c-1.6-3.3-6.3-3.3-7.9,0
		l-11.6,23.5c-0.6,1.3-1.9,2.2-3.3,2.4l-25.9,3.8c-3.6,0.5-5,4.9-2.4,7.5l18.7,18.3c1,1,1.5,2.5,1.3,3.9l-4.4,25.8
		c-0.6,3.6,3.1,6.3,6.4,4.6l23.2-12.2c1.3-0.7,2.8-0.7,4.1,0l23.2,12.2c3.2,1.7,7-1,6.4-4.6l-4.4-25.8c-0.2-1.4,0.2-2.9,1.3-3.9
		L303.3,458.9z"/>
	<path class="st8" d="M423.3,458.9c2.6-2.5,1.2-7-2.4-7.5l-25.9-3.8c-1.4-0.2-2.7-1.1-3.3-2.4l-11.6-23.5c-1.6-3.3-6.3-3.3-7.9,0
		l-11.6,23.5c-0.6,1.3-1.9,2.2-3.3,2.4l-25.9,3.8c-3.6,0.5-5,4.9-2.4,7.5l18.7,18.3c1,1,1.5,2.5,1.3,3.9l-4.4,25.8
		c-0.6,3.6,3.1,6.3,6.4,4.6l23.2-12.2c1.3-0.7,2.8-0.7,4.1,0l23.2,12.2c3.2,1.7,7-1,6.4-4.6l-4.4-25.8c-0.2-1.4,0.2-2.9,1.3-3.9
		L423.3,458.9z"/>
	<path class="st8" d="M183.4,458.9c2.6-2.5,1.2-7-2.4-7.5l-25.9-3.8c-1.4-0.2-2.7-1.1-3.3-2.4l-11.6-23.5c-1.6-3.3-6.3-3.3-7.9,0
		l-11.6,23.5c-0.6,1.3-1.9,2.2-3.3,2.4l-25.9,3.8c-3.6,0.5-5,4.9-2.4,7.5l18.7,18.3c1,1,1.5,2.5,1.3,3.9l-4.4,25.8
		c-0.6,3.6,3.1,6.3,6.4,4.6l23.2-12.2c1.3-0.7,2.8-0.7,4.1,0l23.2,12.2c3.2,1.7,7-1,6.4-4.6l-4.4-25.8c-0.2-1.4,0.2-2.9,1.3-3.9
		L183.4,458.9z"/>
	<path class="st9" d="M246.9,481.1c0.2-1.4-0.2-2.9-1.3-3.9l-18.7-18.3c-2.6-2.5-1.2-7,2.4-7.5l25.9-3.8c1.4-0.2,2.7-1.1,3.3-2.4
		l6.6-13.4l-5-10.1c-1.6-3.3-6.3-3.3-7.9,0l-11.6,23.5c-0.6,1.3-1.9,2.2-3.3,2.4l-25.9,3.8c-3.6,0.5-5,4.9-2.4,7.5l18.7,18.3
		c1,1,1.5,2.5,1.3,3.9l-4.4,25.8c-0.6,3.6,3.1,6.3,6.4,4.6l11.7-6.2L246.9,481.1z"/>
	<path class="st9" d="M366.9,481.1c0.2-1.4-0.2-2.9-1.3-3.9l-18.7-18.3c-2.6-2.5-1.2-7,2.4-7.5l25.9-3.8c1.4-0.2,2.7-1.1,3.3-2.4
		l6.6-13.4l-5-10.1c-1.6-3.3-6.3-3.3-7.9,0l-11.6,23.5c-0.6,1.3-1.9,2.2-3.3,2.4l-25.9,3.8c-3.6,0.5-5,4.9-2.4,7.5l18.7,18.3
		c1,1,1.5,2.5,1.3,3.9l-4.4,25.8c-0.6,3.6,3.1,6.3,6.4,4.6l11.7-6.2L366.9,481.1z"/>
	<path class="st9" d="M126.9,481.1c0.2-1.4-0.2-2.9-1.3-3.9l-18.7-18.3c-2.6-2.5-1.2-7,2.4-7.5l25.9-3.8c1.4-0.2,2.7-1.1,3.3-2.4
		l6.6-13.4l-5-10.1c-1.6-3.3-6.3-3.3-7.9,0l-11.6,23.5c-0.6,1.3-1.9,2.2-3.3,2.4l-25.9,3.8c-3.6,0.5-5,4.9-2.4,7.5l18.7,18.3
		c1,1,1.5,2.5,1.3,3.9l-4.4,25.8c-0.6,3.6,3.1,6.3,6.4,4.6l11.7-6.2L126.9,481.1z"/>
</g>
</svg>
