<?xml version="1.0" encoding="iso-8859-1"?>
<!-- Generator: Adobe Illustrator 19.0.0, SVG Export Plug-In . SVG Version: 6.00 Build 0)  -->
<svg xmlns="http://www.w3.org/2000/svg" xmlns:xlink="http://www.w3.org/1999/xlink" version="1.1" id="Capa_1" x="0px" y="0px" viewBox="0 0 512 512" style="enable-background:new 0 0 512 512;" xml:space="preserve" width="512" height="512">
<g>
	<path style="fill:#B57F5F;" d="M260.064,77.206H243.81V36.571c0-8.964-7.294-16.254-16.254-16.254H162.54   c-8.96,0-16.254,7.29-16.254,16.254v40.635h-16.254V36.571c0-17.925,14.579-32.508,32.508-32.508h65.016   c17.929,0,32.508,14.583,32.508,32.508V77.206z"/>
	<rect x="130.032" y="52.825" style="fill:#9F6E50;" width="16.254" height="24.381"/>
	<rect x="243.81" y="52.825" style="fill:#9F6E50;" width="16.254" height="24.381"/>
	<path style="fill:#B57F5F;" d="M349.46,377.905H40.635c-13.465,0-24.381-10.916-24.381-24.381V199.111h357.587v154.413   C373.841,366.989,362.926,377.905,349.46,377.905z"/>
	<path style="fill:#9F6E50;" d="M358.483,346.721c-3.45,0-6.864,0.737-10.001,2.146c-7.119-5.734-15.038-10.316-23.527-13.615   c-1.153-11.393-10.114-20.562-21.742-21.793c-3.583-0.379-7.162-0.571-10.64-0.571c-3.478,0-7.058,0.192-10.638,0.571   c-11.63,1.232-20.591,10.4-21.744,21.793c-8.489,3.298-16.409,7.881-23.527,13.615c-3.137-1.41-6.551-2.146-10.001-2.146   c-7.793,0-15.184,3.761-19.771,10.062c-2.119,2.913-4.075,5.917-5.815,8.931c-1.74,3.013-3.364,6.21-4.826,9.501   c-0.392,0.882-0.644,1.788-0.926,2.689H349.46c13.465,0,24.381-10.916,24.381-24.381v-1.292   C369.53,348.747,364.129,346.721,358.483,346.721z"/>
	<path style="fill:#9F6E50;" d="M65.016,247.873h308.825v-48.762H16.254v154.413c0,10.6,6.806,19.638,16.254,22.997v-96.14   C32.508,262.427,47.062,247.873,65.016,247.873z"/>
	<path style="fill:#C38C66;" d="M365.714,231.619H24.381C10.916,231.619,0,220.703,0,207.238v-97.524   c0-22.442,18.193-40.635,40.635-40.635H349.46c22.442,0,40.635,18.193,40.635,40.635v97.524   C390.095,220.703,379.18,231.619,365.714,231.619z"/>
	<path style="fill:#FFE09F;" d="M219.429,199.111h-48.762c-4.492,0-8.127-3.639-8.127-8.127s3.635-8.127,8.127-8.127h48.762   c4.492,0,8.127,3.639,8.127,8.127S223.921,199.111,219.429,199.111z"/>
	<path style="fill:#DAD8DB;" d="M414.476,386.032h-8.127c-4.492,0-8.127-3.639-8.127-8.127s3.635-8.127,8.127-8.127h8.127   c4.492,0,8.127,3.639,8.127,8.127S418.968,386.032,414.476,386.032z"/>
	<path style="fill:#DAD8DB;" d="M503.873,386.032h-8.127c-4.492,0-8.127-3.639-8.127-8.127s3.635-8.127,8.127-8.127h8.127   c4.492,0,8.127,3.639,8.127,8.127S508.365,386.032,503.873,386.032z"/>
	<path style="fill:#DAD8DB;" d="M455.111,345.397c-4.492,0-8.127-3.639-8.127-8.127v-8.127c0-4.488,3.635-8.127,8.127-8.127   s8.127,3.639,8.127,8.127v8.127C463.238,341.758,459.603,345.397,455.111,345.397z"/>
	<path style="fill:#DAD8DB;" d="M455.111,434.794c-4.492,0-8.127-3.639-8.127-8.127v-8.127c0-4.488,3.635-8.127,8.127-8.127   s8.127,3.639,8.127,8.127v8.127C463.238,431.155,459.603,434.794,455.111,434.794z"/>
	<path style="fill:#DAD8DB;" d="M426.381,357.298c-2.079,0-4.159-0.794-5.746-2.381l-5.746-5.746c-3.175-3.175-3.175-8.317,0-11.492   c3.175-3.175,8.317-3.175,11.492,0l5.746,5.746c3.175,3.175,3.175,8.317,0,11.492C430.54,356.504,428.46,357.298,426.381,357.298z"/>
	<path style="fill:#DAD8DB;" d="M489.587,420.512c-2.079,0-4.159-0.794-5.746-2.381l-5.746-5.746c-3.175-3.175-3.175-8.317,0-11.492   c3.175-3.175,8.317-3.175,11.492,0l5.746,5.746c3.175,3.175,3.175,8.317,0,11.492C493.746,419.718,491.667,420.512,489.587,420.512   z"/>
	<path style="fill:#DAD8DB;" d="M483.841,357.298c-2.079,0-4.159-0.794-5.746-2.381c-3.175-3.175-3.175-8.317,0-11.492l5.746-5.746   c3.175-3.175,8.317-3.175,11.492,0c3.175,3.175,3.175,8.317,0,11.492l-5.746,5.746C488,356.504,485.921,357.298,483.841,357.298z"/>
	<path style="fill:#DAD8DB;" d="M420.635,420.512c-2.079,0-4.159-0.794-5.746-2.381c-3.175-3.175-3.175-8.317,0-11.492l5.746-5.746   c3.175-3.175,8.317-3.175,11.492,0c3.175,3.175,3.175,8.317,0,11.492l-5.746,5.746   C424.794,419.718,422.714,420.512,420.635,420.512z"/>
	<path style="fill:#B57F5F;" d="M16.254,166.603V77.212C6.438,84.629,0,96.463,0,109.714v97.524   c0,13.465,10.916,24.381,24.381,24.381h341.333c10.6,0,19.639-6.806,22.997-16.254H65.016   C38.085,215.365,16.254,193.534,16.254,166.603z"/>
	<path style="fill:#FFE09F;" d="M81.27,264.127L81.27,264.127c-8.977,0-16.254-7.277-16.254-16.254v-32.508   c0-8.977,7.277-16.254,16.254-16.254h0c8.977,0,16.254,7.277,16.254,16.254v32.508C97.524,256.85,90.247,264.127,81.27,264.127z"/>
	<path style="fill:#FFFFFF;" d="M81.27,199.111L81.27,199.111c8.977,0,16.254,7.277,16.254,16.254v32.508h0   c-8.977,0-16.254-7.277-16.254-16.254V199.111z"/>
	<path style="fill:#FFE09F;" d="M308.825,264.127L308.825,264.127c-8.977,0-16.254-7.277-16.254-16.254v-32.508   c0-8.977,7.277-16.254,16.254-16.254h0c8.977,0,16.254,7.277,16.254,16.254v32.508C325.079,256.85,317.802,264.127,308.825,264.127   z"/>
	<path style="fill:#FFFFFF;" d="M308.825,199.111L308.825,199.111c8.977,0,16.254,7.277,16.254,16.254v32.508h0   c-8.977,0-16.254-7.277-16.254-16.254V199.111z"/>
	<path style="fill:#9F6E50;" d="M81.27,182.857L81.27,182.857c-4.488,0-8.127-3.639-8.127-8.127V69.079h16.254V174.73   C89.397,179.219,85.758,182.857,81.27,182.857z"/>
	<path style="fill:#9F6E50;" d="M308.825,182.857L308.825,182.857c-4.488,0-8.127-3.639-8.127-8.127V69.079h16.254V174.73   C316.952,179.219,313.314,182.857,308.825,182.857z"/>
	<path style="fill:#DAD8DB;" d="M370.665,444.858l-8.196-4.732c2.105-6.824,3.246-14.071,3.246-21.586   c0-7.515-1.141-14.762-3.246-21.586l8.196-4.733c3.622-2.091,5.073-6.585,3.375-10.407c-1.198-2.697-2.539-5.36-4.048-7.973   c-1.509-2.614-3.144-5.106-4.88-7.492c-2.461-3.381-7.078-4.372-10.7-2.281l-8.277,4.779c-9.829-10.59-22.723-18.261-37.308-21.575   v-9.522c0-4.182-3.167-7.686-7.325-8.126c-2.935-0.311-5.911-0.481-8.929-0.481c-3.018,0-5.994,0.17-8.929,0.481   c-4.159,0.44-7.325,3.944-7.325,8.126v9.522c-14.585,3.314-27.479,10.985-37.308,21.575l-8.277-4.779   c-3.622-2.091-8.239-1.1-10.7,2.281c-1.736,2.386-3.372,4.878-4.88,7.492c-1.509,2.613-2.85,5.276-4.048,7.973   c-1.698,3.822-0.248,8.316,3.375,10.407l8.196,4.733c-2.105,6.824-3.246,14.071-3.246,21.586c0,7.515,1.141,14.762,3.246,21.586   l-8.196,4.732c-3.622,2.091-5.073,6.585-3.375,10.407c1.198,2.697,2.539,5.359,4.048,7.973c1.509,2.613,3.144,5.106,4.88,7.492   c2.461,3.381,7.078,4.372,10.7,2.281l8.277-4.779c9.83,10.591,22.723,18.261,37.308,21.575v9.522c0,4.183,3.167,7.686,7.325,8.126   c2.935,0.311,5.911,0.481,8.929,0.481c3.018,0,5.994-0.17,8.929-0.481c4.159-0.44,7.325-3.944,7.325-8.126v-9.522   c14.585-3.314,27.478-10.985,37.308-21.575l8.277,4.779c3.622,2.091,8.239,1.1,10.7-2.281c1.736-2.386,3.372-4.878,4.88-7.492   c1.509-2.614,2.85-5.276,4.048-7.973C375.738,451.443,374.287,446.949,370.665,444.858z M292.571,459.175   c-22.442,0-40.635-18.193-40.635-40.635c0-22.442,18.193-40.635,40.635-40.635c22.442,0,40.635,18.193,40.635,40.635   C333.206,440.982,315.013,459.175,292.571,459.175z"/>
	<path style="fill:#C8C5C9;" d="M340.453,449.12c7.36-11.413,10.755-25.603,8.122-40.719c-4.036-23.169-22.787-41.899-45.965-45.885   c-19.207-3.303-36.919,3.091-49.297,15.021c-6.347,6.117-17.138-0.118-14.372-8.488l0.068-0.203l-8.277-4.779   c-3.622-2.091-8.24-1.101-10.7,2.281c-1.736,2.386-3.372,4.879-4.88,7.492c-1.509,2.613-2.85,5.276-4.048,7.974   c-1.697,3.822-0.247,8.315,3.375,10.406l8.196,4.733c-2.105,6.824-3.246,14.071-3.246,21.586c0,7.515,1.141,14.762,3.246,21.586   l-8.196,4.732c-3.621,2.091-5.072,6.584-3.375,10.406c1.198,2.698,2.539,5.36,4.048,7.974c1.509,2.613,3.144,5.106,4.881,7.492   c2.461,3.382,7.078,4.372,10.7,2.281l8.277-4.779c9.83,10.591,22.723,18.261,37.308,21.575l0,9.522   c0,4.183,3.167,7.686,7.327,8.126c2.935,0.311,5.91,0.481,8.927,0.481s5.993-0.17,8.927-0.481c4.159-0.44,7.327-3.944,7.327-8.126   l0-9.522c13.193-2.998,25.104-9.661,34.513-18.725c0,0,0.002,0.002,0,0C336.875,465.602,335.86,456.241,340.453,449.12z    M292.571,459.175c-22.442,0-40.635-18.193-40.635-40.635c0-22.442,18.193-40.635,40.635-40.635   c22.442,0,40.635,18.193,40.635,40.635C333.206,440.982,315.013,459.175,292.571,459.175z"/>
	<path style="fill:#ECEAEC;" d="M455.111,337.27c-22.442,0-40.635,18.193-40.635,40.635c0,22.442,18.193,40.635,40.635,40.635   s40.635-18.193,40.635-40.635C495.746,355.463,477.553,337.27,455.111,337.27z M455.111,394.159   c-8.977,0-16.254-7.277-16.254-16.254c0-8.977,7.277-16.254,16.254-16.254s16.254,7.277,16.254,16.254   C471.365,386.881,464.088,394.159,455.111,394.159z"/>
	<path style="fill:#DAD8DB;" d="M463.238,410.413c-22.442,0-40.635-18.193-40.635-40.635c0-9.144,3.019-17.602,8.116-24.392   c-9.875,7.413-16.243,19.22-16.243,32.518c0,22.442,18.193,40.635,40.635,40.635c13.298,0,25.099-6.374,32.512-16.249   C480.834,407.387,472.382,410.413,463.238,410.413z"/>
</g>















</svg>
