<?xml version="1.0" encoding="utf-8"?>
<!-- Generator: Adobe Illustrator 24.3.0, SVG Export Plug-In . SVG Version: 6.00 Build 0)  -->
<svg version="1.1" id="Layer_1" xmlns="http://www.w3.org/2000/svg" xmlns:xlink="http://www.w3.org/1999/xlink" x="0px" y="0px"
	 viewBox="0 0 100 100" style="enable-background:new 0 0 100 100;" xml:space="preserve">
<style type="text/css">
	.st0{fill:#18577A;}
	.st1{opacity:0.1;enable-background:new    ;}
	.st2{fill:#F4F6F8;}
	.st3{fill:#FFD4A9;}
	.st4{fill:#F7C997;}
	.st5{fill:#3A3A3A;}
	.st6{fill:#303030;}
</style>
<g>
	<g id="job-search">
		<g id="Group">
			<path id="Vector" class="st0" d="M86.7,70.1c-13.3,13.3-33.6,15.4-49.1,6.2c-1.3-0.7-2.6-1.6-3.8-2.6c-1.5-1.1-2.9-2.3-4.3-3.7
				c-1.3-1.2-2.3-2.6-3.4-3.8c-0.4-0.5-0.9-1.1-1.2-1.7c-2.4-3.5-4.3-7.2-5.4-11.2c-4.3-13.8-0.9-29.5,10.1-40.4
				C44.5-2,68.2-2.9,84.1,10.3c1,0.7,1.9,1.6,2.8,2.6c11,11,14.2,26.6,10.1,40.4C94.9,59.4,91.6,65.2,86.7,70.1z"/>
			<path id="Vector_2" class="st1" d="M96.8,53.3c-1.9,6.2-5.2,11.9-10.1,16.8c-13.3,13.3-33.6,15.4-49.1,6.2
				c-1.3-0.7-2.7-1.6-3.8-2.6c-1.5-1.1-2.9-2.3-4.3-3.7c-0.7-0.7-1.5-1.6-2.1-2.3c0.6,0.5,1.2,1.1,1.8,1.5c1.3,1,2.6,1.8,3.8,2.6
				c15.5,9.1,35.8,7.1,49.1-6.3c4.9-4.9,8.2-10.6,10.1-16.8c3.9-12.9,1.3-27.3-7.9-38.1c0.9,0.6,1.6,1.4,2.3,2.1
				C97.7,23.8,101.1,39.5,96.8,53.3z"/>
			<path id="Vector_3" class="st2" d="M36.8,62.7c-11.7-11.8-11.7-30.8,0-42.5c11.8-11.7,30.8-11.7,42.5,0
				C91.2,32,91.2,51,79.4,62.7C67.6,74.4,48.7,74.5,36.8,62.7z"/>
			<path id="Vector_4" class="st1" d="M79.4,62.7c-11.8,11.8-30.8,11.8-42.5,0c-1-1-1.8-1.9-2.6-3c11.8,9,28.8,8.2,39.6-2.7
				c10.8-10.7,11.7-27.7,2.7-39.6c1.1,0.7,2,1.6,3,2.6C91.2,31.9,91.2,50.9,79.4,62.7z"/>
			<g id="Group_2">
				<path id="Vector_5" class="st3" d="M76.7,32v22.3c0,1.2-1,2.1-2.1,2.1H41.7c-1.2,0-2.1-1-2.1-2.1V32c0-1.2,1-2.1,2.1-2.1h32.9
					C75.8,29.9,76.7,30.8,76.7,32z"/>
				<path id="Vector_6" class="st1" d="M76.7,32v22.3c0,1.2-1,2.1-2.1,2.1h-2.9c1.2,0,2.1-1,2.1-2.1V32c0-1.2-1-2.1-2.1-2.1h2.9
					C75.8,29.9,76.7,30.8,76.7,32z"/>
				<path id="Vector_7" class="st4" d="M75.1,32.7L71.6,39c-0.4,0.9-1.4,1.4-2.3,1.4h-5.5v-2.1c0-0.6-0.5-1.2-1.2-1.2h-8.8
					c-0.6,0-1.2,0.5-1.2,1.2v2.1h-5.5c-1,0-1.9-0.5-2.3-1.4l-3.5-6.4c-0.9-1.5-0.6-2.9,0.5-2.9h32.9C75.8,29.9,76,31.2,75.1,32.7z"
					/>
				<path id="Vector_8" class="st1" d="M75.1,32.7L71.6,39c-0.4,0.9-1.4,1.4-2.3,1.4h-2.6c1,0,1.9-0.5,2.3-1.4l3.5-6.4
					c0.9-1.5,0.6-2.9-0.5-2.9h2.6C75.8,29.9,76,31.2,75.1,32.7z"/>
				<path id="Vector_9" class="st5" d="M63.8,38.3v4.3c0,0.6-0.5,1.2-1.2,1.2h-8.8c-0.6,0-1.2-0.5-1.2-1.2v-4.3
					c0-0.6,0.5-1.2,1.2-1.2h8.7C63.2,37.1,63.8,37.7,63.8,38.3z"/>
				<g id="Group_3">
					<path id="Vector_10" class="st6" d="M65.7,31H50.6c-0.6,0-1.1-0.4-1.1-1.1v-5.2c0-1.4,1.1-2.4,2.4-2.4h12.4
						c1.4,0,2.4,1.1,2.4,2.4v5.2C66.7,30.4,66.3,31,65.7,31z M51.6,28.8h13v-4.1c0-0.2-0.1-0.3-0.3-0.3H52c-0.2,0-0.3,0.1-0.3,0.3
						V28.8z"/>
				</g>
			</g>
			<path id="Vector_11" class="st5" d="M4.9,97.4l-0.5-0.5c-5.2-5.2-4.6-13.8,1.4-18.2l19.2-14.2c0.4,0.5,0.7,1.1,1.2,1.7
				c1.1,1.4,2.2,2.7,3.5,3.9c1.4,1.4,2.8,2.6,4.3,3.7c1.3,1,2.6,1.8,3.8,2.6L23,96C18.6,102,10,102.6,4.9,97.4z"/>
			<path id="Vector_12" class="st1" d="M37.6,76.2L23,96.1c-4.4,6-13,6.6-18.2,1.4L4.3,97c-0.5-0.5-1-1.1-1.4-1.6
				C8.1,99,15.6,98,19.5,92.6l14-19c0.1,0.1,0.2,0.2,0.3,0.2C35,74.7,36.3,75.5,37.6,76.2z"/>
		</g>
	</g>
</g>
</svg>
