<svg width="35" height="35" viewBox="0 0 35 35" fill="none" xmlns="http://www.w3.org/2000/svg">
<g id="location">
<g id="Group">
<path id="Vector" d="M17.5029 2.3335C15.9708 2.33346 14.4537 2.63521 13.0382 3.22151C11.6226 3.80782 10.3365 4.6672 9.2531 5.75058C8.16972 6.83397 7.31024 8.12014 6.72394 9.53566C6.13763 10.9512 5.8359 12.4683 5.83594 14.0005C5.83594 22.5054 14.2126 32.667 17.5029 32.667C20.7928 32.667 29.1695 22.5054 29.1695 14.0005C29.1695 12.4684 28.8678 10.9513 28.2815 9.53576C27.6952 8.12027 26.8358 6.83412 25.7525 5.75074C24.6691 4.66736 23.383 3.80797 21.9676 3.22164C20.5521 2.63531 19.035 2.33352 17.5029 2.3335Z" fill="#FF4B3D"/>
<path id="Vector_2" d="M11.6719 14.0004C11.6719 12.8467 12.014 11.7188 12.655 10.7595C13.296 9.80025 14.2069 9.05256 15.2729 8.61104C16.3388 8.16952 17.5116 8.054 18.6432 8.27908C19.7748 8.50416 20.8142 9.05973 21.63 9.87554C22.4458 10.6914 23.0014 11.7308 23.2265 12.8623C23.4516 13.9939 23.336 15.1668 22.8945 16.2327C22.453 17.2986 21.7053 18.2096 20.746 18.8506C19.7868 19.4916 18.6589 19.8337 17.5052 19.8337C15.9581 19.8337 14.4744 19.2191 13.3805 18.1251C12.2865 17.0312 11.6719 15.5475 11.6719 14.0004Z" fill="white"/>
</g>
</g>
</svg>
