<?xml version="1.0" encoding="utf-8"?>
<!-- Generator: Adobe Illustrator 24.3.0, SVG Export Plug-In . SVG Version: 6.00 Build 0)  -->
<svg version="1.1" id="Layer_1" xmlns="http://www.w3.org/2000/svg" xmlns:xlink="http://www.w3.org/1999/xlink" x="0px" y="0px"
	 viewBox="0 0 512 512" style="enable-background:new 0 0 512 512;" xml:space="preserve">
<style type="text/css">
	.st0{fill:#F7954C;}
	.st1{fill:#FFCB2B;}
</style>
<g>
	<path class="st0" d="M287.1,89.8c-9.9,0-17.9-8-18-17.9c0-3.2,0.8-6.3,2.4-9.1c4.9-8.6,1.9-19.6-6.7-24.6c-2.7-1.5-5.7-2.4-8.9-2.4
		c-9.9,0-18,8.1-18,18c0,3.1,0.8,6.2,2.4,8.9c4.8,8.7,1.6,19.6-7.1,24.4c-8.4,4.7-19.1,1.8-24-6.4C194.5,55,203.4,22,229.2,7.2
		C237.4,2.5,246.6,0,256,0c29.8,0.1,53.9,24.3,53.8,54.1c0,9.4-2.5,18.6-7.2,26.8C299.4,86.4,293.5,89.8,287.1,89.8L287.1,89.8z
		 M327.9,404.2H184.1c-9.9,0-18,8-18,18c0,49.5,40.3,89.8,89.8,89.8s89.8-40.3,89.8-89.8C345.8,412.3,337.8,404.2,327.9,404.2z"/>
	<path class="st1" d="M417.7,332.4V224.6c0-89.1-72.5-161.7-161.7-161.7S94.3,135.4,94.3,224.6v107.8c-29.7,0-53.9,24.2-53.9,53.9
		s24.2,53.9,53.9,53.9h323.4c29.7,0,53.9-24.2,53.9-53.9S447.4,332.4,417.7,332.4z"/>
</g>
</svg>
