<?xml version="1.0" encoding="utf-8"?>
<!-- Generator: Adobe Illustrator 24.3.0, SVG Export Plug-In . SVG Version: 6.00 Build 0)  -->
<svg version="1.1" id="Layer_1" xmlns="http://www.w3.org/2000/svg" xmlns:xlink="http://www.w3.org/1999/xlink" x="0px" y="0px"
	 viewBox="0 0 512 512" style="enable-background:new 0 0 512 512;" xml:space="preserve">
<style type="text/css">
	.st0{fill-rule:evenodd;clip-rule:evenodd;fill:#8AC9FE;}
	.st1{fill-rule:evenodd;clip-rule:evenodd;fill:#60B7FF;}
	.st2{fill-rule:evenodd;clip-rule:evenodd;fill:#F6DCCD;}
	.st3{fill-rule:evenodd;clip-rule:evenodd;fill:#F1CBBC;}
	.st4{fill-rule:evenodd;clip-rule:evenodd;fill:#FFD064;}
	.st5{fill-rule:evenodd;clip-rule:evenodd;fill:#FFE177;}
	.st6{fill-rule:evenodd;clip-rule:evenodd;fill:#837683;}
	.st7{fill-rule:evenodd;clip-rule:evenodd;fill:#685E68;}
	.st8{fill-rule:evenodd;clip-rule:evenodd;fill:#ECEFF1;}
	.st9{fill-rule:evenodd;clip-rule:evenodd;fill:#D1D1D6;}
	.st10{fill-rule:evenodd;clip-rule:evenodd;fill:#8D9CA8;}
	.st11{fill-rule:evenodd;clip-rule:evenodd;fill:#8192A5;}
	.st12{fill-rule:evenodd;clip-rule:evenodd;}
</style>
<g>
	<g>
		<path class="st0" d="M86,438.3l330.1,0c9.2,0,23.7,2.3,29.2-5.1c5.5-7.4,0.5-22.5-2.1-31.3c-24.9-82.5-101.5-142.6-192.1-142.6
			c-90.6,0-167.2,60.1-192.1,142.6c-2.7,8.8-1.1,17.6,4.4,25C68.8,434.4,76.8,438.3,86,438.3L86,438.3z"/>
		<path class="st1" d="M416.1,438.3c9.2,0,23.7,2.3,29.2-5.1c5.5-7.4,0.5-22.5-2.1-31.3c-24.9-82.5-101.5-142.6-192.1-142.6
			c-9.6,0-19,0.7-28.3,2c78,11,141.6,66.9,163.9,140.6c2.7,8.8,1.1,17.6-4.4,25c-5.5,7.4-13.5,11.4-22.7,11.4L416.1,438.3z"/>
		
			<ellipse transform="matrix(0.7071 -0.7071 0.7071 0.7071 -38.0931 223.752)" class="st2" cx="251" cy="157.9" rx="101.4" ry="101.4"/>
		<path class="st3" d="M251.1,56.4c56,0,101.4,45.4,101.4,101.4s-45.4,101.4-101.4,101.4c-4.8,0-9.5-0.3-14.1-1
			c49.3-6.9,87.3-49.2,87.3-100.5c0-51.2-38-93.6-87.3-100.5C241.6,56.7,246.4,56.4,251.1,56.4L251.1,56.4z"/>
		<path class="st4" d="M141.7,169.6h218.8c8.1,0,14.7-6.6,14.7-14.7c0-8.1-6.6-14.7-14.7-14.7h-3c0.2-2.8,0.3-5.5,0.3-8.3
			c0-47.5-31-87.7-73.9-101.6c1.6-16.8-19-22.1-32.9-22.1c-13.8,0-34.5,5.3-32.9,22.1c-42.9,13.9-73.9,54.1-73.9,101.6
			c0,2.8,0.1,5.6,0.3,8.3h-3c-8.1,0-14.7,6.6-14.7,14.7C127,163,133.6,169.6,141.7,169.6z"/>
		<path class="st5" d="M127,155c0,8.1,6.6,14.7,14.7,14.7h218.8c8.1,0,14.7-6.6,14.7-14.7c0-8.1-6.6-14.7-14.7-14.7H141.7
			C133.6,140.3,127,146.9,127,155z"/>
		<path class="st4" d="M127.5,158.8c1.7,6.2,7.4,10.8,14.2,10.8h218.8c8.1,0,14.7-6.6,14.7-14.7c0-6.7-4.6-12.5-10.8-14.2
			c0.3,1.2,0.5,2.5,0.5,3.8c0,8.1-6.6,14.7-14.7,14.7H131.4C130,159.3,128.7,159.1,127.5,158.8L127.5,158.8z"/>
		<path class="st6" d="M142.4,298.9c9.3,2.2,18.1,5.9,26.2,10.9l17-7.6l20.1,20.1l-7.6,17c5,8.1,8.7,16.9,10.9,26.2l17.4,6.7v28.4
			l-17.4,6.7c-2.2,9.3-5.9,18.1-10.9,26.2l7.6,17l-20.1,20.1l-17-7.6c-8.1,5-16.9,8.7-26.2,10.9l-6.7,17.4h-28.4l-6.7-17.4
			c-9.3-2.2-18.1-5.9-26.2-10.9l-17,7.6l-20.1-20.1l7.6-17c-5-8.1-8.7-16.9-10.9-26.2l-17.4-6.7v-28.4l17.4-6.7
			c2.2-9.3,5.9-18.1,10.9-26.2l-7.6-17l20.1-20.1l17,7.6c8.1-5,16.9-8.7,26.2-10.9l6.7-17.4h28.4L142.4,298.9z"/>
		<path class="st7" d="M74.5,462.9l-17,7.6l-2.6-2.6l16-7.1C72,461.5,73.3,462.2,74.5,462.9z M142.4,298.9
			c9.3,2.2,18.1,5.9,26.2,10.9l-4.8,2.1c-8.1-5-20.6-10.8-29.9-13l-6.7-17.4h8.5L142.4,298.9z M168.6,462.9
			c-8.1,5-16.9,8.7-26.2,10.9l-6.7,17.4h-8.5l6.7-17.4c9.3-2.2,21.8-8,29.9-13L168.6,462.9z M54.9,304.8l2.6-2.6l17,7.6
			c-1.2,0.7-2.5,1.4-3.7,2.1L54.9,304.8z M179.8,304.8l5.9-2.6l20.1,20.1l-7.6,17c5,8.1,8.7,16.9,10.9,26.2l17.4,6.7v28.4l-17.4,6.7
			c-2.2,9.3-5.9,18.1-10.9,26.2l7.6,17l-20.1,20.1l-5.9-2.6l17.4-17.4l-7.6-17c5-8.1,8.7-16.9,10.9-26.2l17.4-6.7v-28.4l-17.4-6.7
			c-2.2-9.3-5.9-18.1-10.9-26.2l7.6-17L179.8,304.8z"/>
		<circle class="st8" cx="121.5" cy="386.3" r="49.5"/>
		<path class="st9" d="M121.6,336.9c-27.3,0-49.5,22.1-49.5,49.5c0,27.3,22.1,49.5,49.5,49.5c1.3,0,2.6-0.1,3.9-0.2
			c-25.5-2-45.5-23.3-45.5-49.3S100,339,125.5,337C124.2,336.9,122.9,336.9,121.6,336.9z"/>
		<path class="st10" d="M351.3,439.3c6.9,16.9,3.5,37-10.2,50.7c-12.9,12.9-31.4,16.7-47.6,11.4l33.2-33.2l-6.3-23.5l-23.5-6.3
			l-33.2,33.2c-5.3-16.2-1.5-34.7,11.4-47.6c13.7-13.7,33.8-17.1,50.7-10.2l79.4-79.4c-6.9-16.9-3.1-37.4,10.2-50.7
			c13.3-13.3,31.4-16.7,47.6-11.4l-33.2,33.2l6.3,23.5l23.5,6.3l33.2-33.2c5.3,16.2,1.9,34.3-11.4,47.6
			c-13.3,13.3-33.8,17.1-50.7,10.2L351.3,439.3z"/>
		<path class="st11" d="M351.3,439.3c6.9,16.9,3.5,37-10.2,50.7c-12.9,12.9-31.4,16.7-47.6,11.4l8.2-8.2c11-0.9,21.3-5.7,29.1-13.5
			c13.7-13.7,17.1-33.8,10.2-50.7l79.4-79.4c16.9,6.9,37.4,3.1,50.7-10.2c8.4-8.4,12.8-18.7,13.6-29.2l8.1-8.1
			c5.3,16.2,1.9,34.3-11.4,47.6c-13.3,13.3-33.8,17.1-50.7,10.2L351.3,439.3z M320.4,444.7l-2.2-8.1l-31.7-8.5l-25,25
			c-0.5,6.2,0.2,12.5,2.2,18.5l33.2-33.2L320.4,444.7z M444.6,270l-25.2,25.2l8.5,31.7l8.1,2.2l-6.3-23.5l33.2-33.2
			C457,270.3,450.8,269.5,444.6,270z"/>
		<path class="st12" d="M121.5,427.5c-22.7,0-41.2-18.5-41.2-41.2c0-22.7,18.5-41.2,41.2-41.2s41.2,18.5,41.2,41.2
			C162.8,409,144.3,427.5,121.5,427.5L121.5,427.5z M121.5,328.6c-31.8,0-57.7,25.9-57.7,57.7c0,31.8,25.9,57.7,57.7,57.7
			c31.9,0,57.8-25.9,57.8-57.7C179.3,354.5,153.4,328.6,121.5,328.6z M372.2,430.1l52.7-52.7c8,16.7,13.4,34.4,16.3,52.7H372.2z
			 M343.7,442.4c-1.3-3.1-0.5-6.6,1.8-9l79.4-79.4c2.3-2.4,5.9-3.1,8.9-1.8c14.2,5.8,30.9,2.4,41.8-8.4c6.7-6.7,10.5-15.2,11.2-24.1
			l-21.4,21.4c-2.1,2.1-5.1,2.9-8,2.1l-23.5-6.3c-2.9-0.8-5.1-3-5.8-5.8l-6.3-23.5c-0.8-2.9,0-5.9,2.1-8l21.4-21.4
			c-8.9,0.7-17.4,4.5-24.1,11.2c-10.8,10.8-14.2,27.6-8.4,41.8c1.3,3.1,0.5,6.6-1.8,9l-79.4,79.4c-2.3,2.4-5.9,3.1-8.9,1.8
			c-14.3-5.9-30.8-2.6-41.8,8.4c-6.6,6.6-10.4,15.1-11.1,24l21.3-21.3c1.5-1.6,3.6-2.4,5.8-2.4c0.7,0,1.4,0.1,2.1,0.3l23.5,6.3
			c2.9,0.8,5.1,3,5.8,5.8l6.3,23.5c0.8,2.9,0,5.9-2.1,8l-21.3,21.3c8.9-0.7,17.4-4.6,24-11.2C346.2,473.2,349.6,456.8,343.7,442.4
			L343.7,442.4z M269.2,418.1c14.4-14.4,35.2-19.5,54.4-13.9l71.7-71.7c-36.5-41.4-88.9-65-144.2-65c-34.3,0-67.6,9-96.9,26.2
			c5.2,1.8,10.2,4.1,15,6.7l13.1-5.8c3.2-1.4,6.8-0.7,9.2,1.7l20.1,20.1c2.4,2.4,3.1,6.1,1.7,9.2l-5.9,13.2
			c3.6,6.5,6.5,13.4,8.5,20.5l13.5,5.2c3.2,1.2,5.3,4.3,5.3,7.7v28.4c0,3.4-2.1,6.5-5.3,7.7l-13.5,5.2c-1.7,5.8-3.8,11.3-6.5,16.7
			h50.7C262.6,425.7,265.6,421.7,269.2,418.1z M183.8,460.6l12-12l-5.2-11.8c-1.1-2.5-0.9-5.4,0.5-7.7c4.5-7.4,7.8-15.4,9.9-23.8
			c0.6-2.6,2.5-4.8,5.1-5.8l12.1-4.6v-17l-12.1-4.6c-2.5-1-4.4-3.2-5.1-5.8c-2-8.4-5.4-16.4-9.9-23.8c-1.4-2.3-1.7-5.2-0.5-7.7
			l5.2-11.8l-12-12l-11.9,5.3c-2.5,1.1-5.4,0.9-7.7-0.5c-7.3-4.5-15.4-7.9-23.8-9.9c-2.7-0.6-4.8-2.5-5.8-5.1l-4.6-12.1H113
			l-4.7,12.1c-1,2.5-3.1,4.4-5.8,5.1c-8.4,2-16.4,5.3-23.8,9.9c-2.3,1.4-5.2,1.6-7.7,0.5L59.3,312l-12,12l5.2,11.8
			c1.1,2.5,0.9,5.4-0.5,7.7c-4.5,7.3-7.9,15.4-9.9,23.8c-0.6,2.6-2.5,4.8-5.1,5.8L25,377.8v17l12.1,4.6c2.5,1,4.4,3.1,5.1,5.8
			c2,8.4,5.3,16.4,9.9,23.8c1.4,2.3,1.6,5.2,0.5,7.7l-5.2,11.8l12,12l11.9-5.3c2.5-1.1,5.4-0.9,7.7,0.5c7.4,4.5,15.4,7.9,23.8,9.9
			c2.6,0.6,4.8,2.5,5.8,5.1l4.7,12.1h17.1l4.6-12.1c1-2.5,3.2-4.4,5.8-5.1c8.4-2,16.4-5.3,23.8-9.9c2.3-1.4,5.2-1.6,7.7-0.5
			L183.8,460.6z M160.1,177.9h182c-9.2,42.3-46.8,73.2-91,73.2C206.9,251,169.3,220.2,160.1,177.9L160.1,177.9z M135.2,154.9
			c0-3.5,2.9-6.4,6.4-6.4h218.8c3.5,0,6.4,2.9,6.4,6.4c0,3.5-2.9,6.4-6.4,6.4H141.7C138.2,161.4,135.2,158.5,135.2,154.9
			L135.2,154.9z M211.3,41.8l6.1,46.5c0.6,4.5,4.7,7.7,9.2,7.1c4.5-0.6,7.7-4.7,7.1-9.2L226.4,30c-0.4-3.1,0.6-4.8,1.4-5.8
			c3.3-3.9,11.9-6.8,23.2-7.6c11.3,0.8,20,3.7,23.2,7.6c0.9,1.1,1.8,2.7,1.4,5.8l-7.3,56.2c-0.5,4.5,2.6,8.7,7.1,9.2
			c0.4,0.1,0.7,0.1,1.1,0.1c4.1,0,7.7-3,8.2-7.2l6-46.5c35.5,15.6,58.8,50.7,58.8,90.2v0.1h-34.9V79.6c0-4.6-3.7-8.3-8.3-8.3
			c0,0,0,0,0,0c-4.6,0-8.3,3.7-8.3,8.3c0,0,0,0,0,0V132H204V79.6c0-4.6-3.7-8.3-8.3-8.3c-4.6,0-8.3,3.7-8.3,8.3c0,0,0,0,0,0V132
			h-34.9v-0.1C152.5,92.4,175.8,57.4,211.3,41.8z M487.3,355.5c15-15,20-35.9,13.4-56c-0.9-2.7-3.1-4.8-5.9-5.5
			c-2.8-0.7-5.7,0.2-7.7,2.2l-29.9,29.9l-14.3-3.8l-3.9-14.3l29.9-29.9c2-2,2.9-5,2.2-7.8c-0.7-2.8-2.7-5-5.4-5.9
			c-20.1-6.6-41.1-1.6-56,13.4c-8.3,8.2-13.5,18.9-15.3,30.1c-26.8-25.3-59.8-42.9-95.3-51.2c30.7-14.9,53.6-43.7,60-78.7h1.6
			c12.6,0,22.9-10.3,22.9-22.9c0-10.7-7.4-19.7-17.3-22.2v-0.8c0-48.1-29.6-90.6-74.1-107.5c-0.7-3.9-2.4-7.6-4.9-10.7
			C279,3.8,263.4,0.8,251.7,0c-0.4,0-0.7,0-1.1,0c-11.7,0.8-27.4,3.8-35.5,13.7c-2.6,3.1-4.2,6.8-4.9,10.7
			C165.6,41.3,136,83.8,136,131.9v0.8c-9.9,2.5-17.3,11.5-17.3,22.2c0,12.6,10.3,22.9,22.9,22.9h1.6c6.5,35,29.3,63.8,60,78.7
			c-20.8,4.9-40.7,12.9-59,23.9l-0.7-1.9c-1.2-3.2-4.3-5.3-7.7-5.3h-28.4c-3.4,0-6.5,2.1-7.7,5.3L94.5,292c-7.1,2-14,4.9-20.5,8.5
			l-13.2-5.8c-3.1-1.4-6.8-0.7-9.2,1.7l-20.1,20.1c-2.4,2.4-3.1,6.1-1.7,9.2l5.8,13.2c-3.6,6.5-6.5,13.4-8.5,20.5l-13.4,5.2
			c-3.2,1.2-5.3,4.3-5.3,7.7v28.4c0,3.4,2.1,6.5,5.3,7.7l13.4,5.2c2,7.1,4.9,14,8.5,20.5L29.9,447c-1.4,3.1-0.7,6.8,1.7,9.2
			l20.1,20.1c2.4,2.4,6.1,3.1,9.2,1.7l13.2-5.8c6.5,3.6,13.4,6.5,20.5,8.5l5.2,13.4c1.2,3.2,4.3,5.3,7.7,5.3h28.4
			c3.4,0,6.5-2.1,7.7-5.3l5.2-13.4c7.2-2,14-4.9,20.6-8.5l13.1,5.8c3.2,1.4,6.8,0.7,9.2-1.7l20.1-20.1c2.4-2.4,3.1-6.1,1.7-9.2
			l-0.2-0.5h41c-1.7,9-1.2,18.4,1.8,27.5c0.9,2.7,3.1,4.8,5.9,5.5c2.8,0.7,5.7-0.2,7.7-2.2l29.9-29.9l14.3,3.8l3.8,14.3l-29.9,29.9
			c-2,2-2.9,5-2.2,7.8c0.7,2.8,2.8,5.1,5.5,5.9c5.6,1.8,11.4,2.8,17.2,2.8c14.3,0,28.3-5.6,38.8-16.1c12.9-12.9,18.6-31.4,15.2-49.3
			h88.5c2.3,0,4.6-1,6.1-2.7c1.6-1.7,2.3-4.1,2.1-6.4c-2.5-23.2-8.7-45.5-18.7-66.5C457.1,373.4,474.9,367.9,487.3,355.5
			L487.3,355.5z"/>
	</g>
</g>
</svg>
