<svg width="39" height="39" viewBox="0 0 39 39" fill="none" xmlns="http://www.w3.org/2000/svg">
<g clip-path="url(#clip0_5928_13910)">
<path d="M19.5031 34.9174C28.0178 34.9174 34.9203 28.0149 34.9203 19.5002C34.9203 10.9855 28.0178 4.08301 19.5031 4.08301C10.9884 4.08301 4.08594 10.9855 4.08594 19.5002C4.08594 28.0149 10.9884 34.9174 19.5031 34.9174Z" fill="#FDBF5E"/>
<path d="M16.3922 0.609375H17.6109V1.82812H16.3922V0.609375ZM21.3891 0.609375H22.6078V1.82812H21.3891V0.609375ZM16.3922 37.1719H17.6109V38.3906H16.3922V37.1719ZM21.3891 37.1719H22.6078V38.3906H21.3891V37.1719ZM0.609375 16.3922H1.82812V17.6109H0.609375V16.3922ZM0.609375 21.3891H1.82812V22.6078H0.609375V21.3891ZM37.1719 16.3922H38.3906V17.6109H37.1719V16.3922ZM37.1719 21.3891H38.3906V22.6078H37.1719V21.3891Z" fill="#193651"/>
<path d="M31.9281 25.4717C28.3328 25.4717 25.4688 28.3967 25.4688 31.9311C25.4688 35.5264 28.3938 38.3904 31.9281 38.3904C35.4625 38.3904 38.3875 35.4654 38.3875 31.9311C38.3875 28.3357 35.4625 25.4717 31.9281 25.4717Z" fill="white"/>
<path d="M31.9281 38.9998C28.0281 38.9998 24.8594 35.8311 24.8594 31.9311C24.8594 28.0311 28.0281 24.8623 31.9281 24.8623C35.8281 24.8623 38.9969 28.0311 38.9969 31.9311C38.9969 35.8311 35.8281 38.9998 31.9281 38.9998ZM31.9281 26.0811C28.6984 26.0811 26.0781 28.7014 26.0781 31.9311C26.0781 35.1607 28.6984 37.7811 31.9281 37.7811C35.1578 37.7811 37.7781 35.1607 37.7781 31.9311C37.7781 28.7014 35.1578 26.0811 31.9281 26.0811Z" fill="#193651"/>
<path d="M31.9344 32.5406C33.3479 32.5406 34.4937 31.3948 34.4937 29.9813C34.4937 28.5677 33.3479 27.4219 31.9344 27.4219C30.5209 27.4219 29.375 28.5677 29.375 29.9813C29.375 31.3948 30.5209 32.5406 31.9344 32.5406Z" fill="#4FBF9F"/>
<path d="M34.3672 33.6377C33.6969 34.1252 32.8438 34.4299 31.9297 34.4299C31.0156 34.4299 30.1625 34.1252 29.4922 33.6377C28.3953 34.1861 27.5422 35.1002 27.0547 36.1971C28.2125 37.5986 29.9797 38.4518 31.9297 38.4518C33.8797 38.4518 35.6469 37.5986 36.8047 36.1971C36.3172 35.0393 35.4641 34.1861 34.3672 33.6377Z" fill="#4FBF9F"/>
<path d="M31.9281 0.609375C28.3328 0.609375 25.4688 3.53438 25.4688 7.06875C25.4688 10.6641 28.3938 13.5281 31.9281 13.5281C35.5234 13.5281 38.3875 10.6031 38.3875 7.06875C38.3875 3.53438 35.4625 0.609375 31.9281 0.609375Z" fill="white" stroke="#193651" stroke-width="2" stroke-miterlimit="10"/>
<path d="M31.9344 7.73887C33.3479 7.73887 34.4937 6.593 34.4937 5.17949C34.4937 3.76599 33.3479 2.62012 31.9344 2.62012C30.5209 2.62012 29.375 3.76599 29.375 5.17949C29.375 6.593 30.5209 7.73887 31.9344 7.73887Z" fill="#F16051"/>
<path d="M34.3672 8.7749C33.6969 9.2624 32.8438 9.56709 31.9297 9.56709C31.0156 9.56709 30.1625 9.2624 29.4922 8.7749C28.3953 9.32334 27.5422 10.2374 27.0547 11.3343C28.2125 12.7358 29.9797 13.589 31.9297 13.589C33.8797 13.589 35.6469 12.7358 36.8047 11.3343C36.3172 10.2374 35.4641 9.32334 34.3672 8.7749Z" fill="#F16051"/>
<path d="M7.06875 25.4717C3.53438 25.4717 0.609375 28.3357 0.609375 31.9311C0.609375 35.4654 3.53438 38.3904 7.06875 38.3904C10.6641 38.3904 13.5281 35.4654 13.5281 31.9311C13.5281 28.3357 10.6641 25.4717 7.06875 25.4717Z" fill="white" stroke="#193651" stroke-width="2" stroke-miterlimit="10"/>
<path d="M7.06719 32.5406C8.48069 32.5406 9.62656 31.3948 9.62656 29.9813C9.62656 28.5677 8.48069 27.4219 7.06719 27.4219C5.65368 27.4219 4.50781 28.5677 4.50781 29.9813C4.50781 31.3948 5.65368 32.5406 7.06719 32.5406Z" fill="#F16051"/>
<path d="M9.50781 33.6377C8.8375 34.1252 7.98438 34.4299 7.07031 34.4299C6.15625 34.4299 5.30312 34.1252 4.63281 33.6377C3.53594 34.1861 2.68281 35.1002 2.19531 36.1971C3.35312 37.5986 5.12031 38.4518 7.07031 38.4518C9.02031 38.4518 10.7875 37.5986 11.9453 36.1971C11.4578 35.0393 10.6047 34.1861 9.50781 33.6377Z" fill="#F16051"/>
<path d="M7.06875 0.609375C3.53438 0.609375 0.609375 3.53438 0.609375 7.06875C0.609375 10.6641 3.53438 13.5281 7.06875 13.5281C10.6641 13.5281 13.5281 10.6031 13.5281 7.06875C13.5281 3.53438 10.6641 0.609375 7.06875 0.609375Z" fill="white" stroke="#193651" stroke-width="2" stroke-miterlimit="10"/>
<path d="M7.06719 7.73887C8.48069 7.73887 9.62656 6.593 9.62656 5.17949C9.62656 3.76599 8.48069 2.62012 7.06719 2.62012C5.65368 2.62012 4.50781 3.76599 4.50781 5.17949C4.50781 6.593 5.65368 7.73887 7.06719 7.73887Z" fill="#4FBF9F"/>
<path d="M9.50781 8.7749C8.8375 9.2624 7.98438 9.56709 7.07031 9.56709C6.15625 9.56709 5.30312 9.2624 4.63281 8.7749C3.53594 9.32334 2.68281 10.2374 2.19531 11.3343C3.35312 12.7358 5.12031 13.589 7.07031 13.589C9.02031 13.589 10.7875 12.7358 11.9453 11.3343C11.4578 10.2374 10.6047 9.32334 9.50781 8.7749Z" fill="#4FBF9F"/>
<path d="M31.9313 24.8625C28.0312 24.8625 24.8625 28.0312 24.8625 31.9313C24.8625 35.8312 28.0312 39 31.9313 39C35.8312 39 39 35.8312 39 31.9313C39 28.0312 35.8312 24.8625 31.9313 24.8625ZM31.9313 37.7812C28.7016 37.7812 26.0812 35.1609 26.0812 31.9313C26.0812 28.7016 28.7016 26.0812 31.9313 26.0812C35.1609 26.0812 37.7812 28.7016 37.7812 31.9313C37.7812 35.1609 35.1609 37.7812 31.9313 37.7812ZM31.9313 14.1375C35.8312 14.1375 39 10.9688 39 7.06875C39 3.16875 35.8312 0 31.9313 0C28.0312 0 24.8625 3.16875 24.8625 7.06875C24.8625 10.9688 28.0312 14.1375 31.9313 14.1375ZM31.9313 1.21875C35.1609 1.21875 37.7812 3.83906 37.7812 7.06875C37.7812 10.2984 35.1609 12.9188 31.9313 12.9188C28.7016 12.9188 26.0812 10.2984 26.0812 7.06875C26.0812 3.83906 28.7016 1.21875 31.9313 1.21875ZM7.06875 24.8625C3.16875 24.8625 0 28.0312 0 31.9313C0 35.8312 3.16875 39 7.06875 39C10.9688 39 14.1375 35.8312 14.1375 31.9313C14.1375 28.0312 10.9688 24.8625 7.06875 24.8625ZM7.06875 37.7812C3.83906 37.7812 1.21875 35.1609 1.21875 31.9313C1.21875 28.7016 3.83906 26.0812 7.06875 26.0812C10.2984 26.0812 12.9188 28.7016 12.9188 31.9313C12.9188 35.1609 10.2984 37.7812 7.06875 37.7812ZM7.06875 0C3.16875 0 0 3.16875 0 7.06875C0 10.9688 3.16875 14.1375 7.06875 14.1375C10.9688 14.1375 14.1375 10.9688 14.1375 7.06875C14.1375 3.16875 10.9688 0 7.06875 0ZM7.06875 12.9188C3.83906 12.9188 1.21875 10.2984 1.21875 7.06875C1.21875 3.83906 3.83906 1.21875 7.06875 1.21875C10.2984 1.21875 12.9188 3.83906 12.9188 7.06875C12.9188 10.2984 10.2984 12.9188 7.06875 12.9188Z" fill="#193651"/>
</g>
<defs>
<clipPath id="clip0_5928_13910">
<rect width="39" height="39" fill="white"/>
</clipPath>
</defs>
</svg>
