<svg width="36" height="36" viewBox="0 0 36 36" fill="none" xmlns="http://www.w3.org/2000/svg">
<g id="money" clip-path="url(#clip0_5910_13109)">
<path id="Vector" d="M19.0499 25.7705C19.256 25.7746 19.5577 25.7252 19.9422 25.6156C19.4894 25.3509 19.0366 25.0861 18.5839 24.8213C18.3712 24.9605 18.2567 25.0988 18.2388 25.2397C18.226 25.3817 18.3006 25.502 18.4749 25.6066C18.6499 25.7107 18.8437 25.7672 19.0499 25.7705ZM9.71351 28.6037C9.14401 28.9325 9.10587 29.4522 9.72482 29.9328C10.5063 30.5389 12.0715 30.8255 13.1645 30.5188C13.3582 30.4643 13.5237 30.3959 13.6602 30.3171C14.2931 29.9517 14.3057 29.3619 13.64 28.8955C12.8306 28.3285 11.3431 28.1217 10.2753 28.3869C10.0523 28.443 9.86431 28.5166 9.71351 28.6037Z" fill="#6A9839"/>
<path id="Vector_2" d="M28.7914 23.7954C28.6841 23.9149 28.5732 24.033 28.4609 24.1504C28.534 24.1862 28.607 24.2212 28.6807 24.2566C28.7336 24.2014 28.7858 24.1459 28.838 24.0894C29.1493 24.2389 29.4613 24.388 29.7739 24.5375C29.8312 24.4724 29.8898 24.4082 29.9471 24.3431C29.5614 24.1603 29.1764 23.9778 28.7914 23.7954Z" fill="#97C269"/>
<g id="Group">
<path id="Vector_3" d="M23.0769 19.2407C22.6397 19.7279 22.16 20.201 21.6406 20.6585C21.7513 20.7112 21.8611 20.7643 21.9717 20.817C22.4912 20.3554 22.9695 19.8773 23.4073 19.3856C23.2974 19.3375 23.1875 19.2893 23.0769 19.2407ZM25.7594 19.5787C25.5853 19.6792 25.4323 19.8048 25.3108 19.9523C24.819 20.5523 25.0399 21.3392 25.8908 21.7362C26.5341 22.037 27.3564 21.9976 27.9247 21.6695C28.1025 21.5668 28.2555 21.4358 28.3702 21.2783C28.8545 20.6169 28.4924 19.7843 27.6568 19.4508C27.0246 19.198 26.2929 19.2707 25.7594 19.5787Z" fill="#6A9839"/>
<path id="Vector_4" d="M25.5652 19.3936C26.1895 19.0332 27.0409 18.9453 27.7845 19.2382C28.7705 19.626 29.21 20.6094 28.6411 21.3967C28.5055 21.5835 28.3248 21.7385 28.1148 21.8597C27.4413 22.2485 26.4658 22.2916 25.7048 21.9312C24.7037 21.4585 24.4536 20.5357 25.0349 19.834C25.1791 19.6603 25.3599 19.5122 25.5652 19.3936ZM25.8879 21.736C26.5312 22.0368 27.3535 21.9975 27.9218 21.6694C28.0996 21.5667 28.2526 21.4357 28.3673 21.2781C28.8516 20.6168 28.4895 19.7842 27.6539 19.4506C27.0217 19.1979 26.29 19.2706 25.7565 19.5786C25.5824 19.6791 25.4294 19.8047 25.3079 19.9522C24.8161 20.5521 25.037 21.3391 25.8879 21.736Z" fill="#6A9839"/>
<path id="Vector_5" d="M30.1649 22.4205C30.1205 22.4831 30.1223 22.5444 30.1696 22.6041C30.219 22.6651 30.2997 22.7203 30.416 22.7713C30.5316 22.8228 30.6374 22.8504 30.7277 22.8508C30.7823 22.8515 30.8292 22.8413 30.8674 22.8192C30.8933 22.8043 30.9153 22.7839 30.9329 22.7577C30.9767 22.6939 30.9749 22.6317 30.9262 22.572C30.8753 22.5103 30.7925 22.4547 30.679 22.4052C30.562 22.3546 30.4604 22.3295 30.3694 22.3286C30.3149 22.3279 30.2692 22.3387 30.2314 22.3605C30.2056 22.3754 30.1835 22.3954 30.1649 22.4205Z" fill="#97C269"/>
<path id="Vector_6" d="M29.9588 22.327C30.0081 22.2604 30.0641 22.2084 30.1282 22.1713C30.1872 22.1373 30.253 22.116 30.3269 22.1079C30.4806 22.0906 30.6446 22.119 30.8269 22.1977C31.0063 22.2747 31.128 22.3694 31.1935 22.4826C31.2555 22.5947 31.242 22.7182 31.1495 22.8504C31.1024 22.9177 31.046 22.9698 30.9816 23.0069C30.9197 23.0427 30.8504 23.0647 30.775 23.0732C30.6171 23.0888 30.4488 23.0563 30.2687 22.9755C30.0879 22.8944 29.969 22.7989 29.9071 22.6861C29.8472 22.5745 29.865 22.455 29.9588 22.327ZM30.422 22.7713C30.5376 22.8228 30.6433 22.8503 30.7336 22.8508C30.7883 22.8515 30.8352 22.8413 30.8734 22.8192C30.8993 22.8042 30.9212 22.7838 30.9389 22.7577C30.9826 22.6939 30.9808 22.6317 30.9321 22.572C30.8813 22.5102 30.7984 22.4546 30.685 22.4052C30.5679 22.3546 30.4664 22.3294 30.3754 22.3286C30.3209 22.3279 30.2751 22.3386 30.2373 22.3605C30.2115 22.3754 30.1895 22.3954 30.1709 22.4204C30.1265 22.483 30.1282 22.5444 30.1755 22.6041C30.225 22.6651 30.3057 22.7202 30.422 22.7713ZM29.2521 23.2292C29.3004 23.1722 29.3536 23.1266 29.4124 23.0926C29.4815 23.0527 29.5585 23.029 29.6449 23.0221C29.8064 23.0101 29.9747 23.0435 30.1534 23.1242C30.3342 23.2053 30.4538 23.3029 30.5129 23.4166C30.5713 23.5298 30.55 23.6513 30.4461 23.7794C30.3991 23.8379 30.3457 23.8842 30.2863 23.9185C30.2149 23.9597 30.1347 23.9835 30.0461 23.9898C29.8847 24.0025 29.7129 23.9655 29.5314 23.8798C29.3491 23.7946 29.2317 23.6958 29.1769 23.5838C29.122 23.4717 29.1462 23.3527 29.2521 23.2292ZM29.7017 23.6822C29.818 23.7365 29.923 23.7653 30.0176 23.7691C30.0784 23.7717 30.1301 23.7608 30.1723 23.7364C30.1962 23.7227 30.2171 23.7046 30.2349 23.6822C30.2843 23.62 30.286 23.559 30.2388 23.4977C30.1915 23.4363 30.1093 23.3787 29.9952 23.3264C29.8781 23.2732 29.7781 23.2473 29.6807 23.242C29.6199 23.2398 29.5683 23.251 29.5258 23.2755C29.5028 23.2888 29.4825 23.306 29.4648 23.3272C29.4147 23.3881 29.4122 23.4487 29.4588 23.5096C29.5047 23.5702 29.5861 23.6282 29.7017 23.6822Z" fill="#97C269"/>
<path id="Vector_7" d="M29.4612 23.3267C29.4111 23.3876 29.4086 23.4482 29.4552 23.5091C29.5011 23.5697 29.5825 23.6277 29.6981 23.6817C29.8144 23.736 29.9194 23.7649 30.014 23.7686C30.0748 23.7712 30.1265 23.7604 30.1687 23.736C30.1926 23.7222 30.2135 23.7041 30.2313 23.6817C30.2807 23.6195 30.2824 23.5586 30.2351 23.4972C30.1878 23.4358 30.1057 23.3782 29.9916 23.3259C29.8745 23.2728 29.7744 23.2468 29.6771 23.2415C29.6163 23.2393 29.5647 23.2505 29.5222 23.275C29.4992 23.2883 29.4789 23.3056 29.4612 23.3267Z" fill="#97C269"/>
<path id="Vector_8" d="M23.0549 25.8839C22.8721 25.7818 22.6712 25.7352 22.4557 25.7455C22.2374 25.7558 21.9348 25.8304 21.5367 25.9626C22.0086 26.2335 22.4813 26.5049 22.9525 26.7762C23.1724 26.6074 23.2878 26.439 23.3058 26.2784C23.3237 26.1194 23.2385 25.9864 23.0549 25.8839ZM8.66406 26.8626C8.76815 26.9388 8.87224 27.015 8.97629 27.0912C9.87898 26.8697 10.7562 26.6234 11.6066 26.3541C11.5003 26.2808 11.3948 26.2079 11.2879 26.135C10.439 26.4011 9.56462 26.644 8.66406 26.8626Z" fill="#6A9839"/>
<path id="Vector_9" d="M15.84 23.3749C15.9376 23.3185 16.0386 23.2639 16.1437 23.2106C18.6253 21.98 22.236 21.7284 24.8239 22.9652C27.4026 24.1901 27.9946 26.8786 25.4136 28.5967C25.3179 28.6607 25.2188 28.7222 25.1177 28.7806C22.4983 30.2927 18.1367 29.9215 15.7618 28.2776C13.3792 26.6377 13.6563 24.6354 15.84 23.3749ZM23.2902 27.5695C23.4807 27.681 23.6721 27.793 23.8634 27.9042C24.0317 27.7996 24.198 27.693 24.3621 27.5859C24.1729 27.4768 23.9844 27.369 23.7952 27.2599C24.292 26.9074 24.5344 26.5369 24.5407 26.1639C24.5471 25.7909 24.3164 25.4817 23.8536 25.2317C23.3929 24.9831 22.9171 24.8834 22.4178 24.9263C21.9185 24.9682 21.3232 25.1321 20.6002 25.3976C20.5931 25.4026 20.5852 25.4063 20.5781 25.4112C20.0849 25.128 19.5917 24.8447 19.0992 24.561C19.5446 24.3729 20.0458 24.2461 20.6078 24.181C20.5216 23.9468 20.4326 23.7141 20.3409 23.4824C19.5326 23.5919 18.8334 23.7837 18.2417 24.0686C18.1071 23.9912 17.9746 23.915 17.84 23.8377C17.6795 23.9262 17.5177 24.0139 17.3537 24.1003C17.4847 24.1773 17.6158 24.2535 17.7462 24.3301C17.2719 24.6104 17.0114 24.911 16.9704 25.2432C16.9295 25.5763 17.1254 25.8802 17.576 26.1585C18.023 26.4356 18.5134 26.5768 19.0289 26.569C19.5443 26.562 20.1827 26.4389 20.9114 26.1791C21.418 26.4759 21.9261 26.7728 22.4335 27.0692C21.8933 27.3072 21.1994 27.4369 20.3562 27.4492C20.3804 27.693 20.4011 27.938 20.4189 28.1829C21.5293 28.1763 22.4952 27.9701 23.2902 27.5695Z" fill="#6A9839"/>
<path id="Vector_10" d="M20.3564 27.4488C21.1996 27.4365 21.8935 27.3068 22.4337 27.0688C21.9263 26.7724 21.4183 26.4755 20.9116 26.1787C20.1829 26.4385 19.5445 26.5616 19.0291 26.5686C18.5136 26.5764 18.0232 26.4352 17.5762 26.1581C17.1256 25.8798 16.9297 25.5759 16.9706 25.2428C17.0116 24.9106 17.2721 24.61 17.7464 24.3296C17.616 24.253 17.485 24.1769 17.3539 24.0999C17.5179 24.0135 17.6797 23.9258 17.8402 23.8372C17.9748 23.9146 18.1073 23.9908 18.242 24.0682C18.8336 23.7833 19.5328 23.5915 20.3411 23.4819C20.4329 23.7137 20.5219 23.9463 20.608 24.1806C20.046 24.2457 19.5448 24.3725 19.0994 24.5606C19.5919 24.8443 20.0851 25.1276 20.5783 25.4108C20.5854 25.4059 20.5933 25.4022 20.6004 25.3972C21.3235 25.1317 21.9187 24.9678 22.418 24.9258C22.9173 24.883 23.3931 24.9826 23.8538 25.2313C24.3166 25.4812 24.5473 25.7904 24.541 26.1634C24.5346 26.5365 24.2922 26.907 23.7954 27.2594C23.9846 27.3685 24.1731 27.4764 24.3623 27.5855C24.1982 27.6926 24.032 27.7992 23.8636 27.9038C23.6723 27.7926 23.481 27.6806 23.2904 27.569C22.4954 27.9696 21.5296 28.1759 20.4191 28.1825C20.4013 27.9375 20.3806 27.6926 20.3564 27.4488ZM22.9536 26.7761C23.1735 26.6073 23.2889 26.4389 23.3069 26.2783C23.3248 26.1194 23.2395 25.9864 23.056 25.8839C22.8731 25.7818 22.6723 25.7353 22.4568 25.7456C22.2385 25.7559 21.9359 25.8304 21.5378 25.9625C22.0097 26.2334 22.4823 26.5048 22.9536 26.7761ZM18.5868 24.8204C18.3742 24.9596 18.2596 25.0979 18.2418 25.2387C18.2289 25.3808 18.3036 25.501 18.4779 25.6056C18.6529 25.7097 18.8467 25.7661 19.0528 25.7694C19.2589 25.7735 19.5607 25.7241 19.9452 25.6146C19.4924 25.3499 19.0396 25.0852 18.5868 24.8204ZM9.34956 28.4528C9.5289 28.3493 9.75326 28.2619 10.0198 28.1956C11.2784 27.8868 13.0181 28.1211 13.9769 28.7865C14.7636 29.3321 14.7583 30.0364 14.0057 30.4708C13.8457 30.5631 13.6522 30.6432 13.4251 30.7071C12.1306 31.0727 10.2835 30.7273 9.36404 30.008C8.63953 29.4407 8.68528 28.8363 9.34956 28.4528ZM13.1674 30.5169C13.3612 30.4625 13.5266 30.3941 13.6632 30.3153C14.296 29.9499 14.3086 29.3602 13.6429 28.8939C12.8335 28.327 11.346 28.1203 10.2782 28.3854C10.0552 28.4415 9.86724 28.5151 9.71645 28.6022C9.14694 28.9309 9.1088 29.4505 9.72775 29.931C10.5092 30.5371 12.0744 30.8236 13.1674 30.5169Z" fill="#6A9839"/>
<path id="Vector_11" d="M17.7181 31.1345C17.7412 31.1983 17.8063 31.2683 17.9182 31.3457C18.0279 31.4227 18.1392 31.4767 18.2528 31.5072C18.3657 31.5372 18.4695 31.5348 18.5642 31.4981C18.5833 31.491 18.5999 31.4833 18.6142 31.4751C18.672 31.4417 18.691 31.399 18.6724 31.3478C18.6486 31.2836 18.5815 31.214 18.471 31.1374C18.3605 31.0616 18.2485 31.0081 18.1363 30.9784C18.0249 30.9492 17.9196 30.9508 17.8263 30.9867C17.8067 30.9941 17.7895 31.002 17.7748 31.0105C17.7189 31.0427 17.6987 31.0833 17.7181 31.1345Z" fill="#97C269"/>
<path id="Vector_12" d="M17.3365 31.1152C17.3329 31.0367 17.3822 30.9675 17.4855 30.9079C17.524 30.8856 17.5702 30.8647 17.6238 30.8451C17.8176 30.7718 18.0161 30.7524 18.2171 30.7874C18.4181 30.8216 18.6046 30.8978 18.7802 31.0172C18.9545 31.1366 19.0462 31.2511 19.0527 31.3606C19.0592 31.4433 19.0051 31.5155 18.8952 31.5789C18.8589 31.5999 18.8165 31.6199 18.7682 31.639C18.573 31.7156 18.371 31.7337 18.1679 31.6967C17.9648 31.6604 17.7768 31.5809 17.604 31.4599C17.4298 31.3371 17.3402 31.2223 17.3365 31.1152ZM18.2542 31.5072C18.3671 31.5373 18.4709 31.5348 18.5657 31.4982C18.5847 31.4911 18.6014 31.4834 18.6157 31.4752C18.6735 31.4418 18.6924 31.3991 18.6739 31.3479C18.6501 31.2836 18.5829 31.2141 18.4725 31.1375C18.362 31.0617 18.2499 31.0081 18.1378 30.9785C18.0264 30.9493 17.9211 30.9509 17.8278 30.9867C17.8082 30.9941 17.791 31.002 17.7762 31.0105C17.7204 31.0428 17.7002 31.0834 17.7196 31.1346C17.7427 31.1984 17.8077 31.2684 17.9196 31.3458C18.0294 31.4228 18.1407 31.4768 18.2542 31.5072ZM15.8985 31.6007C15.8969 31.5286 15.9421 31.466 16.0343 31.4128C16.0789 31.3871 16.1346 31.3635 16.2014 31.3421C16.4036 31.2754 16.607 31.2622 16.8087 31.3001C17.0118 31.3396 17.2005 31.4204 17.3725 31.5418C17.546 31.6641 17.6321 31.7786 17.6365 31.8877C17.6385 31.9633 17.5908 32.0296 17.4924 32.0864C17.4497 32.1111 17.3975 32.1339 17.3357 32.155C17.1305 32.2233 16.9271 32.2382 16.7212 32.1962C16.516 32.1554 16.328 32.0718 16.1567 31.9474C15.9861 31.8235 15.8993 31.7078 15.8985 31.6007ZM16.8168 32.0113C16.9289 32.0434 17.0391 32.0454 17.1346 32.0108C17.157 32.003 17.1765 31.9944 17.1928 31.985C17.2468 31.9538 17.2669 31.9139 17.2513 31.8655C17.2296 31.8017 17.1653 31.7312 17.0541 31.6526C16.9444 31.574 16.8331 31.5192 16.7195 31.4871C16.6074 31.4549 16.5022 31.4549 16.4039 31.4871C16.3793 31.4949 16.3585 31.5038 16.3414 31.5137C16.2896 31.5436 16.2719 31.5826 16.2872 31.6299C16.306 31.6921 16.3732 31.765 16.4822 31.8441C16.5912 31.9223 16.7047 31.9791 16.8168 32.0113Z" fill="#97C269"/>
<path id="Vector_13" d="M16.2865 31.6294C16.3054 31.6916 16.3725 31.7644 16.4815 31.8435C16.5906 31.9218 16.704 31.9786 16.8161 32.0107C16.9283 32.0428 17.0384 32.0449 17.1339 32.0103C17.1564 32.0025 17.1758 31.9938 17.1921 31.9844C17.2462 31.9532 17.2662 31.9133 17.2506 31.8649C17.2289 31.8011 17.1646 31.7307 17.0535 31.652C16.9438 31.5734 16.8324 31.5186 16.7189 31.4865C16.6067 31.4544 16.5015 31.4544 16.4032 31.4865C16.3787 31.4943 16.3579 31.5032 16.3408 31.5131C16.289 31.543 16.2713 31.582 16.2865 31.6294Z" fill="#97C269"/>
<path id="Vector_14" d="M16.395 21.6184C19.4011 19.883 21.668 17.7684 22.9432 15.4194C26.8447 16.8164 30.7454 18.213 34.6469 19.6099C33.3248 23.8734 29.8483 27.6302 24.9527 30.4562C21.2788 32.5769 16.806 34.1734 11.8447 35.0665C8.24497 32.1051 4.64592 29.1439 1.04688 26.1828C7.07273 25.5676 12.39 23.9302 16.395 21.6184ZM24.7517 30.251C29.5064 27.5063 32.9147 23.8815 34.2962 19.7697C30.5665 18.4147 26.8369 17.0606 23.1072 15.7056C21.8081 18.0196 19.5536 20.103 16.5844 21.817C12.6671 24.0783 7.50546 25.6957 1.65737 26.3467C5.1037 29.1612 8.54922 31.9761 11.9956 34.7907C16.8196 33.8887 21.1676 32.3199 24.7517 30.251Z" fill="#97C269"/>
<path id="Vector_15" d="M14.6953 31.8299C14.7633 31.881 14.832 31.9316 14.9013 31.9827C14.9974 31.9551 15.0929 31.9271 15.189 31.8987C15.4821 32.1145 15.7752 32.3303 16.069 32.5464C16.1773 32.5135 16.2848 32.4802 16.3931 32.4464C16.0298 32.1808 15.6666 31.916 15.3034 31.6504C15.1012 31.7113 14.899 31.7715 14.6953 31.8299Z" fill="#97C269"/>
<path id="Vector_16" d="M16.5833 21.817C19.5525 20.103 21.807 18.0196 23.1061 15.7056C26.8358 17.0606 30.5654 18.4147 34.295 19.7697C32.9136 23.8814 29.5053 27.5063 24.7506 30.251C21.1665 32.3199 16.8185 33.8887 11.9945 34.7907C8.54815 31.9761 5.10255 29.1612 1.65625 26.3467C7.50432 25.6957 12.666 24.0783 16.5833 21.817ZM15.1216 33.3097C18.4722 32.4007 21.5194 31.1539 24.1481 29.6365C27.7957 27.5309 30.6357 24.9043 32.3534 21.9394C31.2796 21.4873 30.8727 20.4124 31.2866 19.4946C29.3563 18.7638 27.4261 18.033 25.4958 17.3022C25.3735 17.5216 25.1842 17.6999 24.9518 17.834C24.3339 18.1907 23.4111 18.235 22.6324 17.9062C21.2816 19.5829 19.4211 21.1053 17.1548 22.4135C14.0916 24.1818 10.287 25.5585 5.99967 26.3945C6.75529 26.9613 6.77722 27.5885 6.13122 27.9614C5.91659 28.0853 5.62811 28.1812 5.26842 28.2373C7.05968 29.6689 8.85025 31.1 10.6415 32.5316C12.141 32.2446 14.1142 32.5526 15.1216 33.3097Z" fill="#6A9839"/>
<path id="Vector_17" d="M22.9585 18.3613C22.2212 19.2547 21.3406 20.1037 20.3323 20.8991C20.4429 20.9543 20.5535 21.0095 20.6641 21.0638C21.6717 20.2597 22.5524 19.4025 23.2883 18.5001C23.1776 18.454 23.0684 18.4078 22.9585 18.3613ZM6.9375 26.6713C7.04153 26.7491 7.1442 26.8261 7.24829 26.904C8.92305 26.5478 10.5223 26.1081 12.0287 25.5939C11.9225 25.5223 11.8156 25.451 11.7079 25.3794C10.2057 25.887 8.61009 26.3206 6.9375 26.6713Z" fill="#6A9839"/>
<path id="Vector_18" d="M5.27344 28.2369C5.6331 28.1807 5.92157 28.0849 6.13621 27.961C6.7822 27.5881 6.76029 26.9608 6.00467 26.394C10.292 25.558 14.0966 24.1813 17.1598 22.4131C19.4261 21.1048 21.2866 19.5824 22.6374 17.9057C23.4161 18.2345 24.3389 18.1903 24.9568 17.8336C25.1892 17.6994 25.3785 17.5211 25.5008 17.3018C27.431 18.0325 29.3613 18.7634 31.2916 19.4942C30.8777 20.4119 31.2846 21.4869 32.3584 21.9389C30.6407 24.9039 27.8007 27.5305 24.1531 29.6361C21.5244 31.1534 18.4772 32.4002 15.1266 33.3093C14.1192 32.5521 12.146 32.2441 10.6465 32.5311C8.85523 31.0995 7.06468 29.6684 5.27344 28.2369ZM25.12 28.7798C25.2211 28.7215 25.3201 28.66 25.4159 28.596C27.9969 26.8779 27.4049 24.1894 24.8262 22.9645C22.2383 21.7277 18.6276 21.9792 16.146 23.2098C16.0409 23.2631 15.9399 23.3178 15.8423 23.3741C13.6586 24.6346 13.3814 26.637 15.7642 28.2768C18.139 29.9208 22.5006 30.2919 25.12 28.7798ZM13.4272 30.7068C13.6542 30.6429 13.8478 30.5628 14.0078 30.4705C14.7603 30.036 14.7657 29.3318 13.979 28.7861C13.0202 28.1208 11.2805 27.8865 10.0219 28.1953C9.75533 28.2616 9.53098 28.349 9.35165 28.4525C8.68737 28.8359 8.6416 29.4403 9.36611 30.0077C10.2856 30.7269 12.1327 31.0724 13.4272 30.7068ZM28.6441 21.3959C29.213 20.6087 28.7735 19.6255 27.7876 19.2377C27.044 18.9449 26.1926 19.0327 25.5683 19.3931C25.363 19.5117 25.1821 19.6598 25.0379 19.8334C24.4567 20.5349 24.7067 21.4576 25.7079 21.9303C26.4689 22.2906 27.4444 22.2475 28.1178 21.8588C28.3279 21.7375 28.5085 21.5826 28.6441 21.3959ZM6.9401 26.6707C7.04414 26.7485 7.14679 26.8255 7.25087 26.9033C8.92565 26.5472 10.5249 26.1075 12.0313 25.5933C11.9251 25.5216 11.8182 25.4504 11.7105 25.3787C10.2083 25.8864 8.6127 26.3199 6.9401 26.6707ZM22.9611 18.3607C22.2238 19.2541 21.3432 20.103 20.3349 20.8985C20.4455 20.9536 20.5561 21.0088 20.6667 21.0632C21.6743 20.2591 22.555 19.4019 23.2909 18.4994C23.1802 18.4533 23.071 18.4072 22.9611 18.3607ZM11.2911 26.1347C10.4422 26.4006 9.56778 26.6435 8.66723 26.8621C8.77132 26.9383 8.8754 27.0145 8.97944 27.0906C9.88213 26.8691 10.7594 26.6229 11.6097 26.3537C11.5035 26.2804 11.398 26.2075 11.2911 26.1347ZM21.9719 20.8161C22.4913 20.3546 22.9696 19.8766 23.4075 19.385C23.2976 19.3369 23.1876 19.2887 23.077 19.2401C22.6399 19.7271 22.1602 20.2002 21.6408 20.6576C21.7514 20.7103 21.8613 20.7634 21.9719 20.8161ZM16.7238 32.1951C16.9298 32.2372 17.1332 32.2223 17.3383 32.154C17.4001 32.1329 17.4524 32.1101 17.495 32.0855C17.5935 32.0286 17.6412 31.9623 17.6391 31.8868C17.6348 31.7777 17.5487 31.6632 17.3752 31.5409C17.2031 31.4195 17.0145 31.3388 16.8114 31.2992C16.6097 31.2614 16.4063 31.2746 16.204 31.3413C16.1373 31.3626 16.0816 31.3862 16.0369 31.412C15.9448 31.4652 15.8996 31.5277 15.9011 31.5998C15.9019 31.7069 15.9887 31.8226 16.1594 31.9465C16.3307 32.0708 16.5186 32.1544 16.7238 32.1951ZM18.1705 31.6958C18.3736 31.7328 18.5756 31.7147 18.7709 31.6381C18.8192 31.619 18.8615 31.599 18.8978 31.5781C19.0078 31.5146 19.0619 31.4424 19.0554 31.3598C19.0489 31.2503 18.9571 31.1358 18.7829 31.0164C18.6073 30.897 18.4207 30.8208 18.2197 30.7867C18.0187 30.7517 17.8203 30.771 17.6265 30.8443C17.5728 30.8639 17.5267 30.8848 17.4881 30.9071C17.3849 30.9667 17.3355 31.0359 17.3392 31.1144C17.3429 31.2215 17.4325 31.3363 17.6067 31.459C17.7795 31.5801 17.9674 31.6595 18.1705 31.6958ZM29.5316 23.8785C29.7131 23.9642 29.8849 24.0012 30.0463 23.9885C30.1349 23.9822 30.2151 23.9584 30.2865 23.9172C30.3459 23.8829 30.3993 23.8366 30.4464 23.7781C30.5502 23.65 30.5715 23.5286 30.5131 23.4154C30.454 23.3017 30.3344 23.2041 30.1536 23.123C29.9749 23.0423 29.8066 23.009 29.6451 23.0209C29.5587 23.0278 29.4817 23.0516 29.4126 23.0915C29.3538 23.1254 29.3006 23.171 29.2523 23.228C29.1464 23.3515 29.1222 23.4705 29.1771 23.5825C29.2319 23.6945 29.3494 23.7933 29.5316 23.8785ZM30.2689 22.9744C30.449 23.0551 30.6173 23.0876 30.7753 23.072C30.8506 23.0635 30.9199 23.0415 30.9818 23.0058C31.0462 22.9686 31.1026 22.9166 31.1497 22.8492C31.2422 22.7171 31.2557 22.5936 31.1938 22.4816C31.1283 22.3683 31.0065 22.2737 30.8271 22.1967C30.6449 22.118 30.4808 22.0896 30.3271 22.1069C30.2532 22.115 30.1874 22.1363 30.1284 22.1703C30.0643 22.2073 30.0083 22.2594 29.959 22.3259C29.8652 22.454 29.8475 22.5734 29.9073 22.685C29.9692 22.7978 30.0881 22.8933 30.2689 22.9744ZM16.0764 32.5459C16.1846 32.513 16.2922 32.4797 16.4004 32.4459C16.0372 32.1803 15.674 31.9156 15.3108 31.65C15.1086 31.711 14.9063 31.7711 14.7027 31.8296C14.7706 31.8806 14.8393 31.9312 14.9087 31.9823C15.0048 31.9547 15.1002 31.9267 15.1964 31.8983C15.4894 32.114 15.7826 32.3298 16.0764 32.5459ZM28.6849 24.2557C28.7378 24.2005 28.79 24.1449 28.8422 24.0885C29.1535 24.238 29.4655 24.387 29.7781 24.5364C29.8354 24.4714 29.894 24.4072 29.9513 24.3421C29.5655 24.1593 29.1805 23.9769 28.7955 23.7945C28.6883 23.9139 28.5774 24.0321 28.4651 24.1494C28.5381 24.1853 28.6111 24.2202 28.6849 24.2557Z" fill="#97C269"/>
</g>
<g id="Group_2">
<g id="Group_3">
<path id="Vector_19" d="M21.2776 25.7162L21.2755 26.9049C21.2755 26.3783 20.9299 25.8495 20.2346 25.4498C19.8911 25.25 19.4914 25.1022 19.0667 25.0023C17.7927 24.7045 16.2771 24.8523 15.2487 25.4498C14.5701 25.8453 14.2286 26.3638 14.2266 26.8842L14.2307 25.6955C14.2328 25.1771 14.5721 24.6588 15.2529 24.2633C16.2813 23.6658 17.7968 23.5158 19.0709 23.8136C19.4956 23.9135 19.8932 24.0633 20.2388 24.2611C20.932 24.6629 21.2797 25.1896 21.2776 25.7162Z" fill="#E2AB30"/>
<path id="Vector_20" d="M21.2845 25.7158L21.2811 26.9037C21.2796 27.4233 20.9388 27.9421 20.2578 28.3379L20.2612 27.15C20.9421 26.7542 21.283 26.2354 21.2845 25.7158Z" fill="#FED44C"/>
<path id="Vector_21" d="M14.2344 26.8837L14.2377 25.6958C14.2363 26.2219 14.5827 26.7489 15.2763 27.1494C16.656 27.9459 18.8922 27.9459 20.2616 27.1501L20.2583 28.338C18.8889 29.1338 16.6526 29.1338 15.2729 28.3373C14.5793 27.9368 14.2329 27.4098 14.2344 26.8837Z" fill="#FED44C"/>
<path id="Vector_22" d="M20.242 24.5782C21.6216 25.3747 21.629 26.6701 20.2582 27.4667C18.8889 28.2625 16.6526 28.2624 15.2729 27.4659C13.8946 26.6701 13.8873 25.3748 15.2566 24.579C16.6274 23.7824 18.8637 23.7824 20.242 24.5782Z" fill="#F2BC36"/>
<path id="Vector_23" d="M22.3243 25.7189L22.3209 26.9068C22.319 27.5797 21.877 28.2516 20.994 28.7647C19.2166 29.7976 16.3245 29.7969 14.5355 28.764C13.6352 28.2442 13.1856 27.562 13.1875 26.8808L13.1909 25.6929C13.1889 26.3741 13.6386 27.0563 14.5388 27.5761C16.3279 28.609 19.22 28.6097 20.9974 27.5768C21.8804 27.0637 22.3224 26.3918 22.3243 25.7189Z" fill="#E2AB30"/>
<path id="Vector_24" d="M20.973 23.8353C22.762 24.8682 22.7715 26.5442 20.994 27.5772C19.2166 28.6101 16.3245 28.6093 14.5355 27.5764C12.7465 26.5435 12.737 24.869 14.5144 23.8361C16.2918 22.8032 19.184 22.8024 20.973 23.8353ZM15.2697 27.1497C16.6493 27.9463 18.8856 27.9463 20.255 27.1505C21.6257 26.3539 21.6184 25.0586 20.2387 24.262C18.8604 23.4662 16.6241 23.4662 15.2534 24.2628C13.884 25.0586 13.8914 26.3539 15.2697 27.1497Z" fill="#FED44C"/>
</g>
<g id="Group_4">
<path id="Vector_25" d="M20.9681 25.3193L20.3584 24.8356L20.1365 25.0736L20.2079 24.8055L19.2188 24.9756L20.0518 24.6242L19.6395 24.4947L20.1022 24.5367L19.8054 23.9634L20.4158 24.4471L20.6377 24.2091L20.5663 24.4772L21.5554 24.3071L20.7217 24.6585L21.1339 24.788L20.6713 24.7453L20.9681 25.3193Z" fill="white"/>
</g>
</g>
<g id="Group_5">
<path id="Vector_26" d="M26.9982 18.9968L26.9954 20.03L26.8029 19.9187L26.8057 19.0801L26.6328 18.9807V18.7861L26.9982 18.9968Z" fill="#97C269"/>
<path id="Vector_27" d="M13.3116 2.83008L31.873 13.5446L31.8426 24.26L13.2812 13.5454L13.3116 2.83008ZM31.6282 23.893L31.6572 13.6632L13.5222 3.19481L13.4932 13.4246L31.6282 23.893Z" fill="#97C269"/>
<path id="Vector_28" d="M28.4484 19.9965C28.5061 20.0298 28.5521 20.0916 28.5788 20.1691C28.6055 20.2464 28.6206 20.3391 28.6203 20.4406C28.62 20.5465 28.6044 20.6214 28.5774 20.6677C28.5503 20.714 28.5041 20.7182 28.4465 20.685C28.385 20.6495 28.339 20.592 28.3123 20.5147C28.2856 20.4374 28.2705 20.3447 28.2708 20.2388C28.2711 20.1373 28.2867 20.0624 28.3137 20.0161C28.3408 19.9696 28.387 19.961 28.4484 19.9965ZM27.8378 19.5998C27.899 19.7323 27.9294 19.8824 27.9289 20.0415C27.9284 20.2048 27.8973 20.3149 27.8356 20.3767C27.7739 20.4381 27.6815 20.4335 27.5586 20.3626C27.4318 20.2894 27.3398 20.1875 27.2786 20.0551C27.2174 19.9224 27.187 19.7767 27.1875 19.6134C27.188 19.4544 27.2191 19.3397 27.2808 19.2782C27.3425 19.2165 27.4349 19.2211 27.5616 19.2943C27.6846 19.3652 27.7766 19.4671 27.8378 19.5998ZM27.69 20.1554C27.7171 20.1091 27.7327 20.0342 27.733 19.9283C27.7333 19.8268 27.7182 19.7341 27.6914 19.6568C27.6647 19.5793 27.6187 19.5174 27.5611 19.4842C27.4996 19.4487 27.4534 19.4573 27.4264 19.5038C27.3993 19.55 27.3837 19.625 27.3834 19.7265C27.3831 19.8324 27.3982 19.925 27.425 20.0023C27.4517 20.0797 27.4977 20.1372 27.5591 20.1727C27.6168 20.2059 27.663 20.2017 27.69 20.1554Z" fill="#97C269"/>
<path id="Vector_29" d="M27.5542 19.4842C27.6118 19.5175 27.6578 19.5793 27.6845 19.6568C27.7112 19.7341 27.7263 19.8268 27.7261 19.9283C27.7258 20.0341 27.7102 20.1091 27.6831 20.1553C27.656 20.2016 27.6099 20.2058 27.5522 20.1726C27.4908 20.1371 27.4448 20.0796 27.4181 20.0023C27.3913 19.925 27.3762 19.8323 27.3765 19.7265C27.3768 19.625 27.3924 19.5501 27.4195 19.5038C27.4465 19.4573 27.4927 19.4487 27.5542 19.4842ZM18.1275 14.0427C18.1852 14.0759 18.2312 14.1378 18.2579 14.2153C18.2884 14.2948 18.2997 14.3852 18.2994 14.4868C18.2991 14.5926 18.2874 14.6697 18.2565 14.7138C18.2294 14.76 18.1832 14.7643 18.1256 14.731C18.0641 14.6956 18.022 14.6403 17.9914 14.5608C17.9647 14.4835 17.9496 14.3908 17.9499 14.285C17.9502 14.1835 17.9658 14.1085 17.9928 14.0623C18.0237 14.018 18.0661 14.0072 18.1275 14.0427ZM17.2402 13.5305C17.2978 13.5637 17.3438 13.6255 17.3705 13.7031C17.4011 13.7826 17.4124 13.873 17.4121 13.9745C17.4118 14.0804 17.4 14.1575 17.3691 14.2016C17.342 14.2478 17.2959 14.2521 17.2382 14.2188C17.1768 14.1833 17.1346 14.1281 17.1041 14.0486C17.0773 13.9713 17.0622 13.8786 17.0625 13.7728C17.0628 13.6712 17.0784 13.5963 17.1055 13.5501C17.1364 13.5058 17.1787 13.495 17.2402 13.5305Z" fill="#97C269"/>
<path id="Vector_30" d="M22.8342 14.0893C23.0798 14.315 23.2485 14.5053 23.3366 14.6535C23.4285 14.8037 23.4742 14.9628 23.4738 15.1261C23.4733 15.294 23.4114 15.3952 23.2998 15.4368C23.1842 15.4806 23.0265 15.456 22.8306 15.365L22.8342 14.0893ZM21.8516 11.8861C21.852 11.7273 21.9023 11.6237 22.0064 11.5775C22.1142 11.5337 22.2565 11.554 22.4448 11.6407L22.4413 12.8678C22.2111 12.6509 22.0538 12.4716 21.9734 12.3323C21.8892 12.1908 21.8511 12.0451 21.8516 11.8861Z" fill="#6A9839"/>
<path id="Vector_31" d="M23.8996 14.3525C24.1218 14.7019 24.2285 15.0772 24.2273 15.4921C24.2261 15.9068 24.0984 16.1691 23.8441 16.2832C23.586 16.3949 23.2514 16.3433 22.8327 16.1236L22.8312 16.6355L22.4355 16.4071L22.437 15.8863C21.8725 15.4943 21.3662 14.9456 20.9219 14.2383L21.373 13.8843C21.7178 14.4279 22.0706 14.835 22.4392 15.1142L22.4431 13.7415C21.9787 13.3453 21.6372 12.9801 21.4227 12.6486C21.2082 12.3171 21.1015 11.9461 21.1027 11.5355C21.1038 11.1297 21.2277 10.8652 21.4781 10.7488C21.7286 10.6327 22.0516 10.6777 22.4512 10.8863L22.4522 10.5288L22.8479 10.7572L22.8468 11.119C23.2962 11.4182 23.7259 11.8432 24.1283 12.3938L23.7231 12.8095C23.451 12.4316 23.1595 12.1261 22.8447 11.8914L22.8409 13.2241L22.8562 13.2329C23.3284 13.6338 23.6774 14.0077 23.8996 14.3525ZM23.304 15.4364C23.4157 15.3948 23.4776 15.2936 23.478 15.1258C23.4785 14.9625 23.4328 14.8035 23.3409 14.6533C23.2528 14.5051 23.084 14.3149 22.8384 14.0891L22.8348 15.3646C23.0308 15.4556 23.1885 15.4802 23.304 15.4364ZM22.4456 12.8678L22.4491 11.641C22.2608 11.5543 22.1185 11.534 22.0106 11.5778C21.9066 11.624 21.8563 11.7276 21.8558 11.8863C21.8554 12.0453 21.8934 12.191 21.9777 12.3324C22.0581 12.4717 22.2153 12.651 22.4456 12.8678Z" fill="#6A9839"/>
<path id="Vector_32" d="M28.5149 13.6264L28.5142 13.9267L26.8125 12.9439L26.8132 12.6436L28.5149 13.6264Z" fill="#6A9839"/>
<path id="Vector_33" d="M29.2181 13.4626L29.2174 13.7587L26.1094 11.9646L26.1101 11.6685L29.2181 13.4626Z" fill="#6A9839"/>
<path id="Vector_34" d="M16.4408 8.51639C17.1015 8.89786 17.6337 9.82422 17.6315 10.5833C17.6294 11.3382 17.0937 11.648 16.433 11.2665C15.7761 10.8873 15.2401 9.9587 15.2422 9.20388C15.2443 8.44474 15.7839 8.13716 16.4408 8.51639Z" fill="#6A9839"/>
<g id="Group_6">
<path id="Vector_35" d="M16.4378 8.274C17.2176 8.72421 17.8455 9.81186 17.843 10.7077C17.8405 11.5995 17.2084 11.9641 16.4286 11.5138C15.6488 11.0636 15.0209 9.97168 15.0234 9.07987C15.026 8.184 15.658 7.8238 16.4378 8.274ZM16.4293 11.2667C17.09 11.6482 17.6257 11.3384 17.6279 10.5835C17.63 9.82441 17.0978 8.89806 16.4371 8.51659C15.7803 8.13736 15.2407 8.44494 15.2386 9.20407C15.2364 9.9589 15.7725 10.8875 16.4293 11.2667Z" fill="#6A9839"/>
<path id="Vector_36" d="M18.3586 7.7653L18.3579 8.0656L16.6562 7.0828L16.6569 6.7832L18.3586 7.7653Z" fill="#6A9839"/>
<path id="Vector_37" d="M19.0618 7.60172L19.0611 7.89782L15.9531 6.10372L15.9545 5.80762L19.0618 7.60172Z" fill="#6A9839"/>
</g>
<path id="Vector_38" d="M22.5871 9.36173C24.5961 10.5214 26.2196 13.3373 26.213 15.6455C26.2065 17.9536 24.5724 18.8846 22.5634 17.7249C20.5544 16.5652 18.931 13.7538 18.9375 11.4457C18.9441 9.13754 20.5781 8.20201 22.5871 9.36173ZM23.8411 16.2831C24.0953 16.169 24.2231 15.9067 24.2242 15.492C24.2254 15.0771 24.1187 14.7018 23.8965 14.3524C23.6744 14.0076 23.3253 13.6337 22.8532 13.2328L22.8378 13.224L22.8416 11.8913C23.1564 12.126 23.448 12.4315 23.7201 12.8094L24.1253 12.3936C23.7228 11.8431 23.2931 11.418 22.8438 11.1189L22.8448 10.7571L22.4492 10.5287L22.4481 10.8862C22.0486 10.6776 21.7255 10.6326 21.4751 10.7487C21.2247 10.8651 21.1008 11.1296 21.0996 11.5354C21.0985 11.946 21.2051 12.317 21.4197 12.6485C21.6342 12.98 21.9756 13.3452 22.4401 13.7414L22.4362 15.1141C22.0676 14.8349 21.7147 14.4278 21.37 13.8842L20.9188 14.2382C21.3631 14.9455 21.8695 15.4942 22.434 15.8862L22.4325 16.407L22.8281 16.6354L22.8296 16.1235C23.2484 16.3432 23.583 16.3948 23.8411 16.2831ZM28.7218 15.6082C29.3825 15.9896 29.9147 16.9158 29.9125 17.6748C29.9104 18.4295 29.3747 18.7392 28.714 18.3578C28.0533 17.9764 27.5211 17.0502 27.5232 16.2955C27.5254 15.5365 28.0611 15.2268 28.7218 15.6082Z" fill="#6A9839"/>
<path id="Vector_39" d="M28.7269 15.3653C29.5028 15.8133 30.1346 16.9032 30.132 17.7991C30.1295 18.6909 29.4936 19.0532 28.7177 18.6052C27.9379 18.155 27.31 17.063 27.3125 16.1712C27.315 15.2753 27.9471 14.9151 28.7269 15.3653ZM28.7184 18.358C29.3791 18.7395 29.9148 18.4297 29.9169 17.6748C29.9191 16.9157 29.3869 15.9894 28.7262 15.6079C28.0655 15.2264 27.5298 15.5362 27.5276 16.2954C27.5255 17.0502 28.0577 17.9766 28.7184 18.358Z" fill="#6A9839"/>
<path id="Vector_40" d="M28.7206 20.112C28.7818 20.2445 28.8122 20.3946 28.8117 20.5537C28.8112 20.717 28.7802 20.8271 28.7184 20.8889C28.6567 20.9503 28.5643 20.9457 28.4414 20.8748C28.3147 20.8016 28.2226 20.6997 28.1614 20.5673C28.1002 20.4346 28.0699 20.2889 28.0703 20.1256C28.0708 19.9666 28.1019 19.8519 28.1636 19.7904C28.2254 19.7287 28.3177 19.7333 28.4445 19.8065C28.5674 19.8775 28.6594 19.9793 28.7206 20.112ZM28.5728 20.6676C28.5999 20.6213 28.6155 20.5464 28.6158 20.4405C28.6161 20.339 28.601 20.2463 28.5742 20.169C28.5475 20.0915 28.5015 20.0297 28.4439 19.9964C28.3824 19.9609 28.3363 19.9695 28.3092 20.016C28.2821 20.0622 28.2665 20.1372 28.2662 20.2387C28.2659 20.3446 28.2811 20.4373 28.3078 20.5146C28.3345 20.5919 28.3805 20.6494 28.442 20.6849C28.4996 20.7181 28.5458 20.7139 28.5728 20.6676Z" fill="#97C269"/>
<path id="Vector_41" d="M16.6822 13.0436L16.6787 14.0768L16.4869 13.9655L16.489 13.1269L16.3203 13.0296L16.321 12.835L16.6822 13.0436Z" fill="#97C269"/>
<path id="Vector_42" d="M17.5175 13.6462C17.5787 13.7786 17.6129 13.931 17.6124 14.0901C17.612 14.2534 17.577 14.3613 17.5153 14.423C17.4535 14.4845 17.3612 14.4799 17.2383 14.4089C17.1115 14.3358 17.0195 14.2339 16.9583 14.1015C16.8971 13.9687 16.8667 13.8231 16.8672 13.6598C16.8676 13.5008 16.8987 13.3861 16.9605 13.3246C17.0222 13.2629 17.1146 13.2675 17.2413 13.3407C17.3642 13.4116 17.4563 13.5135 17.5175 13.6462ZM17.3697 14.2018C17.4006 14.1577 17.4124 14.0806 17.4127 13.9747C17.4129 13.8732 17.4017 13.7827 17.3711 13.7032C17.3444 13.6257 17.2984 13.5638 17.2408 13.5306C17.1793 13.4951 17.137 13.5059 17.1061 13.5502C17.079 13.5964 17.0634 13.6714 17.0631 13.7729C17.0628 13.8788 17.0779 13.9714 17.1046 14.0487C17.1352 14.1283 17.1774 14.1836 17.2388 14.219C17.2964 14.2523 17.3426 14.248 17.3697 14.2018ZM18.4048 14.1585C18.4699 14.2932 18.5002 14.4433 18.4998 14.6024C18.4993 14.7657 18.4682 14.8758 18.4026 14.9353C18.3409 14.9968 18.2486 14.9922 18.1256 14.9213C17.9989 14.8481 17.9068 14.7462 17.8456 14.6138C17.7844 14.4811 17.7541 14.3354 17.7545 14.1721C17.755 14.0131 17.7861 13.8984 17.8478 13.8369C17.9096 13.7752 18.0019 13.7798 18.1286 13.853C18.2516 13.9239 18.3436 14.0258 18.4048 14.1585ZM18.257 14.7141C18.2879 14.67 18.2997 14.5929 18.3 14.487C18.3003 14.3855 18.289 14.295 18.2584 14.2155C18.2317 14.138 18.1857 14.0761 18.1281 14.0429C18.0667 14.0074 18.0243 14.0182 17.9934 14.0625C17.9663 14.1087 17.9507 14.1837 17.9504 14.2852C17.9501 14.3911 17.9653 14.4838 17.992 14.561C18.0225 14.6406 18.0647 14.6959 18.1262 14.7313C18.1838 14.7646 18.23 14.7604 18.257 14.7141Z" fill="#97C269"/>
<path id="Vector_43" d="M29.4951 13.1545C29.4924 14.1165 30.1701 15.2903 31.0114 15.7759L30.9964 21.0453C30.1552 20.5597 29.473 20.9483 29.4703 21.9103L15.6569 13.9365C15.6596 12.9745 14.9819 11.8009 14.1406 11.3153L14.1556 6.04588C14.9968 6.53149 15.679 6.14271 15.6817 5.18066L29.4951 13.1545ZM22.5642 17.7249C24.5732 18.8846 26.2072 17.9536 26.2137 15.6455C26.2203 13.3374 24.5969 10.5215 22.5879 9.36177C20.5788 8.20205 18.9448 9.13759 18.9383 11.4457C18.9317 13.7539 20.5551 16.5652 22.5642 17.7249ZM15.0242 9.08011C15.0217 9.97176 15.6496 11.0635 16.4294 11.5137C17.2092 11.9638 17.8412 11.5994 17.8438 10.7077C17.8463 9.81197 17.2184 8.72451 16.4386 8.27438C15.6588 7.82424 15.0268 8.18438 15.0242 9.08011ZM28.714 18.605C29.4899 19.0529 30.1258 18.6906 30.1284 17.799C30.1309 16.9033 29.4991 15.8136 28.7232 15.3657C27.9434 14.9155 27.3114 15.2757 27.3088 16.1714C27.3063 17.0631 27.9342 18.1548 28.714 18.605ZM26.1096 11.6688L26.1087 11.9645L29.2164 13.7584L29.2172 13.4627L26.1096 11.6688ZM15.9569 5.80818L15.9561 6.10388L19.0637 7.89776L19.0646 7.60206L15.9569 5.80818ZM18.4051 14.9351C18.4707 14.8756 18.5017 14.7655 18.5022 14.6022C18.5027 14.4432 18.4723 14.293 18.4073 14.1584C18.3461 14.0257 18.254 13.9239 18.1311 13.8529C18.0043 13.7797 17.912 13.7751 17.8503 13.8369C17.7885 13.8983 17.7574 14.013 17.757 14.172C17.7565 14.3353 17.7869 14.4809 17.8481 14.6136C17.9093 14.746 18.0013 14.8478 18.1281 14.921C18.251 14.992 18.3433 14.9966 18.4051 14.9351ZM17.5177 14.4229C17.5795 14.3611 17.6144 14.2533 17.6149 14.09C17.6153 13.931 17.5811 13.7786 17.5199 13.6462C17.4587 13.5135 17.3667 13.4116 17.2438 13.3407C17.117 13.2675 17.0247 13.2629 16.9629 13.3246C16.9012 13.3861 16.8701 13.5008 16.8696 13.6598C16.8692 13.8231 16.8995 13.9687 16.9607 14.1014C17.0219 14.2338 17.114 14.3356 17.2407 14.4088C17.3637 14.4797 17.456 14.4844 17.5177 14.4229ZM28.7191 20.8889C28.7808 20.8271 28.8119 20.717 28.8124 20.5537C28.8128 20.3947 28.7824 20.2446 28.7213 20.1122C28.6601 19.9795 28.568 19.8776 28.4451 19.8067C28.3183 19.7335 28.226 19.7289 28.1643 19.7906C28.1025 19.8521 28.0714 19.9668 28.071 20.1258C28.0705 20.2891 28.1009 20.4347 28.1621 20.5673C28.2232 20.6998 28.3153 20.8016 28.4421 20.8748C28.565 20.9457 28.6573 20.9504 28.7191 20.8889ZM27.8317 20.3766C27.8934 20.3149 27.9246 20.2048 27.925 20.0415C27.9255 19.8825 27.8951 19.7324 27.8339 19.5999C27.7727 19.4672 27.6807 19.3654 27.5578 19.2945C27.431 19.2213 27.3387 19.2167 27.2769 19.2784C27.2152 19.3399 27.1841 19.4545 27.1836 19.6135C27.1832 19.7768 27.2135 19.9224 27.2747 20.0551C27.3359 20.1876 27.428 20.2894 27.5547 20.3626C27.6776 20.4335 27.77 20.4381 27.8317 20.3766ZM18.36 7.76565L16.6583 6.78333L16.6574 7.08335L18.3592 8.06567L18.36 7.76565ZM28.5126 13.6263L26.8109 12.644L26.8101 12.944L28.5118 13.9263L28.5126 13.6263ZM26.9939 20.03L26.9968 18.9973L26.6319 18.7866L26.6313 18.9808L26.8042 19.0806L26.8018 19.9191L26.9939 20.03ZM16.6799 14.0762L16.6829 13.0435L16.3218 12.8351L16.3212 13.0293L16.4902 13.1268L16.4878 13.9653L16.6799 14.0762Z" fill="#97C269"/>
<path id="Vector_44" d="M13.5212 3.19482L31.6561 13.6632L31.6271 23.893L13.4922 13.4246L13.5212 3.19482ZM30.9965 21.0449L31.0114 15.7754C30.1702 15.2898 29.4925 14.1161 29.4952 13.154L15.6818 5.18021C15.679 6.14225 14.9969 6.53104 14.1557 6.04542L14.1407 11.3149C14.982 11.8005 15.6597 12.974 15.6569 13.936L29.4704 21.9099C29.4731 20.9478 30.1553 20.5593 30.9965 21.0449Z" fill="#6A9839"/>
<g id="Group_7">
<g id="Group_8">
<path id="Vector_45" d="M31.8745 13.545L33.5706 12.5596L33.5399 23.2796L31.8438 24.2651L31.8745 13.545Z" fill="#5E8632"/>
<path id="Vector_46" d="M13.3125 2.83065L15.0093 1.84521L33.5705 12.5597L31.8744 13.5451L13.3125 2.83065Z" fill="#7DB343"/>
<path id="Vector_47" d="M21.3203 7.45337L23.0164 6.46777L26.1139 8.25557L24.4178 9.24117L21.3203 7.45337Z" fill="#FED44C"/>
</g>
</g>
<g id="Group_9">
<path id="Vector_48" d="M24.413 9.24062L24.3787 19.9565L21.2812 18.169L21.3155 7.45312L24.413 9.24062Z" fill="#F2BC36"/>
</g>
<g id="Group_10">
<path id="Vector_49" d="M24.8576 20.4075L24.8548 21.4407L24.663 21.3294L24.6651 20.4908L24.4922 20.3914L24.4929 20.1968L24.8576 20.4075Z" fill="#97C269"/>
<path id="Vector_50" d="M11.171 4.24121L29.7323 14.9558L29.702 25.6711L11.1406 14.9566L11.171 4.24121ZM29.4875 25.3042L29.5165 15.0744L11.3816 4.60594L11.3526 14.8357L29.4875 25.3042Z" fill="#97C269"/>
<path id="Vector_51" d="M26.3078 21.4071C26.3655 21.4404 26.4114 21.5022 26.4382 21.5798C26.4649 21.6571 26.48 21.7498 26.4797 21.8513C26.4794 21.9571 26.4638 22.0321 26.4367 22.0783C26.4097 22.1246 26.3635 22.1289 26.3059 22.0956C26.2444 22.0601 26.1984 22.0026 26.1717 21.9253C26.145 21.848 26.1299 21.7553 26.1302 21.6495C26.1304 21.5479 26.146 21.473 26.1731 21.4267C26.2002 21.3802 26.2464 21.3717 26.3078 21.4071ZM25.6972 21.0104C25.7584 21.1429 25.7887 21.2931 25.7883 21.4521C25.7878 21.6154 25.7567 21.7255 25.695 21.7873C25.6332 21.8488 25.5409 21.8442 25.418 21.7732C25.2912 21.7 25.1992 21.5982 25.138 21.4657C25.0768 21.333 25.0464 21.1874 25.0469 21.0241C25.0473 20.865 25.0784 20.7504 25.1402 20.6889C25.2019 20.6271 25.2942 20.6317 25.421 20.7049C25.5439 20.7759 25.636 20.8777 25.6972 21.0104ZM25.5494 21.566C25.5765 21.5198 25.5921 21.4448 25.5924 21.339C25.5926 21.2374 25.5775 21.1448 25.5508 21.0675C25.5241 20.9899 25.4781 20.9281 25.4205 20.8948C25.359 20.8593 25.3128 20.8679 25.2858 20.9144C25.2587 20.9607 25.2431 21.0356 25.2428 21.1372C25.2425 21.243 25.2576 21.3357 25.2843 21.413C25.3111 21.4903 25.3571 21.5478 25.4185 21.5833C25.4761 21.6166 25.5223 21.6123 25.5494 21.566Z" fill="#97C269"/>
<path id="Vector_52" d="M25.4214 20.8944C25.479 20.9276 25.525 20.9894 25.5517 21.067C25.5784 21.1443 25.5935 21.2369 25.5932 21.3385C25.5929 21.4443 25.5774 21.5192 25.5503 21.5655C25.5232 21.6117 25.477 21.616 25.4194 21.5827C25.358 21.5473 25.3119 21.4898 25.2852 21.4125C25.2585 21.3352 25.2434 21.2425 25.2437 21.1367C25.244 21.0352 25.2596 20.9602 25.2866 20.914C25.3137 20.8675 25.3599 20.8589 25.4214 20.8944ZM15.9947 15.4528C16.0523 15.4861 16.0983 15.5479 16.125 15.6254C16.1556 15.7049 16.1669 15.7954 16.1666 15.8969C16.1663 16.0028 16.1545 16.0799 16.1236 16.1239C16.0966 16.1702 16.0504 16.1745 15.9928 16.1412C15.9313 16.1057 15.8891 16.0504 15.8586 15.9709C15.8319 15.8936 15.8167 15.801 15.817 15.6951C15.8173 15.5936 15.8329 15.5187 15.86 15.4724C15.8909 15.4282 15.9333 15.4174 15.9947 15.4528ZM15.1074 14.9406C15.165 14.9739 15.211 15.0357 15.2377 15.1132C15.2683 15.1927 15.2795 15.2832 15.2793 15.3847C15.279 15.4905 15.2672 15.5677 15.2363 15.6117C15.2092 15.658 15.163 15.6622 15.1054 15.629C15.044 15.5935 15.0018 15.5382 14.9712 15.4587C14.9445 15.3814 14.9294 15.2887 14.9297 15.1829C14.93 15.0814 14.9456 15.0065 14.9727 14.9602C15.0036 14.9159 15.0459 14.9051 15.1074 14.9406Z" fill="#97C269"/>
<path id="Vector_53" d="M20.6936 15.4999C20.9391 15.7257 21.1079 15.9159 21.196 16.0642C21.2879 16.2144 21.3336 16.3734 21.3332 16.5367C21.3327 16.7046 21.2708 16.8059 21.1591 16.8474C21.0436 16.8913 20.8859 16.8667 20.6899 16.7756L20.6936 15.4999ZM19.7109 13.2967C19.7114 13.138 19.7617 13.0344 19.8657 12.9882C19.9736 12.9444 20.1159 12.9647 20.3042 13.0513L20.3007 14.2784C20.0705 14.0615 19.9132 13.8822 19.8328 13.7429C19.7486 13.6015 19.7105 13.4557 19.7109 13.2967Z" fill="#6A9839"/>
<path id="Vector_54" d="M21.759 15.7627C21.9812 16.112 22.0878 16.4873 22.0867 16.9022C22.0855 17.317 21.9578 17.5792 21.7035 17.6934C21.4454 17.8051 21.1108 17.7534 20.692 17.5338L20.6906 18.0457L20.2949 17.8173L20.2964 17.2965C19.7319 16.9044 19.2256 16.3558 18.7812 15.6484L19.2324 15.2945C19.5772 15.8381 19.93 16.2451 20.2986 16.5243L20.3025 15.1517C19.838 14.7555 19.4966 14.3903 19.2821 14.0588C19.0676 13.7273 18.9609 13.3563 18.9621 12.9457C18.9632 12.5398 19.0871 12.2753 19.3375 12.159C19.5879 12.0428 19.911 12.0878 20.3106 12.2964L20.3116 11.939L20.7073 12.1674L20.7062 12.5291C21.1555 12.8283 21.5853 13.2534 21.9877 13.8039L21.5825 14.2197C21.3104 13.8418 21.0189 13.5363 20.704 13.3015L20.7003 14.6342L20.7156 14.6431C21.1877 15.0439 21.5368 15.4178 21.759 15.7627ZM21.1634 16.8465C21.2751 16.805 21.3369 16.7038 21.3374 16.5359C21.3379 16.3726 21.2922 16.2136 21.2002 16.0634C21.1122 15.9152 20.9434 15.725 20.6978 15.4993L20.6942 16.7747C20.8901 16.8658 21.0478 16.8904 21.1634 16.8465ZM20.305 14.278L20.3084 13.0511C20.1201 12.9645 19.9778 12.9442 19.87 12.988C19.766 13.0341 19.7156 13.1377 19.7152 13.2965C19.7147 13.4554 19.7528 13.6012 19.837 13.7426C19.9175 13.8818 20.0747 14.0611 20.305 14.278Z" fill="#6A9839"/>
<path id="Vector_55" d="M26.375 15.0363L26.3736 15.3366L24.6719 14.3538L24.6733 14.0542L26.375 15.0363Z" fill="#6A9839"/>
<path id="Vector_56" d="M27.0774 14.8732L27.0767 15.1693L23.9688 13.3752L23.9701 13.0791L27.0774 14.8732Z" fill="#6A9839"/>
<path id="Vector_57" d="M14.3001 9.92753C14.9608 10.309 15.493 11.2354 15.4909 11.9945C15.4887 12.7493 14.953 13.0591 14.2923 12.6777C13.6355 12.2984 13.0994 11.3698 13.1016 10.615C13.1037 9.85588 13.6433 9.54829 14.3001 9.92753Z" fill="#6A9839"/>
<g id="Group_11">
<path id="Vector_58" d="M14.2972 9.68465C15.077 10.1349 15.7049 11.2225 15.7024 12.1184C15.6998 13.0102 15.0678 13.3747 14.288 12.9245C13.5082 12.4743 12.8803 11.3823 12.8828 10.4905C12.8854 9.59464 13.5174 9.23444 14.2972 9.68465ZM14.2887 12.6774C14.9494 13.0588 15.4851 12.749 15.4873 11.9942C15.4894 11.2351 14.9572 10.3087 14.2965 9.92724C13.6396 9.548 13.1001 9.85558 13.0979 10.6147C13.0958 11.3695 13.6318 12.2981 14.2887 12.6774Z" fill="#6A9839"/>
<path id="Vector_59" d="M16.218 9.17595L16.2173 9.47625L14.5156 8.49415L14.5163 8.19385L16.218 9.17595Z" fill="#6A9839"/>
<path id="Vector_60" d="M16.9205 9.01285L16.9198 9.30825L13.8125 7.51415L13.8132 7.21875L16.9205 9.01285Z" fill="#6A9839"/>
</g>
<path id="Vector_61" d="M20.4465 10.7724C22.4555 11.9321 24.0789 14.748 24.0724 17.0561C24.0658 19.3642 22.4318 20.2952 20.4228 19.1355C18.4138 17.9758 16.7903 15.1645 16.7969 12.8563C16.8034 10.5482 18.4375 9.61265 20.4465 10.7724ZM21.7004 17.6938C21.9547 17.5796 22.0824 17.3173 22.0836 16.9026C22.0848 16.4877 21.9781 16.1124 21.7559 15.7631C21.5338 15.4182 21.1847 15.0443 20.7126 14.6435L20.6972 14.6346L20.701 13.3019C21.0158 13.5366 21.3074 13.8421 21.5795 14.2201L21.9847 13.8043C21.5822 13.2537 21.1525 12.8287 20.7032 12.5295L20.7042 12.1677L20.3085 11.9393L20.3075 12.2968C19.908 12.0882 19.5849 12.0432 19.3345 12.1593C19.084 12.2757 18.9602 12.5402 18.959 12.946C18.9578 13.3567 19.0645 13.7276 19.279 14.0591C19.4936 14.3907 19.835 14.7559 20.2994 15.152L20.2955 16.5247C19.927 16.2455 19.5741 15.8385 19.2294 15.2948L18.7782 15.6488C19.2225 16.3562 19.7289 16.9048 20.2933 17.2969L20.2919 17.8176L20.6875 18.046L20.689 17.5341C21.1077 17.7538 21.4423 17.8055 21.7004 17.6938ZM26.5812 17.0188C27.2419 17.4002 27.774 18.3264 27.7719 19.0854C27.7698 19.8401 27.2341 20.1499 26.5734 19.7685C25.9126 19.3871 25.3804 18.4609 25.3826 17.7062C25.3847 16.9472 25.9204 16.6374 26.5812 17.0188Z" fill="#6A9839"/>
<path id="Vector_62" d="M26.5862 16.776C27.3622 17.224 27.994 18.3138 27.9914 19.2097C27.9889 20.1015 27.353 20.4638 26.5771 20.0158C25.7973 19.5656 25.1693 18.4736 25.1719 17.5818C25.1744 16.686 25.8064 16.3257 26.5862 16.776ZM26.5778 19.7687C27.2385 20.1501 27.7742 19.8403 27.7763 19.0855C27.7785 18.3264 27.2463 17.4 26.5856 17.0185C25.9249 16.6371 25.3892 16.9469 25.387 17.706C25.3849 18.4608 25.9171 19.3872 26.5778 19.7687Z" fill="#6A9839"/>
<path id="Vector_63" d="M26.58 21.5227C26.6412 21.6551 26.6715 21.8053 26.6711 21.9643C26.6706 22.1276 26.6395 22.2378 26.5778 22.2995C26.5161 22.361 26.4237 22.3564 26.3008 22.2854C26.174 22.2122 26.082 22.1104 26.0208 21.9779C25.9596 21.8452 25.9292 21.6996 25.9297 21.5363C25.9301 21.3772 25.9613 21.2626 26.023 21.2011C26.0847 21.1393 26.1771 21.1439 26.3038 21.2171C26.4268 21.2881 26.5188 21.3899 26.58 21.5227ZM26.4322 22.0782C26.4593 22.032 26.4749 21.957 26.4752 21.8512C26.4755 21.7496 26.4603 21.657 26.4336 21.5797C26.4069 21.5021 26.3609 21.4403 26.3033 21.407C26.2418 21.3715 26.1956 21.3801 26.1686 21.4266C26.1415 21.4729 26.1259 21.5478 26.1256 21.6494C26.1253 21.7552 26.1404 21.8479 26.1672 21.9252C26.1939 22.0025 26.2399 22.06 26.3013 22.0955C26.359 22.1288 26.4051 22.1245 26.4322 22.0782Z" fill="#97C269"/>
<path id="Vector_64" d="M14.5416 14.4542L14.5388 15.4867L14.3463 15.3761L14.3491 14.5375L14.1797 14.4395L14.1804 14.2456L14.5416 14.4542Z" fill="#97C269"/>
<path id="Vector_65" d="M15.3769 15.0563C15.438 15.1888 15.4722 15.3412 15.4718 15.5002C15.4713 15.6635 15.4364 15.7714 15.3746 15.8332C15.3129 15.8947 15.2206 15.8901 15.0977 15.8191C14.9709 15.7459 14.8788 15.6441 14.8177 15.5116C14.7565 15.3789 14.7261 15.2333 14.7266 15.07C14.727 14.9109 14.7581 14.7963 14.8199 14.7348C14.8816 14.673 14.9739 14.6776 15.1007 14.7508C15.2236 14.8218 15.3157 14.9236 15.3769 15.0563ZM15.2291 15.6119C15.26 15.5679 15.2717 15.4907 15.272 15.3849C15.2723 15.2833 15.261 15.1929 15.2305 15.1134C15.2038 15.0358 15.1578 14.974 15.1002 14.9407C15.0387 14.9052 14.9963 14.916 14.9654 14.9603C14.9384 15.0066 14.9228 15.0815 14.9225 15.1831C14.9222 15.2889 14.9373 15.3816 14.964 15.4589C14.9946 15.5384 15.0367 15.5937 15.0982 15.6292C15.1558 15.6625 15.202 15.6582 15.2291 15.6119ZM16.2642 15.5686C16.3292 15.7033 16.3596 15.8535 16.3591 16.0125C16.3587 16.1758 16.3276 16.286 16.262 16.3455C16.2003 16.407 16.1079 16.4024 15.985 16.3314C15.8582 16.2582 15.7662 16.1564 15.705 16.0239C15.6438 15.8912 15.6134 15.7456 15.6139 15.5823C15.6144 15.4232 15.6455 15.3086 15.7072 15.2471C15.769 15.1853 15.8613 15.1899 15.988 15.2631C16.111 15.3341 16.203 15.4359 16.2642 15.5686ZM16.1164 16.1242C16.1473 16.0802 16.1591 16.003 16.1594 15.8972C16.1597 15.7956 16.1484 15.7052 16.1178 15.6257C16.0911 15.5481 16.0451 15.4863 15.9875 15.453C15.9261 15.4175 15.8837 15.4283 15.8528 15.4726C15.8257 15.5189 15.8101 15.5938 15.8098 15.6954C15.8095 15.8012 15.8247 15.8939 15.8514 15.9712C15.8819 16.0507 15.9241 16.106 15.9856 16.1415C16.0432 16.1748 16.0894 16.1705 16.1164 16.1242Z" fill="#97C269"/>
<path id="Vector_66" d="M27.3545 14.5646C27.3518 15.5267 28.0295 16.7004 28.8707 17.1861L28.8558 22.4555C28.0145 21.9699 27.3324 22.3584 27.3297 23.3205L13.5162 15.3467C13.519 14.3846 12.8413 13.2111 12 12.7255L12.0149 7.45603C12.8562 7.94165 13.5383 7.55287 13.5411 6.59082L27.3545 14.5646ZM20.4235 19.1351C22.4325 20.2948 24.0666 19.3638 24.0731 17.0557C24.0797 14.7475 22.4562 11.9316 20.4472 10.7719C18.4382 9.6122 16.8042 10.5477 16.7976 12.8559C16.7911 15.164 18.4145 17.9754 20.4235 19.1351ZM12.8836 10.4903C12.8811 11.3819 13.509 12.4737 14.2888 12.9238C15.0686 13.3739 15.7006 13.0095 15.7031 12.1178C15.7057 11.2221 15.0778 10.1347 14.298 9.68453C13.5182 9.23439 12.8861 9.59453 12.8836 10.4903ZM26.5734 20.0151C27.3493 20.463 27.9852 20.1008 27.9877 19.2091C27.9903 18.3134 27.3585 17.2237 26.5826 16.7758C25.8028 16.3257 25.1707 16.6858 25.1682 17.5816C25.1657 18.4732 25.7936 19.565 26.5734 20.0151ZM23.969 13.079L23.9681 13.3747L27.0758 15.1686L27.0766 14.8729L23.969 13.079ZM13.8163 7.21833L13.8155 7.51403L16.9231 9.30791L16.9239 9.01222L13.8163 7.21833ZM16.2644 16.3453C16.33 16.2857 16.3611 16.1756 16.3616 16.0123C16.362 15.8533 16.3317 15.7032 16.2667 15.5685C16.2055 15.4358 16.1134 15.334 15.9905 15.2631C15.8637 15.1899 15.7714 15.1853 15.7097 15.247C15.6479 15.3085 15.6168 15.4232 15.6164 15.5821C15.6159 15.7454 15.6463 15.891 15.7075 16.0237C15.7686 16.1562 15.8607 16.258 15.9875 16.3312C16.1104 16.4021 16.2027 16.4067 16.2644 16.3453ZM15.3771 15.833C15.4388 15.7713 15.4738 15.6634 15.4742 15.5001C15.4747 15.3411 15.4405 15.1888 15.3793 15.0563C15.3181 14.9236 15.2261 14.8218 15.1031 14.7508C14.9764 14.6777 14.884 14.6731 14.8223 14.7348C14.7606 14.7963 14.7295 14.9109 14.729 15.0699C14.7286 15.2332 14.7589 15.3788 14.8201 15.5115C14.8813 15.6439 14.9734 15.7458 15.1001 15.8189C15.223 15.8899 15.3154 15.8945 15.3771 15.833ZM26.5785 22.299C26.6402 22.2373 26.6713 22.1272 26.6717 21.9639C26.6722 21.8049 26.6418 21.6547 26.5807 21.5223C26.5195 21.3896 26.4274 21.2878 26.3045 21.2168C26.1777 21.1437 26.0854 21.139 26.0236 21.2008C25.9619 21.2623 25.9308 21.3769 25.9303 21.5359C25.9299 21.6992 25.9603 21.8448 26.0214 21.9775C26.0826 22.1099 26.1747 22.2118 26.3015 22.2849C26.4244 22.3559 26.5167 22.3605 26.5785 22.299ZM25.6911 21.7868C25.7528 21.7251 25.7839 21.615 25.7844 21.4517C25.7848 21.2927 25.7545 21.1425 25.6933 21.0101C25.6321 20.8774 25.5401 20.7756 25.4171 20.7046C25.2904 20.6314 25.198 20.6268 25.1363 20.6886C25.0746 20.75 25.0435 20.8647 25.043 21.0237C25.0425 21.187 25.0729 21.3326 25.1341 21.4653C25.1953 21.5977 25.2873 21.6995 25.4141 21.7727C25.537 21.8437 25.6294 21.8483 25.6911 21.7868ZM16.2194 9.1758L14.5177 8.19348L14.5168 8.4935L16.2185 9.47582L16.2194 9.1758ZM26.372 15.0364L24.6703 14.0541L24.6695 14.3541L26.3712 15.3364L26.372 15.0364ZM24.8533 21.4401L24.8562 20.4074L24.4913 20.1968L24.4907 20.391L24.6636 20.4908L24.6612 21.3293L24.8533 21.4401ZM14.5393 15.4864L14.5422 14.4537L14.1811 14.2452L14.1806 14.4394L14.3496 14.537L14.3472 15.3755L14.5393 15.4864Z" fill="#97C269"/>
<path id="Vector_67" d="M11.3806 4.60596L29.5155 15.0744L29.4865 25.3042L11.3516 14.8358L11.3806 4.60596ZM28.8559 22.456L28.8708 17.1866C28.0296 16.701 27.3519 15.5272 27.3546 14.5652L13.5412 6.59135C13.5384 7.55339 12.8563 7.94218 12.015 7.45656L12.0001 12.726C12.8414 13.2116 13.5191 14.3851 13.5163 15.3472L27.3298 23.321C27.3325 22.359 28.0146 21.9704 28.8559 22.456Z" fill="#6A9839"/>
<g id="Group_12">
<g id="Group_13">
<path id="Vector_68" d="M29.7332 14.9561L31.4293 13.9707L31.3992 24.6901L29.7031 25.6755L29.7332 14.9561Z" fill="#5E8632"/>
<path id="Vector_69" d="M11.1719 4.2415L12.868 3.25537L31.4292 13.9705L29.7331 14.956L11.1719 4.2415Z" fill="#7DB343"/>
<path id="Vector_70" d="M19.1797 8.86402L20.8765 7.87842L23.974 9.66622L22.2779 10.6518L19.1797 8.86402Z" fill="#FED44C"/>
</g>
</g>
<g id="Group_14">
<path id="Vector_71" d="M22.2731 10.6518L22.2388 21.3669L19.1406 19.5794L19.1749 8.86426L22.2731 10.6518Z" fill="#F2BC36"/>
</g>
</g>
<g id="Group_15">
<path id="Vector_72" d="M22.7177 21.8186L22.7142 22.8511L22.5224 22.7405L22.5245 21.9019L22.3516 21.8018L22.3523 21.6079L22.7177 21.8186Z" fill="#97C269"/>
<path id="Vector_73" d="M9.03038 5.65186L27.5917 16.3664L27.5613 27.0818L9 16.3672L9.03038 5.65186ZM27.3469 26.7148L27.3759 16.485L9.24097 6.01659L9.21196 16.2464L27.3469 26.7148Z" fill="#97C269"/>
<path id="Vector_74" d="M24.1672 22.8178C24.2248 22.8511 24.2708 22.9129 24.2975 22.9904C24.3242 23.0677 24.3394 23.1604 24.3391 23.2619C24.3388 23.3678 24.3232 23.4427 24.2961 23.489C24.269 23.5353 24.2229 23.5395 24.1652 23.5063C24.1038 23.4708 24.0578 23.4133 24.0311 23.336C24.0043 23.2587 23.9892 23.166 23.9895 23.0601C23.9898 22.9586 24.0054 22.8836 24.0325 22.8374C24.0595 22.7909 24.1057 22.7823 24.1672 22.8178ZM23.5565 22.4211C23.6177 22.5535 23.6481 22.7037 23.6476 22.8627C23.6472 23.0261 23.6161 23.1362 23.5543 23.1979C23.4926 23.2594 23.4003 23.2548 23.2773 23.1839C23.1506 23.1107 23.0585 23.0088 22.9974 22.8764C22.9362 22.7436 22.9058 22.598 22.9063 22.4347C22.9067 22.2757 22.9378 22.161 22.9996 22.0995C23.0613 22.0378 23.1536 22.0424 23.2804 22.1156C23.4033 22.1865 23.4954 22.2884 23.5565 22.4211ZM23.4088 22.9767C23.4358 22.9304 23.4514 22.8555 23.4517 22.7496C23.452 22.6481 23.4369 22.5554 23.4102 22.4781C23.3835 22.4005 23.3375 22.3387 23.2798 22.3055C23.2184 22.27 23.1722 22.2786 23.1451 22.3251C23.1181 22.3713 23.1025 22.4463 23.1022 22.5478C23.1019 22.6537 23.117 22.7463 23.1437 22.8236C23.1704 22.901 23.2164 22.9585 23.2779 22.9939C23.3355 23.0272 23.3817 23.0229 23.4088 22.9767Z" fill="#97C269"/>
<path id="Vector_75" d="M23.2807 22.3055C23.3384 22.3388 23.3844 22.4006 23.4111 22.4781C23.4378 22.5554 23.4529 22.6481 23.4526 22.7496C23.4523 22.8554 23.4367 22.9304 23.4097 22.9766C23.3826 23.0229 23.3364 23.0271 23.2788 22.9939C23.2173 22.9584 23.1713 22.9009 23.1446 22.8236C23.1179 22.7463 23.1028 22.6536 23.1031 22.5478C23.1033 22.4463 23.119 22.3714 23.146 22.3251C23.1731 22.2786 23.2193 22.27 23.2807 22.3055ZM13.8541 16.864C13.9117 16.8972 13.9577 16.959 13.9844 17.0366C14.015 17.1161 14.0263 17.2065 14.026 17.3081C14.0255 17.4714 13.9931 17.6337 13.8521 17.5523C13.7907 17.5168 13.7485 17.4616 13.718 17.382C13.6913 17.3048 13.6761 17.2121 13.6764 17.1063C13.6767 17.0047 13.6923 16.9298 13.7194 16.8836C13.7503 16.8393 13.7926 16.8285 13.8541 16.864ZM12.9668 16.3518C13.0244 16.385 13.0704 16.4468 13.0971 16.5243C13.1276 16.6039 13.1389 16.6943 13.1386 16.7958C13.1383 16.9017 13.1266 16.9788 13.0957 17.0228C13.0686 17.0691 13.0224 17.0734 12.9648 17.0401C12.9033 17.0046 12.8612 16.9494 12.8306 16.8698C12.8039 16.7926 12.7888 16.6999 12.7891 16.5941C12.7894 16.4925 12.805 16.4176 12.832 16.3714C12.8629 16.3271 12.9053 16.3163 12.9668 16.3518Z" fill="#97C269"/>
<path id="Vector_76" d="M18.5529 16.9106C18.7985 17.1363 18.9673 17.3266 19.0554 17.4748C19.1473 17.625 19.193 17.7841 19.1925 17.9474C19.1921 18.1153 19.1302 18.2165 19.0185 18.258C18.903 18.3019 18.7453 18.2773 18.5493 18.1862L18.5529 16.9106ZM17.5703 14.7074C17.5708 14.5486 17.6211 14.445 17.7251 14.3988C17.8329 14.355 17.9753 14.3753 18.1636 14.462L18.1601 15.689C17.9298 15.4721 17.7726 15.2928 17.6922 15.1536C17.6079 15.0121 17.5699 14.8664 17.5703 14.7074Z" fill="#6A9839"/>
<path id="Vector_77" d="M19.6183 17.1733C19.8405 17.5227 19.9472 17.8979 19.946 18.3129C19.9449 18.7276 19.8171 18.9899 19.5629 19.104C19.3048 19.2157 18.9702 19.1641 18.5514 18.9444L18.55 19.4563L18.1543 19.2279L18.1558 18.7071C17.5913 18.3151 17.0849 17.7664 16.6406 17.0591L17.0918 16.7051C17.4365 17.2487 17.7894 17.6558 18.158 17.935L18.1619 16.5623C17.6974 16.1661 17.356 15.8009 17.1415 15.4694C16.927 15.1379 16.8203 14.7669 16.8214 14.3563C16.8226 13.9505 16.9465 13.686 17.1969 13.5696C17.4473 13.4535 17.7704 13.4985 18.1699 13.7071L18.171 13.3496L18.5666 13.578L18.5656 13.9398C19.0149 14.239 19.4446 14.664 19.8471 15.2146L19.4419 15.6303C19.1698 15.2524 18.8782 14.9469 18.5634 14.7122L18.5596 16.0449L18.575 16.0537C19.0471 16.4546 19.3962 16.8285 19.6183 17.1733ZM19.0228 18.2572C19.1344 18.2156 19.1963 18.1144 19.1968 17.9466C19.1972 17.7833 19.1515 17.6243 19.0596 17.4741C18.9715 17.3259 18.8028 17.1356 18.5572 16.9099L18.5535 18.1854C18.7495 18.2764 18.9072 18.301 19.0228 18.2572ZM18.1643 15.6886L18.1678 14.4617C17.9795 14.3751 17.8372 14.3548 17.7293 14.3986C17.6253 14.4448 17.575 14.5484 17.5746 14.7071C17.5741 14.8661 17.6122 15.0118 17.6964 15.1532C17.7768 15.2925 17.9341 15.4718 18.1643 15.6886Z" fill="#6A9839"/>
<path id="Vector_78" d="M24.2336 16.4469L24.2329 16.7472L22.5312 15.7651L22.5319 15.4648L24.2336 16.4469Z" fill="#6A9839"/>
<path id="Vector_79" d="M24.9368 16.2843L24.9354 16.5797L21.8281 14.7856L21.8288 14.4902L24.9368 16.2843Z" fill="#6A9839"/>
<path id="Vector_80" d="M12.1595 11.3377C12.8202 11.7191 13.3524 12.6455 13.3503 13.4046C13.3481 14.1595 12.8124 14.4693 12.1517 14.0878C11.4948 13.7086 10.9588 12.78 10.9609 12.0252C10.9631 11.266 11.5026 10.9584 12.1595 11.3377Z" fill="#6A9839"/>
<g id="Group_16">
<path id="Vector_81" d="M12.1566 11.0953C12.9363 11.5455 13.5643 12.6332 13.5617 13.529C13.5592 14.4208 12.9272 14.7854 12.1474 14.3351C11.3676 13.8849 10.7397 12.793 10.7422 11.9012C10.7447 11.0053 11.3768 10.6451 12.1566 11.0953ZM12.1481 14.088C12.8088 14.4695 13.3445 14.1597 13.3466 13.4048C13.3488 12.6457 12.8166 11.7193 12.1559 11.3379C11.499 10.9586 10.9595 11.2662 10.9573 12.0254C10.9552 12.7802 11.4912 13.7088 12.1481 14.088Z" fill="#6A9839"/>
<path id="Vector_82" d="M14.0774 10.5873L14.0767 10.8869L12.375 9.90479L12.3757 9.60449L14.0774 10.5873Z" fill="#6A9839"/>
<path id="Vector_83" d="M14.7806 10.4235L14.7799 10.7189L11.6719 8.92479L11.6726 8.62939L14.7806 10.4235Z" fill="#6A9839"/>
</g>
<path id="Vector_84" d="M18.3059 12.183C20.3149 13.3427 21.9383 16.1586 21.9318 18.4668C21.9252 20.7749 20.2912 21.7059 18.2822 20.5462C16.2731 19.3865 14.6497 16.5751 14.6563 14.267C14.6628 11.9588 16.2969 11.0233 18.3059 12.183ZM19.5598 19.1044C19.8141 18.9903 19.9418 18.728 19.943 18.3133C19.9442 17.8983 19.8375 17.5231 19.6153 17.1737C19.3931 16.8289 19.044 16.455 18.5719 16.0541L18.5566 16.0452L18.5604 14.7126C18.8752 14.9473 19.1667 15.2528 19.4388 15.6307L19.844 15.2149C19.4416 14.6644 19.0118 14.2393 18.5625 13.9401L18.5636 13.5784L18.1679 13.35L18.1669 13.7074C17.7673 13.4988 17.4443 13.4539 17.1938 13.57C16.9434 13.6864 16.8195 13.9508 16.8184 14.3567C16.8172 14.7673 16.9239 15.1383 17.1384 15.4698C17.3529 15.8013 17.6943 16.1665 18.1588 16.5627L18.1549 17.9353C17.7863 17.6561 17.4335 17.2491 17.0887 16.7055L16.6376 17.0595C17.0819 17.7668 17.5882 18.3155 18.1527 18.7075L18.1513 19.2283L18.5469 19.4567L18.5484 18.9448C18.9671 19.1645 19.3017 19.2161 19.5598 19.1044ZM24.4405 18.4295C25.1012 18.8109 25.6334 19.737 25.6313 20.496C25.6291 21.2507 25.0934 21.5605 24.4327 21.1791C23.772 20.7977 23.2398 19.8715 23.242 19.1168C23.2441 18.3578 23.7798 18.0481 24.4405 18.4295Z" fill="#6A9839"/>
<path id="Vector_85" d="M24.4456 18.1866C25.2216 18.6346 25.8533 19.7245 25.8508 20.6203C25.8483 21.5121 25.2124 21.8744 24.4364 21.4265C23.6566 20.9762 23.0287 19.8843 23.0313 18.9925C23.0338 18.0966 23.6658 17.7364 24.4456 18.1866ZM24.4371 21.1793C25.0978 21.5608 25.6335 21.251 25.6357 20.4961C25.6378 19.737 25.1056 18.8106 24.4449 18.4292C23.7842 18.0477 23.2485 18.3575 23.2464 19.1167C23.2442 19.8715 23.7764 20.7979 24.4371 21.1793Z" fill="#6A9839"/>
<path id="Vector_86" d="M24.4394 22.9333C24.5006 23.0658 24.5309 23.2159 24.5305 23.3749C24.53 23.5383 24.4989 23.6484 24.4372 23.7102C24.3754 23.7716 24.2831 23.767 24.1602 23.6961C24.0334 23.6229 23.9414 23.521 23.8802 23.3886C23.819 23.2559 23.7886 23.1102 23.7891 22.9469C23.7895 22.7879 23.8206 22.6732 23.8824 22.6117C23.9441 22.55 24.0364 22.5546 24.1632 22.6278C24.2861 22.6987 24.3782 22.8006 24.4394 22.9333ZM24.2916 23.4889C24.3187 23.4426 24.3343 23.3677 24.3346 23.2618C24.3348 23.1603 24.3197 23.0676 24.293 22.9903C24.2663 22.9128 24.2203 22.8509 24.1627 22.8177C24.1012 22.7822 24.055 22.7908 24.028 22.8373C24.0009 22.8835 23.9853 22.9585 23.985 23.06C23.9847 23.1659 23.9998 23.2586 24.0265 23.3359C24.0533 23.4132 24.0993 23.4707 24.1607 23.5062C24.2184 23.5394 24.2645 23.5352 24.2916 23.4889Z" fill="#97C269"/>
<path id="Vector_87" d="M12.4003 15.8644L12.3975 16.8969L12.2057 16.7863L12.2078 15.9477L12.0391 15.8497V15.6558L12.4003 15.8644Z" fill="#97C269"/>
<path id="Vector_88" d="M13.2362 16.4675C13.2974 16.5999 13.3316 16.7523 13.3312 16.9113C13.3307 17.0747 13.2958 17.1826 13.234 17.2443C13.1723 17.3058 13.08 17.3012 12.957 17.2302C12.8303 17.1571 12.7382 17.0552 12.677 16.9227C12.6159 16.79 12.5855 16.6444 12.5859 16.4811C12.5864 16.3221 12.6175 16.2074 12.6792 16.1459C12.741 16.0841 12.8333 16.0888 12.9601 16.162C13.083 16.2329 13.175 16.3348 13.2362 16.4675ZM13.0884 17.0231C13.1194 16.979 13.1311 16.9019 13.1314 16.796C13.1317 16.6945 13.1204 16.604 13.0899 16.5245C13.0631 16.4469 13.0171 16.3851 12.9595 16.3519C12.8981 16.3164 12.8557 16.3272 12.8248 16.3715C12.7977 16.4177 12.7821 16.4926 12.7818 16.5942C12.7815 16.7 12.7967 16.7927 12.8234 16.87C12.854 16.9496 12.8961 17.0048 12.9576 17.0403C13.0152 17.0736 13.0614 17.0693 13.0884 17.0231ZM14.1236 16.9798C14.1886 17.1145 14.2189 17.2646 14.2185 17.4236C14.2167 18.0591 13.7148 17.7608 13.5644 17.4351C13.5032 17.3023 13.4728 17.1567 13.4733 16.9934C13.4737 16.8344 13.5048 16.7197 13.5666 16.6582C13.6283 16.5965 13.7206 16.6011 13.8474 16.6743C13.9703 16.7452 14.0624 16.8471 14.1236 16.9798ZM13.9758 17.5354C14.0067 17.4913 14.0185 17.4142 14.0188 17.3083C14.019 17.2068 14.0077 17.1163 13.9772 17.0368C13.9505 16.9592 13.9045 16.8974 13.8469 16.8642C13.7854 16.8287 13.743 16.8395 13.7121 16.8838C13.6851 16.93 13.6695 17.005 13.6692 17.1065C13.6689 17.2123 13.684 17.305 13.7107 17.3823C13.7413 17.4619 13.7835 17.5171 13.8449 17.5526C13.9025 17.5859 13.9487 17.5816 13.9758 17.5354Z" fill="#97C269"/>
<path id="Vector_89" d="M25.2139 15.9758C25.2112 16.9378 25.8889 18.1116 26.7301 18.5972L26.7152 23.8666C25.8739 23.381 25.1918 23.7696 25.1891 24.7316L11.3756 16.7578C11.3783 15.7958 10.7006 14.6222 9.85938 14.1366L9.87432 8.86717C10.7156 9.35278 11.3977 8.964 11.4004 8.00195L25.2139 15.9758ZM18.2829 20.5462C20.2919 21.7059 21.9259 20.7749 21.9325 18.4668C21.939 16.1587 20.3156 13.3428 18.3066 12.1831C16.2976 11.0233 14.6635 11.9589 14.657 14.267C14.6504 16.5751 16.2739 19.3865 18.2829 20.5462ZM10.743 11.9014C10.7404 12.793 11.3684 13.8848 12.1481 14.3349C12.9279 14.7851 13.56 14.4206 13.5625 13.529C13.5651 12.6333 12.9371 11.5458 12.1573 11.0957C11.3775 10.6455 10.7455 11.0057 10.743 11.9014ZM24.4327 21.4262C25.2087 21.8742 25.8446 21.5119 25.8471 20.6203C25.8497 19.7245 25.2179 18.6349 24.4419 18.187C23.6621 17.7368 23.0301 18.097 23.0276 18.9927C23.025 19.8843 23.653 20.9761 24.4327 21.4262ZM21.8283 14.4901L21.8275 14.7858L24.9351 16.5797L24.936 16.284L21.8283 14.4901ZM11.6757 8.62947L11.6748 8.92516L14.7825 10.719L14.7833 10.4233L11.6757 8.62947ZM14.1238 17.7564C14.1894 17.6969 14.2205 17.5868 14.2209 17.4235C14.2214 17.2645 14.1911 17.1143 14.126 16.9797C14.0648 16.847 13.9728 16.7452 13.8499 16.6742C13.7231 16.601 13.6308 16.5964 13.569 16.6581C13.5073 16.7196 13.4762 16.8343 13.4757 16.9933C13.4753 17.1566 13.5056 17.3022 13.5668 17.4349C13.6611 17.639 13.9744 17.9051 14.1238 17.7564ZM13.2365 17.2442C13.2982 17.1824 13.3331 17.0745 13.3336 16.9112C13.334 16.7522 13.2999 16.5999 13.2387 16.4674C13.1775 16.3348 13.0854 16.2329 12.9625 16.162C12.8357 16.0888 12.7434 16.0842 12.6817 16.1459C12.6199 16.2074 12.5888 16.3221 12.5884 16.4811C12.5879 16.6444 12.6183 16.79 12.6795 16.9226C12.7407 17.0551 12.8327 17.1569 12.9595 17.2301C13.0824 17.301 13.1747 17.3056 13.2365 17.2442ZM24.4378 23.7102C24.4995 23.6484 24.5306 23.5383 24.5311 23.375C24.5316 23.216 24.5012 23.0659 24.44 22.9334C24.3788 22.8007 24.2868 22.6989 24.1639 22.628C24.0371 22.5548 23.9448 22.5502 23.883 22.6119C23.8213 22.6734 23.7902 22.7881 23.7897 22.947C23.7893 23.1103 23.8196 23.2559 23.8808 23.3886C23.942 23.5211 24.0341 23.6229 24.1608 23.6961C24.2837 23.767 24.3761 23.7716 24.4378 23.7102ZM23.5505 23.1979C23.6122 23.1362 23.6433 23.0261 23.6438 22.8628C23.6442 22.7038 23.6138 22.5536 23.5527 22.4212C23.4915 22.2885 23.3994 22.1867 23.2765 22.1157C23.1497 22.0426 23.0574 22.0379 22.9957 22.0997C22.9339 22.1612 22.9028 22.2758 22.9024 22.4348C22.9019 22.5981 22.9323 22.7437 22.9935 22.8764C23.0546 23.0088 23.1467 23.1107 23.2735 23.1838C23.3964 23.2548 23.4887 23.2594 23.5505 23.1979ZM14.0787 10.5869L12.377 9.60461L12.3762 9.90463L14.0779 10.8869L14.0787 10.5869ZM24.2314 16.4476L22.5297 15.4652L22.5288 15.7653L24.2305 16.7476L24.2314 16.4476ZM22.7127 22.8513L22.7156 21.8186L22.3507 21.6079L22.3501 21.8021L22.523 21.9019L22.5206 22.7404L22.7127 22.8513ZM12.3987 16.8975L12.4016 15.8648L12.0405 15.6564L12.04 15.8506L12.209 15.9481L12.2066 16.7866L12.3987 16.8975Z" fill="#97C269"/>
<path id="Vector_90" d="M9.23995 6.01611L27.3749 16.4845L27.3459 26.7143L9.21094 16.2459L9.23995 6.01611ZM26.7153 23.8662L26.7302 18.5967C25.889 18.1111 25.2113 16.9374 25.214 15.9753L11.4005 8.0015C11.3978 8.96354 10.7157 9.35233 9.87442 8.86671L9.85947 14.1362C10.7007 14.6218 11.3784 15.7953 11.3757 16.7573L25.1892 24.7312C25.1919 23.7691 25.874 23.3806 26.7153 23.8662Z" fill="#6A9839"/>
<g id="Group_17">
<g id="Group_18">
<path id="Vector_91" d="M27.5926 16.3663L29.2887 15.3809L29.2586 26.1002L27.5625 27.0863L27.5926 16.3663Z" fill="#5E8632"/>
<path id="Vector_92" d="M9.03125 5.65193L10.7274 4.6665L29.2885 15.381L27.5924 16.3664L9.03125 5.65193Z" fill="#7DB343"/>
<path id="Vector_93" d="M17.0391 10.2747L18.7352 9.28906L21.8327 11.0769L20.1366 12.0625L17.0391 10.2747Z" fill="#FED44C"/>
</g>
</g>
<g id="Group_19">
<path id="Vector_94" d="M20.1396 12.0624L20.1053 22.7776L17.0078 20.9901L17.0421 10.2749L20.1396 12.0624Z" fill="#F2BC36"/>
</g>
</g>
</g>
<g id="Group_20">
<g id="Group_21">
<path id="Vector_95" d="M13.1969 20.6708L12.0616 21.3316C11.8083 21.479 11.5066 21.5412 11.1703 21.5113C10.9562 21.4929 10.7282 21.4353 10.4887 21.3362C10.3597 21.2833 10.2284 21.2189 10.0949 21.1405C8.56802 20.261 7.33134 18.1173 7.33595 16.3673C7.33595 16.3673 7.33595 16.3673 7.33595 16.3651V16.3029C7.34516 15.8908 7.42345 15.5408 7.55702 15.2553C7.6169 15.131 7.68598 15.0181 7.7666 14.9191C7.87483 14.7856 8.00149 14.6749 8.14427 14.5921L9.27962 13.9336C9.13684 14.0165 9.01018 14.1247 8.90195 14.2605C8.82134 14.3572 8.75225 14.4701 8.69468 14.5944C8.55882 14.8799 8.48051 15.2323 8.47359 15.6421C8.47359 15.6628 8.4713 15.6836 8.4713 15.7066C8.46669 17.4588 9.70337 19.6001 11.2302 20.482C11.3638 20.558 11.4974 20.6225 11.6263 20.6755C11.8635 20.7745 12.0915 20.832 12.3057 20.8527C12.6419 20.8827 12.9436 20.8182 13.1969 20.6708Z" fill="#FED44C"/>
<path id="Vector_96" d="M13.194 20.6712L12.0579 21.3314C12.5547 21.0427 12.8631 20.4298 12.8656 19.5595L14.0018 18.8994C13.9993 19.7696 13.6908 20.3826 13.194 20.6712ZM8.14062 14.5924L9.2768 13.9322C9.78022 13.6397 10.477 13.6803 11.2451 14.1237L10.1089 14.7838C9.34087 14.3405 8.64404 14.2999 8.14062 14.5924Z" fill="#FED44C"/>
<path id="Vector_97" d="M10.1094 14.7843L11.2456 14.124C12.7703 15.0043 14.0072 17.1467 14.0023 18.9005L12.8661 19.5608C12.8711 17.807 11.6341 15.6646 10.1094 14.7843Z" fill="#FED44C"/>
<path id="Vector_98" d="M10.3778 14.5788C11.9025 15.4589 13.1395 17.601 13.1345 19.3545C13.1295 21.1062 11.8845 21.8155 10.3598 20.9354C8.83354 20.0544 7.59661 17.9123 7.60158 16.1606C7.60655 14.4071 8.85157 13.6978 10.3778 14.5788Z" fill="#F2BC36"/>
<path id="Vector_99" d="M10.112 13.8448C12.0911 14.9873 13.6901 17.7579 13.6836 20.0317C13.6772 22.3054 12.0678 23.2224 10.0887 22.0799C8.10959 20.9375 6.5092 18.1677 6.51564 15.894C6.5221 13.6202 8.13295 12.7024 10.112 13.8448ZM10.0913 21.1407C11.6161 22.0209 12.8611 21.3116 12.8661 19.5598C12.8711 17.8063 11.6341 15.6643 10.1094 14.7841C8.58314 13.9031 7.33813 14.6124 7.33315 16.3659C7.3282 18.1177 8.56513 20.2597 10.0913 21.1407Z" fill="#F9C73A"/>
</g>
<g id="Group_22">
<path id="Vector_100" d="M14.8214 19.3715C14.8168 20.5021 14.4183 21.2964 13.7758 21.6694L12.6382 22.3303C13.283 21.9549 13.6814 21.1606 13.6837 20.0323C13.6906 17.7575 12.0924 14.9874 10.1119 13.8454C9.11698 13.2697 8.21422 13.2168 7.5625 13.5944L8.69785 12.9358C9.34957 12.5559 10.2523 12.6089 11.2495 13.1845C13.2277 14.3266 14.826 17.0966 14.8214 19.3715Z" fill="#FED44C"/>
</g>
<g id="Group_23">
<path id="Vector_101" d="M12.5053 20.3005L12.5697 20.5196L12.436 20.3348L12.1952 20.7772L12.2743 20.2795L12.0552 20.3446L12.24 20.2102L11.7969 19.9701L12.2946 20.0485L12.2295 19.8294L12.3639 20.0142L12.604 19.5718L12.5256 20.0695L12.7447 20.0044L12.5599 20.1388L13.003 20.3789L12.5053 20.3005Z" fill="white"/>
</g>
</g>
</g>
<defs>
<clipPath id="clip0_5910_13109">
<rect width="35" height="34.994" fill="white" transform="translate(0.34375 0.958984)"/>
</clipPath>
</defs>
</svg>
