<?xml version="1.0" encoding="utf-8"?>
<!-- Generator: Adobe Illustrator 24.3.0, SVG Export Plug-In . SVG Version: 6.00 Build 0)  -->
<svg version="1.1" id="Layer_1" xmlns="http://www.w3.org/2000/svg" xmlns:xlink="http://www.w3.org/1999/xlink" x="0px" y="0px"
	 viewBox="0 0 100 100" style="enable-background:new 0 0 100 100;" xml:space="preserve">
<style type="text/css">
	.st0{fill:#6398DB;}
	.st1{fill:#F89C04;}
	.st2{fill:#FB7600;}
	.st3{fill:#022E87;}
	.st4{fill:#1452B9;}
	.st5{fill:#72ACF1;}
	.st6{fill:#A5CDFD;}
	.st7{fill:#E7F2FC;}
</style>
<g>
	<g>
		<g id="parcel-delivery">
			<path id="Vector" class="st0" d="M90.9,73.1l-10.1,4.7l-16.5,7.6L34,83.9l4.4-7.9l26.4-1.5c10.4-2.2,18-7.4,21.8-7.4
				C90.2,67,91.7,70.1,90.9,73.1z"/>
			<path id="Vector_2" class="st1" d="M20.8,16.2h73.8v63.1H20.8V16.2z"/>
			<path id="Vector_3" class="st2" d="M94.6,16.2H20.8L33.1,0.8h49.2L94.6,16.2z"/>
			<path id="Vector_4" class="st3" d="M70,16.2H45.4l4.8-15.4h15.1L70,16.2z"/>
			<path id="Vector_5" class="st4" d="M70,31.5l-6.2-3.2l-6.2,3.2l-6.2-3.2l-6.2,3.2V16.2H70V31.5z"/>
			<path id="Vector_6" class="st5" d="M68.5,77.9c-1.8,0.7-4.6-1.7-9.7-1.1c0,0-23.3-4.9-42.1-5.2v15.2c5.9,2.3,35.9,22.2,80.1-11.7
				l0.1-0.1c0.3-0.2,3.3-2.2,2-4.6C96.4,65.8,81.5,72.7,68.5,77.9z"/>
			<path id="Vector_7" class="st6" d="M74.7,80.6c-1.7,0.9-3.4,1.8-5.2,2.7c-4.4,2.1-9.2,3.1-14.1,3.1c-4.4,0-8.7-0.6-13-1.8
				c-0.2-0.1-0.4-0.1-0.6-0.3c-0.2-0.1-0.3-0.3-0.4-0.5c-0.1-0.2-0.2-0.4-0.2-0.6s0-0.4,0-0.6c0.1-0.2,0.2-0.4,0.3-0.6
				s0.3-0.3,0.5-0.4s0.4-0.2,0.6-0.2c0.2,0,0.4,0,0.7,0c9.9,2.6,17.7,2.3,24.6-1c3.1-1.5,3.1-2.1,3.3-3.3c0.2-0.7,0.2-1.5,0-2.2
				s-0.5-1.4-0.9-2c-0.9-0.8-2.1-1.3-3.4-1.2c-16.1,0.3-19-1.4-22.4-3.4c-3.1-1.8-10.5-4-29.3-4.3v27.5c5.9,2.3,35.7,22,80.1-11.7
				c0,0,3.4-2.3,2.1-4.6C94.8,70.5,87.1,74.2,74.7,80.6z"/>
			<path id="Vector_8" class="st0" d="M14.6,62.5H2.3c-0.8,0-1.5,0.7-1.5,1.5v27.7c0,0.8,0.7,1.5,1.5,1.5h12.3
				c0.8,0,1.5-0.7,1.5-1.5V64.1C16.1,63.2,15.5,62.5,14.6,62.5z"/>
			<path id="Vector_9" class="st7" d="M8.5,88.7c1.3,0,2.3-1,2.3-2.3s-1-2.3-2.3-2.3s-2.3,1-2.3,2.3S7.2,88.7,8.5,88.7z"/>
			<path id="Vector_10" class="st2" d="M56.2,46.9H90v18.5H56.2V46.9z"/>
			<path id="Vector_11" class="st7" d="M58.5,49.2h29.2V63H58.5V49.2z"/>
			<path id="Vector_12" class="st4" d="M83.8,54.4h-6.9c-0.2,0-0.5-0.1-0.7-0.3s-0.3-0.4-0.3-0.7c0-0.2,0.1-0.5,0.3-0.7
				c0.2-0.2,0.4-0.3,0.7-0.3h6.9c0.2,0,0.5,0.1,0.7,0.3s0.3,0.4,0.3,0.7c0,0.2-0.1,0.5-0.3,0.7C84.3,54.3,84.1,54.4,83.8,54.4z
				 M72.3,54.4h-10c-0.2,0-0.5-0.1-0.7-0.3s-0.3-0.4-0.3-0.7c0-0.2,0.1-0.5,0.3-0.7s0.4-0.3,0.7-0.3h10c0.2,0,0.5,0.1,0.7,0.3
				s0.3,0.4,0.3,0.7c0,0.2-0.1,0.5-0.3,0.7C72.8,54.3,72.6,54.4,72.3,54.4z M79.2,59.8h-6.9c-0.2,0-0.5-0.1-0.7-0.3
				s-0.3-0.4-0.3-0.7c0-0.2,0.1-0.5,0.3-0.7c0.2-0.2,0.4-0.3,0.7-0.3h6.9c0.2,0,0.5,0.1,0.7,0.3s0.3,0.4,0.3,0.7
				c0,0.2-0.1,0.5-0.3,0.7C79.7,59.7,79.5,59.8,79.2,59.8z M67.7,59.8h-5.4c-0.2,0-0.5-0.1-0.7-0.3s-0.3-0.4-0.3-0.7
				c0-0.2,0.1-0.5,0.3-0.7s0.4-0.3,0.7-0.3h5.4c0.2,0,0.5,0.1,0.7,0.3s0.3,0.4,0.3,0.7c0,0.2-0.1,0.5-0.3,0.7
				C68.2,59.7,67.9,59.8,67.7,59.8z"/>
			<path id="Vector_13" class="st6" d="M0.8,50.4l1.5,3.1l-1.5,3.1l3.1-1.5L7,56.6l-1.5-3.1L7,50.4l-3.1,1.5L0.8,50.4z M10.8,32.7
				l1.5,3.1l-1.5,3.1l3.1-1.5l3.1,1.5l-1.5-3.1l1.5-3.1l-3.1,1.5L10.8,32.7z M3.1,16.2l1.5,3.1l-1.5,3.1l3.1-1.5l3.1,1.5l-1.5-3.1
				l1.5-3.1l-3.1,1.5L3.1,16.2z M16.1,0.8l1.5,3.1L16.1,7l3.1-1.5L22.3,7l-1.5-3.1l1.5-3.1l-3.1,1.5L16.1,0.8z"/>
		</g>
	</g>
</g>
</svg>
