<?xml version="1.0" encoding="utf-8"?>
<!-- Generator: Adobe Illustrator 24.3.0, SVG Export Plug-In . SVG Version: 6.00 Build 0)  -->
<svg version="1.1" id="Layer_1" xmlns="http://www.w3.org/2000/svg" xmlns:xlink="http://www.w3.org/1999/xlink" x="0px" y="0px"
	 viewBox="0 0 100 100" style="enable-background:new 0 0 100 100;" xml:space="preserve">
<style type="text/css">
	.st0{fill:#E4E8EB;}
	.st1{fill:#FAB153;}
	.st2{fill:#CAD0D7;}
	.st3{fill:#66D4F1;}
	.st4{fill:#FFD67B;}
	.st5{fill:#636C77;}
	.st6{fill:#937661;}
	.st7{fill:#A9B0BB;}
	.st8{fill:#505763;}
	.st9{fill:#D1D7DE;}
	.st10{fill:#F2A149;}
</style>
<g id="parcel-delivery">
	<path id="Vector" class="st0" d="M94.8,40.1v25.4H55.2V24.1h23.7c0.7,0,1.4,0.1,2,0.4c0.6,0.3,1.2,0.6,1.7,1.1l10.8,10.8
		c0.5,0.5,0.9,1.1,1.1,1.7C94.7,38.7,94.8,39.4,94.8,40.1z"/>
	<path id="Vector_2" class="st1" d="M60.3,65.5L8.6,63.8c-1.8,0-3.6-0.7-4.9-2c-1.3-1.3-2-3-2-4.9V10.3c0-1.8,0.7-3.6,2-4.9
		c1.3-1.3,3-2,4.9-2h44.8c1.8,0,3.6,0.7,4.9,2c1.3,1.3,2,3,2,4.9V65.5z"/>
	<path id="Vector_3" class="st2" d="M100,65.5v17.2c0,0.5-0.2,0.9-0.5,1.2c-0.3,0.3-0.8,0.5-1.2,0.5h-8.6c0-6.7-24.1-6.7-24.1,0h-31
		c0-6.7-24.1-6.7-24.1,0H1.7c-0.5,0-0.9-0.2-1.2-0.5C0.2,83.7,0,83.2,0,82.8V65.5c0-0.5,0.2-0.9,0.5-1.2s0.8-0.5,1.2-0.5h96.6
		c0.5,0,0.9,0.2,1.2,0.5S100,65.1,100,65.5z"/>
	<path id="Vector_4" class="st3" d="M67.2,44.8V32.8c0-0.5,0.2-0.9,0.5-1.2c0.3-0.3,0.8-0.5,1.2-0.5h8.5c0.5,0,0.9,0.2,1.2,0.5
		l8.7,8.7c0.3,0.3,0.5,0.8,0.5,1.2v3.3c0,0.5-0.2,0.9-0.5,1.2s-0.8,0.5-1.2,0.5H69c-0.5,0-0.9-0.2-1.2-0.5S67.2,45.3,67.2,44.8z"/>
	<path id="Vector_5" class="st4" d="M42.2,27.3L31.9,21c-0.3-0.2-0.6-0.3-0.9-0.3c-0.3,0-0.6,0.1-0.9,0.3l-10.2,6.3
		c-0.3,0.2-0.6,0.3-0.9,0.3c-0.3,0-0.6-0.1-0.9-0.2c-0.3-0.1-0.5-0.4-0.7-0.6c-0.2-0.3-0.2-0.6-0.2-0.9V3.4h27.6v22.4
		c0,0.3-0.1,0.6-0.2,0.9c-0.2,0.3-0.4,0.5-0.7,0.6c-0.3,0.1-0.6,0.2-0.9,0.2C42.7,27.6,42.4,27.5,42.2,27.3z"/>
	<path id="Vector_6" class="st5" d="M22.4,96.6c6.7,0,12.1-5.4,12.1-12.1c0-6.7-5.4-12.1-12.1-12.1c-6.7,0-12.1,5.4-12.1,12.1
		C10.3,91.1,15.8,96.6,22.4,96.6z"/>
	<path id="Vector_7" class="st0" d="M22.4,89.7c2.9,0,5.2-2.3,5.2-5.2c0-2.9-2.3-5.2-5.2-5.2s-5.2,2.3-5.2,5.2
		C17.2,87.3,19.5,89.7,22.4,89.7z"/>
	<path id="Vector_8" class="st5" d="M77.6,96.6c6.7,0,12.1-5.4,12.1-12.1c0-6.7-5.4-12.1-12.1-12.1c-6.7,0-12.1,5.4-12.1,12.1
		C65.5,91.1,70.9,96.6,77.6,96.6z"/>
	<path id="Vector_9" class="st0" d="M77.6,89.7c2.9,0,5.2-2.3,5.2-5.2c0-2.9-2.3-5.2-5.2-5.2c-2.9,0-5.2,2.3-5.2,5.2
		C72.4,87.3,74.7,89.7,77.6,89.7z"/>
	<path id="Vector_10" class="st6" d="M31,53.4H10.3c-0.5,0-0.9,0.2-1.2,0.5c-0.3,0.3-0.5,0.8-0.5,1.2c0,0.5,0.2,0.9,0.5,1.2
		c0.3,0.3,0.8,0.5,1.2,0.5H31c0.5,0,0.9-0.2,1.2-0.5s0.5-0.8,0.5-1.2c0-0.5-0.2-0.9-0.5-1.2S31.5,53.4,31,53.4z M11.6,44.3l0.5-0.5
		v4.5c0,0.5,0.2,0.9,0.5,1.2c0.3,0.3,0.8,0.5,1.2,0.5c0.5,0,0.9-0.2,1.2-0.5c0.3-0.3,0.5-0.8,0.5-1.2v-4.5l0.5,0.5
		c0.2,0.2,0.3,0.3,0.6,0.4c0.2,0.1,0.4,0.1,0.7,0.1c0.2,0,0.5,0,0.7-0.1c0.2-0.1,0.4-0.2,0.6-0.4c0.2-0.2,0.3-0.4,0.4-0.6
		c0.1-0.2,0.1-0.4,0.1-0.7c0-0.2,0-0.5-0.1-0.7c-0.1-0.2-0.2-0.4-0.4-0.6L15,38.4c0,0,0,0-0.1,0c-0.1-0.1-0.3-0.3-0.5-0.3
		c0,0,0,0,0,0c-0.2-0.1-0.4-0.1-0.6-0.1c-0.1,0-0.1,0-0.2,0c-0.1,0-0.3,0-0.4,0.1c-0.1,0-0.1,0-0.2,0.1c-0.2,0.1-0.4,0.2-0.5,0.3
		l0,0l-3.4,3.4C9,42,8.8,42.2,8.7,42.4c-0.1,0.2-0.1,0.4-0.1,0.7c0,0.5,0.2,0.9,0.5,1.2c0.3,0.3,0.8,0.5,1.2,0.5
		C10.8,44.8,11.2,44.6,11.6,44.3z M25.4,44.3l0.5-0.5v4.5c0,0.5,0.2,0.9,0.5,1.2s0.8,0.5,1.2,0.5c0.5,0,0.9-0.2,1.2-0.5
		c0.3-0.3,0.5-0.8,0.5-1.2v-4.5l0.5,0.5c0.2,0.2,0.3,0.3,0.6,0.4c0.2,0.1,0.4,0.1,0.7,0.1c0.2,0,0.5,0,0.7-0.1
		c0.2-0.1,0.4-0.2,0.6-0.4c0.2-0.2,0.3-0.4,0.4-0.6c0.1-0.2,0.1-0.4,0.1-0.7c0-0.2,0-0.5-0.1-0.7c-0.1-0.2-0.2-0.4-0.4-0.6l-3.4-3.4
		c0,0,0,0-0.1,0c-0.1-0.1-0.3-0.3-0.5-0.3c0,0,0,0,0,0c-0.2-0.1-0.4-0.1-0.6-0.1c-0.1,0-0.1,0-0.2,0c-0.1,0-0.3,0-0.4,0.1
		c-0.1,0-0.1,0-0.2,0.1c-0.2,0.1-0.4,0.2-0.5,0.3l0,0l-3.4,3.4c-0.2,0.2-0.3,0.4-0.4,0.6c-0.1,0.2-0.1,0.4-0.1,0.7
		c0,0.2,0,0.5,0.1,0.7c0.1,0.2,0.2,0.4,0.4,0.6c0.2,0.2,0.4,0.3,0.6,0.4s0.4,0.1,0.7,0.1c0.2,0,0.5,0,0.7-0.1
		C25,44.6,25.2,44.5,25.4,44.3z"/>
	<path id="Vector_11" class="st7" d="M6.9,84.5H1.7c-0.5,0-0.9-0.2-1.2-0.5C0.2,83.7,0,83.2,0,82.8V65.5c0-0.5,0.2-0.9,0.5-1.2
		s0.8-0.5,1.2-0.5h5.2c-0.5,0-0.9,0.2-1.2,0.5c-0.3,0.3-0.5,0.8-0.5,1.2v17.2c0,0.5,0.2,0.9,0.5,1.2C6,84.3,6.4,84.5,6.9,84.5z"/>
	<path id="Vector_12" class="st8" d="M25,96.3c-0.9,0.2-1.7,0.3-2.6,0.3c-3.2,0-6.3-1.3-8.5-3.5c-2.3-2.3-3.5-5.3-3.5-8.5
		c0-0.1,0-0.2,0-0.3c0.1-3.1,1.4-6.1,3.6-8.3c2.3-2.2,5.3-3.4,8.4-3.4c0.9,0,1.7,0.1,2.6,0.3c-1.9,0.4-3.7,1.3-5.3,2.6
		c-1.5,1.3-2.7,2.9-3.4,4.8c-0.5,1.3-0.8,2.7-0.8,4.1c0,0.1,0,0.2,0,0.3c0,2.8,0.9,5.4,2.7,7.6C19.9,94.2,22.3,95.7,25,96.3z
		 M80.2,96.3c-0.9,0.2-1.7,0.3-2.6,0.3c-3.2,0-6.3-1.3-8.5-3.5c-2.3-2.3-3.5-5.3-3.5-8.5c0-0.1,0-0.2,0-0.3c0.1-3.1,1.4-6.1,3.6-8.3
		c2.3-2.2,5.3-3.4,8.4-3.4c0.9,0,1.7,0.1,2.6,0.3c-1.9,0.4-3.7,1.3-5.3,2.6c-1.5,1.3-2.7,2.9-3.4,4.8c-0.5,1.3-0.8,2.7-0.8,4.1
		c0,0.1,0,0.2,0,0.3c0,2.8,0.9,5.4,2.7,7.6C75.1,94.2,77.5,95.7,80.2,96.3z"/>
	<path id="Vector_13" class="st9" d="M65.5,24.1h-5.2v39.7h5.2V24.1z"/>
	<path id="Vector_14" class="st10" d="M13.8,63.8H8.6c-1.8,0-3.6-0.7-4.9-2c-1.3-1.3-2-3-2-4.9V10.3c0-1.8,0.7-3.6,2-4.9
		c1.3-1.3,3-2,4.9-2h5.2c-1.8,0-3.6,0.7-4.9,2c-1.3,1.3-2,3-2,4.9v46.6c0,1.8,0.7,3.6,2,4.9C10.2,63.1,12,63.8,13.8,63.8z"/>
</g>
</svg>
