<svg xmlns="http://www.w3.org/2000/svg" version="1.1" xmlns:xlink="http://www.w3.org/1999/xlink" width="512" height="512" x="0" y="0" viewBox="0 0 512 511" style="enable-background:new 0 0 512 512" xml:space="preserve" class=""><g><path fill="#6a80ff" d="M373.742 425.238h26.75c31.203 0 56.594-25.379 56.594-56.578 0-31.195-25.39-56.574-56.594-56.574H252.828c-50.031 0-90.734-40.691-90.734-90.711 0-50.016 40.703-90.707 90.734-90.707h104.774v44.902H252.828c-25.262 0-45.816 20.547-45.816 45.805s20.554 45.805 45.816 45.805h147.664C456.465 267.18 502 312.703 502 368.66s-45.535 101.48-101.508 101.48H82.496v-44.902h196.566" opacity="1" data-original="#6a80ff" class=""></path><path d="M323.422 435.242c-.652 0-1.3-.07-1.953-.203a9.911 9.911 0 0 1-1.867-.566c-.602-.25-1.18-.563-1.73-.922a9.877 9.877 0 0 1-1.52-1.238 10.1 10.1 0 0 1-2.93-7.07 10.219 10.219 0 0 1 .766-3.832c.25-.598.562-1.18.921-1.727.36-.543.782-1.051 1.239-1.524.46-.457.98-.867 1.52-1.238.55-.36 1.132-.668 1.73-.918.601-.25 1.23-.441 1.87-.57a9.835 9.835 0 0 1 3.91 0c.642.129 1.27.32 1.872.57.598.25 1.18.559 1.727.918.543.371 1.05.781 1.511 1.238.473.473.88.98 1.25 1.524.36.55.672 1.129.922 1.726.25.61.438 1.23.567 1.871.132.653.191 1.313.191 1.961a10.038 10.038 0 0 1-.758 3.82 9.877 9.877 0 0 1-.922 1.727 9.578 9.578 0 0 1-1.25 1.524c-.46.457-.968.878-1.511 1.238-.547.36-1.13.672-1.727.922-.602.25-1.23.437-1.871.566-.649.133-1.3.203-1.957.203zm0 0" fill="#000000" opacity="1" data-original="#000000" class=""></path><path fill="#fd4a4a" d="M467.477 38.672c-37.567-37.559-98.254-37.559-135.34 0-37.57 37.555-37.57 97.742 0 135.3l67.43 62.376 67.43-61.895c37.57-37.555 37.57-98.226.48-135.781zm0 0" opacity="1" data-original="#fd4a4a" class=""></path><path fill="#f7f7f7" d="M455.285 106.91c0-30.75-24.93-55.676-55.687-55.676-30.758 0-55.692 24.926-55.692 55.676 0 30.746 24.934 55.676 55.692 55.676 30.757 0 55.687-24.93 55.687-55.676zm0 0" opacity="1" data-original="#f7f7f7" class=""></path><path d="M399.598 172.586c-36.223 0-65.692-29.465-65.692-65.676 0-36.215 29.469-65.676 65.692-65.676 36.218 0 65.687 29.461 65.687 65.676 0 36.211-29.469 65.676-65.687 65.676zm0-111.352c-25.196 0-45.692 20.489-45.692 45.676 0 25.184 20.496 45.676 45.692 45.676 25.191 0 45.687-20.492 45.687-45.676 0-25.187-20.496-45.676-45.687-45.676zm0 0" fill="#000000" opacity="1" data-original="#000000" class=""></path><path fill="#feda9b" d="M123.637 284.75c0-25.805-20.926-46.723-46.739-46.723-25.808 0-46.734 20.918-46.734 46.723s20.926 46.723 46.734 46.723c25.813 0 46.739-20.918 46.739-46.723zm0 0" opacity="1" data-original="#feda9b"></path><path fill="#30cfad" d="M143.8 425.238H10v-62.21c0-17.43 14.129-31.555 31.555-31.555h70.691c17.426 0 31.555 14.125 31.555 31.554zm0 0" opacity="1" data-original="#30cfad"></path><path fill="#00b199" d="m40.262 425.238 7.781 73.742h57.715l7.781-73.742zm0 0" opacity="1" data-original="#00b199"></path><path d="M400.492 257.18H252.828c-19.75 0-35.816-16.063-35.816-35.805s16.066-35.805 35.816-35.805H329.5c.148 0 .293-.004.438-.011l62.84 58.129a9.978 9.978 0 0 0 6.788 2.656 9.956 9.956 0 0 0 6.762-2.633l67.434-61.89c.101-.098.207-.196.308-.298 20.028-20.02 31.094-46.636 31.164-74.937.07-28.25-10.808-54.863-30.64-74.945l-.043-.043C454.484 11.535 427.89.5 399.637.5h-.352c-28.148.09-54.523 11.148-74.219 31.098-20.058 20.05-31.105 46.59-31.105 74.722 0 4.836.328 9.63.969 14.344h-42.102c-55.543 0-100.734 45.18-100.734 100.711s45.191 100.71 100.734 100.71h147.664c25.692 0 46.594 20.895 46.594 46.575 0 25.684-20.902 46.578-46.594 46.578h-26.75c-5.52 0-10 4.477-10 10 0 5.52 4.48 10 10 10h26.75c36.719 0 66.594-29.867 66.594-66.578 0-36.71-29.875-66.574-66.594-66.574H252.828c-44.516 0-80.734-36.207-80.734-80.711s36.218-80.71 80.734-80.71h46.863a104.93 104.93 0 0 0 12.532 24.905h-59.395c-30.777 0-55.816 25.035-55.816 55.805s25.039 55.805 55.816 55.805h147.664c50.457 0 91.508 41.039 91.508 91.48s-41.05 91.48-91.508 91.48H119.91l2.63-24.902h156.526c5.52 0 10-4.476 10-10 0-5.523-4.48-10-10-10H153.801v-52.215c0-20.418-14.809-37.445-34.25-40.91 8.765-9.984 14.086-23.066 14.086-37.363 0-31.277-25.453-56.723-56.739-56.723-31.28 0-56.734 25.446-56.734 56.723 0 14.297 5.32 27.379 14.086 37.363C14.809 325.578 0 342.605 0 363.023v62.215c0 5.524 4.477 10 10 10h21.262l6.836 64.793a10.002 10.002 0 0 0 9.945 8.95h57.715a9.999 9.999 0 0 0 9.941-8.95l2.102-19.89h282.691C461.977 480.14 512 430.133 512 368.66c0-61.47-50.023-111.481-111.508-111.481zM339.254 45.695c15.969-16.172 37.312-25.12 60.098-25.191h.28c22.903 0 44.47 8.945 60.755 25.215 33.148 33.597 32.996 88.058-.313 121.52l-60.48 55.511-60.52-55.98c-16.195-16.262-25.113-37.72-25.113-60.446 0-22.793 8.965-44.308 25.293-60.629zM76.898 248.027c20.258 0 36.735 16.473 36.735 36.723 0 20.246-16.48 36.723-36.735 36.723-20.253 0-36.734-16.477-36.734-36.723 0-20.25 16.48-36.723 36.734-36.723zM20 363.023c0-11.882 9.668-21.55 21.555-21.55h70.691c11.887 0 21.555 9.668 21.555 21.55v52.215H123.52v-35.316c0-5.524-4.477-10-10-10-5.52 0-10 4.476-10 10v35.316H50.277v-35.316c0-5.524-4.476-10-10-10-5.52 0-10 4.476-10 10v35.316H20zM57.043 488.98l-5.672-53.742h51.059l-5.672 53.742zm0 0" fill="#000000" opacity="1" data-original="#000000" class=""></path></g></svg>