<svg width="39" height="39" viewBox="0 0 39 39" fill="none" xmlns="http://www.w3.org/2000/svg">
<path d="M35.4871 29.6404C33.5288 29.5062 32.334 31.5177 29.5083 31.3499C29.5083 31.3499 29.4905 30.0688 26.0438 29.6894C25.5624 29.6353 25.0763 29.6377 24.5954 29.6965C23.8651 29.7875 22.3394 29.8206 20.4691 28.9839C17.8284 27.8015 15.4647 28.0881 13.481 28.9821C11.4968 29.8767 1.94531 31.2016 1.94531 31.2016L6.02259 37.1195L12.8092 36.492C12.8092 36.492 15.5327 35.4295 22.6785 37.7996C22.6785 37.7996 23.2978 38.088 25.3069 36.921C27.316 35.7539 30.865 35.5306 33.6949 33.6603L36.9372 31.7759C37.8424 31.5916 37.2131 29.7586 35.4871 29.6404Z" fill="#FFCC66"/>
<path d="M22.9065 38.1377C22.6973 38.1377 22.5844 38.0958 22.546 38.0775C20.31 37.337 15.0421 35.9543 12.916 36.778L12.8344 36.7969L5.8688 37.441L1.40625 30.9659L1.89966 30.8973C1.9948 30.8843 11.4304 29.5684 13.3515 28.7021C15.7334 27.6284 18.1916 27.6284 20.5913 28.7033C21.8251 29.2552 23.2581 29.5536 24.5545 29.3917C25.0591 29.3303 25.5691 29.3277 26.0743 29.384C28.8286 29.6871 29.5548 30.5764 29.7451 31.0521C32.3055 31.1047 33.4696 29.1967 35.5041 29.3338C37.5646 29.475 38.2725 31.7317 37.0493 32.0632L33.8454 33.9251C30.9984 35.8078 27.4063 36.0542 25.4574 37.1858C24.1037 37.9729 23.3231 38.1377 22.9065 38.1377ZM22.7717 37.5078C22.8154 37.5208 22.861 37.5262 22.9065 37.5238C23.131 37.5238 23.7999 37.4393 25.1496 36.6551C27.2053 35.4609 30.7425 35.2411 33.5228 33.4034L36.8732 31.474C37.3483 31.3771 36.8389 30.0405 35.4627 29.9465C33.6362 29.8213 32.4065 31.8304 29.4868 31.656L29.2026 31.6389L29.1985 31.3535C29.1979 31.3535 29.0555 30.3294 26.0082 29.9938C25.5505 29.9431 25.0885 29.9452 24.6313 30.0003C23.2019 30.1782 21.6561 29.8514 20.3413 29.2629C18.1006 28.2595 15.8268 28.2589 13.605 29.2611C11.8423 30.0564 4.47957 31.149 2.4758 31.4362L6.16957 36.7969L12.7405 36.1895C15.2264 35.3664 20.2202 36.6616 22.7717 37.5078Z" fill="#E7B95D"/>
<path d="M19.1031 32.8621C19.0628 32.86 19.0234 32.85 18.987 32.8327C18.9506 32.8154 18.918 32.791 18.891 32.761C18.864 32.7311 18.8433 32.696 18.8299 32.658C18.8165 32.62 18.8107 32.5797 18.813 32.5394C18.8144 32.4989 18.8239 32.4592 18.8411 32.4225C18.8582 32.3858 18.8825 32.3529 18.9126 32.3258C18.9428 32.2987 18.978 32.278 19.0163 32.2648C19.0546 32.2517 19.0952 32.2464 19.1356 32.2493C23.2932 32.4715 29.1976 33.8731 29.1976 31.3476C29.1994 31.1786 29.3164 31.0302 29.5066 31.0438C29.5469 31.044 29.5867 31.0521 29.6238 31.0676C29.6609 31.0832 29.6946 31.1059 29.723 31.1345C29.7513 31.1631 29.7737 31.197 29.7889 31.2343C29.8041 31.2716 29.8118 31.3115 29.8116 31.3517C29.8116 34.6968 23.5001 33.0913 19.1031 32.8621Z" fill="#E7B95D"/>
<path d="M10.8514 28.2002H2.48943C2.26846 28.2002 2.05654 28.288 1.90028 28.4442C1.74403 28.6005 1.65625 28.8124 1.65625 29.0334V37.2192C1.65625 37.679 2.02911 38.0524 2.48943 38.0524H10.8514C11.0724 38.0524 11.2843 37.9646 11.4405 37.8084C11.5968 37.6521 11.6846 37.4402 11.6846 37.2192V29.0334C11.6846 28.9239 11.6631 28.8156 11.6213 28.7144C11.5795 28.6133 11.5181 28.5214 11.4407 28.4441C11.3633 28.3667 11.2714 28.3053 11.1703 28.2635C11.0692 28.2216 10.9608 28.2001 10.8514 28.2002Z" fill="#3AB7FC"/>
<path d="M10.854 38.3598H2.49202C2.18965 38.3595 1.89975 38.2393 1.68594 38.0255C1.47213 37.8117 1.35188 37.5218 1.35156 37.2194V29.0335C1.35156 28.4048 1.8627 27.8931 2.49202 27.8931H10.854C11.4827 27.8931 11.9944 28.4048 11.9944 29.0335V37.2194C11.9944 37.8481 11.4833 38.3598 10.854 38.3598ZM2.49202 28.507C2.20188 28.507 1.96552 28.7434 1.96552 29.0335V37.2194C1.96552 37.5095 2.20129 37.7453 2.49202 37.7453H10.854C10.9935 37.7451 11.1272 37.6897 11.2259 37.5911C11.3246 37.4925 11.3802 37.3589 11.3805 37.2194V29.0335C11.3803 28.8939 11.3248 28.7601 11.2261 28.6614C11.1274 28.5627 10.9936 28.5072 10.854 28.507H2.49202Z" fill="#3AB7FC"/>
<path d="M34.9056 15.3443C34.2975 15.3443 33.774 15.7775 33.4998 16.4097H31.9173C31.9715 14.2215 32.2115 12.0419 32.6347 9.89437C29.9805 9.55085 27.3091 9.35594 24.6332 9.31055V9.75905C25.272 10.097 25.7016 10.6803 25.7016 11.3433C25.7016 12.3809 24.6574 13.2224 23.3805 13.2224C22.1029 13.2224 21.0594 12.3809 21.0594 11.3433C21.0594 10.6803 21.4831 10.097 22.1277 9.75905V9.31055C19.4627 9.35368 16.7977 9.54987 14.1262 9.89437C14.5494 12.0419 14.7894 14.2215 14.8436 16.4097H13.26C12.9858 15.7775 12.4622 15.3443 11.8542 15.3443C10.9643 15.3443 10.2422 16.2614 10.2422 17.393C10.2422 18.5252 10.9637 19.4423 11.8542 19.4423C12.4622 19.4423 12.9858 19.0091 13.26 18.3769H14.8436C14.7894 20.5645 14.5494 22.7435 14.1262 24.8905C16.7977 25.2344 19.4627 25.4305 22.1277 25.4737V25.0252C21.4831 24.6878 21.0594 24.1105 21.0594 23.4469C21.0594 22.4092 22.1035 21.5619 23.3805 21.5619C24.658 21.5619 25.7016 22.4092 25.7016 23.4469C25.7016 24.1099 25.272 24.6872 24.6332 25.0252V25.4737C27.2982 25.4305 29.9632 25.2344 32.6347 24.8905C32.2118 22.7435 31.9718 20.5644 31.9173 18.3769H33.4998C33.774 19.0091 34.2975 19.4423 34.9056 19.4423C35.7955 19.4423 36.5175 18.5252 36.5175 17.393C36.517 16.2614 35.7955 15.3443 34.9056 15.3443Z" fill="#ED7161"/>
<path d="M24.6346 25.7806C24.5943 25.7807 24.5543 25.7729 24.517 25.7575C24.4798 25.7422 24.4459 25.7196 24.4174 25.6911C24.3889 25.6626 24.3663 25.6287 24.3509 25.5914C24.3356 25.5542 24.3278 25.5142 24.3279 25.4739V25.0254C24.3279 24.9114 24.3905 24.8073 24.491 24.7542C25.0583 24.4546 25.3963 23.9659 25.3963 23.4477C25.3963 22.5779 24.4928 21.8699 23.3825 21.8699C22.2715 21.8699 21.368 22.5779 21.368 23.4477C21.368 23.9694 21.706 24.4575 22.2721 24.7536C22.3217 24.7796 22.3632 24.8187 22.3921 24.8666C22.4211 24.9145 22.4364 24.9694 22.4364 25.0254V25.4739C22.4364 25.5146 22.4283 25.5549 22.4126 25.5924C22.3969 25.63 22.3738 25.664 22.3448 25.6925C22.2832 25.7455 22.2056 25.7765 22.1244 25.7806C19.437 25.7349 16.7542 25.5392 14.0886 25.1944C14.0469 25.189 14.0067 25.1752 13.9706 25.1537C13.9344 25.1321 13.9031 25.1034 13.8785 25.0693C13.8539 25.0352 13.8366 24.9964 13.8276 24.9553C13.8186 24.9142 13.8182 24.8717 13.8263 24.8304C14.2247 22.8037 14.4595 20.7481 14.5283 18.6838H13.4552C13.1018 19.3462 12.5044 19.7492 11.8562 19.7492C10.7985 19.7492 9.9375 18.692 9.9375 17.3932C9.9375 16.0944 10.7985 15.0373 11.8562 15.0373C12.5044 15.0373 13.1018 15.4409 13.4552 16.1027H14.5295C14.4604 14.0375 14.2256 11.9812 13.8275 9.95367C13.8192 9.91238 13.8195 9.86982 13.8284 9.82865C13.8373 9.78749 13.8546 9.74861 13.8792 9.71445C13.9039 9.68028 13.9353 9.65156 13.9715 9.63009C14.0078 9.60862 14.048 9.59486 14.0898 9.58967C16.7767 9.2434 19.4801 9.04662 22.1256 9.00349C22.1664 9.00262 22.2069 9.00992 22.2448 9.02496C22.2827 9.04 22.3172 9.06247 22.3462 9.09105C22.3753 9.11963 22.3984 9.15374 22.4141 9.19137C22.4298 9.22901 22.4378 9.2694 22.4376 9.31017V9.75867C22.4376 9.81464 22.4222 9.86954 22.3933 9.91745C22.3643 9.96535 22.3229 10.0044 22.2733 10.0305C21.7072 10.3271 21.3692 10.8176 21.3692 11.3429C21.3692 12.2098 22.2727 12.9147 23.3836 12.9147C24.494 12.9147 25.3975 12.2098 25.3975 11.3429C25.3975 10.8205 25.0589 10.3301 24.4922 10.0299C24.4429 10.0037 24.4018 9.96467 24.373 9.91689C24.3443 9.86912 24.3291 9.81442 24.3291 9.75867V9.31017C24.3291 9.26944 24.3372 9.22912 24.3529 9.19157C24.3687 9.15401 24.3917 9.11996 24.4208 9.09141C24.4498 9.06286 24.4843 9.04038 24.5221 9.02529C24.5599 9.01019 24.6004 9.00278 24.6411 9.00349C27.286 9.04662 29.99 9.2434 32.6769 9.58967C32.7187 9.59477 32.759 9.60848 32.7952 9.62993C32.8315 9.65138 32.8629 9.68011 32.8875 9.71431C32.9121 9.74851 32.9293 9.78744 32.9381 9.82864C32.9469 9.86983 32.9471 9.9124 32.9386 9.95367C32.5402 11.9812 32.3054 14.0375 32.2366 16.1027H33.3103C33.6631 15.4403 34.2605 15.0373 34.9087 15.0373C35.9665 15.0373 36.8274 16.0938 36.8274 17.3932C36.8274 18.6926 35.9665 19.7492 34.9087 19.7492C34.2605 19.7492 33.6631 19.3456 33.3103 18.6838H32.2366C32.3054 20.7481 32.5402 22.8037 32.9386 24.8304C32.9469 24.8716 32.9466 24.9142 32.9377 24.9553C32.9289 24.9964 32.9116 25.0353 32.887 25.0694C32.8625 25.1036 32.8311 25.1323 32.795 25.1538C32.7588 25.1753 32.7186 25.1891 32.6769 25.1944C29.9894 25.5407 27.286 25.7374 24.6411 25.7806H24.6346ZM23.3825 21.2548C24.8314 21.2548 26.0102 22.2381 26.0102 23.4471C26.0102 24.1189 25.6409 24.7435 25.0104 25.1595C27.4042 25.1075 29.844 24.9285 32.2727 24.6265C31.886 22.5669 31.6651 20.4797 31.612 18.3848C31.611 18.3438 31.6182 18.3031 31.6331 18.2649C31.6481 18.2268 31.6705 18.1921 31.6991 18.1627C31.7276 18.1334 31.7618 18.11 31.7995 18.0941C31.8372 18.0781 31.8778 18.0699 31.9187 18.0698H33.5018C33.5617 18.0698 33.6203 18.0873 33.6703 18.1202C33.7204 18.153 33.7598 18.1998 33.7836 18.2548C34.0188 18.7978 34.4502 19.1352 34.9075 19.1352C35.6273 19.1352 36.2123 18.3534 36.2123 17.3932C36.2123 16.433 35.6273 15.6512 34.9075 15.6512C34.4502 15.6512 34.0188 15.9886 33.7836 16.5317C33.7598 16.5866 33.7204 16.6334 33.6703 16.6663C33.6203 16.6991 33.5617 16.7166 33.5018 16.7166H31.9187C31.8778 16.7166 31.8372 16.7083 31.7995 16.6923C31.7618 16.6764 31.7276 16.6531 31.6991 16.6237C31.6705 16.5944 31.6481 16.5596 31.6331 16.5215C31.6182 16.4833 31.611 16.4426 31.612 16.4017C31.6654 14.306 31.8863 12.218 32.2727 10.1575C29.8446 9.85617 27.4048 9.67712 25.0104 9.62453C25.6409 10.0411 26.0102 10.6681 26.0102 11.3429C26.0102 12.5483 24.8314 13.5293 23.3825 13.5293C21.933 13.5293 20.7541 12.5483 20.7541 11.3429C20.7541 10.6651 21.1228 10.0388 21.7521 9.62453C19.3584 9.67653 16.9191 9.85558 14.4916 10.1575C14.8781 12.218 15.099 14.306 15.1523 16.4017C15.1533 16.4426 15.1461 16.4833 15.1312 16.5215C15.1162 16.5596 15.0938 16.5944 15.0652 16.6237C15.0367 16.6531 15.0025 16.6764 14.9648 16.6923C14.9271 16.7083 14.8865 16.7166 14.8456 16.7166H13.262C13.2021 16.7166 13.1435 16.6991 13.0934 16.6663C13.0433 16.6334 13.0039 16.5866 12.9801 16.5317C12.7443 15.988 12.313 15.6506 11.8556 15.6506C11.1359 15.6506 10.5509 16.4318 10.5509 17.3926C10.5509 18.3534 11.1359 19.1346 11.8556 19.1346C12.313 19.1346 12.7443 18.7972 12.9801 18.2536C13.0039 18.1986 13.0433 18.1519 13.0934 18.119C13.1435 18.0861 13.2021 18.0686 13.262 18.0686H14.8456C14.8865 18.0687 14.9271 18.0769 14.9648 18.0929C15.0025 18.1089 15.0367 18.1322 15.0652 18.1615C15.0938 18.1909 15.1162 18.2256 15.1312 18.2638C15.1461 18.3019 15.1533 18.3426 15.1523 18.3836C15.099 20.4785 14.878 22.5657 14.4916 24.6253C16.9197 24.9267 19.359 25.1058 21.7527 25.1583C21.1228 24.7447 20.7541 24.1207 20.7541 23.4459C20.7541 22.2381 21.933 21.2548 23.3825 21.2548Z" fill="#ED7161"/>
<path d="M23.3803 2.24081C23.3312 2.24081 23.2842 2.22132 23.2495 2.18664C23.2148 2.15195 23.1953 2.10491 23.1953 2.05585V0.82558C23.1953 0.776527 23.2148 0.729483 23.2495 0.694797C23.2842 0.660111 23.3312 0.640625 23.3803 0.640625C23.4293 0.640625 23.4764 0.660111 23.511 0.694797C23.5457 0.729483 23.5652 0.776527 23.5652 0.82558V2.05585C23.5653 2.08016 23.5606 2.10425 23.5513 2.12672C23.542 2.1492 23.5284 2.16962 23.5112 2.18681C23.494 2.204 23.4736 2.21762 23.4511 2.22689C23.4287 2.23615 23.4046 2.24089 23.3803 2.24081ZM30.6402 8.27103H29.4099C29.3608 8.27103 29.3137 8.25152 29.2789 8.21678C29.2442 8.18203 29.2247 8.13492 29.2247 8.08578C29.2247 8.03665 29.2442 7.98953 29.2789 7.95479C29.3137 7.92005 29.3608 7.90053 29.4099 7.90053H30.6402C30.6893 7.90053 30.7364 7.92005 30.7712 7.95479C30.8059 7.98953 30.8254 8.03665 30.8254 8.08578C30.8254 8.13492 30.8059 8.18203 30.7712 8.21678C30.7364 8.25152 30.6893 8.27103 30.6402 8.27103Z" fill="#3AB7FC"/>
<path d="M17.3524 8.27089H16.1228C16.0736 8.27089 16.0265 8.25137 15.9918 8.21663C15.957 8.18189 15.9375 8.13477 15.9375 8.08564C15.9375 8.03651 15.957 7.98939 15.9918 7.95465C16.0265 7.91991 16.0736 7.90039 16.1228 7.90039H17.3524C17.4016 7.90039 17.4487 7.91991 17.4834 7.95465C17.5182 7.98939 17.5377 8.03651 17.5377 8.08564C17.5377 8.13477 17.5182 8.18189 17.4834 8.21663C17.4487 8.25137 17.4016 8.27089 17.3524 8.27089Z" fill="#9A7BAA"/>
<path d="M27.5156 3.95241C27.4809 3.91754 27.4615 3.87038 27.4615 3.82123C27.4615 3.77208 27.4809 3.72492 27.5156 3.69005L28.386 2.82023C28.4213 2.78835 28.4676 2.77127 28.5152 2.77253C28.5627 2.77378 28.608 2.79326 28.6416 2.82695C28.6752 2.86065 28.6946 2.90597 28.6958 2.95354C28.6969 3.00112 28.6797 3.04732 28.6478 3.08259L27.7774 3.95241C27.7602 3.96962 27.7398 3.98327 27.7173 3.99258C27.6949 4.00189 27.6708 4.00669 27.6465 4.00669C27.6222 4.00669 27.5981 4.00189 27.5756 3.99258C27.5532 3.98327 27.5328 3.96962 27.5156 3.95241ZM18.9888 3.95241L18.1184 3.08259C18.0864 3.04732 18.0692 3.00112 18.0704 2.95354C18.0715 2.90597 18.0909 2.86065 18.1245 2.82695C18.1581 2.79326 18.2034 2.77378 18.251 2.77253C18.2986 2.77127 18.3448 2.78835 18.3801 2.82023L19.2505 3.69005C19.2678 3.70724 19.2814 3.72765 19.2908 3.75012C19.3001 3.77259 19.3049 3.79668 19.305 3.82102C19.305 3.84536 19.3002 3.86946 19.2909 3.89195C19.2817 3.91444 19.268 3.93489 19.2508 3.95212C19.2337 3.96934 19.2132 3.98302 19.1908 3.99235C19.1683 4.00169 19.1442 4.00651 19.1199 4.00654C19.0955 4.00657 19.0714 4.0018 19.0489 3.99251C19.0264 3.98323 19.006 3.9696 18.9888 3.95241Z" fill="#88C057"/>
<path d="M20.9067 2.58535L20.4358 1.44903C20.4171 1.40356 20.4173 1.35258 20.4361 1.30719C20.4549 1.26181 20.4909 1.22571 20.5362 1.20676C20.5817 1.18814 20.6327 1.18825 20.678 1.20707C20.7234 1.22588 20.7595 1.26188 20.7785 1.30721L21.2494 2.44353C21.2597 2.46619 21.2652 2.49066 21.2658 2.51551C21.2664 2.54036 21.2619 2.56507 21.2528 2.58817C21.2436 2.61127 21.2299 2.6323 21.2125 2.65001C21.195 2.66771 21.1742 2.68173 21.1512 2.69123C21.1283 2.70074 21.1036 2.70553 21.0788 2.70533C21.0539 2.70512 21.0294 2.69993 21.0066 2.69005C20.9838 2.68018 20.9632 2.66582 20.946 2.64783C20.9289 2.62985 20.9155 2.6086 20.9067 2.58535Z" fill="#FFCC66"/>
<path d="M28.9509 5.96323C28.9142 5.96313 28.8784 5.9522 28.8479 5.9318C28.8174 5.91141 28.7936 5.88246 28.7795 5.84859C28.7609 5.80312 28.761 5.75214 28.7798 5.70676C28.7986 5.66137 28.8346 5.62527 28.88 5.60632L30.0163 5.13595C30.0617 5.11734 30.1127 5.11745 30.1581 5.13626C30.2035 5.15508 30.2396 5.19108 30.2586 5.23641C30.2772 5.28188 30.2771 5.33286 30.2582 5.37824C30.2394 5.42363 30.2034 5.45973 30.1581 5.47868L29.0218 5.94964C28.9992 5.95846 28.9751 5.96307 28.9509 5.96323Z" fill="#9A7BAA"/>
<path d="M25.6208 2.6858C25.5755 2.66685 25.5395 2.63075 25.5207 2.58536C25.5019 2.53998 25.5018 2.48899 25.5204 2.44353L25.9913 1.30721C26.0103 1.26188 26.0464 1.22588 26.0918 1.20707C26.1372 1.18825 26.1882 1.18814 26.2336 1.20676C26.3282 1.24576 26.3725 1.35448 26.3341 1.44903L25.8631 2.58535C25.8539 2.60789 25.8402 2.62839 25.823 2.64565C25.8058 2.66291 25.7854 2.67661 25.7629 2.68594C25.7404 2.69528 25.7162 2.70007 25.6918 2.70005C25.6675 2.70002 25.6433 2.69518 25.6208 2.6858ZM17.8143 5.96357C17.79 5.9635 17.7659 5.95868 17.7434 5.94939L16.6065 5.47844C16.5612 5.45949 16.5252 5.42338 16.5064 5.378C16.4876 5.33261 16.4875 5.28163 16.5061 5.23617C16.525 5.19084 16.5611 5.15484 16.6065 5.13602C16.6519 5.1172 16.7029 5.11709 16.7483 5.13571L17.8853 5.60666C17.9798 5.64566 18.0241 5.75439 17.9857 5.84894C17.9716 5.8828 17.9478 5.91175 17.9173 5.93215C17.8869 5.95254 17.851 5.96348 17.8143 5.96357Z" fill="#ED7B72"/>
<path d="M22.0625 13.3799H24.711V15.2992H22.0625V13.3799Z" fill="#515151"/>
<path d="M24.7078 15.4842H22.06C22.0356 15.4842 22.0115 15.4794 21.989 15.4701C21.9666 15.4607 21.9461 15.4471 21.929 15.4298C21.9118 15.4126 21.8982 15.3921 21.8889 15.3696C21.8797 15.3471 21.8749 15.323 21.875 15.2987V13.3794C21.875 13.2772 21.9583 13.1938 22.06 13.1938H24.7078C24.81 13.1938 24.8928 13.2766 24.8928 13.3794V15.2987C24.8928 15.3478 24.8733 15.3949 24.8386 15.4297C24.804 15.4644 24.7569 15.4841 24.7078 15.4842ZM22.2449 15.1137H24.5223V13.5649H22.2449V15.1137Z" fill="#515151"/>
<path d="M22.8981 3.72984C21.0533 3.93429 19.5299 5.3962 19.2593 7.23274C19.1622 7.86319 19.2118 8.50753 19.4043 9.11568C19.5967 9.72383 19.9269 10.2794 20.369 10.7392C21.1118 11.5133 21.5632 12.5202 21.5632 13.5927H25.1855V13.5915C25.1855 12.5545 25.5719 11.5422 26.3082 10.8113C26.6978 10.426 27.007 9.96715 27.2178 9.46137C27.4286 8.95559 27.5368 8.41297 27.5361 7.86502C27.536 7.27829 27.4119 6.6982 27.1719 6.1628C26.9319 5.6274 26.5815 5.14877 26.1435 4.75831C25.7056 4.36785 25.1901 4.07438 24.6308 3.89713C24.0714 3.71989 23.481 3.66288 22.8981 3.72984Z" fill="#FFCC66"/>
<path d="M25.1892 13.7782H21.5669C21.5178 13.7782 21.4708 13.7587 21.4361 13.724C21.4014 13.6893 21.3819 13.6423 21.3819 13.5932C21.3819 12.6035 20.976 11.6356 20.2391 10.868C19.3031 9.89237 18.88 8.5581 19.0797 7.2061C19.361 5.29805 20.96 3.75873 22.8817 3.54541C25.4935 3.25587 27.7253 5.30396 27.7248 7.86496C27.7262 8.43752 27.6135 9.00463 27.3932 9.53313C27.1729 10.0616 26.8495 10.5409 26.4419 10.943C25.7635 11.6166 25.3735 12.5822 25.3735 13.5915C25.3738 13.6158 25.3692 13.64 25.36 13.6626C25.3509 13.6853 25.3373 13.7058 25.3202 13.7232C25.3031 13.7405 25.2827 13.7543 25.2602 13.7638C25.2377 13.7732 25.2135 13.7781 25.1892 13.7782ZM21.7483 13.4077H25.0083C25.0527 12.3677 25.4752 11.3821 26.1819 10.6806C26.5546 10.3129 26.8503 9.87451 27.0517 9.39116C27.2531 8.90781 27.3562 8.38917 27.3548 7.86555C27.3548 7.30485 27.2362 6.7505 27.0068 6.23886C26.7774 5.72722 26.4425 5.26985 26.024 4.89673C25.6054 4.52362 25.1128 4.2432 24.5783 4.07386C24.0437 3.90452 23.4795 3.85009 22.9224 3.91414C21.1651 4.10914 19.7038 5.5161 19.4467 7.25987C19.2641 8.49782 19.65 9.71923 20.5068 10.6109C21.2638 11.4004 21.7004 12.3872 21.7483 13.4077Z" fill="#FFCC66"/>
</svg>
