<svg width="35" height="35" viewBox="0 0 35 35" fill="none" xmlns="http://www.w3.org/2000/svg">
<g id="setting">
<g id="Group">
<g id="Group_2" opacity="0.15">
<path id="Vector" d="M16.5152 10.9404C15.4394 11.0119 14.3978 11.3474 13.4823 11.9172C12.5668 12.4871 11.8056 13.2739 11.2659 14.208C10.7291 15.1415 10.4298 16.1927 10.3942 17.2691C10.3586 18.3456 10.5879 19.4143 11.0619 20.3812L16.5152 17.2285V10.9404Z" fill="black"/>
<path id="Vector_2" d="M17.3906 10.9438V17.2284L22.8447 20.3811C23.3186 19.4141 23.5478 18.3454 23.512 17.2689C23.4763 16.1925 23.1768 15.1413 22.6399 14.2079C22.0998 13.2744 21.3384 12.4884 20.4229 11.9191C19.5074 11.3499 18.466 11.0149 17.3906 10.9438Z" fill="black" fill-opacity="0.976"/>
<path id="Vector_3" d="M16.9559 17.9872L11.5 21.1417C12.0992 22.0405 12.9105 22.7775 13.8621 23.2875C14.8138 23.7975 15.8764 24.0649 16.9559 24.0658C18.0353 24.0643 19.0977 23.7964 20.049 23.2859C21.0003 22.7754 21.8113 22.0381 22.41 21.1391L16.9559 17.9872Z" fill="black"/>
</g>
<path id="Vector_4" opacity="0.15" d="M14.1684 2.1875V5.30473C12.7943 5.61326 11.482 6.15122 10.2867 6.89609L8.09484 4.70645L4.15953 8.64165L6.35578 10.838C5.60677 12.031 5.06432 13.3419 4.75125 14.7154H1.64062V20.2846H4.75781C5.06634 21.6588 5.60435 22.9712 6.34922 24.1664L4.15953 26.3594L8.09484 30.2948L10.2911 28.0974C11.4841 28.8464 12.795 29.3887 14.1684 29.7018V32.8126H19.7378V29.6953C21.112 29.3867 22.4243 28.8488 23.6195 28.1039L25.8114 30.2948L29.7467 26.3594L27.5505 24.162C28.2995 22.969 28.8419 21.6581 29.155 20.2846H32.2656V14.7154H29.1484C28.8399 13.3412 28.3019 12.0288 27.557 10.8336L29.7467 8.64165L25.8114 4.70645L23.6152 6.90263C22.4221 6.15361 21.1113 5.61125 19.7378 5.29819V2.1875H14.1684ZM16.9531 8.52363C18.1319 8.52363 19.2992 8.75571 20.3882 9.20682C21.4773 9.65793 22.4669 10.3191 23.3004 11.1527C24.1339 11.9862 24.7951 12.9758 25.2462 14.0649C25.6973 15.1539 25.9295 16.3213 25.9295 17.5001C25.9297 18.679 25.6976 19.8462 25.2466 20.9354C24.7955 22.0246 24.1343 23.0144 23.3008 23.848C22.4672 24.6817 21.4776 25.3429 20.3885 25.7941C19.2994 26.2453 18.132 26.4774 16.9531 26.4774C14.5724 26.4774 12.2892 25.5318 10.6058 23.8484C8.92244 22.165 7.97672 19.8818 7.97672 17.5011C7.97672 15.1204 8.92244 12.8373 10.6058 11.1539C12.2892 9.47046 14.5724 8.52363 16.9531 8.52363Z" fill="black"/>
<path id="Vector_5" d="M15.2622 2.1875V5.30473C13.888 5.61326 12.5757 6.15122 11.3805 6.89609L9.18859 4.70645L5.25328 8.64165L7.44953 10.838C6.70052 12.031 6.15807 13.3419 5.845 14.7154H2.73438V20.2846H5.85156C6.16009 21.6588 6.6981 22.9712 7.44297 24.1664L5.25328 26.3594L9.18859 30.2948L11.3848 28.0974C12.5779 28.8464 13.8887 29.3887 15.2622 29.7018V32.8126H20.8316V29.6953C22.2057 29.3867 23.518 28.8488 24.7133 28.1039L26.9052 30.2948L30.8405 26.3594L28.6442 24.162C29.3932 22.969 29.9357 21.6581 30.2488 20.2846H33.3594V14.7154H30.2422C29.9337 13.3412 29.3956 12.0288 28.6508 10.8336L30.8405 8.64165L26.9052 4.70645L24.7089 6.90263C23.5159 6.15361 22.205 5.61125 20.8316 5.29819V2.1875H15.2622ZM18.0469 8.52363C19.2257 8.52363 20.3929 8.75571 21.482 9.20682C22.5711 9.65793 23.5606 10.3191 24.3942 11.1527C25.2277 11.9862 25.8889 12.9758 26.34 14.0649C26.7911 15.1539 27.0233 16.3213 27.0233 17.5001C27.0234 18.679 26.7913 19.8462 26.3403 20.9354C25.8893 22.0246 25.2281 23.0144 24.3945 23.848C23.561 24.6817 22.5714 25.3429 21.4822 25.7941C20.3931 26.2453 19.2258 26.4774 18.0469 26.4774C15.6662 26.4774 13.383 25.5318 11.6996 23.8484C10.0162 22.165 9.07047 19.8818 9.07047 17.5011C9.07047 15.1204 10.0162 12.8373 11.6996 11.1539C13.383 9.47046 15.6662 8.52363 18.0469 8.52363Z" fill="#4BBFEB"/>
<path id="Vector_6" d="M17.6089 10.9404C16.5332 11.0119 15.4916 11.3474 14.5761 11.9172C13.6606 12.4871 12.8994 13.2739 12.3597 14.208C11.8229 15.1415 11.5235 16.1927 11.488 17.2691C11.4524 18.3456 11.6817 19.4143 12.1557 20.3812L17.6089 17.2285V10.9404Z" fill="#F05542"/>
<path id="Vector_7" d="M18.4844 10.9438V17.2284L23.9385 20.3811C24.4123 19.4141 24.6415 18.3454 24.6058 17.2689C24.5701 16.1925 24.2706 15.1413 23.7336 14.2079C23.1935 13.2744 22.4321 12.4884 21.5166 11.9191C20.6012 11.3499 19.5598 11.0149 18.4844 10.9438Z" fill="#F8B74E" fill-opacity="0.976"/>
<path id="Vector_8" d="M18.0496 17.9872L12.5938 21.1417C13.1929 22.0405 14.0043 22.7775 14.9559 23.2875C15.9075 23.7975 16.9701 24.0649 18.0496 24.0658C19.129 24.0643 20.1914 23.7964 21.1428 23.2859C22.0941 22.7754 22.905 22.0381 23.5037 21.1391L18.0496 17.9872Z" fill="#4BBFEB"/>
</g>
</g>
</svg>
