<svg width="39" height="39" viewBox="0 0 39 39" fill="none" xmlns="http://www.w3.org/2000/svg">
<path d="M4.875 14.625H34.125V34.125C34.125 34.987 33.7826 35.8136 33.1731 36.4231C32.5636 37.0326 31.737 37.375 30.875 37.375H8.125C7.26305 37.375 6.4364 37.0326 5.8269 36.4231C5.21741 35.8136 4.875 34.987 4.875 34.125V14.625Z" fill="#C6CCD0"/>
<path d="M19.5 22.75H29.25V37.375H19.5V22.75ZM8.125 22.75H16.25V30.875H8.125V22.75Z" fill="#F3F3F3"/>
<path d="M11.375 22.75H13V30.875H11.375V22.75Z" fill="#CCCCCC"/>
<path d="M8.125 26H16.25V27.625H8.125V26Z" fill="#CCCCCC"/>
<path d="M16.6434 6.5H22.4934L23.0719 14.625H15.9219L16.6434 6.5Z" fill="#E83829"/>
<path d="M22.5 6.5H28.35L30.2285 14.625H23.0785L22.5 6.5Z" fill="#F3F3F3"/>
<path d="M28.3465 6.5H34.125L37.375 14.625H30.225L28.3465 6.5ZM4.875 6.5H10.7965L8.775 14.625H1.625L4.875 6.5Z" fill="#E83829"/>
<path d="M10.7949 6.5H16.6449L15.9234 14.625H8.77344L10.7949 6.5ZM8.77344 14.625V17.0625C8.77344 18.8581 10.3741 20.3125 12.3484 20.3125C14.3228 20.3125 15.9234 18.8581 15.9234 17.0625V14.625H8.77344Z" fill="#F3F3F3"/>
<path d="M1.625 14.625V16.25C1.625 18.0456 3.22562 19.5 5.2 19.5C7.17437 19.5 8.775 18.0456 8.775 16.25V14.625H1.625ZM15.925 14.625V17.875C15.925 19.6706 17.5256 21.125 19.5 21.125C21.4744 21.125 23.075 19.6706 23.075 17.875V14.625H15.925Z" fill="#E83829"/>
<path d="M23.0781 14.625V17.0625C23.0781 18.8581 24.6787 20.3125 26.6531 20.3125C28.6275 20.3125 30.2281 18.8581 30.2281 17.0625V14.625H23.0781Z" fill="#F3F3F3"/>
<path d="M30.2266 14.625V16.25C30.2266 18.0456 31.8272 19.5 33.8016 19.5C35.7759 19.5 37.3766 18.0456 37.3766 16.25V14.625H30.2266Z" fill="#E83829"/>
<path opacity="0.1" d="M1.625 14.625V16.25C1.625 18.0456 3.22563 19.5 5.2 19.5C7.17438 19.5 8.775 18.0456 8.775 16.25V17.0625C8.775 18.8581 10.3756 20.3125 12.35 20.3125C14.3244 20.3125 15.925 18.8581 15.925 17.0625V17.875C15.925 19.6706 17.5256 21.125 19.5 21.125C21.4744 21.125 23.075 19.6706 23.075 17.875V17.0625C23.075 18.8581 24.6756 20.3125 26.65 20.3125C28.6244 20.3125 30.225 18.8581 30.225 17.0625V16.25C30.225 18.0456 31.8256 19.5 33.8 19.5C35.7744 19.5 37.375 18.0456 37.375 16.25V14.625H1.625Z" fill="#010101"/>
<path d="M34.125 6.5H4.875V4.875C4.875 4.01305 5.21741 3.1864 5.8269 2.5769C6.4364 1.96741 7.26305 1.625 8.125 1.625H30.875C31.737 1.625 32.5636 1.96741 33.1731 2.5769C33.7826 3.1864 34.125 4.01305 34.125 4.875V6.5Z" fill="#E83829"/>
<path opacity="0.1" d="M34.125 6.5H4.875V4.875C4.875 4.01305 5.21741 3.1864 5.8269 2.5769C6.4364 1.96741 7.26305 1.625 8.125 1.625H30.875C31.737 1.625 32.5636 1.96741 33.1731 2.5769C33.7826 3.1864 34.125 4.01305 34.125 4.875V6.5ZM19.5 20.7188C17.5256 20.7188 15.925 19.2644 15.925 17.4688V17.875C15.925 19.6706 17.5256 21.125 19.5 21.125C21.4744 21.125 23.075 19.6706 23.075 17.875V17.4688C23.075 19.2644 21.4744 20.7188 19.5 20.7188ZM8.775 15.8438C8.775 17.6394 7.17438 19.0938 5.2 19.0938C3.22563 19.0938 1.625 17.6394 1.625 15.8438V16.25C1.625 18.0456 3.22563 19.5 5.2 19.5C7.17438 19.5 8.775 18.0456 8.775 16.25V15.8438ZM15.925 16.6562C15.925 18.4519 14.3244 19.9062 12.35 19.9062C10.3756 19.9062 8.775 18.4519 8.775 16.6562V17.0625C8.775 18.8581 10.3756 20.3125 12.35 20.3125C14.3244 20.3125 15.925 18.8581 15.925 17.0625V16.6562ZM33.8 19.0938C31.8256 19.0938 30.225 17.6394 30.225 15.8438V16.25C30.225 18.0456 31.8256 19.5 33.8 19.5C35.7744 19.5 37.375 18.0456 37.375 16.25V15.8438C37.375 17.6394 35.7744 19.0938 33.8 19.0938ZM26.65 19.9062C24.6756 19.9062 23.075 18.4519 23.075 16.6562V17.0625C23.075 18.8581 24.6756 20.3125 26.65 20.3125C28.6244 20.3125 30.225 18.8581 30.225 17.0625V16.6562C30.225 18.4519 28.6244 19.9062 26.65 19.9062Z" fill="#010101"/>
<path opacity="0.2" d="M30.875 36.9688H8.125C7.26305 36.9688 6.4364 36.6263 5.8269 36.0168C5.21741 35.4074 4.875 34.5807 4.875 33.7188V34.125C4.875 34.987 5.21741 35.8136 5.8269 36.4231C6.4364 37.0326 7.26305 37.375 8.125 37.375H30.875C31.737 37.375 32.5636 37.0326 33.1731 36.4231C33.7826 35.8136 34.125 34.987 34.125 34.125V33.7188C34.125 34.5807 33.7826 35.4074 33.1731 36.0168C32.5636 36.6263 31.737 36.9688 30.875 36.9688Z" fill="white"/>
<path d="M26.8125 30.875C27.2612 30.875 27.625 30.5112 27.625 30.0625C27.625 29.6138 27.2612 29.25 26.8125 29.25C26.3638 29.25 26 29.6138 26 30.0625C26 30.5112 26.3638 30.875 26.8125 30.875Z" fill="#CCCCCC"/>
<path d="M33.8 19.5C31.8256 19.5 30.225 18.0456 30.225 16.25V17.0625C30.225 18.8581 28.6244 20.3125 26.65 20.3125C24.6756 20.3125 23.075 18.8581 23.075 17.0625V17.875C23.075 19.6706 21.4744 21.125 19.5 21.125C17.5256 21.125 15.925 19.6706 15.925 17.875V17.0625C15.925 18.8581 14.3244 20.3125 12.35 20.3125C10.3756 20.3125 8.775 18.8581 8.775 17.0625V16.25C8.775 18.0456 7.17438 19.5 5.2 19.5C5.09153 19.5002 4.9831 19.4959 4.875 19.487L22.75 37.375H30.875C31.737 37.375 32.5636 37.0326 33.1731 36.4231C33.7826 35.8136 34.125 34.987 34.125 34.125V19.4708C34.0161 19.4789 33.9121 19.5 33.8 19.5Z" fill="url(#paint0_linear_5922_13843)"/>
<path d="M34.125 6.5V4.875C34.125 4.01305 33.7826 3.1864 33.1731 2.5769C32.5636 1.96741 31.737 1.625 30.875 1.625H8.125C7.26305 1.625 6.4364 1.96741 5.8269 2.5769C5.21741 3.1864 4.875 4.01305 4.875 4.875V6.5L1.625 14.625V16.25C1.625 17.9433 3.055 19.318 4.875 19.4708V34.125C4.875 34.987 5.21741 35.8136 5.8269 36.4231C6.4364 37.0326 7.26305 37.375 8.125 37.375H30.875C31.737 37.375 32.5636 37.0326 33.1731 36.4231C33.7826 35.8136 34.125 34.987 34.125 34.125V19.4708C35.945 19.318 37.375 17.9433 37.375 16.25V14.625L34.125 6.5Z" fill="url(#paint1_linear_5922_13843)"/>
<defs>
<linearGradient id="paint0_linear_5922_13843" x1="13.3835" y1="13.3689" x2="31.2878" y2="31.2731" gradientUnits="userSpaceOnUse">
<stop stop-color="#010101" stop-opacity="0.1"/>
<stop offset="1" stop-color="#010101" stop-opacity="0"/>
</linearGradient>
<linearGradient id="paint1_linear_5922_13843" x1="1.60875" y1="11.1572" x2="37.3913" y2="27.8428" gradientUnits="userSpaceOnUse">
<stop stop-color="white" stop-opacity="0.2"/>
<stop offset="1" stop-color="white" stop-opacity="0"/>
</linearGradient>
</defs>
</svg>
