<?xml version="1.0" encoding="utf-8"?>
<!-- Generator: Adobe Illustrator 24.3.0, SVG Export Plug-In . SVG Version: 6.00 Build 0)  -->
<svg version="1.1" id="Layer_1" xmlns="http://www.w3.org/2000/svg" xmlns:xlink="http://www.w3.org/1999/xlink" x="0px" y="0px"
	 viewBox="0 0 24 24" style="enable-background:new 0 0 24 24;" xml:space="preserve">
<style type="text/css">
	.st0{fill:#174FEB;}
	.st1{fill:#174FEB;fill-opacity:0.4;}
</style>
<path class="st0" d="M20.4,24H3.6c-0.3,0-0.6-0.1-0.8-0.4c-0.2-0.2-0.4-0.5-0.4-0.8s0.1-0.6,0.4-0.8c0.2-0.2,0.5-0.4,0.8-0.4h16.8
	c0.3,0,0.6,0.1,0.8,0.4c0.2,0.2,0.4,0.5,0.4,0.8s-0.1,0.6-0.4,0.8C21,23.9,20.7,24,20.4,24z"/>
<path class="st1" d="M12,19.2c-0.2,0-0.3,0-0.5-0.1c-0.1-0.1-0.3-0.1-0.4-0.3l-4.9-4.9C5.1,12.8,4.3,11.3,4,9.8
	C3.7,8.2,3.8,6.5,4.5,5c0.6-1.5,1.7-2.8,3-3.7S10.4,0,12,0s3.2,0.5,4.5,1.4c1.3,0.9,2.4,2.2,3,3.7s0.8,3.1,0.5,4.7
	c-0.3,1.6-1.1,3-2.2,4.2l-4.9,4.9c-0.1,0.1-0.2,0.2-0.4,0.3C12.3,19.2,12.2,19.2,12,19.2z"/>
<path class="st0" d="M12,10.6c1.3,0,2.4-1.1,2.4-2.4S13.3,5.8,12,5.8S9.6,6.8,9.6,8.2S10.7,10.6,12,10.6z"/>
</svg>
