<svg width="36" height="36" viewBox="0 0 36 36" fill="none" xmlns="http://www.w3.org/2000/svg">
<g id="money" clip-path="url(#clip0_5910_13093)">
<path id="Vector" d="M30.3091 22.3589C30.6372 22.523 30.9654 23.0699 30.9654 23.4527C30.9654 23.6714 30.856 23.8355 30.6919 23.9449C30.5279 24.0543 30.3638 24.1089 30.1451 24.1636C29.3794 24.273 28.5591 24.3824 27.7935 24.4918L25.4966 24.8199C25.2779 24.8746 25.0591 24.8199 24.8951 24.7652C24.4576 24.6011 24.2388 24.1089 24.3482 23.5621C24.4576 23.1793 24.6763 22.9058 25.1138 22.8511C26.5357 22.6324 27.9029 22.4683 29.3247 22.3043C29.6529 22.1949 30.0357 22.1949 30.3091 22.3589Z" fill="#2F4051"/>
<path id="Vector_2" d="M24.7325 32.3106C24.6778 32.3653 24.6778 32.4746 24.6231 32.5293C24.3497 33.3495 24.459 34.1697 25.0059 34.8258L25.1153 34.9352C24.4044 35.0445 23.6387 35.0992 22.9278 35.0992C21.67 35.1539 20.4122 35.0992 19.1544 34.7711C18.0059 34.4977 16.9669 33.951 15.8184 33.7869C14.9434 33.6776 14.0684 33.6776 13.1387 33.6229C12.4825 33.6229 11.9356 33.0761 11.8262 32.42L10.7325 23.6168C10.6778 23.0153 11.0059 22.4139 11.5528 22.1952C12.209 21.9218 12.8653 21.539 13.4669 21.1563C15.3262 19.844 18.6075 17.1648 20.8497 16.618C23.3106 15.9619 25.4434 17.3835 27.8497 17.8209C28.5606 17.9303 29.9825 17.9849 30.0372 18.9692C30.1465 20.7735 27.9044 21.1016 26.5372 21.1016C25.7169 21.1016 24.8419 21.0469 24.0215 20.8829C23.8028 20.8282 23.2559 20.6095 23.0372 20.6642C22.9825 20.6642 22.8731 20.7189 22.8184 20.7735C22.3262 21.1016 22.3262 21.9218 22.1622 22.4685C21.8887 23.1794 21.4512 23.9449 21.0137 24.5463C20.3028 25.4758 19.045 26.7334 17.7872 27.1162C17.7325 27.1162 17.7325 27.1709 17.7325 27.1709L17.7872 27.2255C20.2481 27.0068 21.9434 25.1478 22.9825 23.07C22.9825 23.1247 22.9278 23.1794 22.9278 23.234C22.7637 23.8902 22.8731 24.601 23.2559 25.0931C22.7637 25.4212 22.3809 25.9679 22.2715 26.6241C22.1622 27.3349 22.3262 27.991 22.7637 28.5378C22.9278 28.7565 23.1465 28.9206 23.42 29.0299C23.3106 29.194 23.2559 29.358 23.2012 29.522C23.2559 30.2875 23.42 31.053 23.8575 31.5998C24.0762 31.9279 24.4044 32.1466 24.7325 32.3106Z" fill="#2F4051"/>
<path id="Vector_3" d="M30.1484 3.8229C30.2031 2.89338 29.6016 2.23724 28.6719 2.23724C25.6094 2.0732 22.5469 1.96385 19.4844 1.85449H19.0469C18.3359 2.0732 17.8984 2.61999 17.8984 3.38548C17.7891 6.3381 17.7344 8.5799 17.625 11.3138L17.5703 12.7901L17.5156 14.2664C17.4609 15.2506 17.4062 16.1802 17.3516 17.055C18.0078 16.5082 18.7187 16.0708 19.5391 15.7974L19.7031 12.8448C19.7578 11.0951 19.8125 9.40007 19.9219 7.37698C19.9766 7.37698 20.0312 7.3223 20.0859 7.3223H20.1406C21.1797 7.04891 21.8906 6.39278 22.1094 5.35389C23.4766 5.40857 24.6797 5.46325 25.7734 5.46325C26.0469 6.61149 26.7578 7.37698 27.8516 7.70505C27.7422 9.8375 27.6875 11.5872 27.6328 13.1182V13.3369C27.5781 14.3758 27.5234 15.4693 27.4687 16.7816L28.2891 16.9457C28.3984 16.9457 28.4531 17.0003 28.5625 17.0003C28.7812 17.055 29.1641 17.1097 29.5469 17.1644L29.7656 12.6808V12.298L30.1484 3.8229Z" fill="#307BBF"/>
<path id="Vector_4" d="M25.9565 13.1488C26.0034 11.851 24.9893 10.7609 23.6914 10.7141C22.3936 10.6672 21.3036 11.6814 21.2567 12.9792C21.2099 14.277 22.224 15.3671 23.5218 15.4139C24.8196 15.4607 25.9097 14.4466 25.9565 13.1488Z" fill="#307BBF"/>
<path id="Vector_5" d="M25.9565 13.1488C26.0034 11.851 24.9893 10.7609 23.6914 10.7141C22.3936 10.6672 21.3036 11.6814 21.2567 12.9792C21.2099 14.277 22.224 15.3671 23.5218 15.4139C24.8196 15.4607 25.9097 14.4466 25.9565 13.1488Z" fill="#307BBF"/>
<path id="Vector_6" d="M13.4663 4.20542C13.3569 4.26009 13.1928 4.26009 13.0835 4.36945C12.4272 4.7522 12.2085 5.40833 12.3725 6.17383C13.1928 9.01709 13.7397 11.2042 14.5053 13.8288L14.8881 15.2504L15.271 16.7267C15.435 17.3828 15.5991 17.9843 15.7631 18.5858L16.0913 18.2577C16.146 17.6562 16.146 17.0001 16.2006 16.3986L16.3647 12.7899V12.6805C16.0913 11.6416 15.7631 10.6028 15.4897 9.45451C15.5444 9.39984 15.5991 9.39984 15.5991 9.34516L15.6538 9.29048C15.9819 9.07177 16.31 8.79838 16.4741 8.52499C16.5288 6.88464 16.5835 5.29898 16.6381 3.38524V3.33057C15.6538 3.60396 14.56 3.93203 13.4663 4.20542Z" fill="#307BBF"/>
<path id="Vector_7" d="M9.96688 34.388L6.19344 34.8254C5.75594 34.8801 5.26375 34.552 5.20907 34.0599L3.84188 22.9056C3.78719 22.4135 4.11532 21.9761 4.6075 21.9214L8.38094 21.484C8.87313 21.4293 9.31063 21.7574 9.36532 22.2495L10.7325 33.4038C10.7872 33.8959 10.4591 34.3333 9.96688 34.388ZM30.3653 33.6772C29.9278 33.7865 29.4903 33.8959 29.0528 33.9506C28.3419 34.0599 27.6856 34.1693 26.9747 34.3333C26.5919 34.388 26.2638 34.3333 25.9903 34.0053C25.7169 33.6772 25.6622 33.2944 25.8263 32.9117C25.9356 32.5836 26.2091 32.4196 26.5919 32.3102C26.6466 32.3102 26.8106 32.2556 26.9747 32.2556C27.795 32.0915 29.545 31.8181 30.0919 31.7635H30.2559C30.7481 31.7635 30.9669 31.9275 31.0216 32.3102C31.1309 32.9117 30.8575 33.5132 30.3653 33.6772ZM30.7481 30.3965C30.5294 30.4512 30.3106 30.4512 30.0919 30.5059C29.3263 30.6152 28.6153 30.7246 27.8497 30.8339C27.5216 30.8886 27.1934 30.9433 26.8106 30.998H26.7559C26.4278 31.0526 26.0997 31.0526 25.8263 31.1073C24.8966 31.2713 24.5684 30.3965 24.7325 29.795C24.7872 29.467 25.0059 29.3029 25.2794 29.1936C25.3888 29.1389 25.4434 29.1389 25.5528 29.1389C26.3731 29.0295 27.2481 28.9202 28.0684 28.8108C28.8888 28.7015 29.7091 28.5921 30.5841 28.4828H30.9669C31.4044 28.5374 31.6778 28.7015 31.7325 29.0842C31.7325 29.7404 31.4044 30.2871 30.7481 30.3965ZM31.8419 26.0223C31.7872 26.7877 31.5138 27.1158 30.8028 27.2252C29.8184 27.3345 28.8888 27.4986 27.9044 27.6079C26.92 27.772 25.9356 27.8813 24.9513 27.9907H24.7872C24.1309 27.9907 23.6934 27.4986 23.8028 26.7877C23.8575 26.3503 24.1309 26.0769 24.5684 26.0223C24.6778 26.0223 24.7325 26.0223 24.8419 25.9676C26.7559 25.6942 28.67 25.4208 30.5841 25.2021H31.0763C31.1856 25.2021 31.295 25.2568 31.3497 25.2568C31.6778 25.3661 31.8419 25.6395 31.8419 26.0223Z" fill="#2F4051"/>
</g>
<defs>
<clipPath id="clip0_5910_13093">
<rect width="35" height="34.994" fill="white" transform="translate(0.34375 0.979492)"/>
</clipPath>
</defs>
</svg>
