<?xml version="1.0" encoding="utf-8"?>
<!-- Generator: Adobe Illustrator 24.3.0, SVG Export Plug-In . SVG Version: 6.00 Build 0)  -->
<svg version="1.1" id="Layer_1" xmlns="http://www.w3.org/2000/svg" xmlns:xlink="http://www.w3.org/1999/xlink" x="0px" y="0px"
	 viewBox="0 0 512 512" style="enable-background:new 0 0 512 512;" xml:space="preserve">
<style type="text/css">
	.st0{fill:#2F4859;}
	.st1{fill:#FE7058;}
	.st2{fill:#3A556A;}
	.st3{fill:#EBF0F3;}
	.st4{fill:#E1E6E9;}
	.st5{fill:#BDBEC1;}
	.st6{fill:#F3D55B;}
	.st7{fill:#547580;}
	.st8{fill:#35495E;}
	.st9{fill:#4FBA6F;}
</style>
<g>
	<g>
		<g>
			<path class="st0" d="M430,340.8l37.6-0.2c7.2,0,13,5.7,13.1,12.9l0.4,74.7c0,7.2-5.7,13-12.9,13.1l-37.6,0.2
				c-7.2,0-13-5.7-13.1-12.9l-0.4-74.7C417,346.6,422.8,340.8,430,340.8z M47,343l37.6-0.2c7.2,0,13,5.7,13.1,12.9l0.4,74.7
				c0,7.2-5.7,13-12.9,13.1l-37.6,0.2c-7.2,0-13-5.7-13.1-12.9l-0.4-74.7C34,348.9,39.8,343.1,47,343z M472.7,158.7
				c-3.1,0.3-5.5,3-5.5,6.1c0.8,6.2-3.2,11.9-9.2,13.4l-9.4,0.1l4.8,14c0,0,60.3-0.4,58.5-20.2C510.6,156.9,484.4,157.6,472.7,158.7
				z M39.3,158.7c3.1,0.3,5.5,3,5.5,6.1c-0.8,6.2,3.2,11.9,9.2,13.4l9.4,0.1l-4.8,14c0,0-60.3-0.4-58.5-20.2
				C1.4,156.9,27.6,157.6,39.3,158.7z"/>
		</g>
		<path class="st1" d="M498.5,276.3c-1.1-14.7-5.4-29-12.5-42l-25.4-46.6c0,0-45.1-101.7-63.9-109.8c-18.2-7.8-134.2-9.6-141.9-9.7
			h-0.4c-7.7,0.2-123.7,3.3-141.7,11.4C94,88,50.1,190.2,50.1,190.2l-24.8,46.9c-6.9,13-11,27.4-12,42.1
			c-1.7,32.5,1.8,65.2,10.4,96.6c4.1,14.8,17.6,25.1,33,24.9l199.8-1.2h0.4l199.8-1.2c15.4,0,28.8-10.4,32.7-25.3
			C497.5,341.5,500.7,308.9,498.5,276.3L498.5,276.3z"/>
		<path class="st2" d="M158.8,336.8l194.7-1.2c3.5,0,6.3,2.8,6.3,6.3l0.2,33.2c0,3.5-2.8,6.3-6.3,6.3l-194.7,1.2
			c-3.5,0-6.3-2.8-6.3-6.3l-0.2-33.2C152.5,339.6,155.3,336.8,158.8,336.8L158.8,336.8z"/>
		<path class="st0" d="M400.4,93.3c-2-4.4-6.4-7.3-11.3-7.4l-133.1-2.7h-0.4l-133.1,4.3c-4.9,0.2-9.2,3.1-11.2,7.5l-38.2,85.9
			l183-1.1h0.4l183.1-1.1L400.4,93.3z"/>
		<path class="st3" d="M443.7,330c-12.8,0.1-23.2,10.5-23.1,23.4s10.5,23.2,23.4,23.1s23.2-10.5,23.1-23.4v0
			C467,340.3,456.5,329.9,443.7,330z M70.6,332.2c-12.8,0.1-23.2,10.5-23.1,23.4c0.1,12.8,10.5,23.2,23.4,23.1
			c12.8-0.1,23.2-10.5,23.1-23.4C93.9,342.5,83.4,332.1,70.6,332.2L70.6,332.2z"/>
		<path class="st2" d="M169,277.8h169.5V299H169V277.8z"/>
		<path class="st4" d="M476.3,244.6c-0.6-4.9-5-8.5-10-7.9c-0.4,0-0.8,0.1-1.1,0.2l-77.5,18.9c-2.3,0.6-4.3,2-5.6,4.1l-15.4,25.4
			c-2.6,4.3-1.2,9.8,3.1,12.4c1.4,0.8,3,1.3,4.7,1.3h75.7c1.8,0,3.5-0.5,5-1.5C473,285.7,478.6,267.2,476.3,244.6L476.3,244.6z"/>
		<path class="st5" d="M439.6,251.8c-9.4,0.4-16.7,8.3-16.3,17.7c0.4,9.4,8.3,16.7,17.7,16.3c9.4-0.4,16.7-8.3,16.3-17.7
			C456.8,258.7,448.9,251.4,439.6,251.8L439.6,251.8z M403.6,268c-7.1,0.3-12.7,6.3-12.4,13.4c0.3,7.1,6.3,12.7,13.4,12.4
			c7.1-0.3,12.7-6.3,12.4-13.4v0C416.7,273.2,410.7,267.7,403.6,268z"/>
		<path class="st4" d="M35.7,244.6c0.6-4.9,5-8.5,10-7.9c0.4,0,0.8,0.1,1.1,0.2l77.5,18.9c2.3,0.6,4.3,2,5.6,4.1l15.4,25.4
			c2.6,4.3,1.2,9.8-3.1,12.4c-1.4,0.8-3,1.3-4.7,1.3H61.8c-1.8,0-3.5-0.5-5-1.5C39,285.7,33.4,267.2,35.7,244.6z"/>
		<path class="st5" d="M72.4,251.8c9.4,0.4,16.7,8.3,16.3,17.7c-0.4,9.4-8.3,16.7-17.7,16.3c-9.4-0.4-16.7-8.3-16.3-17.7
			C55.2,258.7,63.1,251.4,72.4,251.8L72.4,251.8z M108.4,268c7.1,0.3,12.7,6.3,12.4,13.4c-0.3,7.1-6.3,12.7-13.4,12.4
			c-7.1-0.3-12.7-6.3-12.4-13.4v0C95.3,273.2,101.3,267.7,108.4,268z"/>
	</g>
	<path class="st6" d="M423.6,167.1h58.2c7.8,0,15.2,1.8,20.6,4.8c5.5,3.1,8.5,7.3,8.5,11.6v241.4c0,4.4-3.1,8.6-8.5,11.6
		c-5.5,3.1-12.9,4.8-20.6,4.8H249c-7.8,0-15.2-1.8-20.6-4.8c-5.5-3.1-8.5-7.3-8.5-11.6V183.5c0-4.4,3.1-8.6,8.5-11.6
		c5.5-3.1,12.9-4.8,20.6-4.8L423.6,167.1L423.6,167.1z"/>
	<path class="st7" d="M423.6,167.1c0,5.1-2.2,10-5.7,13.6c-3.6,3.6-8.5,5.7-13.6,5.7h-77.6c-5.1,0-10-2-13.7-5.7
		c-3.6-3.6-5.7-8.6-5.7-13.7c0-5.1,2.2-10,5.7-13.6c3.6-3.6,8.5-5.7,13.6-5.7h11.5c2-5.6,5.7-10.6,10.6-14.1s10.8-5.4,16.7-5.4
		s11.8,1.9,16.7,5.4c4.9,3.5,8.6,8.4,10.6,14.1h11.5c5.1,0,10,2,13.7,5.7C421.5,157,423.5,162,423.6,167.1z"/>
	<path class="st8" d="M375.1,254.4H258.7c-2.6,0-5-1.1-6.8-2.9s-2.9-4.3-2.9-6.8c0-2.6,1.1-5,2.9-6.8s4.3-2.9,6.8-2.9h116.4
		c2.6,0,5,1.1,6.8,2.9s2.9,4.3,2.9,6.8c0,2.6-1.1,5-2.9,6.8C380.1,253.4,377.6,254.4,375.1,254.4z M316.9,293.2h-58.2
		c-2.6,0-5-1.1-6.8-2.9s-2.9-4.3-2.9-6.8c0-2.6,1.1-5,2.9-6.8s4.3-2.9,6.8-2.9h58.2c2.6,0,5,1.1,6.8,2.9s2.9,4.3,2.9,6.8
		c0,2.6-1.1,5-2.9,6.8S319.4,293.2,316.9,293.2z"/>
	<path class="st9" d="M423.6,390.2c-2.6,0-5-1.1-6.8-2.9l-9.7-9.7c-1.8-1.8-2.7-4.3-2.7-6.8s1.1-5,2.9-6.8s4.2-2.9,6.8-2.9
		c2.5,0,5,1,6.8,2.7l3.6,3.6l41.7-33.3c2-1.6,4.5-2.4,7.2-2c2.5,0.2,4.9,1.6,6.5,3.6s2.4,4.5,2,7.2c-0.2,2.5-1.6,4.9-3.6,6.5
		l-48.5,38.8C427.9,389.4,425.8,390.2,423.6,390.2z"/>
	<path class="st8" d="M375.1,351.4H258.7c-2.6,0-5-1.1-6.8-2.9s-2.9-4.3-2.9-6.8c0-2.6,1.1-5,2.9-6.8s4.3-2.9,6.8-2.9h116.4
		c2.6,0,5,1.1,6.8,2.9s2.9,4.3,2.9,6.8c0,2.6-1.1,5-2.9,6.8S377.6,351.4,375.1,351.4z M316.9,390.2h-58.2c-2.6,0-5-1.1-6.8-2.9
		s-2.9-4.3-2.9-6.8s1.1-5,2.9-6.8s4.3-2.9,6.8-2.9h58.2c2.6,0,5,1.1,6.8,2.9s2.9,4.3,2.9,6.8s-1.1,5-2.9,6.8
		C321.9,389.2,319.4,390.2,316.9,390.2z"/>
	<path class="st9" d="M423.6,293.2c-2.6,0-5-1.1-6.8-2.9l-9.7-9.7c-1.8-1.8-2.7-4.3-2.7-6.8s1.1-5,2.9-6.8s4.2-2.9,6.8-2.9
		c2.5,0,5,1,6.8,2.7l3.6,3.6l41.7-33.3c1-0.8,2.2-1.4,3.3-1.8c1.2-0.4,2.5-0.5,3.8-0.4s2.5,0.5,3.6,1.2c1.1,0.6,2.2,1.4,2.9,2.4
		c0.8,1,1.4,2.2,1.8,3.3c0.4,1.2,0.5,2.5,0.4,3.8s-0.5,2.5-1.2,3.6c-0.6,1.1-1.4,2.2-2.4,2.9l-48.5,38.8
		C427.9,292.5,425.8,293.2,423.6,293.2z"/>
	<path class="st6" d="M423.6,168.1h58.2c7.8,0,15.2,1.8,20.6,4.8c5.5,3.1,8.5,7.3,8.5,11.6v241.4c0,4.4-3.1,8.6-8.5,11.6
		c-5.5,3.1-12.9,4.8-20.6,4.8H249c-7.8,0-15.2-1.8-20.6-4.8c-5.5-3.1-8.5-7.3-8.5-11.6V184.5c0-4.4,3.1-8.6,8.5-11.6
		c5.5-3.1,12.9-4.8,20.6-4.8L423.6,168.1L423.6,168.1z"/>
	<path class="st7" d="M423.6,168.1c0,5.1-2.2,10-5.7,13.6c-3.6,3.6-8.5,5.7-13.6,5.7h-77.6c-5.1,0-10-2-13.7-5.7
		c-3.6-3.6-5.7-8.6-5.7-13.7c0-5.1,2.2-10,5.7-13.6c3.6-3.6,8.5-5.7,13.6-5.7h11.5c2-5.6,5.7-10.6,10.6-14.1s10.8-5.4,16.7-5.4
		s11.8,1.9,16.7,5.4c4.9,3.5,8.6,8.4,10.6,14.1h11.5c5.1,0,10,2,13.7,5.7C421.5,158,423.5,163,423.6,168.1z"/>
	<path class="st8" d="M375.1,255.4H258.7c-2.6,0-5-1.1-6.8-2.9s-2.9-4.3-2.9-6.8c0-2.6,1.1-5,2.9-6.8s4.3-2.9,6.8-2.9h116.4
		c2.6,0,5,1.1,6.8,2.9s2.9,4.3,2.9,6.8c0,2.6-1.1,5-2.9,6.8C380.1,254.4,377.6,255.4,375.1,255.4z M316.9,294.2h-58.2
		c-2.6,0-5-1.1-6.8-2.9s-2.9-4.3-2.9-6.8c0-2.6,1.1-5,2.9-6.8s4.3-2.9,6.8-2.9h58.2c2.6,0,5,1.1,6.8,2.9s2.9,4.3,2.9,6.8
		c0,2.6-1.1,5-2.9,6.8S319.4,294.2,316.9,294.2z"/>
	<path class="st9" d="M423.6,391.2c-2.6,0-5-1.1-6.8-2.9l-9.7-9.7c-1.8-1.8-2.7-4.3-2.7-6.8s1.1-5,2.9-6.8s4.2-2.9,6.8-2.9
		c2.5,0,5,1,6.8,2.7l3.6,3.6l41.7-33.3c2-1.6,4.5-2.4,7.2-2c2.5,0.2,4.9,1.6,6.5,3.6s2.4,4.5,2,7.2c-0.2,2.5-1.6,4.9-3.6,6.5
		l-48.5,38.8C427.9,390.4,425.8,391.2,423.6,391.2z"/>
	<path class="st8" d="M375.1,352.4H258.7c-2.6,0-5-1.1-6.8-2.9s-2.9-4.3-2.9-6.8c0-2.6,1.1-5,2.9-6.8s4.3-2.9,6.8-2.9h116.4
		c2.6,0,5,1.1,6.8,2.9s2.9,4.3,2.9,6.8c0,2.6-1.1,5-2.9,6.8S377.6,352.4,375.1,352.4z M316.9,391.2h-58.2c-2.6,0-5-1.1-6.8-2.9
		s-2.9-4.3-2.9-6.8s1.1-5,2.9-6.8s4.3-2.9,6.8-2.9h58.2c2.6,0,5,1.1,6.8,2.9s2.9,4.3,2.9,6.8s-1.1,5-2.9,6.8
		C321.9,390.2,319.4,391.2,316.9,391.2z"/>
	<path class="st9" d="M423.6,294.2c-2.6,0-5-1.1-6.8-2.9l-9.7-9.7c-1.8-1.8-2.7-4.3-2.7-6.8s1.1-5,2.9-6.8s4.2-2.9,6.8-2.9
		c2.5,0,5,1,6.8,2.7l3.6,3.6l41.7-33.3c1-0.8,2.2-1.4,3.3-1.8c1.2-0.4,2.5-0.5,3.8-0.4s2.5,0.5,3.6,1.2c1.1,0.6,2.2,1.4,2.9,2.4
		c0.8,1,1.4,2.2,1.8,3.3c0.4,1.2,0.5,2.5,0.4,3.8s-0.5,2.5-1.2,3.6c-0.6,1.1-1.4,2.2-2.4,2.9l-48.5,38.8
		C427.9,293.5,425.8,294.2,423.6,294.2z"/>
</g>
</svg>
