<svg width="31" height="31" viewBox="0 0 31 31" fill="none" xmlns="http://www.w3.org/2000/svg">
<g id="truck">
<g id="Group">
<path id="Vector" d="M27.3164 18.2504L27.2199 18.1943L27.2188 17.8252L27.3153 17.8808L27.3164 18.2504Z" fill="#21201F"/>
<path id="Vector_2" d="M27.3153 17.8032L27.2193 17.7471L27.2188 17.5283L27.3147 17.5839L27.3153 17.8032Z" fill="#21201F"/>
<path id="Vector_3" d="M26.9481 18.1677L26.8516 18.1122V18.0303L26.9475 18.0858L26.9481 18.1677Z" fill="#5B5E71"/>
<path id="Vector_4" d="M26.9478 18.086L26.8516 18.0301C26.967 17.9194 27.0893 17.8248 27.2178 17.7473L27.314 17.8032C27.1855 17.8808 27.0632 17.9754 26.9478 18.086ZM27.9146 16.6997C27.798 16.6988 27.6814 16.7319 27.565 16.7991C27.4485 16.8664 27.3322 16.9677 27.2159 17.1031L27.3122 17.159C27.4284 17.0236 27.5448 16.9223 27.6612 16.8551C27.7777 16.7878 27.8942 16.7547 28.0108 16.7557L27.9146 16.6997Z" fill="#434240"/>
<path id="Vector_5" d="M27.3158 17.5066L27.2193 17.4505L27.2188 17.103L27.3147 17.1592L27.3158 17.5066Z" fill="#21201F"/>
<path id="Vector_6" d="M26.9481 17.7274L26.8516 17.6712V17.5894L26.9475 17.6455L26.9481 17.7274Z" fill="#5B5E71"/>
<path id="Vector_7" d="M27.66 16.8553C27.7764 16.7881 27.893 16.7549 28.0096 16.7559L28.0127 17.847C27.8964 17.9678 27.78 18.0618 27.6636 18.129C27.5471 18.1962 27.4306 18.2367 27.314 18.2504L27.313 17.8809C27.184 17.9591 27.0615 18.0551 26.9468 18.1681L26.9466 18.0862C27.062 17.9756 27.1843 17.881 27.3128 17.8034L27.3121 17.5843C27.1836 17.6558 27.0612 17.7036 26.9455 17.7272L26.9453 17.6455C27.0604 17.6249 27.1829 17.5786 27.3119 17.5068L27.3109 17.1593C27.4272 17.0238 27.5435 16.9225 27.66 16.8553Z" fill="#383736"/>
<path id="Vector_8" d="M26.9478 17.6454L26.8516 17.5895C26.9667 17.5688 27.0891 17.5225 27.2182 17.4507L27.3144 17.5066C27.1854 17.5785 27.0629 17.6247 26.9478 17.6454Z" fill="#434240"/>
</g>
<path id="Vector_9" d="M20.9183 26.9242C20.9141 27.4484 20.7367 27.8157 20.4478 27.9849L18.4089 29.1653C18.6978 29.0002 18.8011 28.652 18.8011 28.1279C18.8052 27.1167 18.2149 25.88 17.3853 25.4012C16.9809 25.1701 16.6177 25.1495 16.3453 25.3063L18.38 24.1259C18.6524 23.965 19.0197 23.9856 19.4201 24.2167C20.2497 24.6955 20.9224 25.9089 20.9183 26.9242ZM8.52615 19.7955C8.52201 20.3196 8.34455 20.687 8.05563 20.8562L6.01676 22.0366C6.30567 21.8715 6.40893 21.5233 6.40893 20.9991C6.41306 19.9879 5.82279 18.7513 4.9932 18.2725C4.58874 18.0414 4.22554 18.0208 3.95312 18.1776L5.98789 16.9972C6.26028 16.8362 6.62761 16.8569 7.02795 17.088C7.85753 17.5668 8.53028 18.7802 8.52615 19.7955Z" fill="#2D2C2B"/>
<g id="Group_2">
<path id="Vector_10" d="M22.6065 9.34033L22.5755 20.2395L14.6406 24.8509L14.6716 13.9517L22.6065 9.34033Z" fill="#C4C2C0"/>
<path id="Vector_11" d="M14.6704 13.9507L14.64 24.8522L7.03626 20.4619L2.40088 17.7836L1.46094 17.2432L1.49135 6.34229L14.6704 13.9507Z" fill="#D6D4D2"/>
<path id="Vector_12" d="M14.6453 22.0367L14.64 24.8524L7.03626 20.4621L2.40088 17.7838L1.46094 17.2434L1.4662 14.4282L14.6453 22.0367Z" fill="#C4C2C0"/>
<path id="Vector_13" d="M22.6061 9.34048L14.6713 13.9519L1.49219 6.34284L9.42702 1.73145L22.6061 9.34048Z" fill="#E9E8E6"/>
</g>
<path id="Vector_14" d="M29.5401 21.3722V24.2382L21.5854 28.8356L21.5796 28.8239V25.9637L19.2633 23.6767L18.4854 19.6701L17.6782 18.319L14.6484 16.6403L22.6032 12.0547L22.6149 12.043V12.0547L25.6388 13.7333L26.4518 15.0786L27.2239 19.0911L29.5401 21.3722Z" fill="#0074D1"/>
<path id="Vector_15" d="M14.6406 24.8484V16.6357L17.6734 18.3209L18.4823 19.6685L19.2573 23.6786L21.5759 25.965V28.8351L14.6406 24.8484Z" fill="#00649B"/>
<path id="Vector_16" d="M17.8866 19.7506L17.3182 18.7941L17.2933 18.7858L15.4219 17.7378V21.0121L18.5132 22.9639C18.5017 22.9049 17.8456 19.5401 17.8866 19.7506Z" fill="#82C6E0"/>
<path id="Vector_17" d="M17.6797 18.3211L25.6385 13.7319L26.4544 15.076L18.4886 19.6687L17.6797 18.3211Z" fill="#006CB5"/>
<path id="Vector_18" d="M19.2578 23.6784L27.2178 19.0898L29.5358 21.3704L21.5764 25.9648L19.2578 23.6784Z" fill="#0074D1"/>
<path id="Vector_19" d="M28.0623 21.9614L22.8519 24.9737L19.625 23.7226L27.1814 19.3633L28.0623 21.9614Z" fill="#00649B"/>
<path id="Vector_20" d="M29.5375 21.3706V24.2413L21.5781 28.8352V25.965L29.5375 21.3706Z" fill="#3F9AE0"/>
<path id="Vector_21" d="M27.2205 19.0904L19.2629 23.6743L18.4844 19.6694L26.4508 15.0762L27.2205 19.0904Z" fill="#0074D1"/>
<path id="Vector_22" d="M26.9057 18.9479L26.2471 15.5122L26.0312 15.6368L26.6477 18.8549L26.9057 18.9479Z" fill="#00649B"/>
<path id="Vector_23" d="M26.6464 18.855L19.4141 23.0218L19.4562 23.2388L26.9044 18.948L26.6464 18.855Z" fill="#3F9AE0"/>
<path id="Vector_24" d="M26.6502 18.8573C17.2092 24.281 19.9262 22.72 19.4091 23.016L19.374 22.8464L18.7891 19.8049C18.8479 19.771 26.0959 15.6 26.0361 15.6345L26.0653 15.7983L26.6502 18.8573Z" fill="#82C6E0"/>
<g id="Group_3">
<path id="Vector_25" d="M23.1555 25.6172L23.159 26.8209L21.8389 27.5831L21.8359 26.3793L23.1555 25.6172Z" fill="white"/>
<path id="Vector_26" d="M29.2713 22.1055L29.2748 23.3092L27.9488 24.0748L27.9453 22.8711L29.2713 22.1055Z" fill="white"/>
<path id="Vector_27" d="M29.0525 22.4307L29.0549 23.2372L28.1664 23.7502L28.1641 22.9436L29.0525 22.4307Z" fill="#EFC348"/>
<path id="Vector_28" d="M22.9432 25.9404L22.9455 26.747L22.057 27.2606L22.0547 26.4534L22.9432 25.9404Z" fill="#EFC348"/>
<path id="Vector_29" d="M27.6862 23.0215L27.6868 23.1578L23.4146 25.6027L23.4141 25.467L27.6862 23.0215Z" fill="#0074D1"/>
<path id="Vector_30" d="M27.6862 23.375V23.5107L23.4146 25.9562L23.4141 25.8199L27.6862 23.375Z" fill="#0074D1"/>
<path id="Vector_31" d="M27.6934 24.0894L27.694 24.2251L23.4219 26.6705V26.5343L27.6934 24.0894Z" fill="#0074D1"/>
<path id="Vector_32" d="M27.6934 23.7354L27.694 23.8716L23.4225 26.3165L23.4219 26.1808L27.6934 23.7354Z" fill="#0074D1"/>
</g>
<g id="Group_4">
<path id="Vector_33" d="M7.21655 20.5679L2.98438 18.1228C3.29319 17.5761 3.83234 17.3179 4.34363 17.3179C4.68028 17.3179 5.02452 17.4166 5.36624 17.614C6.3281 18.1684 7.07734 19.3859 7.21655 20.5679Z" fill="#B2B0AF"/>
<path id="Vector_34" d="M4.98907 18.272C5.81914 18.7513 6.48876 19.9628 6.48588 20.9772C6.48301 21.9916 5.80873 22.4242 4.97866 21.9449C4.14859 21.4657 3.4737 20.2541 3.47657 19.2398C3.47945 18.2254 4.159 17.7928 4.98907 18.272Z" fill="#434240"/>
<path id="Vector_35" d="M5.86655 21.6374C6.35588 21.3531 6.35467 20.4379 5.86385 19.5933C5.37303 18.7487 4.57847 18.2945 4.08914 18.5789C3.59981 18.8632 3.60101 19.7784 4.09183 20.623C4.58265 21.4676 5.37722 21.9218 5.86655 21.6374Z" fill="white"/>
<path id="Vector_36" d="M4.58774 20.2265C4.57964 20.2219 4.57129 20.2185 4.56287 20.2168L4.05445 20.1074C4.15247 20.3849 4.30926 20.6565 4.50156 20.8803L4.66185 20.3883C4.67928 20.3374 4.63864 20.2559 4.58774 20.2265ZM3.997 19.1767C3.96336 19.2715 3.94568 19.3841 3.94532 19.5112C3.94496 19.6384 3.96194 19.7701 3.99494 19.9043L4.46764 19.8933C4.52506 19.8927 4.52532 19.7993 4.4681 19.7325L3.997 19.1767ZM4.5075 18.7871C4.31389 18.7881 4.15607 18.878 4.05747 19.0428L4.56484 19.5191C4.57325 19.5271 4.5816 19.5334 4.58969 19.5381C4.64059 19.5674 4.68156 19.5331 4.66448 19.4623L4.5075 18.7871ZM4.98441 18.9345C4.87376 18.8706 4.76706 18.829 4.66764 18.8092L4.91272 19.4945C4.92729 19.536 4.9549 19.5684 4.98257 19.5844C5.01022 19.6003 5.03793 19.5998 5.05269 19.5754L5.30084 19.1747C5.20097 19.0795 5.09505 18.9984 4.98441 18.9345ZM5.35789 20.6706C5.30724 20.6413 5.26711 20.6762 5.28304 20.7463L5.44135 21.4223C5.63363 21.4205 5.79144 21.3306 5.89071 21.1669L5.38267 20.6895C5.37427 20.6815 5.36595 20.6752 5.35789 20.6706ZM4.97959 20.6332C4.95193 20.6173 4.92422 20.6174 4.90947 20.6411L4.66131 21.0417C4.76052 21.1366 4.86711 21.2181 4.97775 21.2819C5.08839 21.3458 5.19443 21.3871 5.29451 21.4073L5.04944 20.7219C5.03487 20.6813 5.00725 20.6492 4.97959 20.6332ZM5.44728 19.3291L5.28566 19.8203C5.26939 19.8718 5.30919 19.9528 5.35984 19.9821C5.3679 19.9867 5.37622 19.9901 5.38465 19.9918L5.89373 20.1024C5.79704 19.8248 5.64026 19.5533 5.44728 19.3291ZM5.95391 20.3059L5.47987 20.316C5.42379 20.3174 5.42352 20.4108 5.47941 20.4769L5.95184 21.0335C5.98483 20.9374 6.00317 20.8261 6.00353 20.6989C6.00389 20.5718 5.98624 20.4388 5.95391 20.3059Z" fill="#434240"/>
</g>
<g id="Group_5">
<path id="Vector_37" d="M19.6072 27.6964L15.375 25.2512C15.6838 24.7045 16.223 24.4463 16.7343 24.4463C17.0709 24.4463 17.4151 24.545 17.7569 24.7424C18.7187 25.2968 19.468 26.5143 19.6072 27.6964Z" fill="#005E87"/>
<path id="Vector_38" d="M17.3797 25.4004C18.2098 25.8797 18.8794 27.0912 18.8765 28.1056C18.8736 29.12 18.1994 29.5526 17.3693 29.0734C16.5392 28.5941 15.8643 27.3825 15.8672 26.3682C15.8701 25.3538 16.5496 24.9212 17.3797 25.4004Z" fill="#434240"/>
<path id="Vector_39" d="M18.2572 28.7658C18.7465 28.4815 18.7453 27.5663 18.2545 26.7217C17.7637 25.8771 16.9691 25.4229 16.4798 25.7073C15.9904 25.9916 15.9916 26.9069 16.4825 27.7514C16.9733 28.596 17.7678 29.0502 18.2572 28.7658Z" fill="white"/>
<path id="Vector_40" d="M16.9784 27.355C16.9703 27.3503 16.9619 27.3469 16.9535 27.3452L16.4451 27.2358C16.5431 27.5133 16.6999 27.7849 16.8922 28.0087L17.0525 27.5167C17.0699 27.4659 17.0293 27.3844 16.9784 27.355ZM16.3876 26.3051C16.354 26.4 16.3363 26.5125 16.3359 26.6396C16.3356 26.7668 16.3526 26.8986 16.3856 27.0327L16.8583 27.0217C16.9157 27.0211 16.9159 26.9277 16.8587 26.8609L16.3876 26.3051ZM16.8981 25.9155C16.7045 25.9165 16.5467 26.0064 16.4481 26.1712L16.9555 26.6475C16.9639 26.6555 16.9722 26.6618 16.9803 26.6665C17.0312 26.6959 17.0722 26.6615 17.0551 26.5907L16.8981 25.9155ZM17.375 26.0629C17.2644 25.999 17.1577 25.9574 17.0583 25.9376L17.3033 26.623C17.3179 26.6644 17.3455 26.6968 17.3732 26.7128C17.4008 26.7287 17.4286 26.7282 17.4433 26.7038L17.6915 26.3031C17.5916 26.2079 17.4857 26.1268 17.375 26.0629ZM17.7485 27.799C17.6979 27.7698 17.6577 27.8046 17.6737 27.8747L17.832 28.5507C18.0243 28.5489 18.1821 28.459 18.2813 28.2954L17.7733 27.8179C17.7649 27.8099 17.7566 27.8037 17.7485 27.799ZM17.3702 27.7617C17.3426 27.7457 17.3148 27.7458 17.3001 27.7695L17.0519 28.1701C17.1511 28.265 17.2577 28.3465 17.3684 28.4104C17.479 28.4742 17.5851 28.5155 17.6851 28.5357L17.4401 27.8503C17.4255 27.8097 17.3979 27.7776 17.3702 27.7617ZM17.8379 26.4575L17.6763 26.9488C17.66 27.0002 17.6998 27.0813 17.7505 27.1105C17.7585 27.1152 17.7668 27.1185 17.7753 27.1202L18.2844 27.2308C18.1877 26.9533 18.0309 26.6817 17.8379 26.4575ZM18.3445 27.4343L17.8705 27.4444C17.8144 27.4458 17.8141 27.5393 17.87 27.6053L18.3425 28.1619C18.3755 28.0659 18.3938 27.9545 18.3942 27.8273C18.3945 27.7002 18.3769 27.5673 18.3445 27.4343Z" fill="#434240"/>
</g>
<g id="Group_6">
<path id="Vector_41" d="M27.1558 25.3554L24.6875 26.7767V26.2035L27.15 24.7764L27.1558 25.3554Z" fill="white"/>
<path id="Vector_42" d="M24.6562 26.8275V26.1869L24.6708 26.1783L27.1767 24.7261L27.1832 25.3724L24.6562 26.8275ZM24.7145 26.2206V26.7264L27.1244 25.3387L27.119 24.8272L24.7145 26.2206Z" fill="#2D2C2B"/>
</g>
<g id="Group_7">
<g id="Group_8">
<path id="Vector_43" d="M18.5494 22.872L18.4531 22.8161C18.5816 22.7453 18.7041 22.6985 18.8197 22.6758L18.916 22.7317C18.8003 22.7545 18.6779 22.8012 18.5494 22.872Z" fill="#383736"/>
<path id="Vector_44" d="M18.5494 22.5756L18.4531 22.5196C18.582 22.4426 18.7045 22.3474 18.8193 22.2354L18.9156 22.2913C18.8007 22.4034 18.6783 22.4985 18.5494 22.5756Z" fill="#434240"/>
<path id="Vector_45" d="M17.8494 23.7222L17.7529 23.666L17.75 22.5752L17.8465 22.6313L17.8494 23.7222Z" fill="#383736"/>
<path id="Vector_46" d="M18.4488 22.1719C18.3322 22.1709 18.2156 22.2041 18.0991 22.2713C17.9826 22.3386 17.8663 22.4399 17.75 22.5753L17.8463 22.6313C17.9625 22.4959 18.0789 22.3945 18.1953 22.3273C18.3118 22.26 18.4284 22.2269 18.545 22.2278L18.4488 22.1719Z" fill="#434240"/>
<path id="Vector_47" d="M18.1929 22.327C18.3093 22.2598 18.4259 22.2266 18.5425 22.2276L18.5435 22.5751C18.6724 22.498 18.7949 22.4029 18.9097 22.2908L18.9099 22.3724C18.7944 22.4823 18.6721 22.5758 18.5437 22.6526L18.5444 22.8717C18.6729 22.8009 18.7953 22.7542 18.911 22.7314L18.9112 22.8133C18.7961 22.833 18.6736 22.8784 18.5446 22.9492L18.5456 23.3187C18.4293 23.4394 18.3129 23.5334 18.1965 23.6007C18.08 23.6679 17.9634 23.7084 17.8468 23.7221L17.8438 22.631C17.96 22.4956 18.0764 22.3943 18.1929 22.327Z" fill="#2D2C2B"/>
</g>
</g>
<path id="Vector_48" d="M20.8163 24.4025C20.6551 24.4542 20.5122 24.5424 20.3936 24.661C20.278 24.7766 20.1899 24.9195 20.1351 25.0807C20.1199 25.1324 20.05 25.1324 20.0317 25.0807C19.9283 24.7583 19.6729 24.5059 19.3536 24.4025C19.2988 24.3842 19.2988 24.3143 19.3536 24.296C19.5147 24.2444 19.6577 24.1531 19.7732 24.0376C19.8888 23.922 19.98 23.7791 20.0317 23.6179C20.05 23.5662 20.1199 23.5662 20.1351 23.6179C20.1899 23.7791 20.278 23.922 20.3936 24.0376C20.5122 24.1531 20.6551 24.2444 20.8163 24.296C20.868 24.3143 20.868 24.3842 20.8163 24.4025Z" fill="white"/>
<g id="Group_9" opacity="0.2">
<path id="Vector_49" d="M23.9022 16.8686L22.8435 21.0507C22.7831 21.0854 20.2685 22.5247 19.4101 23.016L19.375 22.8463L20.3752 18.8982C20.5736 18.784 23.3498 17.1863 23.9022 16.8686ZM26.0663 15.7982L25.0662 19.7639C24.9965 19.8037 24.065 20.336 24.1245 20.302L24.0835 20.3254L23.7326 20.5243L24.7971 16.3539C24.8556 16.3199 26.1173 15.5879 26.0371 15.6345L26.0663 15.7982Z" fill="white"/>
</g>
</g>
</svg>
