<svg width="38" height="38" viewBox="0 0 38 38" fill="none" xmlns="http://www.w3.org/2000/svg">
<path d="M35.0536 30.1415V37.2399H2.88281V30.1415C3.05403 28.8053 3.61133 27.5481 4.48641 26.5239L4.59281 26.4023C5.30158 25.6244 6.18446 25.0254 7.16921 24.6543C9.37321 23.8411 12.4892 22.7847 14.0852 22.2527L14.9972 21.9487H22.9468L23.8664 22.2603C25.3864 22.7771 28.548 23.8487 30.7596 24.6695C31.9116 25.0949 32.923 25.8316 33.6812 26.7977C34.4393 27.7638 34.9144 28.9214 35.0536 30.1415Z" fill="#69B0EE"/>
<path d="M14.9609 20.6416V23.7196C14.9609 24.0849 15.0329 24.4466 15.1727 24.7841C15.3125 25.1216 15.5174 25.4282 15.7756 25.6865C16.0339 25.9448 16.3406 26.1497 16.6781 26.2895C17.0155 26.4293 17.3773 26.5012 17.7425 26.5012H20.1973C20.5626 26.5012 20.9243 26.4293 21.2618 26.2895C21.5993 26.1497 21.9059 25.9448 22.1642 25.6865C22.4225 25.4282 22.6274 25.1216 22.7672 24.7841C22.907 24.4466 22.9789 24.0849 22.9789 23.7196V20.6416H14.9609Z" fill="#EAB54E"/>
<path d="M12.5392 12.9806C12.5392 12.9806 11.2624 12.0686 10.7912 12.9198C10.32 13.771 11.1256 16.5906 12.5392 16.5906M25.4212 12.9806C25.4212 12.9806 26.698 12.0686 27.1692 12.9198C27.6404 13.771 26.8348 16.5906 25.4212 16.5906" fill="#F2C55A"/>
<path d="M26.2944 10.4578C26.3568 12.3294 26.0998 14.1979 25.5344 15.983C25.5344 15.983 25.1544 19.0002 24.1132 19.6766C24.1132 19.6766 22.0916 22.3822 18.9756 22.3822C15.8596 22.3822 13.838 19.6766 13.838 19.6766C12.8044 19.0002 12.3864 15.9602 12.3864 15.9602C11.8209 14.1751 11.5639 12.3066 11.6264 10.435C15.776 2.49303 20.6552 2.53103 26.2944 10.4578Z" fill="#F6C863"/>
<path d="M26.312 14.0905H25.8864C25.9814 13.0054 25.9405 11.9127 25.7648 10.8377C25.6451 9.9428 25.1983 9.12391 24.5108 8.53876C23.8232 7.95361 22.9434 7.64361 22.0408 7.66849C20.9848 7.72087 19.9436 7.93886 18.9552 8.31449C17.9694 7.9394 16.9307 7.72141 15.8772 7.66849C14.9764 7.64721 14.0994 7.95867 13.4138 8.54333C12.7282 9.12799 12.2821 9.94484 12.1608 10.8377C11.9687 11.9111 11.9303 13.0063 12.0468 14.0905H11.6136C11.6136 14.0905 10.2228 10.2373 10.6408 7.87369C10.9752 5.85209 11.4768 4.37009 12.5712 3.18449C12.6642 3.0801 12.786 3.00561 12.9213 2.97043C13.0566 2.93526 13.1992 2.94099 13.3312 2.98689C13.4579 3.03509 13.5952 3.04852 13.7288 3.0258C13.8625 3.00309 13.9876 2.94504 14.0912 2.85769C15.2488 1.79237 16.69 1.08496 18.2408 0.82089C19.4564 0.679206 20.6882 0.803685 21.8508 1.18569C22.8604 1.46526 23.8107 1.92624 24.6552 2.54609C26.2512 3.82289 26.8592 5.47209 27.2544 7.86609C27.6496 10.2601 26.312 14.0905 26.312 14.0905Z" fill="#575B6D"/>
<path d="M23.8874 22.3822C23.8874 23.6823 23.3709 24.9291 22.4516 25.8484C21.5323 26.7677 20.2855 27.2842 18.9854 27.2842C17.6853 27.2842 16.4385 26.7677 15.5191 25.8484C14.5998 24.9291 14.0834 23.6823 14.0834 22.3822V22.253L14.965 21.9566V22.3822C15.0099 23.4133 15.4512 24.3872 16.1966 25.1009C16.9421 25.8146 17.9343 26.213 18.9664 26.213C19.9984 26.213 20.9906 25.8146 21.7361 25.1009C22.4816 24.3872 22.9228 23.4133 22.9678 22.3822V21.9414L23.857 22.2454L23.8874 22.3822ZM8.23139 37.225L7.89699 37.2326L7.55499 37.2402V37.2326L7.47899 29.9214L4.49219 26.5242L4.59859 26.4026L7.83619 29.701L7.88939 29.7542L7.89699 29.8454L8.23139 37.225ZM29.7318 37.225L30.0662 37.2326L30.4082 37.2402V37.2326L30.4918 29.9214L33.471 26.5242L33.3646 26.4026L30.127 29.701L30.0738 29.7542L30.0662 29.8454L29.7318 37.225Z" fill="#419BE9"/>
</svg>
