<?xml version="1.0" encoding="utf-8"?>
<!-- Generator: Adobe Illustrator 24.3.0, SVG Export Plug-In . SVG Version: 6.00 Build 0)  -->
<svg version="1.1" id="Layer_1" xmlns="http://www.w3.org/2000/svg" xmlns:xlink="http://www.w3.org/1999/xlink" x="0px" y="0px"
	 viewBox="0 0 512 512" style="enable-background:new 0 0 512 512;" xml:space="preserve">
<style type="text/css">
	.st0{fill-rule:evenodd;clip-rule:evenodd;fill:#4FC0E8;}
	.st1{fill-rule:evenodd;clip-rule:evenodd;fill:#A4D4FF;}
	.st2{fill-rule:evenodd;clip-rule:evenodd;fill:#D5A889;}
	.st3{fill-rule:evenodd;clip-rule:evenodd;fill:#EFC7A4;}
	.st4{fill-rule:evenodd;clip-rule:evenodd;fill:#636C77;}
	.st5{fill-rule:evenodd;clip-rule:evenodd;fill:#424852;}
	.st6{fill-rule:evenodd;clip-rule:evenodd;fill:#E4E8EB;}
	.st7{fill-rule:evenodd;clip-rule:evenodd;fill:#FDCD56;}
	.st8{fill-rule:evenodd;clip-rule:evenodd;fill:#F4F6F8;}
	.st9{fill-rule:evenodd;clip-rule:evenodd;}
</style>
<g>
	<g>
		<path class="st0" d="M320.5,252.4h108c7,0,13.1,3.3,16.9,9.2l42,64.8c2.2,3.4,3.2,6.9,3.2,10.9v115.1H74.9v-80.6h245.6
			L320.5,252.4L320.5,252.4z"/>
		<path class="st1" d="M357.7,279.4v52.1H457l-33.7-52.1H357.7z"/>
		<path class="st2" d="M74.9,126.4h255.9l0,255.9H74.9V126.4z"/>
		<path class="st3" d="M172.8,126.4H233v60.1h-60.1V126.4z"/>
		<path class="st4" d="M494.6,434.7H74.9c-5.5,0-10.1,4.5-10.1,10.1v15.5c0,5.5,4.5,10.1,10.1,10.1h419.7c5.5,0,10.1-4.5,10.1-10.1
			v-15.5C504.7,439.2,500.2,434.7,494.6,434.7z"/>
		<circle class="st5" cx="399.2" cy="452.5" r="45.3"/>
		<circle class="st6" cx="399.2" cy="452.5" r="15.4"/>
		
			<ellipse transform="matrix(5.495017e-02 -0.9985 0.9985 5.495017e-02 -294.1475 593.2981)" class="st5" cx="166.3" cy="452" rx="45.3" ry="45.3"/>
		<circle class="st6" cx="166.2" cy="452.5" r="15.4"/>
		<circle class="st7" cx="423.7" cy="81.1" r="66.9"/>
		<ellipse transform="matrix(0.987 -0.1607 0.1607 0.987 -7.5771 69.16)" class="st8" cx="423.7" cy="81.4" rx="52.4" ry="52.4"/>
		<path class="st9" d="M402.7,103.2l10.9-18.9c-0.3-1-0.4-2.1-0.4-3.1c0-3.1,1.3-5.8,3.4-7.7V44.3c0-4,3.3-7.3,7.3-7.3
			c4,0,7.3,3.2,7.3,7.3v29.2c2,1.9,3.4,4.7,3.4,7.7c0,5-3.5,9.3-8.2,10.3l-10.9,18.9c-1.3,2.2-3.7,3.6-6.3,3.6c-1.3,0-2.5-0.3-3.6-1
			C401.9,111.1,400.7,106.7,402.7,103.2C402.7,103.2,402.7,103.2,402.7,103.2z M423.8,21.6c-32.9,0-59.6,26.8-59.6,59.7
			c0,32.9,26.7,59.6,59.6,59.6c32.9,0,59.6-26.8,59.6-59.6C483.4,48.3,456.7,21.6,423.8,21.6z M423.8,155.4
			c40.9,0,74.2-33.3,74.2-74.2C498,40.3,464.6,7,423.8,7c-40.9,0-74.2,33.3-74.2,74.2C349.6,122.1,382.9,155.4,423.8,155.4z
			 M386.1,356.1c0,4-3.2,7.2-7.2,7.3c0,0,0,0-0.1,0h-21.2c-4,0-7.3-3.2-7.3-7.3c0-4,3.3-7.3,7.3-7.3h21.2
			C382.9,348.8,386.1,352.1,386.1,356.1C386.1,356.1,386.1,356.1,386.1,356.1z M155.9,277.4v13.2l36.7-36.4l-36.7-36.4V231
			c0,4-3.2,7.3-7.2,7.3c0,0,0,0,0,0H38.2c-4,0-7.3-3.2-7.3-7.2c0,0,0,0,0,0c0-4,3.2-7.2,7.2-7.3c0,0,0,0,0.1,0h103.2v-23.4
			c0-2.9,1.7-5.6,4.4-6.7c2.7-1.1,5.8-0.5,7.9,1.5L208,249c1.4,1.4,2.1,3.2,2.1,5.2c0,1.9-0.8,3.8-2.1,5.1l-54.3,53.8
			c-1.4,1.4-3.2,2.1-5.1,2.1c-1,0-1.9-0.2-2.8-0.6c-2.7-1.1-4.4-3.8-4.4-6.7v-23.4H38.2c-4,0-7.3-3.2-7.3-7.3s3.2-7.3,7.3-7.3h110.4
			C152.6,270.1,155.9,273.3,155.9,277.4C155.9,277.3,155.9,277.3,155.9,277.4L155.9,277.4z M166.3,460.5c-4.5,0-8.1-3.6-8.1-8.1
			c0-4.5,3.6-8.1,8.1-8.1c4.5,0,8.1,3.6,8.1,8.1S170.8,460.5,166.3,460.5z M166.3,429.7c-12.5,0-22.6,10.2-22.6,22.6
			c0,12.5,10.1,22.6,22.6,22.6c12.5,0,22.6-10.1,22.6-22.6C188.9,439.9,178.8,429.7,166.3,429.7z M399.3,460.5
			c-4.5,0-8.1-3.6-8.1-8.1c0-4.5,3.6-8.1,8.1-8.1c4.5,0,8.1,3.6,8.1,8.1S403.8,460.5,399.3,460.5z M399.3,429.7
			c-12.5,0-22.6,10.2-22.6,22.6c0,12.5,10.1,22.6,22.6,22.6c12.5,0,22.6-10.1,22.6-22.6C422,439.9,411.8,429.7,399.3,429.7z
			 M497.5,460.1c0,1.6-1.3,2.8-2.8,2.8h-43.8c0.7-3.4,1.1-7,1.1-10.6c0-3.6-0.3-7.2-1.1-10.6h43.8c1.5,0,2.8,1.3,2.8,2.8V460.1z
			 M399.3,490.4c21,0,38.1-17.1,38.1-38.1c0-21-17.1-38.1-38.1-38.1c-21,0-38.1,17.1-38.1,38.1C361.3,473.4,378.4,490.4,399.3,490.4
			z M217.8,463c0.7-3.5,1-7,1-10.6c0-3.6-0.3-7.2-1-10.6h130c-0.7,3.4-1.1,7-1.1,10.6c0,3.6,0.3,7.2,1.1,10.6H217.8z M166.3,490.4
			c21,0,38.1-17.1,38.1-38.1c0-21-17.1-38.1-38.1-38.1c-21,0-38.1,17.1-38.1,38.1C128.2,473.4,145.3,490.4,166.3,490.4z M75,463
			c-1.5,0-2.8-1.3-2.8-2.8v-15.5c0-1.5,1.3-2.8,2.8-2.8h39.8c-0.7,3.4-1.1,7-1.1,10.6c0,3.6,0.3,7.2,1.1,10.6H75z M323.7,389.4v37.9
			H212.5c-8.9-16.4-26.3-27.5-46.2-27.5c-19.9,0-37.3,11.1-46.2,27.5H82.2v-37.9H323.7z M428.6,259.5h-90.4v167.7h15
			c8.9-16.4,26.3-27.5,46.2-27.5c19.9,0,37.3,11.1,46.2,27.5h37.8v-63.9h-13.9c-4,0-7.2-3.2-7.2-7.3c0-4,3.2-7.3,7.2-7.3h13.9v-11.6
			c0-2.7-0.6-4.8-2-7l-42-64.8C436.9,261.6,433.1,259.5,428.6,259.5L428.6,259.5z M225.7,179.1h-45.6v-45.6h45.6V179.1z M498,427.6
			c7.9,1.5,14,8.6,14,17v15.5c0,9.6-7.8,17.3-17.3,17.3h-49.1c-8.9,16.4-26.3,27.5-46.2,27.5c-19.9,0-37.3-11.1-46.2-27.5H212.5
			c-8.9,16.4-26.3,27.5-46.2,27.5c-19.9,0-37.3-11.1-46.2-27.5H75c-9.6,0-17.3-7.8-17.3-17.3v-15.5c0-7,4.1-13,10.1-15.7V330H7.3
			c-4,0-7.3-3.3-7.3-7.3c0-4,3.3-7.3,7.3-7.3h60.5v-7.9c0-4,3.2-7.3,7.2-7.3c4,0,7.3,3.2,7.3,7.2c0,0,0,0,0,0v7.9h34.1
			c4,0,7.2,3.2,7.3,7.2c0,0,0,0,0,0.1c0,4-3.2,7.2-7.2,7.3c0,0,0,0,0,0H82.2v44.9h241.4V133.5h-83.4v52.9c0,4-3.3,7.3-7.3,7.3h-60.1
			c-4,0-7.3-3.3-7.3-7.3v-52.9H82.2v44.9h34.1c4,0,7.3,3.2,7.3,7.2c0,0,0,0,0,0c0,4-3.2,7.2-7.2,7.3c0,0,0,0-0.1,0H82.2v7.9
			c0,4-3.2,7.2-7.2,7.3c0,0,0,0,0,0c-4,0-7.2-3.3-7.2-7.3v-7.9H7.3c-4,0-7.3-3.2-7.3-7.3c0-4,3.3-7.3,7.3-7.3h60.5v-52.1
			c0-4,3.2-7.3,7.2-7.3h255.9c4,0,7.3,3.2,7.3,7.2c0,0,0,0,0,0V245h90.4c9.5,0,17.8,4.6,23,12.5l42,64.8c3,4.6,4.4,9.4,4.4,14.9
			V427.6z M365,286.5h54.4l24.3,37.5H365L365,286.5L365,286.5z M357.7,338.6c-4,0-7.3-3.3-7.3-7.3v-52.1c0-4,3.3-7.3,7.3-7.3h65.6
			c2.5,0,4.8,1.2,6.1,3.3l33.7,52.1c1.5,2.2,1.6,5.1,0.3,7.4c-1.3,2.3-3.7,3.8-6.4,3.8H357.7z"/>
	</g>
</g>
</svg>
