<?xml version="1.0" encoding="utf-8"?>
<!-- Generator: Adobe Illustrator 24.3.0, SVG Export Plug-In . SVG Version: 6.00 Build 0)  -->
<svg version="1.1" id="Layer_1" xmlns="http://www.w3.org/2000/svg" xmlns:xlink="http://www.w3.org/1999/xlink" x="0px" y="0px"
	 viewBox="0 0 4300 3794.3" style="enable-background:new 0 0 4300 3794.3;" xml:space="preserve">
<style type="text/css">
	.st0{clip-path:url(#SVGID_6_);}
	.st1{clip-path:url(#SVGID_7_);fill:url(#SVGID_8_);}
	.st2{fill:url(#SVGID_9_);}
	.st3{clip-path:url(#SVGID_12_);}
	.st4{clip-path:url(#SVGID_13_);fill:url(#SVGID_14_);}
	.st5{fill:url(#SVGID_15_);}
	.st6{fill:#373A50;}
	.st7{clip-path:url(#SVGID_18_);}
	.st8{clip-path:url(#SVGID_19_);fill:url(#SVGID_20_);}
	.st9{fill:url(#SVGID_21_);}
	.st10{fill:#FFDAD9;}
	.st11{fill:#5062EB;}
	.st12{fill:#657BFF;}
	.st13{fill:#C70000;}
	.st14{fill:#FF4129;}
	.st15{fill:#111228;}
	.st16{fill:#FECDCB;}
	.st17{fill:#FFFFFF;}
	.st18{fill:url(#SVGID_22_);}
	.st19{opacity:3.000000e-02;fill:#111228;enable-background:new    ;}
	.st20{fill:url(#SVGID_23_);}
	.st21{fill:url(#SVGID_24_);}
	.st22{fill:url(#SVGID_25_);}
	.st23{fill:url(#SVGID_26_);}
	.st24{fill:url(#SVGID_27_);}
	.st25{fill:#FADF68;}
	.st26{fill:#EBF2FF;}
	.st27{fill:#B2C7FF;}
	.st28{fill:url(#SVGID_28_);}
	.st29{fill:url(#SVGID_29_);}
	.st30{fill:url(#SVGID_30_);}
	.st31{fill:url(#SVGID_31_);}
	.st32{fill:url(#SVGID_32_);}
	.st33{fill:url(#SVGID_33_);}
	.st34{fill:url(#SVGID_34_);}
	.st35{fill:url(#SVGID_35_);}
	.st36{fill:url(#SVGID_36_);}
	.st37{fill:url(#SVGID_37_);}
	.st38{fill:url(#SVGID_38_);}
	.st39{fill:url(#SVGID_39_);}
	.st40{fill:url(#SVGID_40_);}
	.st41{fill:url(#SVGID_41_);}
	.st42{fill:#3DCFA4;}
	.st43{fill:#30BB93;}
	.st44{fill:url(#SVGID_42_);}
	.st45{fill:url(#SVGID_43_);}
</style>
<g id="Software_Development">
	<g>
		<g>
			<g>
				<g>
					<defs>
						<polygon id="SVGID_1_" points="1,1 2,1 1,2 						"/>
					</defs>
					<defs>
						<polygon id="SVGID_4_" points="-1,-1 -2,-1 -1,-2 						"/>
					</defs>
					<clipPath id="SVGID_6_">
						<use xlink:href="#SVGID_1_"  style="overflow:visible;"/>
					</clipPath>
					<clipPath id="SVGID_7_" class="st0">
						<use xlink:href="#SVGID_4_"  style="overflow:visible;"/>
					</clipPath>
					
						<linearGradient id="SVGID_8_" gradientUnits="userSpaceOnUse" x1="408.3768" y1="3517.7002" x2="798.0015" y2="2777.4121" gradientTransform="matrix(1 0 0 -1 0 3794)">
						<stop  offset="0" style="stop-color:#000000"/>
						<stop  offset="1" style="stop-color:#FFFFFF"/>
					</linearGradient>
					<path class="st1" d="M1235.5,525.4c-30.3,164.1-122.6,298-234.8,402.6c-220.3,205.5-524.7,310.2-845.4,290.9
						c-40.5-2.4-86-9.2-117.3-42.9c-40.8-43.9-36.6-109.5-26.1-162.3c54.2-271.5,183-512,368.3-687.5
						C514.2,199.2,677.5,106.5,857,54c62.6-18.3,152.5-54.5,224.9-27.5c71.7,26.8,108.5,119.3,131,187.9
						C1247,318.4,1253.6,427.3,1235.5,525.4z"/>
				</g>
			</g>
			
				<linearGradient id="SVGID_9_" gradientUnits="userSpaceOnUse" x1="408.3768" y1="3517.7002" x2="798.0015" y2="2777.4121" gradientTransform="matrix(1 0 0 -1 0 3794)">
				<stop  offset="0" style="stop-color:#83BDFF"/>
				<stop  offset="1" style="stop-color:#3B97FF"/>
			</linearGradient>
			<path class="st2" d="M1235.5,525.4c-30.3,164.1-122.6,298-234.8,402.6c-220.3,205.5-524.7,310.2-845.4,290.9
				c-40.5-2.4-86-9.2-117.3-42.9c-40.8-43.9-36.6-109.5-26.1-162.3c54.2-271.5,183-512,368.3-687.5C514.2,199.2,677.5,106.5,857,54
				c62.6-18.3,152.5-54.5,224.9-27.5c71.7,26.8,108.5,119.3,131,187.9C1247,318.4,1253.6,427.3,1235.5,525.4z"/>
			<g>
				<g>
					<defs>
						<polygon id="SVGID_10_" points="1,1 2,1 1,2 						"/>
					</defs>
					<defs>
						<polygon id="SVGID_11_" points="-1,-1 -2,-1 -1,-2 						"/>
					</defs>
					<clipPath id="SVGID_12_">
						<use xlink:href="#SVGID_10_"  style="overflow:visible;"/>
					</clipPath>
					<clipPath id="SVGID_13_" class="st3">
						<use xlink:href="#SVGID_11_"  style="overflow:visible;"/>
					</clipPath>
					
						<linearGradient id="SVGID_14_" gradientUnits="userSpaceOnUse" x1="1762.0465" y1="3889.6028" x2="2118.959" y2="2341.229" gradientTransform="matrix(1 0 0 -1 0 3794)">
						<stop  offset="0" style="stop-color:#000000"/>
						<stop  offset="1" style="stop-color:#FFFFFF"/>
					</linearGradient>
					<path class="st4" d="M3953.6,2786.9c196.3,0.8,353.7-162,346.1-358.2c-7.9-204.8-246.9-421.3-249.5-714
						c-5.4-619.8,204.3-1360.2-24.4-1501.9c-310-192.1-1968.3-228.7-2099.2-210c-113.1,16.2-232.5-28.6-329.8,36.8
						c-184.7,123.9-205.3,407-282,632.6c-99.1,292.3-327.6,525.3-596.7,607.6c-137.5,42.5-81,75.4-221.7,101.8
						c-140.8,26.4-284.8,79.6-381.7,197.2c-130.1,158-145.3,407.6-67.6,604c77.7,196.1,324.8,578.6,465.5,616.4L3953.6,2786.9z"/>
				</g>
			</g>
			<linearGradient id="SVGID_15_" gradientUnits="userSpaceOnUse" x1="-0.1399" y1="1398.8276" x2="4299.9644" y2="1398.8276">
				<stop  offset="0" style="stop-color:#83BDFF"/>
				<stop  offset="1" style="stop-color:#3B97FF"/>
			</linearGradient>
			<path class="st5" d="M3953.6,2786.9c196.3,0.8,353.7-162,346.1-358.2c-7.9-204.8-246.9-421.3-249.5-714
				c-5.4-619.8,204.3-1360.2-24.4-1501.9c-310-192.1-1968.3-228.7-2099.2-210c-113.1,16.2-232.5-28.6-329.8,36.8
				c-184.7,123.9-205.3,407-282,632.6c-99.1,292.3-327.6,525.3-596.7,607.6c-137.5,42.5-81,75.4-221.7,101.8
				c-140.8,26.4-284.8,79.6-381.7,197.2c-130.1,158-145.3,407.6-67.6,604c77.7,196.1,324.8,578.6,465.5,616.4L3953.6,2786.9z"/>
			<g>
				<path class="st6" d="M602.8,1677.4h-50.4v-8.4h50.4V1677.4z M502,1677.4h-50.4v-8.4H502V1677.4z M401.2,1677.4h-50.4v-8.4h50.4
					V1677.4z M300.4,1677.4h-47.8c-0.9,0-1.8,0-2.7,0l0.3-8.4h2.4h47.8V1677.4z M201.4,1657.9c-13.4-11.9-22.3-28.2-24.9-45.9
					l8.3-1.3c2.4,15.7,10.3,30.2,22.2,40.9L201.4,1657.9z M174.6,1561.2l-1.2-50.4l8.4-0.2l1.2,50.4L174.6,1561.2z M172.2,1460.4
					L171,1410l8.4-0.2l1.2,50.4L172.2,1460.4z M169.7,1359.7l-1.2-50.4l8.4-0.2l1.2,50.4L169.7,1359.7z M176.2,1259.3l-8.3-0.9
					c2-17.8,10.2-34.4,23.1-46.9l5.8,6C185.3,1228.7,178,1243.5,176.2,1259.3z M239.2,1198.5l-0.6-8.4c1.9-0.1,3.8-0.2,5.8-0.2h44.9
					v8.4h-44.9C242.6,1198.3,240.9,1198.4,239.2,1198.5z M3262.3,1198.3v-8.4c23.9-0.6,33.4,1.7,48.8-3.1l2.5,8
					C3296.6,1200.2,3285.2,1197.7,3262.3,1198.3z M3212,1198.3h-50.4v-8.4h50.4V1198.3z M3111.2,1198.3h-50.4v-8.4h50.4V1198.3z
					 M3010.4,1198.3H2960v-8.4h50.4V1198.3z M2909.6,1198.3h-50.4v-8.4h50.4V1198.3z M2808.8,1198.3h-50.4v-8.4h50.4V1198.3z
					 M2708,1198.3h-50.4v-8.4h50.4V1198.3z M2607.3,1198.3h-50.4v-8.4h50.4V1198.3z M2506.5,1198.3h-50.4v-8.4h50.4V1198.3z
					 M2405.7,1198.3h-50.4v-8.4h50.4V1198.3z M2304.9,1198.3h-50.4v-8.4h50.4V1198.3z M2204.1,1198.3h-50.4v-8.4h50.4V1198.3z
					 M2103.4,1198.3H2053v-8.4h50.4V1198.3z M2002.6,1198.3h-50.4v-8.4h50.4V1198.3z M1901.8,1198.3h-50.4v-8.4h50.4V1198.3z
					 M1801,1198.3h-50.4v-8.4h50.4V1198.3z M1700.2,1198.3h-50.4v-8.4h50.4V1198.3z M1599.5,1198.3h-50.4v-8.4h50.4V1198.3z
					 M1498.7,1198.3h-50.4v-8.4h50.4V1198.3z M1397.9,1198.3h-50.4v-8.4h50.4V1198.3z M1297.1,1198.3h-50.4v-8.4h50.4V1198.3z
					 M1196.3,1198.3h-50.4v-8.4h50.4V1198.3z M1095.5,1198.3h-50.4v-8.4h50.4V1198.3z M994.8,1198.3h-50.4v-8.4h50.4V1198.3z
					 M894,1198.3h-50.4v-8.4H894V1198.3z M793.2,1198.3h-50.4v-8.4h50.4V1198.3z M692.4,1198.3H642v-8.4h50.4V1198.3z M591.6,1198.3
					h-50.4v-8.4h50.4V1198.3z M490.9,1198.3h-50.4v-8.4h50.4V1198.3z M390.1,1198.3h-50.4v-8.4h50.4V1198.3z M3355.2,1163.2
					l-7.1-4.6c13.4-20.7,10.5-39.8,11.3-46l8.4,0.3C3367,1118.9,3370.1,1140.1,3355.2,1163.2z M3369.4,1062.5l-8.4-0.3l1.6-50.4
					l8.4,0.3L3369.4,1062.5z M3372.4,961.8l-8.4-0.3l1.6-50.4l8.4,0.3L3372.4,961.8z M3375.5,861l-8.4-0.3l1.6-50.4l8.4,0.3
					L3375.5,861z"/>
			</g>
			<g>
				<g>
					<defs>
						<polygon id="SVGID_16_" points="1,1 2,1 1,2 						"/>
					</defs>
					<defs>
						<polygon id="SVGID_17_" points="-1,-1 -2,-1 -1,-2 						"/>
					</defs>
					<clipPath id="SVGID_18_">
						<use xlink:href="#SVGID_16_"  style="overflow:visible;"/>
					</clipPath>
					<clipPath id="SVGID_19_" class="st7">
						<use xlink:href="#SVGID_17_"  style="overflow:visible;"/>
					</clipPath>
					
						<linearGradient id="SVGID_20_" gradientUnits="userSpaceOnUse" x1="2158.0598" y1="98.7896" x2="2158.0598" y2="1353.5669" gradientTransform="matrix(1 0 0 -1 0 3794)">
						<stop  offset="0" style="stop-color:#000000"/>
						<stop  offset="1" style="stop-color:#FFFFFF"/>
					</linearGradient>
					<path class="st8" d="M4171.4,3451.1c-118.6,174.1-1028.1,342.5-1766,343.2c-457.5,0.5-1767.4-93.5-1834.5-305.8
						c-67-212.5,603.2-233,605.3-364.3c2.2-131.4-1047.4-98.6-1057.9-222.3c-10.6-123.6,918.3-130.9,1240.6-128.1
						c576,5.1,1922.3,4.3,2498,21.2c99.8,3,211.2,49.6,234.4,157.8c23.2,108.1-169.3,174.2-143.7,263
						C3973.2,3304.6,4290.1,3277,4171.4,3451.1z"/>
				</g>
			</g>
			
				<linearGradient id="SVGID_21_" gradientUnits="userSpaceOnUse" x1="2158.0598" y1="98.7896" x2="2158.0598" y2="1353.5669" gradientTransform="matrix(1 0 0 -1 0 3794)">
				<stop  offset="0" style="stop-color:#83BDFF"/>
				<stop  offset="1" style="stop-color:#3B97FF"/>
			</linearGradient>
			<path class="st9" d="M4171.4,3451.1c-118.6,174.1-1028.1,342.5-1766,343.2c-457.5,0.5-1767.4-93.5-1834.5-305.8
				c-67-212.5,603.2-233,605.3-364.3c2.2-131.4-1047.4-98.6-1057.9-222.3c-10.6-123.6,918.3-130.9,1240.6-128.1
				c576,5.1,1922.3,4.3,2498,21.2c99.8,3,211.2,49.6,234.4,157.8c23.2,108.1-169.3,174.2-143.7,263
				C3973.2,3304.6,4290.1,3277,4171.4,3451.1z"/>
		</g>
		<g>
			<g>
				<g>
					<path class="st10" d="M3138,3424.9l2.2,106.6c0.1,0.5,0.5,0.9,1.1,0.9l115.3-1.3l5.6-54.8l5-47.8L3138,3424.9z"/>
					<path class="st6" d="M3002.6,3639.5c0,0.8,0.1,1.6,0.1,2.4c0.2,2.1,1.9,3.8,4,3.8c26.7,0.3,171.5,2.7,245.1,0.3
						c17.9-0.6,31-17.1,27.6-34.7l-20-83.5l-119-5.2c-0.3,0-0.4,0-0.6,0.2l-96.4,64.9C3019.3,3599.8,3002.6,3615.3,3002.6,3639.5z"
						/>
				</g>
				<g>
					<g>
						<g>
							<rect x="3917.7" y="2810.3" class="st6" width="63.4" height="812.8"/>
							<rect x="3121.3" y="2810.3" class="st6" width="63.4" height="812.8"/>
						</g>
						<path class="st6" d="M4121.8,2840.6v13.6c0,13.8-11.2,25-25,25H3027.5c-13.8,0-25-11.2-25-25v-13.6
							c0-32.8,26.7-59.5,59.6-59.5h1000C4095.1,2781.1,4121.8,2807.8,4121.8,2840.6z"/>
						<rect x="3184.7" y="3148.5" class="st6" width="733" height="55.4"/>
					</g>
					<path class="st11" d="M3293.5,3457.4l22.8-675.4l368.4-50.5l233-328l-291.1,18.6c0,0-403.2-9-516,91.2
						c-95.1,84.5-9.7,748.1,10.1,947.9C3121.1,3477.4,3293.9,3473.5,3293.5,3457.4z"/>
					<g>
						<path class="st10" d="M3455.7,3424.9l2.2,106.6c0.1,0.5,0.5,0.9,1.1,0.9l115.3-1.3l5.6-54.8l5-47.8L3455.7,3424.9z"/>
						<path class="st6" d="M3320.2,3639.5c0,0.8,0.1,1.6,0.1,2.4c0.2,2.1,1.9,3.8,4,3.8c26.7,0.3,171.5,2.7,245.1,0.3
							c17.9-0.6,31-17.1,27.6-34.7l-20-83.5l-119-5.2c-0.3,0-0.4,0-0.6,0.2l-96.4,64.9C3337,3599.8,3320.2,3615.3,3320.2,3639.5z"/>
					</g>
					<path class="st12" d="M3940.7,2420.7c0,0-438.4,22.1-554.4,115.6c-88.7,71.5,0.3,689,47.8,921.1c0.4,16.8,163.9,12.8,163.5-4
						l52.7-673.9h294.4c117.6,0,212.9-95.3,212.9-212.9v-172.3L3940.7,2420.7z"/>
					<polygon class="st10" points="3530.5,1883.7 3424.7,2270.2 3629.1,2270.2 3666.1,1854.9 					"/>
					<path class="st13" d="M3637.3,1613c-59.9,59.7-145.8,292-145.8,292l184.7,84.9l43.2-162.3
						C3719.3,1827.6,3678,1572.4,3637.3,1613z"/>
					<path class="st14" d="M4175.9,2405.2c-2,26.7-113.4,44.8-235.5,51.2c-150.1,8.1-316.2-1.4-313.8-34.2
						c0,0-60.8-728.7,10.7-809.3c80.5-90.8,464.4-105.3,519.2,4.6c12.3,24.7,14.7,84.9,12.2,155.7c-4.5,136.2-26.4,311.8-27.9,351.7
						C4138.4,2191,4175.9,2405.2,4175.9,2405.2z"/>
					<path class="st13" d="M4175.9,2405.2c-2,26.7-113.4,44.8-235.5,51.2c2.8-1.3,5.5-2.8,8.2-4.2c60.5-32.6,113.3-85.9,129.1-152.7
						c19.5-81.8-18.4-164.7-40.5-245.9c-11.3-41.3-18.4-83.8-21.4-126.5c-5.4-77,2.5-155,23.5-229.3c4.2-14.8,5.9-32.9,23.2-20.3
						c11.9,8.7,19.6,25.5,30.1,36.2c22.7,23.1,50.1,40.7,76.1,59.7c-4.5,136.2-26.4,311.8-27.9,351.7
						C4138.4,2191,4175.9,2405.2,4175.9,2405.2z"/>
					<path class="st10" d="M3827.7,2304.8c0,0-74.4-46.1-78.7-20.7s35.4,40.1,35.4,40.1s-119.8,14.2-93,70.2s41,52.8,61.1,47.1
						s24.4-22.8,24.4-22.8s52-7.4,94.5-22.7"/>
					<path class="st10" d="M4258.1,1872.7c0,0,59.5,222.9,30.2,277.5c-46,85.7-416.8,245.7-416.8,245.7l-43.7-91.1l286.5-246.9
						l-42.6-143.1L4258.1,1872.7z"/>
					<g>
						<path class="st6" d="M3098.9,2330.7h-50.4v-8.4h50.4V2330.7z M2998.1,2330.7h-50.4v-8.4h50.4V2330.7z M2897.3,2330.7h-50.4
							v-8.4h50.4V2330.7z M2796.5,2330.7h-50.4v-8.4h50.4V2330.7z M2695.7,2330.7h-50.4v-8.4h50.4V2330.7z M2595,2330.7h-50.4v-8.4
							h50.4V2330.7z M2494.2,2330.7h-50.4v-8.4h50.4V2330.7z M2393.4,2330.7H2343v-8.4h50.4V2330.7z M2292.5,2318.6
							c-15.4-9-27.6-22.3-35.2-38.4l7.6-3.6c6.9,14.6,17.9,26.6,31.8,34.8L2292.5,2318.6z M2248,2229.5l-3-50.3l8.4-0.5l3,50.3
							L2248,2229.5z M2242.1,2128.9l-3-50.3l8.4-0.5l3,50.3L2242.1,2128.9z M2236.2,2028.3l-3-50.3l8.4-0.5l3,50.3L2236.2,2028.3z
							 M2230.3,1927.7l-3-50.3l8.4-0.5l3,50.3L2230.3,1927.7z M2224.3,1827.1l-0.7-12.1l8.4-0.5l0.7,12.1L2224.3,1827.1z"/>
					</g>
					<polygon class="st6" points="3702.7,2486.6 3121.6,2486.6 2973.7,1976.8 3550.1,1976.8 					"/>
					<path class="st15" d="M3943.5,2454.4h-216.8l-176.6-477.7l152.6,509.8h240.8c8.9,0,16-7.2,16-16l0,0
						C3959.6,2461.6,3952.4,2454.4,3943.5,2454.4z"/>
					<path class="st10" d="M3917.1,1335.5L3917.1,1335.5c-0.1,0.1-0.1,0.2-0.2,0.5c0,0.1-0.1,0.3-0.1,0.6c-0.4,1.6-1.3,4.8-2.7,9.3
						c-0.1,0.5-0.3,1-0.5,1.5c-2.1,6.9-6.9,19.8-10,27.1c-15.1,35.7-44.1,86-92.7,107c-16.4,7.1-35.5,15.9-56.6,14.6
						c-54.3-3.2-82-102.8-96.2-188.1c-11.9-71.1-14.2-135.8-14.2-135.8l140.7-58.9l92.3,173.9c0,0,29.7-47.5,51.9-24.5
						C3950.8,1285.7,3917.1,1335.5,3917.1,1335.5z"/>
					<path class="st15" d="M3927.5,1477.8c-14.2-62.8-16.8-121.7-16.8-121.7s40.2-70.4,18-93.4s-51.9,24.5-51.9,24.5
						c1.4,6.5,5.9,39.9-8.6,39.4c-20.9-0.7-40.3-88.3-40.3-88.3c-36.6,28.1-155.4-6.7-155.4-6.7c-22.9,34.1-14.5,76.3-14.5,76.3
						s-50.2-28.8-71.8-91.4s43.2-136,109.4-167c66.2-31.1,123,23.2,159,36.8c36,13.7,62.3-11.9,140,27
						C4072.2,1152.2,3927.5,1477.8,3927.5,1477.8z"/>
					<path class="st10" d="M3952.9,1540.9c0,0-34.7,117.3-119.1,122c-84.4,4.7-38-113.6-38-113.6s2.4-7.6,5.3-19.1
						c3.2-12.8,7.1-30.5,9-48.1c25.8-11.1,45.7-30.9,60.7-52.1c18.6-26.2,33.5-61.2,39.7-85.9c0.1-0.1,0.1-0.1,0.1-0.1
						s2.6,71.1,16,130.5C3932.9,1501.8,3941.3,1526.7,3952.9,1540.9z"/>
					<path class="st14" d="M4116,1578.6c119,57.6,176.7,313.8,176.7,313.8c11,27.9-214.6,112.2-225.7,84.3
						c0,0-36.2-145.8-45.2-197.6C4007.3,1696.2,4068.7,1555.8,4116,1578.6z"/>
					
						<ellipse transform="matrix(0.8913 -0.4535 0.4535 0.8913 -670.3499 1748.7634)" class="st15" cx="3311.5" cy="2272.2" rx="37.4" ry="57.4"/>
					<path class="st16" d="M3871,1429.9c-0.8,1.9-1.7,3.8-2.9,5.9c-23.2,40.4-66.9,94.4-66.9,94.4c3.2-12.8,7.1-30.5,9-48.1
						C3836,1470.9,3855.9,1451.1,3871,1429.9z"/>
				</g>
				<g>
					
						<ellipse transform="matrix(2.628008e-02 -0.9997 0.9997 2.628008e-02 2370.157 5043.6489)" class="st15" cx="3774.1" cy="1305.2" rx="14.9" ry="10.7"/>
					
						<ellipse transform="matrix(2.626785e-02 -0.9997 0.9997 2.626785e-02 2280.1956 4970.1504)" class="st15" cx="3691.3" cy="1314.6" rx="14.9" ry="10.7"/>
					<path class="st15" d="M3681.5,1295.2c1.2-2.5,2.7-4.8,4.9-6.8c4.8-4.5,11.9-4.8,16.8,0c1.9,2.2,3.4,4.5,4.7,7
						c-2.5-1.3-4.6-3-6.6-4.4c-4.5-2.4-7.5-2.7-13,0.1C3686,1292.2,3683.9,1293.8,3681.5,1295.2z"/>
					<path class="st15" d="M3761.9,1283.8c1.2-2.5,2.7-4.8,4.9-6.8c4.9-4.5,11.9-4.8,16.8,0c1.9,2.2,3.4,4.5,4.7,7
						c-2.5-1.3-4.6-3-6.6-4.4c-4.5-2.4-7.5-2.7-13,0.1C3766.5,1280.8,3764.3,1282.4,3761.9,1283.8z"/>
					<path class="st15" d="M3729.5,1302.8c2,9.5,6.7,37.3,5.2,48.1c-1.6,10.8-8.6,15.1-9.4,21.8c-0.7,7.3,6.1,13.4,12.3,18.1
						c-3.6-1.8-7.2-3.8-10.2-6.6c-2.9-2.9-5.3-7-5.3-11.6c0.1-7.9,7-11.9,8.5-22.3C3732.1,1340.6,3729.2,1325.9,3729.5,1302.8z"/>
					<path class="st17" d="M3775.5,1418.3c0,0.2,0.1,0.5,0.2,0.7c1.8,15.7-9.5,29.9-25.2,31.7c-15.7,1.8-29.9-9.5-31.7-25.2
						c0-0.2,0-0.5,0-0.7C3736.1,1420.2,3755.5,1420.1,3775.5,1418.3z"/>
				</g>
			</g>
			<g>
				<g>
					
						<linearGradient id="SVGID_22_" gradientUnits="userSpaceOnUse" x1="761.0667" y1="2672.05" x2="669.828" y2="2672.05" gradientTransform="matrix(1 0 0 -1 0 3794)">
						<stop  offset="0" style="stop-color:#D1DEFF"/>
						<stop  offset="1" style="stop-color:#B2C7FF"/>
					</linearGradient>
					<path class="st18" d="M856.7,192.7v1858.6h-47.6c-72.9,0-132-59.2-132-132.1V324.8c0-73.1,59.1-132.2,132-132.2h47.6V192.7z"/>
					<path class="st17" d="M2790.9,324.8v1594.3c0,72.9-59.1,132.2-132.2,132.2H855.1c-72.9,0-132-59.2-132-132.2V324.8
						c0-73,59-132.2,132-132.2h1803.6C2731.8,192.7,2790.9,251.8,2790.9,324.8z"/>
					<path class="st19" d="M2790.9,350.4v920.3H1700.7c-35.5,0-64.1-28.8-64.1-64.3v-792c0-35.3,28.6-64,64.1-64L2790.9,350.4
						L2790.9,350.4z"/>
					
						<linearGradient id="SVGID_23_" gradientUnits="userSpaceOnUse" x1="797.1" y1="3489.3999" x2="864.2" y2="3489.3999" gradientTransform="matrix(1 0 0 -1 0 3794)">
						<stop  offset="0" style="stop-color:#F34B6D"/>
						<stop  offset="1" style="stop-color:#E24067"/>
					</linearGradient>
					<path class="st20" d="M864.2,304.6c0,18.6-15,33.6-33.6,33.6c-18.5,0-33.5-15-33.5-33.6s15-33.6,33.5-33.6
						C849.2,271.1,864.2,286.1,864.2,304.6z"/>
					
						<linearGradient id="SVGID_24_" gradientUnits="userSpaceOnUse" x1="888.5" y1="3489.3999" x2="955.6" y2="3489.3999" gradientTransform="matrix(1 0 0 -1 0 3794)">
						<stop  offset="0" style="stop-color:#FADF68"/>
						<stop  offset="1" style="stop-color:#EAC250"/>
					</linearGradient>
					<path class="st21" d="M955.6,304.6c0,18.6-15,33.6-33.6,33.6c-18.5,0-33.5-15-33.5-33.6s15-33.6,33.5-33.6
						C940.5,271.1,955.6,286.1,955.6,304.6z"/>
					
						<linearGradient id="SVGID_25_" gradientUnits="userSpaceOnUse" x1="979.8" y1="3489.3999" x2="1046.9" y2="3489.3999" gradientTransform="matrix(1 0 0 -1 0 3794)">
						<stop  offset="0" style="stop-color:#3DCFA4"/>
						<stop  offset="1" style="stop-color:#30BB93"/>
					</linearGradient>
					<path class="st22" d="M1046.9,304.6c0,18.6-15,33.6-33.6,33.6c-18.5,0-33.5-15-33.5-33.6s15-33.6,33.5-33.6
						C1031.9,271.1,1046.9,286.1,1046.9,304.6z"/>
				</g>
				
					<linearGradient id="SVGID_26_" gradientUnits="userSpaceOnUse" x1="476.1295" y1="2905.45" x2="455.2332" y2="2905.45" gradientTransform="matrix(1 0 0 -1 0 3794)">
					<stop  offset="0" style="stop-color:#909EFF"/>
					<stop  offset="1" style="stop-color:#6977E3"/>
				</linearGradient>
				<path class="st23" d="M480.4,479.7v817.7h-33.7c-14.5,0-26.3-11.8-26.3-26.3v-765c0-14.5,11.8-26.3,26.3-26.3h33.7V479.7z"/>
				<path class="st19" d="M1521.2,543.3v765c0,14.5-11.8,26.3-26.3,26.3H723.2V517H1495C1509.5,517,1521.2,528.8,1521.2,543.3z"/>
				
					<linearGradient id="SVGID_27_" gradientUnits="userSpaceOnUse" x1="813.6248" y1="3086.8418" x2="1108.5514" y2="2734.0159" gradientTransform="matrix(1 0 0 -1 0 3794)">
					<stop  offset="0" style="stop-color:#909EFF"/>
					<stop  offset="1" style="stop-color:#6977E3"/>
				</linearGradient>
				<path class="st24" d="M1464.6,1297.4H465.8c-11.6,0-21-9.4-21-21V500.7c0-11.6,9.4-21,21-21h998.9c11.6,0,21,9.4,21,21v775.7
					C1485.6,1288,1476.2,1297.4,1464.6,1297.4z"/>
				<g>
					<path class="st25" d="M794,991.6l64.5,101.5c-152.6,86.4-348.9-23.1-348.9-204.6c0-171,176.5-282.5,329.5-214.4l-54.8,107.3
						c-76-27.7-154.6,28-154.6,107.1C629.7,972.4,716.9,1028.2,794,991.6z"/>
					<path class="st17" d="M880.5,1079.2L816,977.5c27.9-22.5,45-57.5,42.1-98.5l118-23.7C989.1,935.8,955.2,1025.8,880.5,1079.2z"
						/>
					<path class="st14" d="M807.5,793.3l54.7-107.2c53.3,31,93.1,82.4,109,143.6L853,853.5C845,828.5,828.6,807.6,807.5,793.3z"/>
				</g>
				<g>
					<path class="st17" d="M1408.1,687.5v88.1c0,12.9-10.5,23.5-23.5,23.5h-314.2c-13,0-23.5-10.5-23.5-23.5v-88.1
						c0-12.9,10.4-23.5,23.5-23.5h314.2C1397.6,664.1,1408.1,674.6,1408.1,687.5z"/>
					<rect x="1054.6" y="857.8" class="st17" width="353.5" height="21"/>
					<rect x="1054.6" y="918.9" class="st17" width="353.5" height="21"/>
					<rect x="1054.6" y="980" class="st17" width="353.5" height="21"/>
					<rect x="1054.6" y="1041" class="st17" width="353.5" height="21"/>
					<rect x="1054.6" y="1102.1" class="st17" width="137.9" height="21"/>
					<rect x="1232.1" y="1102.1" class="st17" width="64.4" height="21"/>
				</g>
				<g>
					<path class="st26" d="M3002.6,461.6v707.1c0,35.4-28.7,64.3-64.1,64.3h-1204c-35.5,0-64.1-28.8-64.1-64.3V461.6H3002.6z"/>
					<path class="st27" d="M3002.6,376.6v84.9H1670.4v-84.9c0-35.3,28.7-64,64.1-64h1204C2973.9,312.7,3002.6,341.3,3002.6,376.6z"
						/>
					<g>
						<g>
							<g>
								<g>
									<path class="st12" d="M2660.6,734.9c6.3,0,11.4,5.1,11.4,11.4c0,6.2-5.1,11.3-11.4,11.3h-100.5c-6.2,0-11.3-5.1-11.3-11.3
										c0-6.3,5.1-11.4,11.3-11.4H2660.6z"/>
								</g>
								<path class="st14" d="M2643.5,837.7c0,6.3-5.1,11.4-11.3,11.4h-238.5c-6.2,0-11.3-5.1-11.3-11.4c0-6.2,5.1-11.3,11.3-11.3
									h238.5C2638.4,826.5,2643.5,831.5,2643.5,837.7z"/>
								<path class="st27" d="M1949.6,757.6c-6.3,0-11.4-5.1-11.4-11.3c0-6.3,5.1-11.4,11.4-11.4h169c6.2,0,11.4,5.1,11.4,11.4
									c0,6.2-5.2,11.3-11.4,11.3H1949.6z"/>
								<path class="st27" d="M2294,837.7c0,6.3-5.1,11.4-11.4,11.4h-154.8c-6.2,0-11.3-5.1-11.3-11.4c0-6.2,5.1-11.3,11.3-11.3
									h154.8C2288.9,826.5,2294,831.5,2294,837.7z"/>
								<g>
									<path class="st25" d="M2460.6,757.6h-236.9c-6.2,0-11.3-5.1-11.3-11.3c0-6.3,5.1-11.4,11.3-11.4h236.9
										c6.2,0,11.3,5.1,11.3,11.4C2471.8,752.5,2466.8,757.6,2460.6,757.6z"/>
								</g>
								<path class="st14" d="M2201.1,1032.1h-240.9c-6.3,0-11.4-5.1-11.4-11.4c0-6.2,5.1-11.3,11.4-11.3h240.9
									c6.2,0,11.4,5.1,11.4,11.3C2212.4,1027.1,2207.3,1032.1,2201.1,1032.1z"/>
								<g>
									<path class="st12" d="M1938.2,652.1c0-6.2,5.1-11.4,11.4-11.4h251.5c6.2,0,11.4,5.2,11.4,11.4s-5.2,11.3-11.4,11.3h-251.5
										C1943.2,663.4,1938.2,658.3,1938.2,652.1z"/>
								</g>
								<path class="st27" d="M2553.7,940.6h-467c-6.3,0-11.4-5.1-11.4-11.3c0-6.3,5.1-11.4,11.4-11.4h467c6.3,0,11.4,5.1,11.4,11.4
									C2565.1,935.5,2560,940.6,2553.7,940.6z"/>
								<g>
									<path class="st12" d="M2521.1,1009.5c6.2,0,11.3,5.1,11.3,11.3c0,6.3-5.1,11.4-11.3,11.4h-232.4c-6.2,0-11.4-5.1-11.4-11.4
										c0-6.2,5.2-11.3,11.4-11.3L2521.1,1009.5L2521.1,1009.5z"/>
								</g>
								<path class="st27" d="M2577.6,1112.3c0,6.2-5.1,11.3-11.4,11.3h-438.4c-6.2,0-11.3-5-11.3-11.3s5.1-11.4,11.3-11.4h438.4
									C2572.5,1100.9,2577.6,1106,2577.6,1112.3z"/>
								<path class="st27" d="M2559.3,557.9c0-6.2,5.1-11.3,11.3-11.3h140.2c6.2,0,11.3,5.1,11.3,11.3s-5.1,11.4-11.3,11.4h-140.2
									C2564.3,569.3,2559.3,564.1,2559.3,557.9z"/>
								<path class="st14" d="M1989.6,557.9c0-6.2,5.2-11.3,11.4-11.3h257.7c6.3,0,11.4,5.1,11.4,11.3s-5.1,11.4-11.4,11.4H2001
									C1994.8,569.3,1989.6,564.1,1989.6,557.9z"/>
								<path class="st27" d="M2314.3,652.1c0-6.2,5.1-11.4,11.4-11.4h413.5c6.3,0,11.4,5.2,11.4,11.4s-5.1,11.3-11.4,11.3h-413.5
									C2319.3,663.4,2314.3,658.3,2314.3,652.1z"/>
								<path class="st27" d="M2923.2,929.3c0,6.2-5.1,11.3-11.3,11.3h-251.4c-6.3,0-11.4-5.1-11.4-11.3c0-6.3,5.1-11.4,11.4-11.4
									h251.4C2918.1,917.9,2923.2,923,2923.2,929.3z"/>
								<path class="st27" d="M2340.4,557.9c0-6.2,5.1-11.3,11.3-11.3h114.1c6.3,0,11.4,5.1,11.4,11.3s-5.1,11.4-11.4,11.4h-114.1
									C2345.4,569.3,2340.4,564.1,2340.4,557.9z"/>
							</g>
						</g>
					</g>
					
						<linearGradient id="SVGID_28_" gradientUnits="userSpaceOnUse" x1="1806.9" y1="3236.1001" x2="1857.2999" y2="3236.1001" gradientTransform="matrix(1 0 0 -1 0 3794)">
						<stop  offset="0" style="stop-color:#909EFF"/>
						<stop  offset="1" style="stop-color:#6977E3"/>
					</linearGradient>
					<circle class="st28" cx="1832.1" cy="557.9" r="25.2"/>
					
						<linearGradient id="SVGID_29_" gradientUnits="userSpaceOnUse" x1="1806.9" y1="3141.8999" x2="1857.2999" y2="3141.8999" gradientTransform="matrix(1 0 0 -1 0 3794)">
						<stop  offset="0" style="stop-color:#909EFF"/>
						<stop  offset="1" style="stop-color:#6977E3"/>
					</linearGradient>
					<circle class="st29" cx="1832.1" cy="652.1" r="25.2"/>
					
						<linearGradient id="SVGID_30_" gradientUnits="userSpaceOnUse" x1="1806.9" y1="3047.7" x2="1857.2999" y2="3047.7" gradientTransform="matrix(1 0 0 -1 0 3794)">
						<stop  offset="0" style="stop-color:#909EFF"/>
						<stop  offset="1" style="stop-color:#6977E3"/>
					</linearGradient>
					<circle class="st30" cx="1832.1" cy="746.3" r="25.2"/>
					
						<linearGradient id="SVGID_31_" gradientUnits="userSpaceOnUse" x1="1806.9" y1="2953.6001" x2="1857.2999" y2="2953.6001" gradientTransform="matrix(1 0 0 -1 0 3794)">
						<stop  offset="0" style="stop-color:#909EFF"/>
						<stop  offset="1" style="stop-color:#6977E3"/>
					</linearGradient>
					<circle class="st31" cx="1832.1" cy="840.4" r="25.2"/>
					
						<linearGradient id="SVGID_32_" gradientUnits="userSpaceOnUse" x1="1806.9" y1="2859.3999" x2="1857.2999" y2="2859.3999" gradientTransform="matrix(1 0 0 -1 0 3794)">
						<stop  offset="0" style="stop-color:#909EFF"/>
						<stop  offset="1" style="stop-color:#6977E3"/>
					</linearGradient>
					<circle class="st32" cx="1832.1" cy="934.6" r="25.2"/>
					
						<linearGradient id="SVGID_33_" gradientUnits="userSpaceOnUse" x1="1806.9" y1="2765.2" x2="1857.2999" y2="2765.2" gradientTransform="matrix(1 0 0 -1 0 3794)">
						<stop  offset="0" style="stop-color:#909EFF"/>
						<stop  offset="1" style="stop-color:#6977E3"/>
					</linearGradient>
					<circle class="st33" cx="1832.1" cy="1028.8" r="25.2"/>
					
						<linearGradient id="SVGID_34_" gradientUnits="userSpaceOnUse" x1="1806.9" y1="2671.1001" x2="1857.2999" y2="2671.1001" gradientTransform="matrix(1 0 0 -1 0 3794)">
						<stop  offset="0" style="stop-color:#909EFF"/>
						<stop  offset="1" style="stop-color:#6977E3"/>
					</linearGradient>
					<circle class="st34" cx="1832.1" cy="1122.9" r="25.2"/>
				</g>
			</g>
			<g>
				<g>
					
						<linearGradient id="SVGID_35_" gradientUnits="userSpaceOnUse" x1="1763.8" y1="2206.6499" x2="1844.5" y2="2206.6499" gradientTransform="matrix(1 0 0 -1 0 3794)">
						<stop  offset="0" style="stop-color:#909EFF"/>
						<stop  offset="1" style="stop-color:#6977E3"/>
					</linearGradient>
					<rect x="1763.8" y="1366.4" class="st35" width="80.7" height="441.9"/>
					
						<linearGradient id="SVGID_36_" gradientUnits="userSpaceOnUse" x1="1918.5" y1="2166.1499" x2="1999.2" y2="2166.1499" gradientTransform="matrix(1 0 0 -1 0 3794)">
						<stop  offset="0" style="stop-color:#3DCFA4"/>
						<stop  offset="1" style="stop-color:#30BB93"/>
					</linearGradient>
					<rect x="1918.5" y="1447.4" class="st36" width="80.7" height="360.9"/>
					<rect x="2073.1" y="1576.3" class="st6" width="80.7" height="232"/>
					
						<linearGradient id="SVGID_37_" gradientUnits="userSpaceOnUse" x1="2227.8" y1="2169" x2="2308.5" y2="2169" gradientTransform="matrix(1 0 0 -1 0 3794)">
						<stop  offset="0" style="stop-color:#3DCFA4"/>
						<stop  offset="1" style="stop-color:#30BB93"/>
					</linearGradient>
					<rect x="2227.8" y="1441.6" class="st37" width="80.7" height="366.8"/>
					
						<linearGradient id="SVGID_38_" gradientUnits="userSpaceOnUse" x1="2382.5" y1="2106.3" x2="2463.2" y2="2106.3" gradientTransform="matrix(1 0 0 -1 0 3794)">
						<stop  offset="0" style="stop-color:#909EFF"/>
						<stop  offset="1" style="stop-color:#6977E3"/>
					</linearGradient>
					<rect x="2382.5" y="1567" class="st38" width="80.7" height="241.4"/>
					
						<linearGradient id="SVGID_39_" gradientUnits="userSpaceOnUse" x1="2537.2" y1="2142.1001" x2="2617.8999" y2="2142.1001" gradientTransform="matrix(1 0 0 -1 0 3794)">
						<stop  offset="0" style="stop-color:#3DCFA4"/>
						<stop  offset="1" style="stop-color:#30BB93"/>
					</linearGradient>
					<rect x="2537.2" y="1495.5" class="st39" width="80.7" height="312.8"/>
					
						<linearGradient id="SVGID_40_" gradientUnits="userSpaceOnUse" x1="2073.1001" y1="2101.7" x2="2153.8" y2="2101.7" gradientTransform="matrix(1 0 0 -1 0 3794)">
						<stop  offset="0" style="stop-color:#909EFF"/>
						<stop  offset="1" style="stop-color:#6977E3"/>
					</linearGradient>
					<rect x="2073.1" y="1576.3" class="st40" width="80.7" height="232"/>
				</g>
				<rect x="1719.6" y="1844.1" class="st27" width="942.6" height="43.6"/>
			</g>
			<path class="st19" d="M1533.8,1505.2v343c0,32-25.8,57.8-57.8,57.8H677.1v-458.6H1476C1508,1447.4,1533.8,1473.4,1533.8,1505.2z"
				/>
			<path class="st26" d="M1451.9,1884.2H567.4c-31.9,0-57.8-25.9-57.8-57.8v-367c0-31.9,25.9-57.8,57.8-57.8h884.4
				c31.9,0,57.8,25.9,57.8,57.8v367C1509.7,1858.4,1483.8,1884.2,1451.9,1884.2z"/>
			<g>
				<ellipse class="st17" cx="743.9" cy="1635.1" rx="139.7" ry="142"/>
				<g>
					<ellipse class="st14" cx="743.9" cy="1588.1" rx="26.6" ry="27.1"/>
					<path class="st14" d="M811.4,1698.7c-1.4-36.7-31.1-66-67.5-66s-66.1,29.3-67.5,66H811.4z"/>
				</g>
			</g>
			<path class="st27" d="M1416.5,1587.4H966.3c-4.3,0-7.7-3.4-7.7-7.7v-63.3c0-4.3,3.4-7.7,7.7-7.7h450.2c4.3,0,7.7,3.4,7.7,7.7
				v63.3C1424.2,1583.9,1420.8,1587.4,1416.5,1587.4z"/>
			<rect x="958.6" y="1635.1" class="st27" width="419.9" height="16.7"/>
			<rect x="958.6" y="1690.4" class="st27" width="419.9" height="16.7"/>
			<rect x="1173.4" y="1745.6" class="st27" width="60.3" height="16.8"/>
			<rect x="958.6" y="1745.6" class="st27" width="162.9" height="16.8"/>
		</g>
		<path class="st17" d="M1779.3,395.4c0,15-12.2,27.2-27.1,27.2c-15,0-27.2-12.2-27.2-27.2c0-14.9,12.2-27.1,27.2-27.1
			C1767.2,368.3,1779.3,380.5,1779.3,395.4z"/>
		<path class="st17" d="M1857.3,395.4c0,15-12.2,27.2-27.1,27.2c-15,0-27.2-12.2-27.2-27.2c0-14.9,12.2-27.1,27.2-27.1
			C1845.1,368.3,1857.3,380.5,1857.3,395.4z"/>
		<path class="st17" d="M1935.2,395.4c0,15-12.2,27.2-27.1,27.2c-15,0-27.2-12.2-27.2-27.2c0-14.9,12.2-27.1,27.2-27.1
			S1935.2,380.5,1935.2,395.4z"/>
		<g>
			
				<linearGradient id="SVGID_41_" gradientUnits="userSpaceOnUse" x1="3087.2" y1="3153.3" x2="3740.0466" y2="3153.3" gradientTransform="matrix(1 0 0 -1 0 3794)">
				<stop  offset="0" style="stop-color:#909EFF"/>
				<stop  offset="1" style="stop-color:#6977E3"/>
			</linearGradient>
			<path class="st41" d="M3159.3,428.4h-51.1c-11.6,0-21,9.4-21,21V832c0,11.6,9.4,21,21,21h51.1V428.4z"/>
			<path class="st17" d="M3741.3,853.1h-610.8c-11.6,0-21-9.4-21-21V449.4c0-11.6,9.4-21,21-21h610.8c11.6,0,21,9.4,21,21V832
				C3762.3,843.7,3752.9,853.1,3741.3,853.1z"/>
		</g>
		<g>
			<g>
				<path class="st42" d="M869,2808.7c0,0,230.4-201.8,228.7-243.4c-1.6-41.7-89-13.1-94.8-40.8c-5.7-27.8,130.7-139.7,111.1-163.4
					s-71.1,40.8-79.2,9.8c-8.2-31,91.6-190-18-200.1c-139.9-12.9-79.3,173.4-102.1,178.1c-29.1,6-73.1-43.1-118.8-2.4
					C715.4,2418.4,869,2808.7,869,2808.7z"/>
				<path class="st43" d="M876.7,2777c3.4-36.3,8.3-72.3,13.8-108.2c5.4-35.9,11.7-71.7,18.5-107.5c11.2-53.3,29.6-147.5,50.5-198.3
					l5.7-12.4l-3.8,13.1c-6,22.6-19.7,97-39.2,200.2c-7,35.6-13.9,71.2-21.4,106.8C893.3,2706.2,885.6,2741.7,876.7,2777z"/>
				<path class="st43" d="M930.7,2510.8c5.7-14.3,16.8-29.8,26.7-41.5c10-11.7,23.8-25.1,36.9-32.8c-5.6,14.3-16.8,29.9-26.7,41.5
					S944,2502.9,930.7,2510.8z"/>
				<path class="st43" d="M896.2,2693c8.7-12.9,23-26,35.3-35.4c12.4-9.5,28.8-19.8,43.4-24.7c-8.6,12.9-22.9,26-35.3,35.4
					C927.4,2677.6,911,2688,896.2,2693z"/>
				<path class="st43" d="M901.7,2636.4c-8.2-10-15.2-20.7-21.7-31.5c-6.6-10.8-12.7-21.9-18.4-33.2s-10.9-22.8-15.8-34.5
					c-4.8-11.7-9.2-23.7-12.4-36.2c8.2,10,15.2,20.6,21.8,31.5c6.6,10.8,12.7,21.9,18.4,33.2s10.9,22.8,15.7,34.5
					S898.5,2623.9,901.7,2636.4z"/>
			</g>
			<g>
				<path class="st42" d="M861.1,2812.4c0,0,14-211-7.2-230.5c-21.1-19.5-49.8,37.1-66.2,26.3c-16.3-10.8-4.4-132-25.5-134
					s-14.8,54.6-33.9,43.5c-19.1-11.2-48-137.5-106.5-88.9c-74.6,62,45.9,123.4,37.1,136.8c-11.3,17.1-56.7,14.6-59.2,56.8
					C595.5,2696.9,861.1,2812.4,861.1,2812.4z"/>
				<path class="st43" d="M849.4,2793.2c-30-36.2-62.6-81.5-89.5-121.1c-0.7-1.1-52-77-68.2-112.8c-1.3-2.9-2.7-5.7-4-8.6l-3.3-8.9
					l4.5,8.2c1.6,2.7,3.3,5.3,5,8c7,11.5,37.3,55.6,73.6,108.9C794.2,2706.7,824.8,2752.1,849.4,2793.2z"/>
				<path class="st43" d="M745.7,2636.9c-4.2-9.7-6.4-22.8-7.2-33.3c-0.8-10.6-0.6-23.8,2-34c4.2,9.7,6.4,22.8,7.2,33.3
					C748.6,2613.3,748.4,2626.6,745.7,2636.9z"/>
				<path class="st43" d="M817.8,2742.7c-2.1-10.6-1.5-23.9-0.1-34.5c1.4-10.7,4.4-23.7,9.1-33.3c2.1,10.5,1.5,23.9,0.1,34.5
					C825.6,2720,822.6,2733,817.8,2742.7z"/>
				<path class="st43" d="M792.9,2712.4c-16-1.6-36.6-7.2-51.2-12c-14.4-4.7-34.5-12.6-48.3-20.8c15.7,1.6,36.4,7,51.2,12
					C759.3,2696.4,779.1,2704.2,792.9,2712.4z"/>
			</g>
			
				<linearGradient id="SVGID_42_" gradientUnits="userSpaceOnUse" x1="854.4" y1="999.8079" x2="854.4" y2="984.1494" gradientTransform="matrix(1 0 0 -1 0 3794)">
				<stop  offset="0" style="stop-color:#909EFF"/>
				<stop  offset="1" style="stop-color:#6977E3"/>
			</linearGradient>
			<rect x="728" y="2776.1" class="st44" width="252.8" height="49.6"/>
			
				<linearGradient id="SVGID_43_" gradientUnits="userSpaceOnUse" x1="854.4" y1="937.959" x2="854.4" y2="889.9058" gradientTransform="matrix(1 0 0 -1 0 3794)">
				<stop  offset="0" style="stop-color:#909EFF"/>
				<stop  offset="1" style="stop-color:#6977E3"/>
			</linearGradient>
			<polygon class="st45" points="924.2,2976.9 784.6,2976.9 753.6,2825.7 955.2,2825.7 			"/>
		</g>
		<g>
			<path class="st27" d="M3312.4,753.4c0,5-4.1,9-9.1,9h-116.5c-5.1,0-9.1-4.1-9.1-9c0-5,4.1-9,9.1-9h116.5
				C3308.3,744.4,3312.4,748.4,3312.4,753.4z"/>
			<path class="st27" d="M3177.7,640.8c0-5,4.1-9.1,9.1-9.1h122.8c5.1,0,9.1,4.1,9.1,9.1s-4.1,9-9.1,9h-122.8
				C3181.8,649.8,3177.7,645.8,3177.7,640.8z"/>
			<path class="st27" d="M3177.7,584.4c0-5,4.1-9,9.1-9h363.8c5.1,0,9.1,4.1,9.1,9c0,5-4.1,9-9.1,9h-363.8
				C3181.8,593.5,3177.7,589.4,3177.7,584.4z"/>
			<path class="st27" d="M3177.7,697.1c0-5,4.1-9,9.1-9H3559c5,0,9,4.1,9,9c0,5.1-4.1,9.1-9,9.1h-372.2
				C3181.8,706.2,3177.7,702.1,3177.7,697.1z"/>
			<path class="st27" d="M3573.9,753.4c0,5-4.1,9-9,9h-191.3c-5,0-9-4.1-9-9c0-5,4.1-9,9-9h191.3
				C3569.9,744.4,3573.9,748.4,3573.9,753.4z"/>
			<path class="st27" d="M3707.2,697.1c0,5.1-4.1,9.1-9.1,9.1h-87.3c-5,0-9-4-9-9.1c0-5,4.1-9,9-9h87.3
				C3703.1,688,3707.2,692.1,3707.2,697.1z"/>
			<path class="st27" d="M3707.2,640.8c0,5-4.1,9-9.1,9h-316.9c-5,0-9-4-9-9s4.1-9.1,9-9.1H3698
				C3703.1,631.7,3707.2,635.8,3707.2,640.8z"/>
			<path class="st27" d="M3707.2,584.4c0,5-4.1,9-9.1,9h-94.9c-5,0-9-4-9-9s4.1-9,9-9h94.9C3703.1,575.4,3707.2,579.5,3707.2,584.4z
				"/>
			<path class="st27" d="M3177.7,528.1c0-5,4.1-9,9.1-9H3698c5.1,0,9.1,4.1,9.1,9c0,5.1-4.1,9.1-9.1,9.1h-511.2
				C3181.8,537.2,3177.7,533.2,3177.7,528.1z"/>
		</g>
		<path class="st27" d="M3491.5,428.4"/>
	</g>
</g>
</svg>
