<svg version="1.2" xmlns="http://www.w3.org/2000/svg" viewBox="0 0 238 462" width="238" height="462">
	<title>car-svg</title>
	<style>
		.s0 { fill: #1c501c } 
		.s1 { fill: #59cd2c } 
		.s2 { fill: #1c501c } 
		.s3 { opacity: .4;fill: #1c501c } 
		.s4 { fill: #c8ffc8 } 
		.s5 { opacity: .3;fill: #1c501c } 
		.s6 { fill: #aee1ae } 
		.s7 { opacity: .4;fill: #c8ffc8 } 
	</style>
	<g id="Layer">
		<path id="Layer" fill-rule="evenodd" class="s0" d="m157.2 441.7c-9.3 1-28 2.1-37.3 2.1-10.1 0-30.1-1.3-40.1-2.1-34-2.8-60.7-27.2-60.7-60.7l-3 17.6c0 34.4 29.7 57.9 63.7 60.7 10 0.8 30 2.1 40.1 2.1 9.3 0 28-1.1 37.3-2.1 32.8-3.6 63.7-26.3 63.7-60.7l-3-17.6c0 33.5-27.9 57.1-60.7 60.7zm60.7-360.7l3-17.6c0-34.4-30.9-57.1-63.7-60.7-9.3-1-28-2.1-37.3-2.1-10.1 0-30.1 1.3-40.1 2.1-34 2.8-63.7 26.3-63.7 60.7l3 17.6c0-33.5 26.7-57.9 60.7-60.7 10-0.8 30-2.1 40.1-2.1 9.3 0 28 1.1 37.3 2.1 32.8 3.6 60.7 27.2 60.7 60.7z"/>
		<path id="Layer" class="s1" d="m217.9 391.9c0 33.5-27.9 57-60.7 60.6-9.3 1.1-28 2.1-37.3 2.1-10.1 0-30.1-1.2-40.1-2.1-34-2.8-60.7-27.1-60.7-60.6v-316.2c0-33.5 27.4-57.2 60.7-60.7 9.5-1 24-1.7 38.5-1.7 14.6 0 29.2 1 38.9 1.7 34.2 2.8 60.7 27.2 60.7 60.7z"/>
		<path id="Layer" fill-rule="evenodd" class="s2" d="m185.5 201.1c-41.9-17.4-86.6-16-134.7-0.9-4.8-22.5-19.1-59.5-17.4-81.5 53.5-23.1 116.3-23.3 170.1-0.5 1.5 22.4-13.8 57.4-18 82.9zm3.4 166.3c-44.5 26-96.6 25.8-140.9-0.6-1.5-25.1-2-41 2.8-63.5 48.1 15 92.8 16.4 134.7-1 4.2 25.5 4.7 39.5 3.4 65.1z"/>
		<path id="Layer" fill-rule="evenodd" class="s1" d="m217.9 75.7v316.2c0 33.5-27.9 57-60.7 60.6-9.3 1.1-28 2.1-37.3 2.1-10.1 0-30.1-1.2-40.1-2.1-34-2.8-60.7-27.1-60.7-60.6v-316.2c0-33.5 27.4-57.2 60.7-60.7 9.6-1 24-1.7 38.5-1.7 14.6 0 29.2 1 38.9 1.7 34.2 2.8 60.7 27.2 60.7 60.7zm-6.3 10.1c0-31.4-24.9-54.3-56.8-56.8-9.1-0.7-22.8-1.6-36.5-1.6-13.5 0-27.1 0.6-36.1 1.6-31.1 3.2-56.8 25.4-56.8 56.8v296c0 31.4 25 54.2 56.8 56.8 9.4 0.8 28.2 2 37.6 2 8.7 0 26.3-1 35-2 30.7-3.4 56.8-25.4 56.8-56.8z"/>
		<path id="Layer" class="s3" d="m53.3 136.8c46.9-20.3 101-22.9 149.9-7.9 0.4-3.8 0.5-7.4 0.3-10.7-53.8-22.8-116.6-22.6-170.1 0.5-1.7 22 12.6 58.9 17.4 81.4q1.8-0.5 3.5-1 1.8-0.5 3.5-1.1 1.8-0.5 3.5-0.9 1.8-0.5 3.6-1c-5.9-20.2-12.9-43.6-11.6-59.3z"/>
		<path id="Layer" class="s2" d="m60.9 170.9q-9.2 0-18.1-0.5c3.1 10.9 6.2 21.3 8 29.8 48.1-15.1 92.8-16.5 134.7 0.9 3.3-20.2 13.6-46.3 17-67.4-28.8 22.3-81.4 37.2-141.6 37.2z"/>
		<path id="Layer" class="s3" d="m181.8 342.5c-40.1 29.5-86.8 29.2-126.7-0.7-2.1-8.2-4.5-16.2-6.8-24-2 15.7-1.4 29.6-0.3 49 44.3 26.4 96.4 26.6 140.9 0.6 0.9-18.8 0.9-31.3-0.8-46.7-1.9 6.8-4.1 14-6.3 21.8z"/>
		<path id="Layer" class="s2" d="m120.6 338.9c24.3 0 47.5 2.3 68.9 6.4-0.1-13.9-1.2-25.8-4-43-41.9 17.4-86.6 16-134.7 1-3.3 15.7-4.1 28.2-3.8 42.8 22.7-4.6 47.5-7.2 73.6-7.2z"/>
		<path id="Layer" class="s1" d="m19.1 244.1v49.9c32.8-2.3 72.3-7.1 114.7-14.4 30.3-5.2 58.8-11.2 84.1-17.4v-53.4c-28.2 2.6-60.3 6.9-94.1 12.7-38.8 6.7-74.7 14.5-104.7 22.6z"/>
		<path id="Layer" fill-rule="evenodd" class="s2" d="m211.4 123.4l-16.3 80.3v98.4l16.3 49zm-185.9 227.7l16.2-49v-98.4l-16.2-80.3z"/>
		<path id="Layer" class="s1" d="m34.4 118.3q0.1-1 0.4-2.2l14.4-56.9c2.5-9.3 10.7-20.8 20.6-27.8q-0.5 0.1-0.9 0.2-0.5 0.2-1 0.3-0.5 0.2-1 0.3-0.5 0.2-1 0.4c-8.7 7.2-15.6 17.5-18 26.3l-14.4 56.9q-1 3.9-0.2 6.8 0-2 0.1-3.9 0.5-0.2 1-0.4zm169.1 6.1q1.9-3.4 0.5-8.6l-14.4-56.9c-2.4-8.9-9.5-19.4-18.4-26.7q-0.5-0.1-1-0.3-0.5-0.1-0.9-0.2-0.5-0.2-1-0.3-0.5-0.2-1-0.3c10.1 7 18.4 18.7 21 28.1l14.4 56.9q0.2 1 0.4 1.9 0.2 0.1 0.4 0.2 0.2 3 0 6.2z"/>
		<path id="Layer" class="s4" d="m68.7 30.6c3.4 3.1-5.3 6.9-17 15-11.5 7.8-16.5 12.8-18.3 7-1.6-5.4 0.9-17.3 11.1-22.4 10-5.4 21-2.9 24.2 0.4z"/>
		<path id="Layer" class="s5" d="m52 38.3c0 0.9-3.3 11.3-7.3 11.3-4 0-7.2-10.4-7.2-11.3 0-1 3.2-1.8 7.2-1.8 4 0 7.3 0.8 7.3 1.8z"/>
		<path id="Layer" class="s4" d="m52 37.4c0 0.9-3.3 1.7-7.3 1.7-4 0-7.2-0.8-7.2-1.7 0-1 3.2-1.8 7.2-1.8 4 0 7.3 0.8 7.3 1.8z"/>
		<g id="Layer">
			<path id="Layer" class="s4" d="m68.7 30.6q-0.1-0.2-0.3-0.3-0.2-0.2-0.4-0.3-0.1-0.1-0.3-0.3-0.2-0.1-0.4-0.2c0.5 2.9-7.5 6.7-17.7 13.8-8.4 5.7-13.4 9.9-16.1 9.5 1.9 5.5 6.9 0.4 18.2-7.2 11.7-8.1 20.4-11.9 17-15z"/>
			<path id="Layer" class="s4" d="m43.8 32c10.4-5.6 22-3 25.4 0.5 0 0 0.1 0.1 0.1 0.1 0.3-0.7 0.1-1.4-0.6-2-3.2-3.3-14.2-5.8-24.2-0.4-4.9 2.4-8 6.4-9.8 10.5 2-3.4 4.9-6.6 9.1-8.7z"/>
		</g>
		<path id="Layer" class="s4" d="m170.6 30.6c-3.4 3.1 5.3 6.9 16.9 15 11.6 7.8 16.6 12.8 18.4 7 1.6-5.4-0.9-17.3-11.1-22.4-10-5.4-21-2.9-24.2 0.4z"/>
		<path id="Layer" class="s5" d="m187.3 38.3c0 0.9 3.3 11.3 7.3 11.3 4 0 7.2-10.4 7.2-11.3 0-1-3.2-1.8-7.2-1.8-4 0-7.3 0.8-7.3 1.8z"/>
		<path id="Layer" class="s4" d="m187.3 37.4c0 0.9 3.3 1.7 7.3 1.7 4 0 7.2-0.8 7.2-1.7 0-1-3.2-1.8-7.2-1.8-4 0-7.3 0.8-7.3 1.8z"/>
		<g id="Layer">
			<path id="Layer" class="s4" d="m170.6 30.6q0.5-0.6 1.4-1.1c-0.5 2.9 7.5 6.7 17.7 13.8 8.4 5.7 13.3 9.9 16.1 9.5-1.9 5.5-6.9 0.4-18.3-7.2-11.6-8.1-20.3-11.9-16.9-15z"/>
			<path id="Layer" class="s4" d="m195.5 32c-10.5-5.6-22-3-25.4 0.5q-0.1 0.1-0.1 0.1c-0.3-0.7-0.1-1.4 0.6-2 3.2-3.3 14.2-5.8 24.2-0.4 4.9 2.4 8 6.4 9.8 10.5-2-3.4-4.9-6.6-9.1-8.7z"/>
		</g>
		<path id="Layer" class="s6" d="m170.8 435.8c-2.4-1.7 8.4-8.2 16.6-14.1 7.7-5.5 6.4-6.9 9.9-3.5 2.9 3.3 7.1 9.2-2.7 13.5-9.8 4.6-22.3 6.3-23.8 4.1z"/>
		<path id="Layer" class="s5" d="m187.2 426.9c0.2-0.8 2.4-8.2 4.4-7.8 2.1 0.3 7.2 6.7 7.7 7.2 0.3 0.5-2.3 1-5.8 1.2-3.6 0.3-6.4 0.1-6.3-0.6z"/>
		<path id="Layer" class="s7" d="m187.2 427.5c0-0.7 2.7-1.5 5.9-1.6 3.2-0.1 6.1 0.4 6.4 0.9 0.3 0.6-2.3 1.1-5.9 1.3-3.6 0.3-6.5 0.1-6.4-0.6z"/>
		<g id="Layer">
			<path id="Layer" class="s4" d="m170.8 435.8q0.4 0.4 1.1 0.6c0.2-2.3 9.7-8 17-13.2 5.9-4.1 6.6-5.7 8.3-5.2-3.4-3.1-2.2-1.8-9.8 3.7-8.2 5.9-19 12.4-16.6 14.1z"/>
			<path id="Layer" class="s4" d="m195 430.4c-9.8 4.6-22.6 6.3-24 3.9 0-0.1 0-0.1-0.1-0.1-0.4 0.7-0.5 1.2-0.1 1.6 1.5 2.2 14 0.5 23.8-4.1 4.6-2.1 6.2-4.5 6.1-6.8-0.3 1.9-2 3.8-5.7 5.5z"/>
		</g>
		<path id="Layer" class="s6" d="m66.2 435.8c2.4-1.7-8.4-8.2-16.6-14.1-7.7-5.5-6.4-6.9-9.9-3.5-2.8 3.3-7.1 9.2 2.7 13.5 9.8 4.6 22.3 6.3 23.8 4.1z"/>
		<path id="Layer" class="s5" d="m49.8 426.9c-0.2-0.8-2.4-8.2-4.4-7.8-2.1 0.3-7.2 6.7-7.6 7.2-0.3 0.5 2.3 1 5.8 1.2 3.5 0.3 6.3 0.1 6.2-0.6z"/>
		<path id="Layer" class="s7" d="m49.8 427.5c0-0.7-2.6-1.5-5.9-1.6-3.2-0.1-6.1 0.4-6.4 0.9-0.3 0.6 2.4 1.1 5.9 1.3 3.6 0.3 6.5 0.1 6.4-0.6z"/>
		<g id="Layer">
			<path id="Layer" class="s4" d="m66.2 435.8q-0.3 0.4-1 0.6c-0.3-2.3-9.8-8-17.1-13.2-5.9-4.1-6.6-5.7-8.2-5.2 3.3-3.1 2.1-1.8 9.7 3.7 8.2 5.9 19 12.4 16.6 14.1z"/>
			<path id="Layer" class="s4" d="m42 430.4c9.8 4.6 22.6 6.3 24 3.9 0-0.1 0-0.1 0.1-0.1 0.5 0.7 0.6 1.2 0.1 1.6-1.5 2.2-14 0.5-23.8-4.1-4.6-2.1-6.2-4.5-6.1-6.8 0.3 1.9 2 3.8 5.7 5.5z"/>
		</g>
		<path id="Layer" fill-rule="evenodd" class="s1" d="m193.1 370.1c0.5 0.7 11.2 16.5 15.5 29.5q-0.4 1-0.8 2c-3.4-11.7-13.4-27.1-15.5-30.2-3.1 1.9-18.9 11.5-32.3 16.1-15 5.1-29.9 5.1-39.8 5.1h-0.9c-9.9 0-24.8 0-39.8-5.1-13.4-4.6-29.2-14.2-32.3-16.1-2.3 3.3-14 21.4-16.3 33.4q0 0.1-0.1 0.1 0 0.1 0 0.2-0.1 0-0.1 0.1-0.1 0-0.1 0-0.4-0.8-0.8-1.7c3-13.4 16-32.6 16.6-33.4l0.4-0.5 0.5 0.3c0.2 0.1 17.9 11.3 32.6 16.3 14.8 5.1 29.5 5.1 39.3 5.1h0.9c9.9 0 24.7 0 39.5-5.1 14.7-5 32.4-16.2 32.6-16.3l0.5-0.3zm-167.6-113.3l-0.1-4.1 16.3-1.3v4.1zm169.7-1.3v-4l16.3 1.2v4.1z"/>
		<g id="Layer">
			<path id="Layer" fill-rule="evenodd" class="s1" d="m31 103.5c3.1 3 0.8 6.1-4.9 7.7q-2.3 0.6-4.5 1.3-2.2 0.8-4.4 1.7-2.1 0.8-4.2 1.8-2.2 1-4.2 2.1c-5.2 2.8-8.3 3-8.1-2.9 0.2-5.9-0.3-8.4 3.2-11.7 3-2.8 10.8-5.2 14.9-5.5 3.6-0.2 9.1 2.6 12.2 5.5zm188.2-5.5c4.1 0.3 11.9 2.7 14.9 5.5 3.5 3.3 3 5.8 3.2 11.7 0.2 5.9-2.9 5.7-8.1 2.9q-2-1.1-4.2-2.1-2.1-1-4.2-1.8-2.2-0.9-4.4-1.7-2.2-0.7-4.5-1.3c-5.7-1.6-8-4.7-4.9-7.7 3.1-2.9 8.6-5.7 12.2-5.5z"/>
		</g>
	</g>
</svg>