<svg xmlns="http://www.w3.org/2000/svg" width="31" height="19"><rect id="backgroundrect" width="100%" height="100%" x="0" y="0" fill="none" stroke="none"/>
    
    
    
<g class="currentLayer" style=""><title>Layer 1</title><path id="path" d="M27.22,19.000107211271825 L3.0600000000000005,19.000107211271825 C2.6390000000000007,19.004107211271826 2.2240000000000006,18.896107211271826 1.8570000000000007,18.688107211271824 C1.4910000000000005,18.481107211271826 1.1850000000000005,18.180107211271824 0.9720000000000005,17.817107211271825 C0.7580000000000012,17.454107211271825 0.6430000000000012,17.041107211271825 0.6400000000000012,16.620107211271826 L0.6400000000000012,2.3801072112718247 C0.6430000000000012,1.9591072112718249 0.7580000000000012,1.546107211271825 0.9720000000000005,1.1831072112718246 C1.1850000000000005,0.8201072112718255 1.4910000000000005,0.5191072112718248 1.8570000000000007,0.3121072112718254 C2.2240000000000006,0.10410721127182493 2.6390000000000007,-0.0038927887281752283 3.0600000000000005,0.00010721127182478116 L27.22,0.00010721127182478116 C27.641000000000002,-0.0038927887281752283 28.056,0.10410721127182493 28.423000000000002,0.3121072112718254 C28.789,0.5191072112718248 29.095,0.8201072112718255 29.308,1.1831072112718246 C29.522000000000002,1.546107211271825 29.637,1.9591072112718249 29.64,2.3801072112718247 L29.64,16.630107211271824 C29.632,17.265107211271825 29.373,17.871107211271823 28.919,18.315107211271826 C28.466,18.759107211271825 27.855,19.005107211271824 27.22,19.000107211271825 z" fill="#1d91ce" class="selected"/><path id="path_1" d="M4.703,11.896107211271826 L4.231000000000001,13.000107211271825 L4.440892098500626e-16,13.000107211271825 L3.3390000000000013,6.000107211271825 L11.314,6.000107211271825 L12.119,7.546107211271824 L12.871,6.000107211271825 L15.704,6.000107211271825 L17.132,6.000107211271825 L23.623,6.000107211271825 L24.542,6.961107211271825 L25.529,6.000107211271825 L30.522000000000002,6.000107211271825 L26.977,9.492107211271826 L30.369,13.000107211271825 L25.537,13.000107211271825 L24.456,11.969107211271824 L23.384,13.000107211271825 L17.132,13.000107211271825 L15.704,13.000107211271825 L6.136000000000001,13.000107211271825 L5.617000000000001,11.896107211271826 " fill="#ffffff" class=""/><path id="path_2" d="M5.620000000000001,11.970107211271825 L4.700000000000001,11.970107211271825 L5.620000000000001,11.970107211271825 zM15.84,7.000107211271825 L13.74,7.000107211271825 L12.16,10.350107211271824 L10.46,7.000107211271825 L8.36,7.000107211271825 L8.36,11.850107211271824 L6.19,7.000107211271825 L4.220000000000001,7.000107211271825 L1.9000000000000006,12.000107211271825 L3.3200000000000007,12.000107211271825 L3.7900000000000005,10.860107211271824 L6.49,10.860107211271824 L7.03,12.000107211271825 L9.64,12.000107211271825 L9.64,7.9301072112718245 L11.49,12.000107211271825 L12.71,12.000107211271825 L14.55,8.000107211271825 L14.55,12.000107211271825 L15.84,12.000107211271825 L15.84,7.000107211271825 zM24.51,8.620107211271826 L23.01,7.000107211271825 L16.990000000000002,7.000107211271825 L16.990000000000002,12.000107211271825 L22.810000000000002,12.000107211271825 L24.46,10.360107211271824 L26.12,12.000107211271825 L27.67,12.000107211271825 L25.3,9.470107211271825 L27.740000000000002,7.000107211271825 L26.12,7.000107211271825 L24.51,8.620107211271826 zM21.34,11.000107211271825 L18.28,11.000107211271825 L18.28,9.900107211271825 L21.34,9.900107211271825 L21.34,8.900107211271825 L18.28,8.900107211271825 L18.28,8.000107211271825 L21.34,8.000107211271825 L21.34,7.150107211271825 L23.61,9.420107211271825 L21.34,11.700107211271824 L21.34,11.000107211271825 zM5.170000000000001,7.820107211271824 L6.050000000000001,9.850107211271824 L4.220000000000001,9.850107211271824 L5.170000000000001,7.820107211271824 z" fill="#1d91ce" class=""/></g></svg>