<svg xmlns="http://www.w3.org/2000/svg" width="512" height="418" style=""><rect id="backgroundrect" width="100%" height="100%" x="0" y="0" fill="none" stroke="none" class="" style=""/>
    
    
    
    
    
    
<g class="currentLayer" style=""><title>Layer 1</title><path id="path" d="M273.067,290.13300006103515 L409.6,290.13300006103515 C414.72,290.13300006103515 418.133,286.72000006103514 418.133,281.60000006103513 L418.133,204.80000006103515 C418.133,199.68000006103514 414.72,196.26700006103516 409.6,196.26700006103516 L273.067,196.26700006103516 C267.947,196.26700006103516 264.534,199.68000006103514 264.534,204.80000006103515 L264.534,281.60000006103513 C264.533,286.71900006103516 267.947,290.13300006103515 273.067,290.13300006103515 zM281.6,213.33300006103514 L401.067,213.33300006103514 L401.067,273.06600006103514 L281.6,273.06600006103514 L281.6,213.33300006103514 z" fill="#000000" class=""/><path id="path_1" d="M42.667,179.19900006103515 L110.934,179.19900006103515 C116.054,179.19900006103515 119.467,175.78600006103517 119.467,170.66600006103516 C119.467,165.54600006103516 116.054,162.13300006103515 110.934,162.13300006103515 L42.667,162.13300006103515 C37.547,162.13300006103515 34.134,165.54600006103516 34.134,170.66600006103516 C34.134,175.78600006103517 37.547,179.19900006103515 42.667,179.19900006103515 z" fill="#000000" class=""/><path id="path_2" d="M145.067,179.19900006103515 L213.334,179.19900006103515 C218.454,179.19900006103515 221.867,175.78600006103517 221.867,170.66600006103516 C221.867,165.54600006103516 218.454,162.13300006103515 213.334,162.13300006103515 L145.067,162.13300006103515 C139.947,162.13300006103515 136.534,165.54600006103516 136.534,170.66600006103516 C136.534,175.78600006103517 139.947,179.19900006103515 145.067,179.19900006103515 z" fill="#000000" class=""/><path id="path_3" d="M42.667,213.33300006103514 L153.6,213.33300006103514 C158.72,213.33300006103514 162.133,209.92000006103518 162.133,204.80000006103515 C162.133,199.68000006103514 158.72,196.26700006103516 153.6,196.26700006103516 L42.667,196.26700006103516 C37.547,196.26700006103516 34.134,199.68000006103514 34.134,204.80000006103515 C34.134,209.92000006103518 37.547,213.33300006103514 42.667,213.33300006103514 z" fill="#000000" class=""/><path id="path_4" d="M213.333,196.26600006103516 L187.733,196.26600006103516 C182.613,196.26600006103516 179.2,199.67900006103517 179.2,204.79900006103514 C179.2,209.91900006103515 182.613,213.33200006103516 187.733,213.33200006103516 L213.333,213.33200006103516 C218.453,213.33200006103516 221.866,209.91900006103515 221.866,204.79900006103514 C221.866,199.67900006103517 218.453,196.26600006103516 213.333,196.26600006103516 z" fill="#000000" class=""/><path id="path_5" d="M504.32,90.45300006103517 C498.347,82.77300006103516 490.667,78.50600006103515 481.28,77.65300006103516 L460.8,75.17100006103516 L460.8,51.19900006103515 L460.8,34.13300006103516 C460.8,15.360000061035159 445.44,6.103515914901436e-8 426.667,6.103515914901436e-8 L34.133,6.103515914901436e-8 C15.36,-0.0009999389648456258 0,15.359000061035154 0,34.13300006103516 L0,51.200000061035155 L0,119.46700006103515 L0,307.20000006103515 C0,322.61300006103517 10.357,335.7180000610352 24.453,339.9180000610352 C24.023,357.1800000610352 37.084,372.16600006103516 54.614,373.76000006103516 L448.854,418.13300006103515 C449.707,418.13300006103515 451.414,418.13300006103515 452.267,418.13300006103515 C469.334,418.13300006103515 484.694,405.33300006103514 486.4,389.12000006103517 L512,115.20000006103515 C512.853,106.66600006103516 510.293,97.27900006103516 504.32,90.45300006103517 zM17.067,59.733000061035156 L443.734,59.733000061035156 L443.734,81.92000006103515 L443.734,110.93300006103516 L17.067,110.93300006103516 L17.067,59.733000061035156 zM34.133,17.066000061035155 L426.666,17.066000061035155 C436.053,17.066000061035155 443.733,24.74600006103516 443.733,34.13300006103516 L443.733,42.66600006103516 L17.067,42.66600006103516 L17.067,34.13300006103516 C17.067,24.74600006103516 24.747,17.066000061035155 34.133,17.066000061035155 zM17.067,307.1990000610352 L17.067,127.99900006103516 L443.734,127.99900006103516 L443.734,307.1990000610352 C443.734,316.5860000610352 436.054,324.26600006103513 426.667,324.26600006103513 L34.987,324.26600006103513 L34.134,324.26600006103513 C24.747,324.26600006103513 17.067,316.5860000610352 17.067,307.1990000610352 zM494.933,111.78600006103517 L469.333,385.7060000610352 C468.48,395.0930000610352 459.946,401.91900006103515 450.56,401.06600006103514 L57.173,356.69300006103515 C48.64,355.84000006103514 42.666,349.01300006103514 41.813,341.33300006103514 L426.666,341.33300006103514 C445.439,341.33300006103514 460.799,325.9730000610352 460.799,307.20000006103515 L460.799,119.46600006103515 L460.799,91.30600006103515 L480.426,93.01300006103514 C484.693,93.01300006103514 488.959,95.57300006103515 491.519,98.98600006103516 C494.08,102.39900006103517 495.787,107.51900006103514 494.933,111.78600006103517 z" fill="#000000" class=""/></g></svg>