<svg xmlns="http://www.w3.org/2000/svg" width="29" height="19"><rect id="backgroundrect" width="100%" height="100%" x="0" y="0" fill="none" stroke="none"/>
    
<g class="currentLayer" style=""><title>Layer 1</title><path id="path" d="M26.58,19.000107169151306 L2.42,19.000107169151306 C1.999,19.004107169151307 1.584,18.896107169151307 1.217,18.688107169151305 C0.8510000000000001,18.481107169151308 0.545,18.180107169151306 0.3320000000000001,17.817107169151306 C0.11800000000000002,17.454107169151307 0.003000000000000001,17.041107169151307 0,16.620107169151307 L0,2.380107169151306 C0.003000000000000001,1.9591071691513062 0.11800000000000002,1.5461071691513064 0.3320000000000001,1.183107169151306 C0.545,0.8201071691513064 0.8510000000000001,0.5191071691513063 1.217,0.31210716915130643 C1.584,0.10410716915130624 1.999,-0.003892830848693851 2.42,0.00010716915130615234 L26.58,0.00010716915130615234 C27.001,-0.003892830848693851 27.416,0.10410716915130624 27.783,0.31210716915130643 C28.149,0.5191071691513063 28.455,0.8201071691513064 28.668,1.183107169151306 C28.882,1.5461071691513064 28.997,1.9591071691513062 29,2.380107169151306 L29,16.630107169151305 C28.992,17.265107169151307 28.733,17.871107169151305 28.279,18.315107169151307 C27.826,18.759107169151306 27.215,19.005107169151305 26.58,19.000107169151306 zM10,5.830107169151306 C10,5.370107169151306 9.65,5.000107169151306 9.22,5.000107169151306 L3.7800000000000002,5.000107169151306 C3.35,5.000107169151306 3,5.370107169151306 3,5.830107169151306 L3,9.170107169151306 C3,9.630107169151307 3.35,10.000107169151306 3.7800000000000002,10.000107169151306 L9.22,10.000107169151306 C9.65,10.000107169151306 10,9.630107169151307 10,9.170107169151306 L10,5.830107169151306 zM25,15.000107169151306 C25.65,15.000107169151306 26,14.700107169151305 26,14.000107169151306 C26,13.300107169151307 25.65,13.000107169151306 25,13.000107169151306 L22,13.000107169151306 C21.35,13.000107169151306 21,13.300107169151307 21,14.000107169151306 C21,14.700107169151305 21.35,15.000107169151306 22,15.000107169151306 L25,15.000107169151306 zM19,15.000107169151306 C19.65,15.000107169151306 20,14.700107169151305 20,14.000107169151306 C20,13.300107169151307 19.65,13.000107169151306 19,13.000107169151306 L16,13.000107169151306 C15.35,13.000107169151306 15,13.300107169151307 15,14.000107169151306 C15,14.700107169151305 15.35,15.000107169151306 16,15.000107169151306 L19,15.000107169151306 zM13,15.000107169151306 C13.65,15.000107169151306 14,14.700107169151305 14,14.000107169151306 C14,13.300107169151307 13.65,13.000107169151306 13,13.000107169151306 L10,13.000107169151306 C9.35,13.000107169151306 9,13.300107169151307 9,14.000107169151306 C9,14.700107169151305 9.35,15.000107169151306 10,15.000107169151306 L13,15.000107169151306 zM7,15.000107169151306 C7.65,15.000107169151306 8,14.700107169151305 8,14.000107169151306 C8,13.300107169151307 7.65,13.000107169151306 7,13.000107169151306 L4,13.000107169151306 C3.35,13.000107169151306 3,13.300107169151307 3,14.000107169151306 C3,14.700107169151305 3.35,15.000107169151306 4,15.000107169151306 L7,15.000107169151306 z" fill="#000000" class=""/></g></svg>