<svg xmlns="http://www.w3.org/2000/svg" width="29" height="19"><rect id="backgroundrect" width="100%" height="100%" x="0" y="0" fill="none" stroke="none"/>
    
    
    
    
<g class="currentLayer" style=""><title>Layer 1</title><path id="path" d="M26.58,19.000107169151306 L2.42,19.000107169151306 C1.999,19.004107169151307 1.584,18.896107169151307 1.217,18.688107169151305 C0.8510000000000001,18.481107169151308 0.545,18.180107169151306 0.3320000000000001,17.817107169151306 C0.11800000000000002,17.454107169151307 0.003000000000000001,17.041107169151307 0,16.620107169151307 L0,2.380107169151306 C0.003000000000000001,1.9591071691513062 0.11800000000000002,1.5461071691513064 0.3320000000000001,1.183107169151306 C0.545,0.8201071691513064 0.8510000000000001,0.5191071691513063 1.217,0.31210716915130643 C1.584,0.10410716915130624 1.999,-0.003892830848693851 2.42,0.00010716915130615234 L26.58,0.00010716915130615234 C27.001,-0.003892830848693851 27.416,0.10410716915130624 27.783,0.31210716915130643 C28.149,0.5191071691513063 28.455,0.8201071691513064 28.668,1.183107169151306 C28.882,1.5461071691513064 28.997,1.9591071691513062 29,2.380107169151306 L29,16.630107169151305 C28.992,17.265107169151307 28.733,17.871107169151305 28.279,18.315107169151307 C27.826,18.759107169151306 27.215,19.005107169151305 26.58,19.000107169151306 z" fill="#ebf1f8" class=""/><path id="path_1" d="M15.24,19.000107169151306 L26.58,19.000107169151306 C27.001,19.004107169151307 27.416,18.896107169151307 27.783,18.688107169151305 C28.149,18.481107169151308 28.455,18.180107169151306 28.668,17.817107169151306 C28.882,17.454107169151307 28.997,17.041107169151307 29,16.620107169151307 L29,13.770107169151306 C24.718,16.228107169151308 20.074,17.993107169151305 15.24,19.000107169151306 z" fill="#f27712" class=""/><path id="path_2" d="M28,10.900107169151307 L26.97,10.900107169151307 L25.81,9.370107169151305 L25.7,9.370107169151305 L25.7,10.900107169151307 L24.86,10.900107169151307 L24.86,7.100107169151306 L26.1,7.100107169151306 C27.07,7.100107169151306 27.63,7.500107169151306 27.63,8.220107169151307 C27.63,8.810107169151307 27.28,9.190107169151306 26.65,9.310107169151307 L28,10.900107169151307 zM26.76,8.250107169151306 C26.76,7.880107169151307 26.48,7.690107169151306 25.96,7.690107169151306 L25.7,7.690107169151306 L25.7,8.840107169151306 L25.94,8.840107169151306 C26.48,8.840107169151306 26.76,8.640107169151307 26.76,8.250107169151306 zM21.92,7.100107169151306 L24.3,7.100107169151306 L24.3,7.740107169151306 L22.76,7.740107169151306 L22.76,8.590107169151306 L24.24,8.590107169151306 L24.24,9.240107169151306 L22.76,9.240107169151306 L22.76,10.270107169151306 L24.3,10.270107169151306 L24.3,10.910107169151306 L21.92,10.910107169151306 L21.92,7.100107169151306 zM19.22,11.000107169151306 L17.4,7.090107169151306 L18.32,7.090107169151306 L19.47,9.650107169151307 L20.63,7.090107169151306 L21.53,7.090107169151306 L19.69,11.000107169151306 L19.24,11.000107169151306 zM11.61,10.990107169151306 C10.33,10.990107169151306 9.33,10.120107169151305 9.33,8.990107169151306 C9.33,7.890107169151307 10.35,7.000107169151306 11.63,7.000107169151306 C11.99,7.000107169151306 12.29,7.070107169151306 12.66,7.230107169151307 L12.66,8.110107169151306 C12.38,7.835107169151307 12.003,7.680107169151306 11.61,7.680107169151306 C10.81,7.680107169151306 10.2,8.260107169151306 10.2,8.990107169151306 C10.2,9.760107169151306 10.8,10.310107169151307 11.65,10.310107169151307 C12.03,10.310107169151307 12.32,10.190107169151306 12.66,9.890107169151307 L12.66,10.770107169151306 C12.28,10.930107169151306 11.96,10.990107169151306 11.61,10.990107169151306 zM9.07,9.740107169151306 C9.07,10.480107169151307 8.46,10.990107169151306 7.58,10.990107169151306 C6.94,10.990107169151306 6.48,10.770107169151306 6.09,10.270107169151306 L6.640000000000001,9.800107169151307 C6.83,10.140107169151307 7.15,10.310107169151307 7.55,10.310107169151307 C7.93,10.310107169151307 8.2,10.080107169151306 8.2,9.780107169151306 C8.2,9.610107169151306 8.12,9.480107169151307 7.95,9.380107169151307 C7.764,9.290107169151305 7.569,9.216107169151305 7.37,9.160107169151306 C6.58,8.910107169151306 6.3100000000000005,8.640107169151307 6.3100000000000005,8.110107169151306 C6.3100000000000005,7.490107169151306 6.890000000000001,7.020107169151306 7.65,7.020107169151306 C8.13,7.020107169151306 8.56,7.170107169151306 8.92,7.450107169151305 L8.48,7.950107169151305 C8.394,7.855107169151307 8.289,7.7801071691513055 8.172,7.728107169151306 C8.055,7.677107169151306 7.928,7.6501071691513065 7.8,7.6501071691513065 C7.44,7.6501071691513065 7.18,7.830107169151306 7.18,8.070107169151306 C7.18,8.270107169151306 7.33,8.380107169151307 7.83,8.550107169151307 C8.79,8.850107169151306 9.07,9.130107169151307 9.07,9.750107169151306 zM4.94,7.100107169151306 L5.78,7.100107169151306 L5.78,10.910107169151306 L4.94,10.910107169151306 L4.94,7.100107169151306 zM2.24,10.910107169151306 L1,10.910107169151306 L1,7.100107169151306 L2.24,7.100107169151306 C3.6,7.100107169151306 4.54,7.880107169151307 4.54,9.000107169151306 C4.54,9.570107169151306 4.26,10.110107169151306 3.77,10.470107169151307 C3.35,10.770107169151306 2.88,10.910107169151306 2.23,10.910107169151306 zM3.22,8.050107169151307 C2.94,7.830107169151306 2.62,7.750107169151306 2.07,7.750107169151306 L1.84,7.750107169151306 L1.84,10.270107169151306 L2.07,10.270107169151306 C2.6100000000000003,10.270107169151306 2.95,10.170107169151306 3.22,9.970107169151307 C3.51,9.730107169151307 3.68,9.370107169151305 3.68,9.000107169151306 C3.68,8.630107169151307 3.51,8.280107169151306 3.22,8.050107169151307 z" fill="#000000" class=""/><path id="path_3" d="M15,7.000107169151306 C13.9,7.000107169151306 13,7.880107169151307 13,8.970107169151307 C13,10.130107169151307 13.86,11.000107169151306 15,11.000107169151306 C16.12,11.000107169151306 17,10.120107169151305 17,9.000107169151306 C17,7.880107169151307 16.13,7.000107169151306 15,7.000107169151306 z" fill="#f27712" class=""/></g></svg>