<svg xmlns="http://www.w3.org/2000/svg" width="29" height="19"><rect id="backgroundrect" width="100%" height="100%" x="0" y="0" fill="none" stroke="none"/>
    
    
    
<g class="currentLayer" style=""><title>Layer 1</title><path id="path" d="M26.58,19.000107169151306 L2.42,19.000107169151306 C1.999,19.004107169151307 1.584,18.896107169151307 1.217,18.688107169151305 C0.8510000000000001,18.481107169151308 0.545,18.180107169151306 0.3320000000000001,17.817107169151306 C0.11800000000000002,17.454107169151307 0.003000000000000001,17.041107169151307 0,16.620107169151307 L0,2.380107169151306 C0.003000000000000001,1.9591071691513062 0.11800000000000002,1.5461071691513064 0.3320000000000001,1.183107169151306 C0.545,0.8201071691513064 0.8510000000000001,0.5191071691513063 1.217,0.31210716915130643 C1.584,0.10410716915130624 1.999,-0.003892830848693851 2.42,0.00010716915130615234 L26.58,0.00010716915130615234 C27.001,-0.003892830848693851 27.416,0.10410716915130624 27.783,0.31210716915130643 C28.149,0.5191071691513063 28.455,0.8201071691513064 28.668,1.183107169151306 C28.882,1.5461071691513064 28.997,1.9591071691513062 29,2.380107169151306 L29,16.630107169151305 C28.992,17.265107169151307 28.733,17.871107169151305 28.279,18.315107169151307 C27.826,18.759107169151306 27.215,19.005107169151305 26.58,19.000107169151306 z" fill="#ebf1f8" class=""/><path id="path_1" d="M12,2.0201071691513057 L12,2.000107169151306 L17,2.000107169151306 L17,2.0201071691513057 C18.889,2.1581071691513065 20.657,3.007107169151306 21.946,4.394107169151306 C23.235,5.781107169151306 23.953,7.606107169151306 23.953,9.500107169151306 C23.953,11.394107169151306 23.235,13.219107169151306 21.946,14.606107169151308 C20.657,15.993107169151305 18.889,16.842107169151305 17,16.980107169151307 L17,17.000107169151306 L12,17.000107169151306 L12,16.980107169151307 C10.111,16.842107169151305 8.343,15.993107169151305 7.054,14.606107169151308 C5.765000000000001,13.219107169151306 5.047,11.394107169151306 5.047,9.500107169151306 C5.047,7.606107169151306 5.765000000000001,5.781107169151306 7.054,4.394107169151306 C8.343,3.007107169151306 10.111,2.1581071691513065 12,2.0201071691513057 z" fill="#0165ac" class=""/><path id="path_2" d="M14,13.740107169151306 C14.875,13.429107169151306 15.633000000000001,12.854107169151305 16.169,12.095107169151307 C16.705,11.336107169151306 16.993,10.429107169151306 16.993,9.500107169151306 C16.993,8.571107169151306 16.705,7.664107169151306 16.169,6.9051071691513055 C15.633000000000001,6.146107169151307 14.875,5.571107169151306 14,5.260107169151306 L14,13.740107169151306 zM11,5.260107169151306 C10.125,5.571107169151306 9.367,6.146107169151307 8.831,6.9051071691513055 C8.295,7.664107169151306 8.007,8.571107169151306 8.007,9.500107169151306 C8.007,10.429107169151306 8.295,11.336107169151306 8.831,12.095107169151307 C9.367,12.854107169151305 10.125,13.429107169151306 11,13.740107169151306 L11,5.260107169151306 zM12.5,16.000107169151306 C10.777,16.000107169151306 9.122,15.315107169151307 7.904,14.096107169151306 C6.6850000000000005,12.878107169151306 6,11.223107169151307 6,9.500107169151306 C6,7.777107169151305 6.6850000000000005,6.122107169151306 7.904,4.904107169151306 C9.122,3.6851071691513066 10.777,3.000107169151306 12.5,3.000107169151306 C14.223,3.000107169151306 15.878,3.6851071691513066 17.096,4.904107169151306 C18.315,6.122107169151306 19,7.777107169151305 19,9.500107169151306 C19,11.223107169151307 18.315,12.878107169151306 17.096,14.096107169151306 C15.878,15.315107169151307 14.223,16.000107169151306 12.5,16.000107169151306 z" fill="#ffffff" class=""/></g></svg>