<?xml version="1.0" encoding="UTF-8"?>
<svg xmlns="http://www.w3.org/2000/svg" xmlns:xlink="http://www.w3.org/1999/xlink" width="32pt" height="21pt" viewBox="0 0 32 21" version="1.1">
<g id="surface1">
<path style=" stroke:none;fill-rule:nonzero;fill:rgb(100%,100%,100%);fill-opacity:1;" d="M 21.472656 2.261719 C 19.355469 2.261719 12.582031 2.261719 10.460938 2.261719 C 5.898438 2.261719 2.203125 5.960938 2.203125 10.527344 C 2.203125 15.09375 5.898438 18.796875 10.460938 18.796875 C 12.582031 18.796875 19.355469 18.796875 21.472656 18.796875 C 26.035156 18.796875 29.734375 15.09375 29.734375 10.527344 C 29.734375 5.960938 26.035156 2.261719 21.472656 2.261719 Z M 21.472656 2.261719 "/>
<path style=" stroke:none;fill-rule:evenodd;fill:rgb(87.058824%,0%,0%);fill-opacity:1;" d="M 23.398438 10.027344 L 27.0625 14.386719 C 27.820312 13.289062 28.265625 11.960938 28.265625 10.527344 C 28.265625 9.015625 27.769531 7.617188 26.929688 6.488281 Z M 23.398438 10.027344 "/>
<path style=" stroke:none;fill-rule:evenodd;fill:rgb(87.058824%,0%,0%);fill-opacity:1;" d="M 13.023438 6.117188 C 15.757812 6.117188 17.816406 6.816406 18.03125 9.121094 L 20.90625 6.117188 L 26.640625 6.117188 C 25.390625 4.65625 23.539062 3.730469 21.472656 3.730469 L 10.460938 3.730469 C 8.394531 3.730469 6.542969 4.65625 5.296875 6.117188 C 7.121094 6.117188 11.355469 6.117188 13.023438 6.117188 Z M 13.023438 6.117188 "/>
<path style=" stroke:none;fill-rule:evenodd;fill:rgb(87.058824%,0%,0%);fill-opacity:1;" d="M 8.515625 9.027344 L 7.539062 11.714844 C 7.539062 11.714844 10.429688 11.714844 11.480469 11.714844 C 12.644531 11.714844 12.996094 11.230469 13.257812 10.300781 C 13.515625 9.382812 12.867188 9.027344 12.070312 9.027344 C 11.402344 9.027344 8.515625 9.027344 8.515625 9.027344 Z M 8.515625 9.027344 "/>
<path style=" stroke:none;fill-rule:evenodd;fill:rgb(87.058824%,0%,0%);fill-opacity:1;" d="M 20.933594 14.753906 L 17.886719 10.902344 C 17.324219 13.527344 15.484375 14.753906 12.027344 14.753906 C 9.4375 14.753906 6.40625 14.753906 5.144531 14.753906 C 6.390625 16.320312 8.3125 17.324219 10.460938 17.324219 L 21.472656 17.324219 C 23.625 17.324219 25.542969 16.320312 26.789062 14.753906 Z M 20.933594 14.753906 "/>
</g>
</svg>
