<svg xmlns="http://www.w3.org/2000/svg" width="29" height="19"><rect id="backgroundrect" width="100%" height="100%" x="0" y="0" fill="none" stroke="none"/>
    
    
    
    
    
    
    
<g class="currentLayer" style=""><title>Layer 1</title><path id="path" d="M26.58,19.000107169151306 L2.42,19.000107169151306 C1.999,19.004107169151307 1.584,18.896107169151307 1.217,18.688107169151305 C0.8510000000000001,18.481107169151308 0.545,18.180107169151306 0.3320000000000001,17.817107169151306 C0.11800000000000002,17.454107169151307 0.003000000000000001,17.041107169151307 0,16.620107169151307 L0,2.380107169151306 C0.003000000000000001,1.9591071691513062 0.11800000000000002,1.5461071691513064 0.3320000000000001,1.183107169151306 C0.545,0.8201071691513064 0.8510000000000001,0.5191071691513063 1.217,0.31210716915130643 C1.584,0.10410716915130624 1.999,-0.003892830848693851 2.42,0.00010716915130615234 L26.58,0.00010716915130615234 C27.001,-0.003892830848693851 27.416,0.10410716915130624 27.783,0.31210716915130643 C28.149,0.5191071691513063 28.455,0.8201071691513064 28.668,1.183107169151306 C28.882,1.5461071691513064 28.997,1.9591071691513062 29,2.380107169151306 L29,16.630107169151305 C28.992,17.265107169151307 28.733,17.871107169151305 28.279,18.315107169151307 C27.826,18.759107169151306 27.215,19.005107169151305 26.58,19.000107169151306 z" fill="#ebf1f8" class=""/><path id="path_1" d="M5,17.000107169151306 L9,17.000107169151306 C9.91,17.000107169151306 11,15.880107169151305 11,15.000107169151306 L11,2.000107169151306 L7,2.000107169151306 C6.09,2.000107169151306 5,3.1201071691513063 5,5.000107169151306 L5,17.000107169151306 z" fill="#047ab1" class=""/><path id="path_2" d="M7.27,12.140107169151307 C6.502,12.140107169151307 5.738,12.032107169151306 5,11.820107169151306 L5,10.720107169151307 C5.573,11.074107169151306 6.227,11.274107169151307 6.9,11.300107169151307 C7.67,11.300107169151307 8.1,10.760107169151306 8.1,10.020107169151306 L8.1,7.000107169151306 L10,7.000107169151306 L10,10.020107169151306 C10,11.200107169151305 9.38,12.140107169151307 7.27,12.140107169151307 z" fill="#ffffff" class=""/><path id="path_3" d="M12,17.000107169151306 L16,17.000107169151306 C16.91,17.000107169151306 18,15.880107169151305 18,15.000107169151306 L18,2.000107169151306 L14,2.000107169151306 C13.09,2.000107169151306 12,3.1201071691513063 12,5.000107169151306 L12,17.000107169151306 z" fill="#d42d06" class=""/><path id="path_4" d="M12,7.700107169151305 C12.58,7.140107169151307 13.58,6.790107169151305 15.2,6.870107169151307 C16.08,6.910107169151306 17,7.170107169151306 17,7.170107169151306 L17,8.280107169151306 C16.474,7.962107169151306 15.882,7.767107169151306 15.27,7.710107169151307 C14.04,7.600107169151306 13.29,8.290107169151305 13.29,9.500107169151306 C13.29,10.710107169151307 14.04,11.400107169151307 15.27,11.300107169151307 C15.883000000000001,11.238107169151306 16.474,11.040107169151305 17,10.720107169151307 L17,11.820107169151306 C17,11.820107169151306 16.08,12.090107169151306 15.2,12.130107169151307 C13.58,12.210107169151307 12.58,11.860107169151306 12,11.300107169151307 L12,7.700107169151305 z" fill="#ffffff" class=""/><path id="path_5" d="M19,17.000107169151306 L23,17.000107169151306 C23.91,17.000107169151306 25,15.880107169151305 25,15.000107169151306 L25,2.000107169151306 L21,2.000107169151306 C20.09,2.000107169151306 19,3.1201071691513063 19,5.000107169151306 L19,17.000107169151306 z" fill="#67b637" class=""/><path id="path_6" d="M24,10.700107169151305 C24,11.500107169151306 23.38,12.000107169151306 22.55,12.000107169151306 L19,12.000107169151306 L19,7.000107169151306 L22.23,7.000107169151306 L22.46,7.010107169151306 C23.19,7.050107169151307 23.73,7.480107169151307 23.73,8.220107169151307 C23.73,8.800107169151307 23.36,9.300107169151307 22.69,9.420107169151306 L22.69,9.450107169151305 C23.43,9.500107169151306 24,9.970107169151307 24,10.700107169151305 zM21.45,7.790107169151305 C21.407,7.784107169151307 21.364,7.7801071691513055 21.32,7.7801071691513055 L20.12,7.7801071691513055 L20.12,9.040107169151305 L21.45,9.040107169151305 C21.7,8.980107169151307 21.91,8.750107169151306 21.91,8.410107169151306 C21.91,8.070107169151306 21.7,7.840107169151306 21.45,7.790107169151305 zM21.6,9.830107169151306 C21.547,9.822107169151305 21.494,9.818107169151306 21.44,9.820107169151306 L20.12,9.820107169151306 L20.12,11.190107169151306 L21.44,11.190107169151306 L21.6,11.170107169151306 C21.85,11.110107169151306 22.06,10.850107169151306 22.06,10.500107169151306 C22.06,10.150107169151307 21.86,9.900107169151307 21.6,9.830107169151306 z" fill="#ffffff" class=""/></g></svg>