<svg xmlns="http://www.w3.org/2000/svg" width="29" height="19"><rect id="backgroundrect" width="100%" height="100%" x="0" y="0" fill="none" stroke="none"/>
    
    
    
    
<g class="currentLayer" style=""><title>Layer 1</title><path id="path_7" d="M26.58,19.000107169151306 L2.42,19.000107169151306 C1.999,19.004107169151307 1.584,18.896107169151307 1.217,18.688107169151305 C0.8510000000000001,18.481107169151308 0.545,18.180107169151306 0.3320000000000001,17.817107169151306 C0.11800000000000002,17.454107169151307 0.003000000000000001,17.041107169151307 0,16.620107169151307 L0,2.380107169151306 C0.003000000000000001,1.9591071691513062 0.11800000000000002,1.5461071691513064 0.3320000000000001,1.183107169151306 C0.545,0.8201071691513064 0.8510000000000001,0.5191071691513063 1.217,0.31210716915130643 C1.584,0.10410716915130624 1.999,-0.003892830848693851 2.42,0.00010716915130615234 L26.58,0.00010716915130615234 C27.001,-0.003892830848693851 27.416,0.10410716915130624 27.783,0.31210716915130643 C28.149,0.5191071691513063 28.455,0.8201071691513064 28.668,1.183107169151306 C28.882,1.5461071691513064 28.997,1.9591071691513062 29,2.380107169151306 L29,16.630107169151305 C28.992,17.265107169151307 28.733,17.871107169151305 28.279,18.315107169151307 C27.826,18.759107169151306 27.215,19.005107169151305 26.58,19.000107169151306 z" fill="#003663" class=""/><path id="path_8" d="M10.5,9.500107169151306 M4,9.500107169151306 C4,7.777107169151305 4.6850000000000005,6.122107169151306 5.904,4.904107169151306 C7.122,3.6851071691513066 8.777,3.000107169151306 10.5,3.000107169151306 C12.223,3.000107169151306 13.878,3.6851071691513066 15.096,4.904107169151306 C16.315,6.122107169151306 17,7.777107169151305 17,9.500107169151306 C17,11.223107169151307 16.315,12.878107169151306 15.096,14.096107169151306 C13.878,15.315107169151307 12.223,16.000107169151306 10.5,16.000107169151306 C8.777,16.000107169151306 7.122,15.315107169151307 5.904,14.096107169151306 C4.6850000000000005,12.878107169151306 4,11.223107169151307 4,9.500107169151306 " fill="#eb1c26" class=""/><path id="path_9" d="M18.5,9.500107169151306 M12,9.500107169151306 C12,7.777107169151305 12.685,6.122107169151306 13.904,4.904107169151306 C15.122,3.6851071691513066 16.777,3.000107169151306 18.5,3.000107169151306 C20.223,3.000107169151306 21.878,3.6851071691513066 23.096,4.904107169151306 C24.315,6.122107169151306 25,7.777107169151305 25,9.500107169151306 C25,11.223107169151307 24.315,12.878107169151306 23.096,14.096107169151306 C21.878,15.315107169151307 20.223,16.000107169151306 18.5,16.000107169151306 C16.777,16.000107169151306 15.122,15.315107169151307 13.904,14.096107169151306 C12.685,12.878107169151306 12,11.223107169151307 12,9.500107169151306 " fill="#f99f1b" class=""/><path id="path_10" d="M14.5,4.380107169151306 C13.458,5.192107169151306 12.688,6.303107169151307 12.294,7.563107169151307 C11.9,8.824107169151306 11.9,10.176107169151306 12.294,11.437107169151306 C12.688,12.697107169151307 13.458,13.808107169151306 14.5,14.620107169151307 C15.542,13.808107169151306 16.312,12.697107169151307 16.706,11.437107169151306 C17.1,10.176107169151306 17.1,8.824107169151306 16.706,7.563107169151307 C16.312,6.303107169151307 15.542,5.192107169151306 14.5,4.380107169151306 z" fill="#ef5d20" class=""/></g></svg>