<?xml version="1.0" encoding="UTF-8"?>
<svg xmlns="http://www.w3.org/2000/svg" xmlns:xlink="http://www.w3.org/1999/xlink" width="31pt" height="20pt" viewBox="0 0 31 20" version="1.1">
<g id="surface1">
<path style=" stroke:none;fill-rule:evenodd;fill:rgb(7.843137%,27.843137%,48.627451%);fill-opacity:1;" d="M 30.996094 18.933594 C 30.996094 19.523438 30.539062 19.996094 29.976562 19.996094 L 1.28125 19.996094 C 0.714844 19.996094 0.261719 19.523438 0.261719 18.933594 L 0.261719 1.066406 C 0.261719 0.476562 0.714844 0.00390625 1.28125 0.00390625 L 29.976562 0.00390625 C 30.539062 0.00390625 30.996094 0.476562 30.996094 1.066406 Z M 30.996094 18.933594 "/>
<path style=" stroke:none;fill-rule:evenodd;fill:rgb(92.156863%,13.333333%,18.823529%);fill-opacity:1;" d="M 19.289062 15.742188 L 19.574219 15.734375 L 19.855469 15.710938 L 20.128906 15.675781 L 20.398438 15.628906 L 20.671875 15.5625 L 20.929688 15.484375 L 21.191406 15.390625 L 21.4375 15.289062 L 21.6875 15.175781 L 21.921875 15.050781 L 22.15625 14.910156 L 22.378906 14.761719 L 22.59375 14.597656 L 22.800781 14.429688 L 23.003906 14.246094 L 23.195312 14.058594 L 23.378906 13.851562 L 23.550781 13.648438 L 23.71875 13.433594 L 23.871094 13.203125 L 24.015625 12.96875 L 24.148438 12.730469 L 24.269531 12.484375 L 24.378906 12.230469 L 24.476562 11.964844 L 24.570312 11.703125 L 24.703125 11.148438 L 24.753906 10.867188 L 24.78125 10.578125 L 24.804688 10.28125 L 24.816406 9.988281 L 24.804688 9.691406 L 24.78125 9.40625 L 24.753906 9.117188 L 24.703125 8.832031 L 24.570312 8.285156 L 24.476562 8.023438 L 24.378906 7.765625 L 24.269531 7.511719 L 24.148438 7.257812 L 24.015625 7.019531 L 23.871094 6.789062 L 23.71875 6.5625 L 23.550781 6.34375 L 23.378906 6.140625 L 23.195312 5.9375 L 23.003906 5.75 L 22.800781 5.570312 L 22.59375 5.394531 L 22.378906 5.238281 L 22.15625 5.089844 L 21.921875 4.949219 L 21.6875 4.824219 L 21.4375 4.710938 L 21.191406 4.609375 L 20.929688 4.519531 L 20.671875 4.441406 L 20.398438 4.375 L 20.128906 4.324219 L 19.855469 4.289062 L 19.574219 4.265625 L 19.289062 4.257812 L 19 4.265625 L 18.722656 4.289062 L 18.445312 4.324219 L 18.175781 4.375 L 17.910156 4.441406 L 17.644531 4.519531 L 17.390625 4.609375 L 17.136719 4.710938 L 16.894531 4.824219 L 16.65625 4.949219 L 16.425781 5.089844 L 16.199219 5.238281 L 15.988281 5.394531 L 15.777344 5.570312 L 15.578125 5.75 L 15.386719 5.9375 L 15.199219 6.140625 L 15.027344 6.34375 L 14.867188 6.5625 L 14.710938 6.789062 L 14.570312 7.019531 L 14.4375 7.257812 L 14.316406 7.511719 L 14.207031 7.765625 L 14.109375 8.023438 L 14.015625 8.285156 L 13.882812 8.832031 L 13.839844 9.117188 L 13.804688 9.40625 L 13.78125 9.691406 L 13.773438 9.988281 L 13.78125 10.28125 L 13.804688 10.578125 L 13.839844 10.867188 L 13.882812 11.148438 L 14.015625 11.703125 L 14.109375 11.964844 L 14.207031 12.230469 L 14.316406 12.484375 L 14.4375 12.730469 L 14.570312 12.96875 L 14.710938 13.203125 L 14.867188 13.433594 L 15.027344 13.648438 L 15.199219 13.851562 L 15.386719 14.058594 L 15.578125 14.246094 L 15.777344 14.429688 L 15.988281 14.597656 L 16.199219 14.761719 L 16.425781 14.910156 L 16.65625 15.050781 L 16.894531 15.175781 L 17.136719 15.289062 L 17.390625 15.390625 L 17.644531 15.484375 L 17.910156 15.5625 L 18.175781 15.628906 L 18.445312 15.675781 L 18.722656 15.710938 L 19 15.734375 Z M 19.289062 15.742188 "/>
<path style=" stroke:none;fill-rule:evenodd;fill:rgb(4.313725%,51.764706%,76.862745%);fill-opacity:1;" d="M 11.972656 15.742188 L 12.253906 15.734375 L 12.539062 15.710938 L 12.808594 15.675781 L 13.082031 15.628906 L 13.351562 15.5625 L 13.613281 15.484375 L 13.871094 15.390625 L 14.121094 15.289062 L 14.363281 15.175781 L 14.601562 15.050781 L 14.832031 14.910156 L 15.054688 14.761719 L 15.277344 14.597656 L 15.484375 14.429688 L 15.679688 14.246094 L 15.875 14.058594 L 16.054688 13.851562 L 16.230469 13.648438 L 16.390625 13.433594 L 16.546875 13.203125 L 16.691406 12.96875 L 16.824219 12.730469 L 16.945312 12.484375 L 17.054688 12.230469 L 17.152344 11.964844 L 17.238281 11.703125 L 17.308594 11.425781 L 17.371094 11.148438 L 17.425781 10.867188 L 17.460938 10.578125 L 17.476562 10.28125 L 17.488281 9.988281 L 17.476562 9.691406 L 17.460938 9.40625 L 17.425781 9.117188 L 17.371094 8.832031 L 17.308594 8.558594 L 17.238281 8.285156 L 17.152344 8.023438 L 17.054688 7.765625 L 16.945312 7.511719 L 16.824219 7.257812 L 16.691406 7.019531 L 16.546875 6.789062 L 16.390625 6.5625 L 16.230469 6.34375 L 16.054688 6.140625 L 15.875 5.9375 L 15.679688 5.75 L 15.484375 5.570312 L 15.277344 5.394531 L 15.054688 5.238281 L 14.832031 5.089844 L 14.601562 4.949219 L 14.363281 4.824219 L 14.121094 4.710938 L 13.871094 4.609375 L 13.613281 4.519531 L 13.351562 4.441406 L 13.082031 4.375 L 12.808594 4.324219 L 12.539062 4.289062 L 12.253906 4.265625 L 11.972656 4.257812 L 11.683594 4.265625 L 11.40625 4.289062 L 11.128906 4.324219 L 10.859375 4.375 L 10.59375 4.441406 L 10.328125 4.519531 L 10.074219 4.609375 L 9.820312 4.710938 L 9.574219 4.824219 L 9.339844 4.949219 L 9.101562 5.089844 L 8.882812 5.238281 L 8.664062 5.394531 L 8.457031 5.570312 L 8.253906 5.75 L 8.0625 5.9375 L 7.703125 6.34375 L 7.542969 6.5625 L 7.386719 6.789062 L 7.242188 7.019531 L 7.109375 7.257812 L 6.988281 7.511719 L 6.878906 7.765625 L 6.78125 8.023438 L 6.695312 8.285156 L 6.621094 8.558594 L 6.554688 8.832031 L 6.507812 9.117188 L 6.476562 9.40625 L 6.453125 9.691406 L 6.445312 9.988281 L 6.453125 10.28125 L 6.476562 10.578125 L 6.507812 10.867188 L 6.554688 11.148438 L 6.621094 11.425781 L 6.695312 11.703125 L 6.78125 11.964844 L 6.878906 12.230469 L 6.988281 12.484375 L 7.109375 12.730469 L 7.242188 12.96875 L 7.386719 13.203125 L 7.542969 13.433594 L 7.703125 13.648438 L 7.882812 13.851562 L 8.0625 14.058594 L 8.253906 14.246094 L 8.457031 14.429688 L 8.664062 14.597656 L 8.882812 14.761719 L 9.101562 14.910156 L 9.339844 15.050781 L 9.574219 15.175781 L 9.820312 15.289062 L 10.074219 15.390625 L 10.328125 15.484375 L 10.59375 15.5625 L 10.859375 15.628906 L 11.128906 15.675781 L 11.40625 15.710938 L 11.683594 15.734375 Z M 11.972656 15.742188 "/>
<path style=" stroke:none;fill-rule:evenodd;fill:rgb(92.156863%,13.333333%,18.823529%);fill-opacity:1;" d="M 14.953125 6.441406 L 17.75 6.441406 L 17.75 6.121094 L 15.21875 6.121094 Z M 14.953125 6.441406 "/>
<path style=" stroke:none;fill-rule:evenodd;fill:rgb(92.156863%,13.333333%,18.823529%);fill-opacity:1;" d="M 14.515625 7.121094 L 17.75 7.121094 L 17.75 6.800781 L 14.703125 6.800781 Z M 14.515625 7.121094 "/>
<path style=" stroke:none;fill-rule:evenodd;fill:rgb(92.156863%,13.333333%,18.823529%);fill-opacity:1;" d="M 14.183594 7.8125 L 17.75 7.8125 L 17.75 7.492188 L 14.335938 7.492188 Z M 14.183594 7.8125 "/>
<path style=" stroke:none;fill-rule:evenodd;fill:rgb(92.156863%,13.333333%,18.823529%);fill-opacity:1;" d="M 13.972656 8.492188 L 17.75 8.492188 L 17.75 8.171875 L 14.0625 8.171875 Z M 13.972656 8.492188 "/>
<path style=" stroke:none;fill-rule:evenodd;fill:rgb(92.156863%,13.333333%,18.823529%);fill-opacity:1;" d="M 13.828125 9.175781 L 17.75 9.175781 L 17.75 8.851562 L 13.882812 8.851562 Z M 13.828125 9.175781 "/>
<path style=" stroke:none;fill-rule:evenodd;fill:rgb(92.156863%,13.333333%,18.823529%);fill-opacity:1;" d="M 13.796875 10.492188 L 17.75 10.492188 L 17.75 10.175781 L 13.773438 10.175781 Z M 13.796875 10.492188 "/>
<path style=" stroke:none;fill-rule:evenodd;fill:rgb(92.156863%,13.333333%,18.823529%);fill-opacity:1;" d="M 13.894531 11.214844 L 17.75 11.214844 L 17.75 10.890625 L 13.839844 10.890625 Z M 13.894531 11.214844 "/>
<path style=" stroke:none;fill-rule:evenodd;fill:rgb(92.156863%,13.333333%,18.823529%);fill-opacity:1;" d="M 14.082031 11.796875 L 17.75 11.796875 L 17.75 11.472656 L 13.988281 11.472656 Z M 14.082031 11.796875 "/>
<path style=" stroke:none;fill-rule:evenodd;fill:rgb(92.156863%,13.333333%,18.823529%);fill-opacity:1;" d="M 14.359375 12.507812 L 17.75 12.507812 L 17.75 12.183594 L 14.214844 12.183594 Z M 14.359375 12.507812 "/>
<path style=" stroke:none;fill-rule:evenodd;fill:rgb(92.156863%,13.333333%,18.823529%);fill-opacity:1;" d="M 14.757812 13.222656 L 17.75 13.222656 L 17.75 12.902344 L 14.546875 12.902344 Z M 14.757812 13.222656 "/>
<path style=" stroke:none;fill-rule:evenodd;fill:rgb(92.156863%,13.333333%,18.823529%);fill-opacity:1;" d="M 15.246094 13.914062 L 17.71875 13.914062 L 17.71875 13.59375 L 14.976562 13.59375 Z M 15.246094 13.914062 "/>
<path style=" stroke:none;fill-rule:evenodd;fill:rgb(92.156863%,13.333333%,18.823529%);fill-opacity:1;" d="M 23.90625 13.515625 L 23.921875 13.460938 L 23.949219 13.414062 L 23.984375 13.371094 L 24.027344 13.34375 L 24.066406 13.3125 L 24.117188 13.300781 L 24.171875 13.292969 L 24.222656 13.300781 L 24.273438 13.3125 L 24.320312 13.34375 L 24.359375 13.371094 L 24.394531 13.414062 L 24.417969 13.460938 L 24.4375 13.515625 L 24.378906 13.515625 L 24.367188 13.480469 L 24.347656 13.4375 L 24.320312 13.402344 L 24.292969 13.378906 L 24.257812 13.359375 L 24.214844 13.34375 L 24.128906 13.34375 L 24.082031 13.359375 L 24.050781 13.378906 L 24.015625 13.402344 L 23.992188 13.4375 L 23.972656 13.480469 L 23.960938 13.515625 Z M 23.90625 13.515625 "/>
<path style=" stroke:none;fill-rule:evenodd;fill:rgb(92.156863%,13.333333%,18.823529%);fill-opacity:1;" d="M 24.078125 13.515625 L 24.078125 13.445312 L 24.183594 13.445312 L 24.207031 13.449219 L 24.222656 13.449219 L 24.238281 13.457031 L 24.257812 13.460938 L 24.269531 13.472656 L 24.273438 13.488281 L 24.28125 13.5 L 24.28125 13.515625 L 24.234375 13.515625 L 24.234375 13.503906 L 24.226562 13.5 L 24.222656 13.492188 L 24.214844 13.488281 L 24.210938 13.480469 L 24.199219 13.480469 L 24.195312 13.472656 L 24.125 13.472656 L 24.125 13.515625 Z M 24.078125 13.515625 "/>
<path style=" stroke:none;fill-rule:evenodd;fill:rgb(92.156863%,13.333333%,18.823529%);fill-opacity:1;" d="M 23.90625 13.566406 L 23.90625 13.515625 L 23.960938 13.515625 L 23.957031 13.523438 L 23.957031 13.566406 Z M 23.90625 13.566406 "/>
<path style=" stroke:none;fill-rule:evenodd;fill:rgb(92.156863%,13.333333%,18.823529%);fill-opacity:1;" d="M 24.078125 13.566406 L 24.078125 13.515625 L 24.125 13.515625 L 24.125 13.554688 L 24.210938 13.554688 L 24.222656 13.546875 L 24.226562 13.546875 L 24.234375 13.535156 L 24.234375 13.515625 L 24.28125 13.515625 L 24.28125 13.546875 L 24.273438 13.558594 L 24.269531 13.566406 Z M 24.078125 13.566406 "/>
<path style=" stroke:none;fill-rule:evenodd;fill:rgb(92.156863%,13.333333%,18.823529%);fill-opacity:1;" d="M 24.382812 13.566406 L 24.378906 13.523438 L 24.378906 13.515625 L 24.4375 13.515625 L 24.441406 13.566406 Z M 24.382812 13.566406 "/>
<path style=" stroke:none;fill-rule:evenodd;fill:rgb(92.156863%,13.333333%,18.823529%);fill-opacity:1;" d="M 23.90625 13.566406 L 23.898438 13.570312 L 23.90625 13.632812 L 23.921875 13.683594 L 23.949219 13.726562 L 23.984375 13.769531 L 24.027344 13.800781 L 24.066406 13.824219 L 24.117188 13.839844 L 24.171875 13.847656 L 24.222656 13.839844 L 24.273438 13.824219 L 24.320312 13.800781 L 24.359375 13.769531 L 24.394531 13.726562 L 24.417969 13.683594 L 24.4375 13.632812 L 24.441406 13.570312 L 24.441406 13.566406 L 24.382812 13.566406 L 24.382812 13.570312 L 24.378906 13.625 L 24.367188 13.667969 L 24.347656 13.710938 L 24.320312 13.738281 L 24.292969 13.769531 L 24.257812 13.789062 L 24.214844 13.804688 L 24.128906 13.804688 L 24.082031 13.789062 L 24.050781 13.769531 L 24.015625 13.738281 L 23.992188 13.710938 L 23.972656 13.667969 L 23.957031 13.625 L 23.957031 13.566406 Z M 23.90625 13.566406 "/>
<path style=" stroke:none;fill-rule:evenodd;fill:rgb(92.156863%,13.333333%,18.823529%);fill-opacity:1;" d="M 24.078125 13.566406 L 24.078125 13.679688 L 24.125 13.679688 L 24.125 13.582031 L 24.171875 13.582031 L 24.226562 13.679688 L 24.273438 13.679688 L 24.207031 13.582031 L 24.238281 13.582031 L 24.25 13.578125 L 24.261719 13.566406 L 24.269531 13.566406 Z M 24.078125 13.566406 "/>
<path style=" stroke:none;fill-rule:evenodd;fill:rgb(100%,100%,100%);fill-opacity:1;" d="M 18.09375 9.507812 L 18.058594 9.5 L 18.019531 9.5 L 17.992188 9.496094 L 17.957031 9.488281 L 17.921875 9.484375 L 17.890625 9.476562 L 17.859375 9.472656 L 17.816406 9.464844 L 17.78125 9.464844 L 17.742188 9.457031 L 17.695312 9.453125 L 17.535156 9.453125 L 17.464844 9.457031 L 17.394531 9.464844 L 17.34375 9.472656 L 17.292969 9.484375 L 17.246094 9.5 L 17.203125 9.519531 L 17.171875 9.539062 L 17.136719 9.5625 L 17.089844 9.609375 L 17.074219 9.644531 L 17.058594 9.675781 L 17.054688 9.707031 L 17.054688 9.742188 L 17.078125 9.8125 L 17.09375 9.851562 L 17.125 9.886719 L 17.175781 9.933594 L 17.234375 9.96875 L 17.308594 10.007812 L 17.382812 10.035156 L 17.472656 10.058594 L 17.550781 10.089844 L 17.636719 10.125 L 17.726562 10.164062 L 17.800781 10.203125 L 17.875 10.257812 L 17.9375 10.332031 L 17.996094 10.414062 L 18.035156 10.515625 L 18.066406 10.636719 L 18.070312 10.78125 L 18.066406 10.949219 L 18.042969 11.074219 L 18.015625 11.191406 L 17.96875 11.292969 L 17.914062 11.382812 L 17.859375 11.460938 L 17.789062 11.527344 L 17.714844 11.585938 L 17.632812 11.640625 L 17.550781 11.683594 L 17.464844 11.714844 L 17.378906 11.742188 L 17.285156 11.761719 L 17.199219 11.78125 L 17.113281 11.785156 L 17.027344 11.792969 L 16.945312 11.796875 L 16.835938 11.796875 L 16.730469 11.792969 L 16.550781 11.792969 L 16.476562 11.785156 L 16.410156 11.78125 L 16.34375 11.78125 L 16.285156 11.765625 L 16.230469 11.761719 L 16.175781 11.75 L 16.132812 11.742188 L 16.085938 11.730469 L 16.042969 11.714844 L 16 11.703125 L 15.953125 11.683594 L 15.90625 11.671875 L 16.019531 11.074219 L 16.078125 11.09375 L 16.113281 11.101562 L 16.207031 11.125 L 16.257812 11.136719 L 16.320312 11.148438 L 16.378906 11.160156 L 16.449219 11.167969 L 16.511719 11.179688 L 16.585938 11.183594 L 16.65625 11.191406 L 16.730469 11.195312 L 16.960938 11.195312 L 17.039062 11.179688 L 17.09375 11.160156 L 17.140625 11.128906 L 17.175781 11.09375 L 17.203125 11.058594 L 17.222656 11.015625 L 17.238281 10.972656 L 17.25 10.933594 L 17.257812 10.890625 L 17.257812 10.847656 L 17.246094 10.8125 L 17.234375 10.78125 L 17.210938 10.75 L 17.1875 10.726562 L 17.160156 10.703125 L 17.125 10.679688 L 17.082031 10.660156 L 17.042969 10.636719 L 16.996094 10.621094 L 16.953125 10.601562 L 16.90625 10.582031 L 16.851562 10.558594 L 16.800781 10.542969 L 16.75 10.515625 L 16.695312 10.492188 L 16.644531 10.46875 L 16.597656 10.4375 L 16.546875 10.410156 L 16.5 10.378906 L 16.453125 10.34375 L 16.414062 10.300781 L 16.378906 10.257812 L 16.34375 10.210938 L 16.308594 10.15625 L 16.285156 10.097656 L 16.265625 10.035156 L 16.253906 9.964844 L 16.242188 9.890625 L 16.242188 9.808594 L 16.246094 9.71875 L 16.253906 9.664062 L 16.257812 9.609375 L 16.265625 9.5625 L 16.273438 9.511719 L 16.296875 9.417969 L 16.316406 9.375 L 16.332031 9.328125 L 16.351562 9.289062 L 16.398438 9.210938 L 16.417969 9.175781 L 16.449219 9.144531 L 16.476562 9.109375 L 16.507812 9.078125 L 16.542969 9.054688 L 16.574219 9.027344 L 16.617188 9.003906 L 16.65625 8.976562 L 16.703125 8.960938 L 16.75 8.9375 L 16.796875 8.917969 L 16.847656 8.90625 L 16.898438 8.886719 L 16.957031 8.875 L 17.019531 8.863281 L 17.078125 8.859375 L 17.148438 8.847656 L 17.21875 8.839844 L 17.285156 8.839844 L 17.359375 8.832031 L 17.621094 8.832031 L 17.703125 8.839844 L 17.769531 8.839844 L 17.835938 8.847656 L 17.890625 8.851562 L 17.945312 8.859375 L 17.992188 8.859375 L 18.03125 8.863281 L 18.070312 8.871094 L 18.105469 8.875 L 18.132812 8.882812 L 18.15625 8.882812 L 18.179688 8.886719 L 18.203125 8.894531 L 18.222656 8.894531 Z M 18.09375 9.507812 "/>
<path style=" stroke:none;fill-rule:evenodd;fill:rgb(100%,100%,100%);fill-opacity:1;" d="M 18.691406 8.246094 L 19.417969 8.246094 L 19.308594 8.898438 L 19.753906 8.898438 L 19.652344 9.507812 L 19.191406 9.496094 L 18.957031 10.996094 L 18.949219 11.027344 L 18.949219 11.058594 L 18.957031 11.082031 L 18.960938 11.105469 L 18.972656 11.125 L 18.984375 11.140625 L 19 11.160156 L 19.019531 11.171875 L 19.042969 11.183594 L 19.066406 11.191406 L 19.089844 11.195312 L 19.109375 11.203125 L 19.140625 11.207031 L 19.167969 11.207031 L 19.203125 11.214844 L 19.289062 11.214844 L 19.34375 11.207031 L 19.386719 11.203125 L 19.429688 11.191406 L 19.457031 11.183594 L 19.480469 11.171875 L 19.496094 11.167969 L 19.503906 11.167969 L 19.429688 11.675781 L 19.410156 11.6875 L 19.386719 11.703125 L 19.371094 11.707031 L 19.332031 11.726562 L 19.308594 11.730469 L 19.285156 11.742188 L 19.261719 11.75 L 19.238281 11.753906 L 19.210938 11.761719 L 19.179688 11.765625 L 19.109375 11.78125 L 19.078125 11.785156 L 19.03125 11.792969 L 18.988281 11.796875 L 18.792969 11.796875 L 18.691406 11.785156 L 18.597656 11.78125 L 18.515625 11.761719 L 18.445312 11.742188 L 18.382812 11.71875 L 18.335938 11.6875 L 18.292969 11.660156 L 18.257812 11.625 L 18.210938 11.539062 L 18.199219 11.492188 L 18.191406 11.4375 L 18.1875 11.382812 L 18.191406 11.324219 L 18.199219 11.261719 L 18.203125 11.195312 Z M 18.691406 8.246094 "/>
<path style=" stroke:none;fill-rule:evenodd;fill:rgb(100%,100%,100%);fill-opacity:1;" d="M 13.25 11.195312 L 13.144531 11.796875 L 12.492188 11.796875 L 12.5 11.738281 L 12.515625 11.628906 L 12.519531 11.585938 L 12.527344 11.546875 L 12.53125 11.507812 L 12.542969 11.484375 L 12.550781 11.472656 L 12.515625 11.515625 L 12.46875 11.558594 L 12.421875 11.597656 L 12.367188 11.636719 L 12.308594 11.671875 L 12.246094 11.707031 L 12.175781 11.738281 L 12.101562 11.761719 L 12.023438 11.785156 L 11.949219 11.808594 L 11.800781 11.832031 L 11.722656 11.839844 L 11.648438 11.84375 L 11.574219 11.839844 L 11.503906 11.828125 L 11.414062 11.804688 L 11.332031 11.773438 L 11.257812 11.738281 L 11.191406 11.695312 L 11.136719 11.652344 L 11.082031 11.605469 L 11.003906 11.496094 L 10.972656 11.441406 L 10.925781 11.324219 L 10.910156 11.261719 L 10.902344 11.195312 L 10.894531 11.136719 L 10.894531 11.074219 L 10.886719 11.015625 L 10.910156 10.8125 L 10.933594 10.714844 L 10.96875 10.625 L 11.015625 10.542969 L 11.058594 10.460938 L 11.117188 10.382812 L 11.175781 10.320312 L 11.246094 10.257812 L 11.316406 10.199219 L 11.390625 10.148438 L 11.46875 10.109375 L 11.550781 10.066406 L 11.636719 10.035156 L 11.722656 10.019531 L 11.8125 10 L 11.828125 10 L 11.851562 9.992188 L 11.875 9.992188 L 11.910156 9.988281 L 11.945312 9.980469 L 11.984375 9.976562 L 12.023438 9.976562 L 12.070312 9.96875 L 12.109375 9.964844 L 12.15625 9.964844 L 12.203125 9.957031 L 12.246094 9.953125 L 12.585938 9.953125 L 12.613281 9.957031 L 12.707031 9.957031 L 12.710938 9.941406 L 12.730469 9.898438 L 12.734375 9.84375 L 12.734375 9.757812 L 12.730469 9.730469 L 12.707031 9.667969 L 12.6875 9.644531 L 12.671875 9.621094 L 12.632812 9.574219 L 12.609375 9.554688 L 12.585938 9.542969 L 12.554688 9.523438 L 12.53125 9.511719 L 12.503906 9.5 L 12.46875 9.496094 L 12.441406 9.488281 L 12.410156 9.484375 L 12.253906 9.484375 L 12.175781 9.488281 L 12.09375 9.496094 L 12.007812 9.5 L 11.925781 9.507812 L 11.839844 9.519531 L 11.757812 9.523438 L 11.683594 9.539062 L 11.609375 9.550781 L 11.539062 9.5625 L 11.476562 9.578125 L 11.425781 9.589844 L 11.371094 9.609375 L 11.335938 9.621094 L 11.308594 9.640625 L 11.492188 8.996094 L 11.609375 8.949219 L 11.667969 8.929688 L 11.730469 8.914062 L 11.792969 8.894531 L 11.855469 8.886719 L 11.925781 8.875 L 11.996094 8.871094 L 12.070312 8.863281 L 12.144531 8.863281 L 12.222656 8.859375 L 12.464844 8.859375 L 12.554688 8.863281 L 12.644531 8.863281 L 12.71875 8.871094 L 12.796875 8.882812 L 12.878906 8.898438 L 13.042969 8.960938 L 13.121094 8.996094 L 13.195312 9.042969 L 13.273438 9.097656 L 13.335938 9.160156 L 13.398438 9.226562 L 13.449219 9.296875 L 13.484375 9.378906 L 13.515625 9.464844 L 13.53125 9.5625 L 13.539062 9.664062 L 13.519531 9.777344 Z M 13.25 11.195312 "/>
<path style=" stroke:none;fill-rule:evenodd;fill:rgb(4.313725%,51.764706%,76.862745%);fill-opacity:1;" d="M 12.625 10.480469 L 12.625 10.46875 L 12.613281 10.457031 L 12.597656 10.449219 L 12.574219 10.445312 L 12.539062 10.4375 L 12.390625 10.4375 L 12.34375 10.445312 L 12.300781 10.449219 L 12.261719 10.457031 L 12.222656 10.46875 L 12.179688 10.476562 L 12.152344 10.480469 L 12.121094 10.492188 L 12.105469 10.5 L 12.082031 10.503906 L 12.058594 10.515625 L 12.023438 10.527344 L 11.996094 10.542969 L 11.960938 10.558594 L 11.925781 10.578125 L 11.855469 10.625 L 11.828125 10.65625 L 11.792969 10.683594 L 11.769531 10.714844 L 11.742188 10.75 L 11.722656 10.792969 L 11.714844 10.835938 L 11.703125 10.882812 L 11.695312 10.972656 L 11.714844 11.046875 L 11.730469 11.101562 L 11.765625 11.140625 L 11.804688 11.171875 L 11.847656 11.191406 L 11.890625 11.203125 L 12.011719 11.203125 L 12.089844 11.195312 L 12.152344 11.179688 L 12.210938 11.167969 L 12.265625 11.140625 L 12.3125 11.125 L 12.394531 11.070312 L 12.429688 11.039062 L 12.464844 11.003906 L 12.488281 10.972656 L 12.507812 10.945312 L 12.527344 10.914062 L 12.539062 10.882812 L 12.550781 10.855469 L 12.5625 10.824219 L 12.566406 10.78125 L 12.578125 10.738281 L 12.585938 10.691406 L 12.597656 10.644531 L 12.601562 10.601562 L 12.609375 10.558594 L 12.621094 10.515625 Z M 12.625 10.480469 "/>
<path style=" stroke:none;fill-rule:evenodd;fill:rgb(100%,100%,100%);fill-opacity:1;" d="M 7.78125 11.796875 L 7.070312 11.796875 L 7.664062 8.246094 L 8.898438 8.246094 L 9.023438 10.355469 L 9.859375 8.246094 L 11.140625 8.246094 L 10.539062 11.796875 L 9.835938 11.796875 L 10.28125 9.132812 L 10.25 9.132812 L 9.199219 11.796875 L 8.402344 11.796875 L 8.398438 11.683594 L 8.378906 11.386719 L 8.355469 10.96875 L 8.328125 10.488281 L 8.304688 10 L 8.28125 9.574219 L 8.265625 9.265625 L 8.257812 9.132812 L 8.21875 9.132812 L 8.230469 9.132812 Z M 7.78125 11.796875 "/>
<path style=" stroke:none;fill-rule:evenodd;fill:rgb(100%,100%,100%);fill-opacity:1;" d="M 19.625 11.796875 L 20.359375 11.796875 L 20.613281 10.257812 L 20.625 10.199219 L 20.636719 10.144531 L 20.652344 10.085938 L 20.671875 10.03125 L 20.6875 9.976562 L 20.714844 9.921875 L 20.746094 9.875 L 20.78125 9.824219 L 20.820312 9.785156 L 20.867188 9.746094 L 20.925781 9.710938 L 20.988281 9.679688 L 21.058594 9.65625 L 21.136719 9.640625 L 21.230469 9.628906 L 21.335938 9.621094 L 21.351562 9.621094 L 21.371094 9.628906 L 21.402344 9.628906 L 21.414062 9.632812 L 21.421875 9.621094 L 21.425781 9.585938 L 21.433594 9.539062 L 21.449219 9.476562 L 21.46875 9.40625 L 21.484375 9.332031 L 21.515625 9.253906 L 21.535156 9.183594 L 21.558594 9.128906 L 21.582031 9.078125 L 21.628906 8.984375 L 21.652344 8.941406 L 21.671875 8.914062 L 21.679688 8.886719 L 21.6875 8.882812 L 21.679688 8.882812 L 21.675781 8.875 L 21.664062 8.875 L 21.640625 8.871094 L 21.625 8.871094 L 21.605469 8.863281 L 21.566406 8.863281 L 21.484375 8.871094 L 21.414062 8.875 L 21.28125 8.914062 L 21.226562 8.929688 L 21.171875 8.960938 L 21.121094 8.988281 L 21.082031 9.019531 L 21.035156 9.054688 L 20.988281 9.09375 L 20.953125 9.132812 L 20.914062 9.183594 L 20.871094 9.230469 L 20.839844 9.277344 L 20.796875 9.332031 L 20.761719 9.386719 L 20.847656 8.898438 L 20.109375 8.894531 Z M 19.625 11.796875 "/>
<path style=" stroke:none;fill-rule:evenodd;fill:rgb(100%,100%,100%);fill-opacity:1;" d="M 23.800781 9.21875 L 23.847656 9.265625 L 23.886719 9.316406 L 23.929688 9.367188 C 24.273438 9.875 24.257812 10.621094 23.960938 11.148438 C 23.691406 11.636719 23.136719 11.886719 22.605469 11.882812 C 21.617188 11.875 21.109375 10.804688 21.425781 9.800781 L 21.457031 9.730469 C 21.832031 8.820312 23.0625 8.539062 23.800781 9.21875 Z M 23.800781 9.21875 "/>
<path style=" stroke:none;fill-rule:evenodd;fill:rgb(100%,100%,100%);fill-opacity:1;" d="M 23.898438 11.652344 L 24.113281 11.652344 L 24.113281 11.675781 L 24.03125 11.675781 L 24.03125 11.863281 L 23.984375 11.863281 L 23.984375 11.675781 L 23.898438 11.675781 Z M 23.898438 11.652344 "/>
<path style=" stroke:none;fill-rule:evenodd;fill:rgb(100%,100%,100%);fill-opacity:1;" d="M 24.140625 11.652344 L 24.207031 11.652344 L 24.28125 11.816406 L 24.355469 11.652344 L 24.425781 11.652344 L 24.425781 11.863281 L 24.371094 11.863281 L 24.371094 11.703125 L 24.304688 11.863281 L 24.261719 11.863281 L 24.1875 11.703125 L 24.1875 11.863281 L 24.140625 11.863281 Z M 24.140625 11.652344 "/>
<path style=" stroke:none;fill-rule:evenodd;fill:rgb(92.156863%,13.333333%,18.823529%);fill-opacity:1;" d="M 23.175781 10.699219 C 23.296875 10.414062 23.386719 9.957031 23.210938 9.679688 C 23.078125 9.472656 22.8125 9.453125 22.609375 9.578125 C 22.316406 9.765625 22.195312 10.191406 22.222656 10.558594 C 22.277344 11.269531 22.964844 11.207031 23.175781 10.699219 Z M 23.175781 10.699219 "/>
<path style=" stroke:none;fill-rule:evenodd;fill:rgb(100%,100%,100%);fill-opacity:1;" d="M 15.953125 10.492188 C 16.039062 10.019531 16.242188 8.851562 14.917969 8.851562 C 13.671875 8.851562 13.507812 10.148438 13.507812 10.320312 C 13.46875 10.492188 13.46875 11.785156 14.792969 11.785156 C 15.125 11.785156 15.582031 11.742188 15.785156 11.660156 L 15.910156 11.050781 C 15.785156 11.09375 15.375 11.140625 15.039062 11.140625 C 14.75 11.140625 14.253906 11.140625 14.335938 10.492188 Z M 15.953125 10.492188 "/>
<path style=" stroke:none;fill-rule:evenodd;fill:rgb(4.313725%,51.764706%,76.862745%);fill-opacity:1;" d="M 14.335938 9.933594 L 15.289062 9.933594 C 15.398438 9.152344 14.484375 9.300781 14.335938 9.933594 Z M 14.335938 9.933594 "/>
</g>
</svg>
