<svg xmlns="http://www.w3.org/2000/svg" width="1868" height="1221"><rect id="backgroundrect" width="100%" height="100%" x="0" y="0" fill="none" stroke="none"/>
    
<g class="currentLayer" style=""><title>Layer 1</title><g id="group" class="">
        <path id="path" d="M1712.351,1221.1837583007812 L155.902,1221.1837583007812 C114.865,1221.5047583007813 75.44,1205.6287583007813 46.191,1176.9007583007813 C16.943,1148.2367583007813 0.32100000000000006,1109.1567583007813 0,1068.2167583007813 L0,152.97275830078127 C0.32100000000000006,112.09675830078126 16.943,72.95275830078126 46.191,44.28875830078124 C75.44,15.624758300781252 114.865,-0.31524169921874545 155.902,0.004758300781247726 L1712.351,0.004758300781247726 C1753.388,-0.31524169921874545 1792.813,15.624758300781252 1822.061,44.28875830078124 C1851.31,72.95275830078126 1867.932,112.09675830078126 1868.253,152.97275830078127 L1868.253,1068.8567583007812 C1867.222,1153.8287583007811 1797.518,1221.8917583007812 1712.351,1221.1837583007812 zM407.796,449.91175830078123 L375.583,595.1707583007812 C368.496,622.8067583007812 363.341,642.7307583007813 346.591,654.9427583007813 C337.253,662.2697583007813 325.657,666.1267583007813 313.737,665.8697583007812 C305.233,666.9617583007813 296.666,664.6467583007812 289.903,659.4427583007813 C283.329,654.2987583007813 279.402,646.5227583007812 278.949,638.2307583007813 L278.949,631.8057583007812 L285.391,594.5267583007812 C285.391,594.5267583007812 317.603,469.83875830078125 324.045,453.12675830078126 L324.045,451.19875830078126 C260.265,451.84275830078127 248.669,451.19875830078126 248.027,450.55475830078126 L246.094,459.55475830078126 L212.594,600.3107583007812 L210.019,611.8787583007812 L204.219,651.0867583007813 C204.219,661.3707583007813 206.152,671.0107583007813 211.306,680.0097583007813 C226.769,705.7177583007813 269.932,708.9307583007812 295.053,708.9307583007812 C323.399,710.2177583007813 351.103,703.7897583007813 376.229,690.9347583007813 C411.017,671.6537583007813 420.679,640.8027583007813 428.409,613.8067583007812 L432.275,599.6667583007812 L471.572,453.12675830078126 L472.217,451.19875830078126 C450.959,452.48275830078126 429.696,451.84275830078127 407.796,450.55475830078126 zM594.619,707.6457583007813 L595.264,707.6457583007813 L597.198,705.7177583007813 L610.081,644.6587583007813 L613.948,629.2347583007812 C621.032,600.3107583007812 624.253,585.5267583007812 619.102,572.6747583007813 C613.302,561.1027583007813 600.419,554.6787583007813 587.535,555.9627583007813 C574.648,555.9627583007813 562.41,559.1747583007813 550.814,564.3187583007813 L536.639,572.0307583007813 L541.148,556.6067583007813 L538.572,554.6787583007813 L478.014,564.3187583007813 L475.438,564.9627583007813 C471.572,595.2987583007813 465.776,625.3787583007812 458.042,654.9427583007813 L445.159,706.3617583007813 L447.092,708.9307583007812 C473.505,707.6457583007813 481.88,707.6457583007813 505.072,707.6457583007813 L507.005,705.7177583007813 L516.668,658.7987583007813 C519.889,645.3027583007813 526.331,614.4507583007812 529.552,603.5227583007812 C534.77,600.7627583007812 540.441,598.9627583007813 546.302,598.3827583007812 C559.831,598.3827583007812 557.898,609.3107583007812 557.256,613.8067583007812 C556.61,620.8787583007812 552.101,644.6587583007813 546.947,665.2267583007813 L543.726,678.0817583007813 L536.639,707.0027583007812 L537.927,708.9307583007812 C564.339,707.6457583007813 572.072,707.6457583007813 594.619,707.6457583007813 zM686.744,707.6457583007813 L688.032,707.0027583007812 L689.32,705.7177583007813 L693.186,686.4347583007813 L701.561,650.4427583007813 L708.649,619.5947583007812 L716.378,590.0267583007812 L716.378,587.4547583007812 C701.561,590.0267583007812 692.541,591.9547583007812 684.166,592.5987583007812 L652.599,597.0987583007812 L651.957,598.3827583007812 L650.669,599.0267583007812 L646.157,626.0187583007812 C642.743,646.2027583007813 637.974,666.1907583007812 631.986,685.7937583007813 L624.898,707.0027583007812 L626.186,707.0027583007812 L626.186,708.9307583007812 C639.073,707.6457583007813 647.444,707.6457583007813 655.82,707.6457583007813 zM831.05,631.1627583007812 C829.117,644.0147583007813 824.608,655.5857583007812 818.167,666.5107583007813 C814.364,672.5537583007813 807.923,676.4097583007813 800.771,676.7947583007813 C798.838,676.7947583007813 787.887,676.7947583007813 787.887,661.3707583007813 C787.887,653.0147583007813 789.175,644.6587583007813 791.108,636.3027583007813 C797.55,611.8787583007812 803.992,590.6707583007812 822.03,590.6707583007812 C836.204,590.6707583007812 837.492,606.0947583007812 831.05,631.1627583007812 zM884.522,575.8867583007813 C872.926,561.7467583007813 852.309,556.6067583007813 830.405,556.6067583007813 C805.668,555.7067583007813 781.445,563.6747583007813 762.116,579.1027583007813 C746.012,594.5267583007812 736.349,613.8067583007812 731.841,635.0187583007812 C726.687,655.5857583007812 721.532,691.5777583007813 756.966,705.7177583007813 C768.562,709.5737583007813 780.8,711.5017583007813 793.683,710.8587583007812 C820.1,712.1457583007813 846.513,702.5057583007813 865.838,683.8657583007813 C878.08,669.0827583007813 886.455,651.7297583007812 890.318,633.7337583007812 C898.693,600.9547583007812 892.251,584.8867583007813 883.876,575.8867583007813 zM1479.14,558.5347583007813 L1416.006,568.1747583007813 L1414.073,569.4587583007813 L1413.431,575.8867583007813 C1408.855,568.7547583007813 1402.092,563.3547583007812 1394.102,560.4627583007813 C1381.218,555.9627583007813 1352.872,561.7467583007813 1329.035,582.3147583007812 C1312.93,597.7387583007812 1302.622,617.0227583007812 1298.759,638.2307583007813 C1293.605,657.5137583007812 1288.451,694.1497583007813 1323.239,707.6457583007813 C1332.901,711.5017583007813 1343.852,713.4297583007813 1354.806,712.7867583007812 C1365.756,711.6947583007812 1376.128,707.1977583007813 1384.439,699.9337583007813 L1381.864,708.9307583007812 L1383.794,710.8587583007812 C1409.565,709.5737583007813 1416.652,709.5737583007813 1444.352,710.2177583007813 L1446.928,708.2897583007813 C1450.794,685.7937583007813 1454.661,663.9417583007812 1464.969,621.5227583007812 L1480.428,560.4627583007813 zM1367.689,679.3657583007813 C1365.756,679.3657583007813 1354.806,679.3657583007813 1354.806,663.9417583007812 C1354.806,655.5857583007812 1356.093,647.2307583007813 1358.026,639.5187583007812 C1364.468,614.4507583007812 1370.91,593.8827583007812 1388.948,593.8827583007812 C1400.544,593.8827583007812 1406.344,604.1667583007812 1405.056,620.8787583007812 L1401.835,634.3747583007812 L1396.035,656.2267583007813 C1394.491,660.7907583007812 1392.365,665.0977583007813 1389.593,669.0827583007813 C1383.926,675.2537583007812 1376.064,678.9177583007812 1367.689,679.3657583007813 zM1045.577,707.6457583007813 L1044.932,707.6457583007813 L1047.511,705.7177583007813 C1052.019,683.2227583007813 1052.665,676.7947583007813 1060.394,644.6587583007813 L1063.615,629.2347583007812 C1071.345,599.6667583007812 1074.569,585.5267583007812 1070.057,572.6747583007813 C1063.615,561.1027583007813 1050.732,554.6787583007813 1037.848,555.9627583007813 C1019.678,556.2187583007812 1001.961,561.8107583007812 986.952,572.0307583007813 L990.818,556.6067583007813 L988.885,554.6787583007813 C960.539,559.8187583007813 954.097,560.4627583007813 927.684,564.3187583007813 L925.751,564.9627583007813 C921.885,595.1707583007812 916.089,625.3787583007812 908.359,654.9427583007813 L895.472,706.3617583007813 L896.76,708.9307583007812 C923.818,707.6457583007813 931.551,707.6457583007813 954.743,707.6457583007813 L957.318,705.7177583007813 L966.981,658.7987583007813 C970.202,645.3027583007813 976.644,614.4507583007812 979.865,603.5227583007812 C985.083,600.7627583007812 990.754,598.9627583007813 996.615,598.3827583007812 C1009.502,598.3827583007812 1007.569,609.3107583007812 1007.569,613.8067583007812 C1004.99,631.1627583007812 1001.769,647.8737583007812 997.26,665.2267583007813 L994.039,678.0817583007813 L987.598,707.0027583007812 L987.598,708.9307583007812 C1014.656,707.6457583007813 1022.385,707.6457583007813 1045.577,707.6457583007813 zM1241.421,450.55475830078126 L1222.096,450.55475830078126 L1146.72,449.91175830078123 L1144.787,459.55475830078126 L1126.749,536.6827583007813 L1082.941,708.2897583007813 L1150.587,708.2897583007813 L1162.183,654.9427583007813 L1171.2,620.2347583007812 C1172.684,618.4347583007813 1174.421,616.9587583007813 1176.354,615.7347583007812 L1180.866,615.7347583007812 C1217.584,615.7347583007812 1258.817,615.7347583007812 1291.672,592.5987583007812 C1320.856,571.8387583007813 1338.376,538.4147583007813 1338.701,502.6147583007812 C1339.343,492.07475830078124 1336.379,481.6627583007812 1330.326,473.05075830078124 C1312.93,449.91175830078123 1279.43,449.91175830078123 1241.421,449.91175830078123 zM1234.979,568.8187583007813 C1222.096,574.6027583007813 1206.633,576.5307583007813 1191.816,575.2427583007812 L1182.154,575.2427583007812 L1182.154,572.0307583007813 L1201.479,495.5467583007812 L1201.479,487.83475830078123 L1209.212,488.4747583007812 L1249.151,491.6907583007812 C1263.971,497.4747583007812 1270.413,511.6147583007812 1265.901,530.2547583007813 C1262.038,547.1587583007813 1250.634,561.3627583007813 1234.979,568.8187583007813 zM716.378,545.0347583007813 C699.821,538.2227583007813 680.945,540.1507583007813 666.128,550.1787583007813 C650.669,559.8187583007813 648.736,573.9587583007813 661.619,581.0307583007813 C678.369,587.4547583007812 697.053,585.5267583007812 711.87,575.8867583007813 C726.687,565.6027583007813 728.62,552.1067583007813 716.378,545.0347583007813 zM1667.9,557.8907583007813 L1665.967,555.9627583007813 C1637.621,561.1027583007813 1632.467,562.3907583007813 1606.696,564.9627583007813 L1604.766,566.8907583007813 L1604.766,568.1747583007813 C1585.437,609.9507583007812 1586.083,600.3107583007812 1570.62,633.7337583007812 L1570.62,629.8747583007812 L1566.754,557.8907583007813 L1564.179,555.9627583007813 C1534.545,561.1027583007813 1533.899,562.3907583007813 1506.841,564.9627583007813 L1504.911,566.8907583007813 L1504.911,570.1027583007813 L1510.707,608.6667583007812 L1515.861,647.2307583007813 L1522.949,710.2177583007813 C1504.911,739.1377583007812 1501.045,750.0657583007812 1483.007,775.1337583007812 L1470.765,793.7697583007813 C1469.734,795.5057583007813 1468.126,796.8577583007813 1466.257,797.6257583007813 C1463.81,798.5937583007812 1461.167,799.0417583007812 1458.527,798.9137583007813 L1451.44,798.9137583007813 L1441.132,831.0497583007813 L1475.919,831.0497583007813 C1492.67,832.3337583007813 1508.132,823.9777583007813 1516.507,809.8377583007813 L1538.408,773.8457583007812 L1667.255,557.8907583007813 zM1667.9,557.8907583007813 " fill="#32325d" stroke-width="1" fill-rule="evenodd"/>
    </g></g></svg>