<svg xmlns="http://www.w3.org/2000/svg" width="1858" height="1218"><rect id="backgroundrect" width="100%" height="100%" x="0" y="0" fill="none" stroke="none"/>
    
<g class="currentLayer" style=""><title>Layer 1</title><g id="group_1_1" class="">
        <g id="group_1">
            <path id="path_1" d="M1702.954,1217.7847829589844 L155.046,1217.7847829589844 C128.072,1218.0397829589845 101.485,1211.1187829589844 77.974,1197.8517829589844 C54.522,1184.5207829589845 34.916,1165.2907829589844 21.27,1141.9607829589843 C7.559,1118.6967829589844 0.19200000000000003,1092.2237829589844 0,1065.2427829589844 L0,152.54578295898438 C0.19200000000000003,125.56478295898438 7.559,99.09178295898437 21.27,75.82878295898436 C34.916,52.56178295898437 54.522,33.267782958984384 77.974,20.000782958984388 C101.485,6.669782958984371 128.072,-0.18721704101562864 155.046,0.004782958984378638 L1702.954,0.004782958984378638 C1729.928,-0.18721704101562864 1756.515,6.669782958984371 1780.026,20.000782958984388 C1803.478,33.267782958984384 1823.084,52.56178295898437 1836.73,75.82878295898436 C1850.441,99.09178295898437 1857.809,125.56478295898438 1858,152.54578295898438 L1858,1065.8807829589844 C1857.489,1106.5827829589844 1840.895,1145.4227829589843 1811.807,1173.8797829589844 C1782.783,1202.3397829589844 1743.638,1218.1037829589843 1702.954,1217.7847829589844 zM1702.954,1217.7847829589844 " fill="#f6f9fc" stroke-width="1"/>
            <path id="path_1_1" d="M0,1025.5017829589844 L0,1065.8807829589844 C0.511,1106.5827829589844 17.105,1145.4227829589843 46.193,1173.8797829589844 C75.217,1202.3397829589844 114.362,1218.1037829589843 155.046,1217.7847829589844 L1702.954,1217.7847829589844 C1729.928,1218.0397829589845 1756.515,1211.1187829589844 1780.026,1197.8517829589844 C1803.478,1184.5207829589845 1823.084,1165.2907829589844 1836.73,1141.9607829589843 C1850.441,1118.6967829589844 1857.809,1092.2237829589844 1858,1065.2427829589844 L1858,1025.5017829589844 zM0,1025.5017829589844 " fill="#f99f1b" stroke-width="1"/>
            <path id="path_2" d="M0,192.28678295898436 L0,151.9077829589844 C0.511,111.26978295898436 17.105,72.36578295898437 46.193,43.90978295898438 C75.217,15.449782958984372 114.362,-0.31521704101562875 155.046,0.004782958984378638 L1702.954,0.004782958984378638 C1729.928,-0.18721704101562864 1756.515,6.669782958984371 1780.026,20.000782958984388 C1803.478,33.267782958984384 1823.084,52.56178295898437 1836.73,75.82878295898436 C1850.441,99.09178295898437 1857.809,125.56478295898438 1858,152.54578295898438 L1858,192.28678295898436 zM890.558,392.25578295898435 L795.738,826.1707829589843 L682.334,826.1707829589843 L775.877,392.25578295898435 zM1369.155,672.9877829589843 L1429.378,509.5477829589844 L1463.975,672.9877829589843 zM1496.653,826.8127829589844 L1601.724,826.8127829589844 L1509.465,392.25578295898435 L1412.719,392.25578295898435 C1402.34,392.00078295898436 1392.092,394.94878295898434 1383.376,400.71678295898437 C1374.664,406.42378295898436 1367.938,414.62578295898436 1364.029,424.3057829589844 L1192.963,826.1707829589843 L1312.774,826.1707829589843 L1336.477,762.0777829589844 L1482.555,762.0777829589844 L1496.653,826.1707829589843 zM1199.37,684.5227829589844 C1199.37,570.4377829589844 1038.559,564.0277829589844 1039.197,512.7547829589844 C1039.84,497.37078295898436 1055.217,480.70878295898433 1087.892,476.2207829589844 C1126.334,472.56778295898437 1165.031,479.23278295898433 1200.012,495.44778295898436 L1219.873,403.7957829589843 C1192.963,394.17878295898436 1157.728,384.56578295898436 1113.517,384.56578295898436 C1000.759,384.56578295898436 921.313,443.5327829589844 921.313,528.1357829589844 C920.671,590.3067829589844 977.694,625.5597829589843 1020.62,646.0707829589844 C1065.465,667.2197829589844 1080.204,681.3197829589843 1080.204,699.9077829589844 C1079.562,729.3897829589844 1044.323,742.2097829589844 1011.649,742.2097829589844 C953.987,743.4907829589844 921.313,727.4667829589844 895.045,715.2887829589844 L873.9,810.1477829589844 C900.81,822.3257829589844 950.142,832.5807829589844 1000.759,833.2227829589843 C1120.566,833.2227829589843 1198.731,775.5367829589844 1199.37,684.5227829589844 zM727.182,392.25578295898435 L542.665,826.8127829589844 L422.855,826.8127829589844 L331.876,480.70878295898433 C326.112,459.5557829589844 320.986,451.86578295898437 304.328,442.25178295898434 C268.578,425.5227829589844 230.906,413.28078295898433 192.208,405.71778295898434 L194.769,392.8977829589844 L388.9,392.8977829589844 C413.245,392.8977829589844 435.667,409.56378295898435 441.435,437.76478295898437 L489.487,688.3717829589843 L608.014,393.5407829589843 L727.182,393.5407829589843 zM727.182,392.25578295898435 " fill="#2d4990" stroke-width="1"/>
        </g>
    </g></g></svg>